<svg width="269" height="71" viewBox="0 0 269 71" fill="none" xmlns="http://www.w3.org/2000/svg">
<g clip-path="url(#clip0_26_100)">
<path d="M70.5 23.2H74.4V41H74.5C75.5667 39.7333 76.8 38.75 78.2 38.05C79.6333 37.35 81.2 37 82.9 37C84.7333 37 86.4 37.3167 87.9 37.95C89.4333 38.55 90.7333 39.4 91.8 40.5C92.8667 41.6 93.7 42.9 94.3 44.4C94.9 45.9 95.2 47.5333 95.2 49.3C95.2 51.0667 94.9 52.7 94.3 54.2C93.7 55.7 92.8667 57 91.8 58.1C90.7667 59.2 89.5333 60.0667 88.1 60.7C86.6667 61.3 85.1333 61.6 83.5 61.6C81.4 61.6 79.55 61.15 77.95 60.25C76.3833 59.3167 75.2333 58.1833 74.5 56.85H74.4V61H70.5V23.2ZM74.4 49.3C74.4 50.5333 74.5833 51.6833 74.95 52.75C75.35 53.7833 75.9167 54.7 76.65 55.5C77.3833 56.2667 78.25 56.8833 79.25 57.35C80.2833 57.7833 81.4333 58 82.7 58C83.9667 58 85.1 57.7833 86.1 57.35C87.1333 56.8833 88.0167 56.2667 88.75 55.5C89.4833 54.7 90.0333 53.7833 90.4 52.75C90.8 51.6833 91 50.5333 91 49.3C91 48.0667 90.8 46.9333 90.4 45.9C90.0333 44.8333 89.4833 43.9167 88.75 43.15C88.0167 42.35 87.1333 41.7333 86.1 41.3C85.1 40.8333 83.9667 40.6 82.7 40.6C81.4333 40.6 80.2833 40.8333 79.25 41.3C78.25 41.7333 77.3833 42.35 76.65 43.15C75.9167 43.9167 75.35 44.8333 74.95 45.9C74.5833 46.9333 74.4 48.0667 74.4 49.3ZM101.266 23.2H105.166V40.85H105.266C105.533 40.3833 105.9 39.9333 106.366 39.5C106.833 39.0333 107.383 38.6167 108.016 38.25C108.683 37.8833 109.416 37.5833 110.216 37.35C111.016 37.1167 111.866 37 112.766 37C114.3 37 115.616 37.2333 116.716 37.7C117.85 38.1667 118.783 38.8167 119.516 39.65C120.25 40.4833 120.783 41.5 121.116 42.7C121.483 43.8667 121.666 45.15 121.666 46.55V61H117.766V46.95C117.766 44.9833 117.333 43.4333 116.466 42.3C115.6 41.1667 114.25 40.6 112.416 40.6C111.15 40.6 110.05 40.8167 109.116 41.25C108.216 41.6833 107.466 42.3 106.866 43.1C106.3 43.9 105.866 44.85 105.566 45.95C105.3 47.05 105.166 48.2667 105.166 49.6V61H101.266V23.2ZM128.75 40.6C129.95 39.3667 131.366 38.4667 133 37.9C134.666 37.3 136.35 37 138.05 37C141.516 37 144.016 37.8167 145.55 39.45C147.083 41.0833 147.85 43.5667 147.85 46.9V56.95C147.85 57.6167 147.883 58.3167 147.95 59.05C148.016 59.75 148.1 60.4 148.2 61H144.45C144.316 60.4667 144.233 59.8833 144.2 59.25C144.2 58.5833 144.2 58 144.2 57.5H144.1C143.333 58.7 142.3 59.6833 141 60.45C139.733 61.2167 138.2 61.6 136.4 61.6C135.2 61.6 134.066 61.45 133 61.15C131.966 60.85 131.05 60.4167 130.25 59.85C129.483 59.25 128.866 58.5167 128.4 57.65C127.933 56.7833 127.7 55.7833 127.7 54.65C127.7 52.7167 128.2 51.2 129.2 50.1C130.2 49 131.433 48.1833 132.9 47.65C134.4 47.1167 136 46.7833 137.7 46.65C139.433 46.5167 141.016 46.45 142.45 46.45H143.95V45.75C143.95 44.05 143.433 42.7667 142.4 41.9C141.4 41.0333 139.983 40.6 138.15 40.6C136.883 40.6 135.633 40.8167 134.4 41.25C133.2 41.65 132.133 42.2833 131.2 43.15L128.75 40.6ZM140.05 49.75C137.55 49.75 135.566 50.1 134.1 50.8C132.633 51.5 131.9 52.65 131.9 54.25C131.9 55.7167 132.383 56.7667 133.35 57.4C134.35 58 135.583 58.3 137.05 58.3C138.183 58.3 139.166 58.1167 140 57.75C140.866 57.35 141.583 56.8333 142.15 56.2C142.716 55.5667 143.15 54.8333 143.45 54C143.75 53.1333 143.916 52.2167 143.95 51.25V49.75H140.05ZM165.627 61H161.327L151.777 37.6H156.327L163.627 55.95H163.727L170.677 37.6H174.877L165.627 61ZM178.638 55.3C179.471 55.3 180.171 55.6 180.738 56.2C181.338 56.7667 181.638 57.4667 181.638 58.3C181.638 59.1333 181.321 59.85 180.688 60.45C180.088 61.0167 179.404 61.3 178.638 61.3C177.871 61.3 177.171 61.0167 176.538 60.45C175.938 59.85 175.638 59.1333 175.638 58.3C175.638 57.4667 175.921 56.7667 176.488 56.2C177.088 55.6 177.804 55.3 178.638 55.3ZM189.304 43.15C189.304 42.0833 189.27 41.0833 189.204 40.15C189.137 39.2167 189.104 38.3667 189.104 37.6H192.804C192.804 38.2333 192.82 38.8667 192.854 39.5C192.887 40.1333 192.904 40.7833 192.904 41.45H193.004C193.27 40.8833 193.637 40.3333 194.104 39.8C194.604 39.2667 195.187 38.8 195.854 38.4C196.52 37.9667 197.27 37.6333 198.104 37.4C198.937 37.1333 199.837 37 200.804 37C202.07 37 203.12 37.1667 203.954 37.5C204.82 37.8 205.537 38.1833 206.104 38.65C206.67 39.0833 207.104 39.5667 207.404 40.1C207.737 40.6 208.004 41.05 208.204 41.45C209.07 40.05 210.07 38.9667 211.204 38.2C212.337 37.4 213.804 37 215.604 37C217.27 37 218.67 37.2333 219.804 37.7C220.937 38.1333 221.854 38.7833 222.554 39.65C223.254 40.4833 223.754 41.5167 224.054 42.75C224.354 43.95 224.504 45.3 224.504 46.8V61H220.604V47C220.604 46.2 220.52 45.4167 220.354 44.65C220.187 43.8833 219.887 43.2 219.454 42.6C219.02 42 218.437 41.5167 217.704 41.15C216.97 40.7833 216.037 40.6 214.904 40.6C214.07 40.6 213.287 40.7667 212.554 41.1C211.82 41.4333 211.17 41.9 210.604 42.5C210.07 43.1 209.637 43.8333 209.304 44.7C209.004 45.5333 208.854 46.4667 208.854 47.5V61H204.954V47.75C204.954 45.15 204.604 43.3167 203.904 42.25C203.204 41.15 202.054 40.6 200.454 40.6C199.187 40.6 198.087 40.8167 197.154 41.25C196.254 41.6833 195.504 42.3 194.904 43.1C194.337 43.9 193.904 44.85 193.604 45.95C193.337 47.05 193.204 48.2667 193.204 49.6V61H189.304V43.15ZM252.782 56.75C251.382 58.55 249.848 59.8167 248.182 60.55C246.515 61.25 244.582 61.6 242.382 61.6C240.548 61.6 238.898 61.2833 237.432 60.65C235.965 59.9833 234.715 59.1 233.682 58C232.682 56.9 231.898 55.6 231.332 54.1C230.798 52.6 230.532 51 230.532 49.3C230.532 47.5 230.832 45.85 231.432 44.35C232.032 42.8167 232.865 41.5167 233.932 40.45C234.998 39.35 236.265 38.5 237.732 37.9C239.198 37.3 240.798 37 242.532 37C244.165 37 245.665 37.2833 247.032 37.85C248.398 38.3833 249.565 39.1833 250.532 40.25C251.532 41.2833 252.298 42.5667 252.832 44.1C253.365 45.6 253.632 47.3167 253.632 49.25V50.5H234.732C234.798 51.5 235.032 52.4667 235.432 53.4C235.865 54.3 236.415 55.1 237.082 55.8C237.748 56.4667 238.532 57 239.432 57.4C240.332 57.8 241.315 58 242.382 58C244.082 58 245.515 57.7 246.682 57.1C247.848 56.5 248.898 55.6167 249.832 54.45L252.782 56.75ZM249.432 47.2C249.365 45.2 248.715 43.6 247.482 42.4C246.248 41.2 244.548 40.6 242.382 40.6C240.215 40.6 238.465 41.2 237.132 42.4C235.798 43.6 234.998 45.2 234.732 47.2H249.432Z" fill="black"/>
<path d="M29.6513 32.2963C28.0499 30.8725 26.8859 28.5983 26.2863 26.6176C24.9459 22.1949 25.9782 17.6952 29.0258 14.158C29.0985 14.0734 29.2003 14.0185 29.3115 14.0039C29.4226 13.9893 29.5353 14.016 29.6278 14.0788C29.8034 14.1984 30.0025 14.3902 30.2251 14.6543C34.3779 19.5501 34.6201 26.2051 30.8177 31.3898C30.5229 31.7922 30.2188 32.0998 29.9053 32.3126C29.8159 32.3716 29.7313 32.3662 29.6513 32.2963Z" fill="black"/>
<path d="M35.8217 43.5488C26.5826 47.8084 16.2241 41.5472 15.2388 31.7114C15.1377 30.7234 15.5939 30.3482 16.5604 30.4601C22.8977 31.1987 27.8712 35.4677 29.4162 41.6147C29.4286 41.661 29.4493 41.7044 29.4773 41.7429C29.62 41.9371 29.761 41.9821 29.9006 41.878C29.9507 41.8408 29.9907 41.7778 30.0205 41.6893C30.3732 40.6058 30.7283 39.4546 31.2386 38.4806C33.6168 33.946 37.3933 31.2857 42.5682 30.4997C43.5676 30.3482 44.4212 30.4997 44.2802 31.73C43.6758 37.0033 40.6118 41.3398 35.8217 43.5488Z" fill="black"/>
<path d="M29.5996 59.5946C29.6653 59.6127 29.7341 59.6175 29.8018 59.6087C29.8695 59.5999 29.9348 59.5777 29.9937 59.5433C30.0527 59.509 30.1042 59.4633 30.1452 59.4088C30.1861 59.3544 30.2157 59.2924 30.2321 59.2264C32.6048 49.6679 40.2755 43.3414 50.0884 42.456C51.3629 42.3395 51.5605 42.9803 51.4523 44.0801C50.0085 58.9305 34.6154 68.5892 20.5109 61.9551C13.2259 58.5297 8.28063 51.355 8.0008 43.3834C7.97493 42.675 8.58398 42.4094 9.2377 42.4513C19.0459 43.0665 26.9024 49.8194 29.2609 59.1472C29.3252 59.4004 29.4381 59.5495 29.5996 59.5946Z" fill="black"/>
</g>
<defs>
<clipPath id="clip0_26_100">
<rect width="269" height="71" fill="white"/>
</clipPath>
</defs>
</svg>
