<svg width="150" height="172" viewBox="0 0 150 172" fill="none" xmlns="http://www.w3.org/2000/svg">
<g filter="url(#filter0_i_147_3711)">
<path d="M71.7902 15.2788C71.9767 13.8561 73.469 8.32344 75.0719 8.01677C75.4281 7.94933 75.7063 8.08528 75.9065 8.42462C76.2901 9.06746 76.6136 9.74087 76.8771 10.4448C78.5021 14.7951 79.0902 19.0063 77.9552 23.6506C77.6138 25.0417 76.7791 27.005 75.2805 27.3622C74.5365 27.5393 73.9263 27.2685 73.45 26.5497C71.3381 23.3661 71.2875 19.0885 71.7902 15.2788Z" fill="#EF8421"/>
<path d="M57.5632 13.382C57.6054 12.8909 57.7571 12.4914 58.0185 12.1837C58.0923 12.0973 58.186 12.0509 58.2999 12.0446C59.3716 11.9687 61.0093 13.638 61.8756 14.46C65.113 17.5267 68.7203 23.7708 66.4155 28.3202C65.4133 30.2962 63.782 28.9652 62.7102 27.9978C58.654 24.3398 57.0858 18.7566 57.5632 13.382Z" fill="#EF8421"/>
<path d="M92.3592 17.8081C91.965 21.6377 90.4875 24.8804 87.9267 27.5361C87.1015 28.3961 84.8663 30.0179 83.7534 28.728C82.571 27.3559 83.0737 24.3714 83.3993 22.7717C83.6301 21.6556 84.0917 20.7103 84.528 19.6354C85.5966 17.0019 88.7139 13.6728 91.3159 12.1963C91.4065 12.1457 91.5024 12.1289 91.6035 12.1457C92.101 12.2258 92.375 12.4756 92.4256 12.895C92.5836 14.2102 92.5615 15.8479 92.3592 17.8081Z" fill="#EF8421"/>
<path d="M55.9128 27.4286C57.07 28.9493 58.0247 31.0106 57.9141 32.9613C57.7086 36.5686 52.5743 33.5683 51.2053 32.3796C47.97 29.5721 45.7833 26.0944 44.6451 21.9465C44.3859 21.0012 44.8411 19.8946 45.9951 20.2867C50.0376 21.663 53.3436 24.0436 55.9128 27.4286Z" fill="#EF8421"/>
<path d="M105.309 20.4954C105.414 20.5576 105.498 20.6504 105.549 20.7616C105.601 20.8728 105.617 20.9971 105.597 21.1182C104.789 25.8141 102.574 29.6544 98.951 32.6389C97.6042 33.7454 93.6301 35.813 92.4793 33.8402C91.5751 32.2974 92.9061 29.3097 93.8388 27.9977C96.0434 24.8952 98.8899 22.5672 102.378 21.0139C103.001 20.7388 104.705 20.1381 105.309 20.4954Z" fill="#EF8421"/>
<path d="M35.9257 32.3606C40.2285 32.3606 44.2405 33.837 47.6866 36.3757C49.1662 37.4696 51.4551 40.1412 50.8797 42.1519C50.6901 42.8095 49.8997 43.1288 49.3053 43.2047C45.7138 43.6631 41.803 41.5101 39.1662 39.2022C38.1704 38.3327 33.0898 33.7548 34.9013 32.5819C35.129 32.4344 35.4704 32.3606 35.9257 32.3606Z" fill="#EF8421"/>
<path d="M99.1312 41.7568C99.0806 39.139 102.277 36.4011 104.376 35.1997C107.142 33.6148 110.151 32.6842 113.406 32.4081C114.942 32.2753 116.551 32.5978 115.179 34.5643C112.252 38.7596 106.39 43.7928 100.838 43.0277C100.184 42.936 99.147 42.5725 99.1312 41.7568Z" fill="#EF8421"/>
<path d="M45.2933 54.542C40.9904 56.6033 34.9171 54.5325 31.1296 52.2309C30.2633 51.7029 28.907 50.7734 29.005 49.7617C29.0156 49.6627 29.0567 49.5773 29.1283 49.5057C30.7787 47.8901 35.9383 47.947 38.3916 48.1241C41.0189 48.3106 45.0372 49.5215 46.4852 51.9717C47.0922 52.996 46.2038 54.1057 45.2933 54.542Z" fill="#EF8421"/>
<path d="M120.313 51.1592C116.975 53.6568 113.168 55.2913 109.074 55.2375C107.373 55.2154 105.653 55.0637 104.43 54.0836C102.941 52.8948 104.038 51.254 105.233 50.4668C109.425 47.6941 114.828 47.5234 119.457 48.7659C119.842 48.8691 120.306 49.1263 120.848 49.5373C120.938 49.6068 120.99 49.6985 121.003 49.8123C121.06 50.3224 120.83 50.7713 120.313 51.1592Z" fill="#EF8421"/>
<path d="M36.735 69.7585C34.4966 69.8249 32.0843 69.7396 29.9566 68.984C27.5633 68.1367 30.943 65.8287 31.765 65.3482C35.1131 63.3849 38.7963 61.94 42.7387 62.0444C44.1646 62.0823 46.9057 62.9138 46.599 64.7159C46.3872 65.9615 44.7368 67.2483 43.6651 67.849C41.5131 69.0504 39.2031 69.6869 36.735 69.7585Z" fill="#EF8421"/>
<path d="M120.001 68.946C115.337 70.3719 108.29 70.3118 104.537 66.5243C103.782 65.7623 102.976 64.3807 103.937 63.4671C104.632 62.8031 105.378 62.3827 106.378 62.253C111.471 61.6049 117.101 64.2733 120.829 67.4822C120.876 67.5228 120.915 67.5732 120.941 67.63C120.967 67.6868 120.981 67.7485 120.981 67.811C120.987 68.3653 120.66 68.7437 120.001 68.946Z" fill="#EF8421"/>
<path d="M43.2099 74.4629C45.1163 73.4796 47.7657 72.5659 49.8649 73.1192C52.2013 73.7357 50.3929 76.7455 49.5551 77.852C47.8194 80.1473 45.2269 81.9431 42.4985 82.8789C40.3803 83.6029 37.7309 84.27 35.3819 84.2858C35.0109 84.29 34.7433 84.2015 34.5789 84.0202C34.3407 83.7567 34.3312 83.4185 34.5504 83.0053C36.5464 79.2579 39.4329 76.4104 43.2099 74.4629Z" fill="#EF8421"/>
<path d="M99.2546 74.5135C99.302 72.7241 102.056 72.9644 103.156 73.1952C105.141 73.6104 106.942 74.4292 108.559 75.6517C110.958 77.4643 113.073 79.5625 114.904 81.9463C115.309 82.4743 115.875 83.4386 115.378 84.1309C115.317 84.2174 115.234 84.2627 115.129 84.2669C113.2 84.3617 111.452 83.9982 109.507 83.5145C106.622 82.7936 104.082 81.3941 101.888 79.3159C100.655 78.1461 99.2071 76.2492 99.2546 74.5135Z" fill="#EF8421"/>
<path d="M44.895 93.6598C45.6074 91.2655 46.6833 89.0482 48.1229 87.008C49.2505 85.4103 50.6637 84.132 52.3625 83.173C53.7283 82.3984 57.2313 81.0706 57.5633 83.6788C57.6729 84.5493 57.5158 85.4735 57.0922 86.4515C54.974 91.3582 50.3075 94.6399 45.4546 96.4799C45.4085 96.497 45.3596 96.5047 45.3108 96.5025C45.2619 96.5003 45.214 96.4883 45.17 96.4673C44.6789 96.227 44.4608 95.8128 44.5156 95.2248C44.5409 94.9445 44.6673 94.4228 44.895 93.6598Z" fill="#EF8421"/>
<path d="M105.106 93.4321C105.34 94.3047 106.276 97.2291 104.073 96.3217C99.6433 94.4975 95.821 91.6047 93.3834 87.4315C92.5298 85.9709 91.4043 82.3256 94.3066 82.2086C95.1518 82.1749 95.9306 82.3109 96.643 82.6165C100.996 84.4786 103.921 89.0028 105.106 93.4321Z" fill="#EF8421"/>
<path d="M66.406 94.9055C65.2394 98.5697 62.5647 101.488 59.7415 103.932C59.4569 104.175 59.125 104.311 58.7993 104.469C58.7164 104.509 58.6259 104.53 58.5339 104.531C58.4419 104.533 58.3507 104.514 58.2665 104.476C58.1824 104.439 58.1073 104.383 58.0464 104.314C57.9856 104.244 57.9404 104.163 57.9141 104.074C57.8719 103.933 57.814 103.796 57.7402 103.663C57.7193 103.623 57.7054 103.579 57.6991 103.533C57.4378 101.04 57.5252 98.8237 57.9615 96.8846C58.2376 95.6538 58.8109 94.1952 59.6814 92.5091C60.7289 90.4709 62.2391 88.868 64.2119 87.7004C65.095 87.1756 65.7863 87.3652 66.2859 88.2694C67.3323 90.1727 67.0383 92.9106 66.406 94.9055Z" fill="#EF8421"/>
<path d="M87.9046 89.0282C91.455 92.6797 92.8808 97.5643 92.4129 102.658C92.2232 104.703 91.3538 104.82 89.9469 103.543C87.4019 101.235 85.4797 99.2273 84.0949 95.7527C83.412 94.0371 83.1412 92.0969 83.2824 89.9323C83.3224 89.3253 83.4078 88.8732 83.5385 88.576C84.528 86.3598 86.8043 87.8963 87.9046 89.0282Z" fill="#EF8421"/>
<path d="M77.0984 104.788C76.7253 105.769 76.1816 108.453 74.6387 107.934C74.5418 107.903 74.4638 107.845 74.4048 107.76C72.9094 105.677 72.2613 102.61 71.9103 100.356C71.7059 99.0386 71.6901 97.3019 71.8629 95.1457C71.9957 93.4764 72.5289 91.9515 73.4626 90.571C75.3722 87.7382 76.8297 90.5488 77.5537 92.2592C78.0532 93.4396 78.3472 95.0614 78.4358 97.1249C78.5432 99.6119 78.0975 102.166 77.0984 104.788Z" fill="#EF8421"/>
</g>
<g filter="url(#filter1_i_147_3711)">
<path fill-rule="evenodd" clip-rule="evenodd" d="M75.0376 82C88.8447 82 100.038 70.8071 100.038 57C100.038 43.1929 88.8447 32 75.0376 32C61.2305 32 50.0376 43.1929 50.0376 57C50.0376 70.8071 61.2305 82 75.0376 82ZM75.0376 77C86.0833 77 95.0376 68.0457 95.0376 57C95.0376 45.9543 86.0833 37 75.0376 37C63.9919 37 55.0376 45.9543 55.0376 57C55.0376 68.0457 63.9919 77 75.0376 77Z" fill="#EF8421"/>
</g>
<g filter="url(#filter2_i_147_3711)">
<path d="M126.062 149.781C126.024 149.697 125.962 149.626 125.884 149.576C125.806 149.526 125.715 149.501 125.622 149.502L112.767 149.671C112.62 149.674 112.488 149.722 112.373 149.815C111.875 150.216 111.51 150.729 111.275 151.353C110.457 153.539 109.462 156.196 107.131 156.738C104.903 157.255 103.119 155.298 104.03 153.065C105.398 149.697 106.89 146.468 108.127 143.036C108.356 142.396 108.873 141.765 109.055 141.269C110.182 138.156 111.008 136.089 111.534 135.066C113.576 131.083 114.686 127.668 116.66 124.08C119.139 119.576 121.385 123.414 122.486 125.969C126.249 134.681 129.998 143.397 133.736 152.12C134.151 153.09 134.702 154.086 134.367 154.815C133.291 157.145 130.926 157.556 129.032 155.887C127.194 154.26 126.99 151.904 126.062 149.781ZM114.673 143.443C114.664 143.463 114.66 143.485 114.661 143.507C114.663 143.529 114.67 143.55 114.682 143.568C114.693 143.587 114.71 143.602 114.729 143.613C114.748 143.623 114.77 143.629 114.792 143.629L123.423 143.688C123.444 143.688 123.465 143.682 123.484 143.672C123.503 143.662 123.519 143.647 123.53 143.629C123.542 143.611 123.549 143.59 123.551 143.569C123.553 143.548 123.55 143.526 123.541 143.506L119.296 133.477C119.285 133.455 119.268 133.436 119.247 133.423C119.226 133.409 119.202 133.402 119.177 133.402C119.152 133.402 119.128 133.409 119.107 133.423C119.086 133.436 119.069 133.455 119.059 133.477L114.673 143.443Z" fill="#553918"/>
<path d="M27.8529 128.211C27.723 128.154 27.5394 128.123 27.3021 128.117C24.9011 128.041 22.5002 128.017 20.0992 128.045C18.0273 128.075 15.9257 127.291 16.002 125.012C16.0571 123.393 17.4172 122.16 18.9849 122.156C26.1934 122.139 33.402 122.14 40.6105 122.16C42.6697 122.169 44.1272 121.978 45.1568 123.508C46.6228 125.681 45.2755 128.028 42.5553 127.982C39.9397 127.94 37.3777 127.954 34.8694 128.024C34.6843 128.03 34.5086 128.107 34.3797 128.24C34.2507 128.373 34.1787 128.551 34.1788 128.736C34.1646 136.752 34.1745 144.719 34.2084 152.637C34.2141 154.001 34.0672 154.96 33.7678 155.514C32.6958 157.51 29.1749 156.916 28.4122 154.857C28.2512 154.419 28.1735 153.565 28.1792 152.294C28.2244 144.447 28.2328 136.599 28.2046 128.749C28.2046 128.495 28.0874 128.315 27.8529 128.211Z" fill="#553918"/>
<path d="M60.0287 150.709C64.26 150.757 68.5337 150.756 72.8498 150.705C73.8455 150.692 75.0361 150.675 75.8666 151.188C77.9215 152.455 77.7139 155.539 75.3327 156.294C74.6802 156.5 73.8526 156.606 72.8498 156.611C68.2569 156.637 63.664 156.652 59.0711 156.658C57.5882 156.658 56.4978 156.462 55.8001 156.069C54.4245 155.289 53.7282 153.967 53.7113 152.103C53.6717 147.476 53.6619 139.316 53.6816 127.622C53.6845 125.975 53.861 124.81 54.2113 124.126C54.8581 122.872 55.9866 122.217 57.5966 122.16C60.2264 122.061 65.4619 122.085 73.3032 122.232C75.1632 122.27 77.0487 122.779 77.2817 124.766C77.5529 127.071 75.6971 128.079 73.6972 128.075C69.2936 128.058 64.873 128.057 60.4354 128.071C60.2433 128.071 60.059 128.147 59.9231 128.283C59.7872 128.419 59.7109 128.603 59.7109 128.795L59.7151 136.108C59.7151 136.276 59.7807 136.437 59.898 136.556C60.0152 136.676 60.1747 136.745 60.3422 136.748C63.6499 136.816 66.9025 136.817 70.1 136.752C71.4078 136.724 72.3583 136.892 72.9515 137.257C74.6675 138.307 74.5573 141.392 72.6803 142.324C72.2086 142.559 71.4573 142.679 70.4263 142.684C67.1186 142.698 63.7459 142.704 60.3083 142.701C60.2278 142.701 60.1481 142.717 60.0738 142.748C59.9995 142.779 59.9321 142.824 59.8754 142.881C59.8187 142.939 59.7738 143.006 59.7434 143.081C59.713 143.155 59.6976 143.235 59.6982 143.316L59.749 150.425C59.7501 150.5 59.7799 150.572 59.8321 150.625C59.8843 150.678 59.9548 150.708 60.0287 150.709Z" fill="#553918"/>
<path d="M80.468 164.39C84.9423 168.577 91.5139 164.234 91.48 158.776C91.3726 143.159 91.3317 132.037 91.3571 125.41C91.3656 123.94 92.0774 122.393 93.6705 122.135C96.3483 121.703 97.094 124.808 97.1025 126.825C97.1491 137.613 97.0177 147.222 97.1152 159.2C97.1745 166.954 91.0224 172.623 83.2263 171.945C80.3112 171.694 77.9569 170.507 76.1632 168.386C74.8964 166.89 74.7015 164.272 76.6547 163.234C78.2436 162.391 79.1884 163.191 80.468 164.39Z" fill="#553918"/>
</g>
<defs>
<filter id="filter0_i_147_3711" x="29" y="8" width="92.0111" height="104" filterUnits="userSpaceOnUse" color-interpolation-filters="sRGB">
<feFlood flood-opacity="0" result="BackgroundImageFix"/>
<feBlend mode="normal" in="SourceGraphic" in2="BackgroundImageFix" result="shape"/>
<feColorMatrix in="SourceAlpha" type="matrix" values="0 0 0 0 0 0 0 0 0 0 0 0 0 0 0 0 0 0 127 0" result="hardAlpha"/>
<feOffset dy="4"/>
<feGaussianBlur stdDeviation="2"/>
<feComposite in2="hardAlpha" operator="arithmetic" k2="-1" k3="1"/>
<feColorMatrix type="matrix" values="0 0 0 0 0 0 0 0 0 0 0 0 0 0 0 0 0 0 0.25 0"/>
<feBlend mode="normal" in2="shape" result="effect1_innerShadow_147_3711"/>
</filter>
<filter id="filter1_i_147_3711" x="50.0376" y="32" width="50" height="54" filterUnits="userSpaceOnUse" color-interpolation-filters="sRGB">
<feFlood flood-opacity="0" result="BackgroundImageFix"/>
<feBlend mode="normal" in="SourceGraphic" in2="BackgroundImageFix" result="shape"/>
<feColorMatrix in="SourceAlpha" type="matrix" values="0 0 0 0 0 0 0 0 0 0 0 0 0 0 0 0 0 0 127 0" result="hardAlpha"/>
<feOffset dy="4"/>
<feGaussianBlur stdDeviation="2"/>
<feComposite in2="hardAlpha" operator="arithmetic" k2="-1" k3="1"/>
<feColorMatrix type="matrix" values="0 0 0 0 0 0 0 0 0 0 0 0 0 0 0 0 0 0 0.25 0"/>
<feBlend mode="normal" in2="shape" result="effect1_innerShadow_147_3711"/>
</filter>
<filter id="filter2_i_147_3711" x="16" y="122" width="118.47" height="54" filterUnits="userSpaceOnUse" color-interpolation-filters="sRGB">
<feFlood flood-opacity="0" result="BackgroundImageFix"/>
<feBlend mode="normal" in="SourceGraphic" in2="BackgroundImageFix" result="shape"/>
<feColorMatrix in="SourceAlpha" type="matrix" values="0 0 0 0 0 0 0 0 0 0 0 0 0 0 0 0 0 0 127 0" result="hardAlpha"/>
<feOffset dy="4"/>
<feGaussianBlur stdDeviation="2"/>
<feComposite in2="hardAlpha" operator="arithmetic" k2="-1" k3="1"/>
<feColorMatrix type="matrix" values="0 0 0 0 0 0 0 0 0 0 0 0 0 0 0 0 0 0 0.25 0"/>
<feBlend mode="normal" in2="shape" result="effect1_innerShadow_147_3711"/>
</filter>
</defs>
</svg>
