<svg width="100" height="100" viewBox="0 0 100 100" fill="none" xmlns="http://www.w3.org/2000/svg">
<g filter="url(#filter0_i_147_3651)">
<path d="M46.7902 7.27884C46.9767 5.85614 48.469 0.323444 50.0719 0.016774C50.4281 -0.0506722 50.7063 0.0852767 50.9065 0.424616C51.2901 1.06746 51.6136 1.74087 51.8771 2.44484C53.5021 6.79512 54.0902 11.0063 52.9552 15.6506C52.6138 17.0417 51.7791 19.005 50.2805 19.3622C49.5365 19.5393 48.9263 19.2685 48.45 18.5497C46.3381 15.3661 46.2875 11.0885 46.7902 7.27884Z" fill="#EF8421"/>
<path d="M32.5632 5.38195C32.6054 4.89086 32.7571 4.49145 33.0185 4.18372C33.0923 4.09731 33.186 4.05094 33.2999 4.04462C34.3716 3.96874 36.0093 5.63804 36.8756 6.46004C40.113 9.52673 43.7203 15.7708 41.4155 20.3202C40.4133 22.2962 38.782 20.9652 37.7102 19.9978C33.654 16.3398 32.0858 10.7566 32.5632 5.38195Z" fill="#EF8421"/>
<path d="M67.3592 9.80805C66.965 13.6377 65.4875 16.8804 62.9267 19.5361C62.1015 20.3961 59.8663 22.0179 58.7534 20.728C57.571 19.3559 58.0737 16.3714 58.3993 14.7717C58.6301 13.6556 59.0917 12.7103 59.528 11.6354C60.5966 9.00186 63.7139 5.67275 66.3159 4.19631C66.4065 4.14573 66.5024 4.12887 66.6035 4.14573C67.101 4.22582 67.375 4.47558 67.4256 4.89501C67.5836 6.21021 67.5615 7.84789 67.3592 9.80805Z" fill="#EF8421"/>
<path d="M30.9128 19.4286C32.07 20.9493 33.0247 23.0106 32.9141 24.9613C32.7086 28.5686 27.5743 25.5683 26.2053 24.3796C22.97 21.5721 20.7833 18.0944 19.6451 13.9465C19.3859 13.0012 19.8411 11.8946 20.9951 12.2867C25.0376 13.663 28.3436 16.0436 30.9128 19.4286Z" fill="#EF8421"/>
<path d="M80.3088 12.4954C80.414 12.5576 80.4978 12.6504 80.5492 12.7616C80.6005 12.8728 80.6171 12.9971 80.5965 13.1182C79.7893 17.8141 77.5741 21.6544 73.951 24.6389C72.6042 25.7454 68.6301 27.813 67.4793 25.8402C66.5751 24.2974 67.9061 21.3097 68.8388 19.9977C71.0434 16.8952 73.8899 14.5672 77.3781 13.0139C78.0009 12.7388 79.705 12.1381 80.3088 12.4954Z" fill="#EF8421"/>
<path d="M10.9257 24.3606C15.2285 24.3606 19.2405 25.837 22.6866 28.3757C24.1662 29.4696 26.4551 32.1412 25.8797 34.1519C25.6901 34.8095 24.8997 35.1288 24.3053 35.2047C20.7138 35.6631 16.803 33.5101 14.1662 31.2022C13.1704 30.3327 8.08976 25.7548 9.90132 24.5819C10.129 24.4344 10.4704 24.3606 10.9257 24.3606Z" fill="#EF8421"/>
<path d="M74.1312 33.7568C74.0806 31.139 77.277 28.4011 79.3762 27.1997C82.1415 25.6148 85.1513 24.6842 88.4056 24.4081C89.9421 24.2753 91.5513 24.5978 90.1792 26.5643C87.2516 30.7596 81.3901 35.7928 75.8384 35.0277C75.184 34.936 74.147 34.5725 74.1312 33.7568Z" fill="#EF8421"/>
<path d="M20.2933 46.542C15.9904 48.6033 9.91711 46.5325 6.12959 44.2309C5.26332 43.7029 3.90702 42.7734 4.00503 41.7617C4.01557 41.6627 4.05667 41.5773 4.12834 41.5057C5.77866 39.8901 10.9383 39.947 13.3916 40.1241C16.0189 40.3106 20.0372 41.5215 21.4852 43.9717C22.0922 44.996 21.2038 46.1057 20.2933 46.542Z" fill="#EF8421"/>
<path d="M95.3135 43.1592C91.9749 45.6568 88.1684 47.2913 84.0742 47.2375C82.3733 47.2154 80.6534 47.0637 79.4299 46.0836C77.9408 44.8948 79.0379 43.254 80.2329 42.4668C84.4251 39.6941 89.8282 39.5234 94.4567 40.7659C94.8424 40.8691 95.3061 41.1263 95.8478 41.5373C95.9384 41.6068 95.99 41.6985 96.0027 41.8123C96.0596 42.3224 95.8299 42.7713 95.3135 43.1592Z" fill="#EF8421"/>
<path d="M11.735 61.7585C9.4966 61.8249 7.08434 61.7396 4.95662 60.984C2.56334 60.1367 5.94302 57.8287 6.76502 57.3482C10.1131 55.3849 13.7963 53.94 17.7387 54.0444C19.1646 54.0823 21.9057 54.9138 21.599 56.7159C21.3872 57.9615 19.7368 59.2483 18.6651 59.849C16.5131 61.0504 14.2031 61.6869 11.735 61.7585Z" fill="#EF8421"/>
<path d="M95.0006 60.946C90.3373 62.3719 83.2902 62.3118 79.5375 58.5243C78.7819 57.7623 77.9757 56.3807 78.9368 55.4671C79.6323 54.8031 80.3785 54.3827 81.3775 54.253C86.4708 53.6049 92.1015 56.2733 95.8289 59.4822C95.8764 59.5228 95.9146 59.5732 95.9408 59.63C95.967 59.6868 95.9806 59.7485 95.9807 59.811C95.987 60.3653 95.6603 60.7437 95.0006 60.946Z" fill="#EF8421"/>
<path d="M18.2099 66.4629C20.1163 65.4796 22.7657 64.5659 24.8649 65.1192C27.2013 65.7357 25.3929 68.7455 24.5551 69.852C22.8194 72.1473 20.2269 73.9431 17.4985 74.8789C15.3803 75.6029 12.7309 76.27 10.3819 76.2858C10.0109 76.29 9.74326 76.2015 9.57886 76.0202C9.34069 75.7567 9.3312 75.4185 9.5504 75.0053C11.5464 71.2579 14.4329 68.4104 18.2099 66.4629Z" fill="#EF8421"/>
<path d="M74.2546 66.5135C74.302 64.7241 77.0557 64.9644 78.1559 65.1952C80.1414 65.6104 81.9424 66.4292 83.559 67.6517C85.9575 69.4643 88.0726 71.5625 89.9042 73.9463C90.3089 74.4743 90.8748 75.4386 90.3784 76.1309C90.3173 76.2174 90.234 76.2627 90.1287 76.2669C88.2001 76.3617 86.4518 75.9982 84.5074 75.5145C81.622 74.7936 79.0822 73.3941 76.8881 71.3159C75.6551 70.1461 74.2071 68.2492 74.2546 66.5135Z" fill="#EF8421"/>
<path d="M19.895 85.6598C20.6074 83.2655 21.6833 81.0482 23.1229 79.008C24.2505 77.4103 25.6637 76.132 27.3625 75.173C28.7283 74.3984 32.2313 73.0706 32.5633 75.6788C32.6729 76.5493 32.5158 77.4735 32.0922 78.4515C29.974 83.3582 25.3075 86.6399 20.4546 88.4799C20.4085 88.497 20.3596 88.5047 20.3108 88.5025C20.2619 88.5003 20.214 88.4883 20.17 88.4673C19.6789 88.227 19.4608 87.8128 19.5156 87.2248C19.5409 86.9445 19.6673 86.4228 19.895 85.6598Z" fill="#EF8421"/>
<path d="M80.1064 85.4321C80.3404 86.3047 81.2762 89.2291 79.0726 88.3217C74.6433 86.4975 70.821 83.6047 68.3834 79.4315C67.5298 77.9709 66.4043 74.3256 69.3066 74.2086C70.1518 74.1749 70.9306 74.3109 71.643 74.6165C75.9964 76.4786 78.9209 81.0028 80.1064 85.4321Z" fill="#EF8421"/>
<path d="M41.406 86.9055C40.2394 90.5697 37.5647 93.4878 34.7415 95.9317C34.4569 96.1752 34.125 96.3111 33.7993 96.4692C33.7164 96.509 33.6259 96.5302 33.5339 96.5315C33.4419 96.5327 33.3507 96.5139 33.2665 96.4763C33.1824 96.4387 33.1073 96.3833 33.0464 96.3138C32.9856 96.2444 32.9404 96.1625 32.9141 96.074C32.8719 95.9328 32.814 95.7958 32.7402 95.663C32.7193 95.6233 32.7054 95.5794 32.6991 95.5334C32.4378 93.04 32.5252 90.8237 32.9615 88.8846C33.2376 87.6538 33.8109 86.1952 34.6814 84.5091C35.7289 82.4709 37.2391 80.868 39.2119 79.7004C40.095 79.1756 40.7863 79.3652 41.2859 80.2694C42.3323 82.1727 42.0383 84.9106 41.406 86.9055Z" fill="#EF8421"/>
<path d="M62.9046 81.0282C66.455 84.6797 67.8808 89.5643 67.4129 94.6576C67.2232 96.7031 66.3538 96.82 64.9469 95.5428C62.4019 93.2349 60.4797 91.2273 59.0949 87.7527C58.412 86.0371 58.1412 84.0969 58.2824 81.9323C58.3224 81.3253 58.4078 80.8732 58.5385 80.576C59.528 78.3598 61.8043 79.8963 62.9046 81.0282Z" fill="#EF8421"/>
<path d="M52.0984 96.7884C51.7253 97.7685 51.1816 100.453 49.6387 99.9342C49.5418 99.9026 49.4638 99.8446 49.4048 99.7603C47.9094 97.6768 47.2613 94.6101 46.9103 92.3559C46.7059 91.0386 46.6901 89.3019 46.8629 87.1457C46.9957 85.4764 47.5289 83.9515 48.4626 82.571C50.3722 79.7382 51.8297 82.5488 52.5537 84.2592C53.0532 85.4396 53.3472 87.0614 53.4358 89.1249C53.5432 91.6119 53.0975 94.1665 52.0984 96.7884Z" fill="#EF8421"/>
</g>
<g filter="url(#filter1_i_147_3651)">
<path fill-rule="evenodd" clip-rule="evenodd" d="M50.0376 74C63.8447 74 75.0376 62.8071 75.0376 49C75.0376 35.1929 63.8447 24 50.0376 24C36.2305 24 25.0376 35.1929 25.0376 49C25.0376 62.8071 36.2305 74 50.0376 74ZM50.0376 69C61.0833 69 70.0376 60.0457 70.0376 49C70.0376 37.9543 61.0833 29 50.0376 29C38.9919 29 30.0376 37.9543 30.0376 49C30.0376 60.0457 38.9919 69 50.0376 69Z" fill="#EF8421"/>
</g>
<defs>
<filter id="filter0_i_147_3651" x="4" y="0" width="92.0111" height="104" filterUnits="userSpaceOnUse" color-interpolation-filters="sRGB">
<feFlood flood-opacity="0" result="BackgroundImageFix"/>
<feBlend mode="normal" in="SourceGraphic" in2="BackgroundImageFix" result="shape"/>
<feColorMatrix in="SourceAlpha" type="matrix" values="0 0 0 0 0 0 0 0 0 0 0 0 0 0 0 0 0 0 127 0" result="hardAlpha"/>
<feOffset dy="4"/>
<feGaussianBlur stdDeviation="2"/>
<feComposite in2="hardAlpha" operator="arithmetic" k2="-1" k3="1"/>
<feColorMatrix type="matrix" values="0 0 0 0 0 0 0 0 0 0 0 0 0 0 0 0 0 0 0.25 0"/>
<feBlend mode="normal" in2="shape" result="effect1_innerShadow_147_3651"/>
</filter>
<filter id="filter1_i_147_3651" x="25.0376" y="24" width="50" height="54" filterUnits="userSpaceOnUse" color-interpolation-filters="sRGB">
<feFlood flood-opacity="0" result="BackgroundImageFix"/>
<feBlend mode="normal" in="SourceGraphic" in2="BackgroundImageFix" result="shape"/>
<feColorMatrix in="SourceAlpha" type="matrix" values="0 0 0 0 0 0 0 0 0 0 0 0 0 0 0 0 0 0 127 0" result="hardAlpha"/>
<feOffset dy="4"/>
<feGaussianBlur stdDeviation="2"/>
<feComposite in2="hardAlpha" operator="arithmetic" k2="-1" k3="1"/>
<feColorMatrix type="matrix" values="0 0 0 0 0 0 0 0 0 0 0 0 0 0 0 0 0 0 0.25 0"/>
<feBlend mode="normal" in2="shape" result="effect1_innerShadow_147_3651"/>
</filter>
</defs>
</svg>
