<svg width="1024" height="1024" viewBox="0 0 1024 1024" fill="none" xmlns="http://www.w3.org/2000/svg">
<path fill-rule="evenodd" clip-rule="evenodd" d="M708.5 524.5C708.173 533.682 708.507 542.682 709.5 551.5C716.955 569.406 724.122 587.406 731 605.5C733.465 616.16 735.798 626.826 738 637.5C738.667 646.833 738.667 656.167 738 665.5C736.63 675.623 734.963 685.623 733 695.5C751.308 697.535 769.141 701.702 786.5 708C798.904 729.312 810.904 750.812 822.5 772.5C819.916 773.048 818.916 774.715 819.5 777.5C818.167 777.5 816.833 777.5 815.5 777.5C815.5 775.5 815.5 773.5 815.5 771.5C814.167 771.5 812.833 771.5 811.5 771.5C811.5 770.167 811.5 768.833 811.5 767.5C810.167 767.5 808.833 767.5 807.5 767.5C807.762 766.022 807.429 764.689 806.5 763.5C805.511 767.107 805.177 770.774 805.5 774.5C795.194 756.563 784.86 738.563 774.5 720.5C770.796 719.767 767.129 719.1 763.5 718.5C762.614 717.224 761.614 717.224 760.5 718.5C760.624 719.107 760.957 719.44 761.5 719.5C776.643 746.445 791.809 773.445 807 800.5C807.718 804.459 806.051 806.792 802 807.5C799.679 807.091 797.513 806.257 795.5 805C776.205 774.206 757.538 743.039 739.5 711.5C698.758 708.305 658.424 710.805 618.5 719C589.243 724.962 563.576 737.795 541.5 757.5C539.271 756.945 537.605 755.611 536.5 753.5C532.771 755.508 528.771 756.008 524.5 755C523.944 754.617 523.611 754.117 523.5 753.5C526.799 748.534 530.799 744.201 535.5 740.5C536.926 734.503 537.259 728.503 536.5 722.5C533.119 724.693 529.453 726.027 525.5 726.5C523.545 726.276 521.879 725.609 520.5 724.5C520.192 722.076 520.526 719.743 521.5 717.5C532.941 708.895 542.441 698.561 550 686.5C555.484 676.371 559.984 665.871 563.5 655C569.135 653.464 572.135 655.631 572.5 661.5C570.502 674.492 566.502 686.826 560.5 698.5C556.011 707.638 554.011 717.304 554.5 727.5C559.231 724.476 563.898 721.476 568.5 718.5C576.223 715.649 583.723 712.315 591 708.5C600.448 695.105 607.614 680.605 612.5 665C617.439 663.937 620.106 665.937 620.5 671C618.783 682.379 615.449 693.213 610.5 703.5C610.833 703.833 611.167 704.167 611.5 704.5C614.083 703.191 616.75 702.191 619.5 701.5C638.407 698.514 657.407 696.18 676.5 694.5C685.503 680.158 689.669 664.492 689 647.5C694.404 645.552 697.071 647.552 697 653.5C697.667 663.5 697.667 673.5 697 683.5C696.148 687.189 695.315 690.856 694.5 694.5C700.758 694.81 706.924 694.476 713 693.5C717.579 684.04 720.246 674.04 721 663.5C722.888 632.437 715.722 603.771 699.5 577.5C698.104 579.972 697.27 582.638 697 585.5C695.414 587.67 694.08 590.004 693 592.5C690.916 609.193 685.916 624.86 678 639.5C675.293 643.035 671.793 644.202 667.5 643C665.859 641.871 664.859 640.371 664.5 638.5C669.826 625.341 673.66 611.675 676 597.5C676.667 588.833 676.667 580.167 676 571.5C675.342 564.184 673.842 557.184 671.5 550.5C671.107 547.487 671.774 544.82 673.5 542.5C676.652 541.959 679.152 542.959 681 545.5C684.209 552.913 686.542 560.579 688 568.5C694.302 546.069 693.968 523.736 687 501.5C684.843 496.193 683.01 490.86 681.5 485.5C678.201 486.022 674.867 486.355 671.5 486.5C666.572 486.502 661.906 485.669 657.5 484C651.787 492.713 644.454 499.713 635.5 505C632.428 505.456 629.428 505.456 626.5 505C613.476 523.68 595.643 534.513 573 537.5C569.612 537.414 566.445 536.914 563.5 536C557.487 543.08 550.32 548.58 542 552.5C540.555 551.258 539.055 550.425 537.5 550C530.546 556.112 524.546 562.946 519.5 570.5C517.037 572.461 514.703 574.628 512.5 577C511.667 577.167 510.833 577.333 510 577.5C507.114 576.454 504.614 574.787 502.5 572.5C496.072 564.568 489.072 557.068 481.5 550C479.717 549.768 478.05 550.268 476.5 551.5C474.39 550.946 472.39 550.112 470.5 549C465.017 544.351 459.684 539.518 454.5 534.5C453.354 535.145 452.354 535.978 451.5 537C447.167 537.667 442.833 537.667 438.5 537C420.036 531.357 405.036 520.857 393.5 505.5C390.614 505.29 387.614 505.123 384.5 505C375.212 499.379 367.545 492.046 361.5 483C359.369 483.398 357.369 484.398 355.5 486C350.845 486.499 346.179 486.666 341.5 486.5C340.791 485.596 339.791 485.263 338.5 485.5C338.06 488.38 337.06 491.046 335.5 493.5C333.703 493.065 331.703 493.065 329.5 493.5C329.5 491.5 329.5 489.5 329.5 487.5C328.167 487.5 326.833 487.5 325.5 487.5C325.351 483.678 323.351 481.345 319.5 480.5C317.5 480.167 315.5 479.833 313.5 479.5C308.883 480.66 304.383 481.327 300 481.5C298.426 480.152 296.593 479.486 294.5 479.5C292.177 480.376 289.843 480.876 287.5 481C287.928 476.922 287.928 472.422 287.5 467.5C286.167 467.5 284.833 467.5 283.5 467.5C283.5 468.833 283.5 470.167 283.5 471.5C280.833 471.5 278.167 471.5 275.5 471.5C275.693 474.308 276.36 476.975 277.5 479.5C247.883 464.984 230.383 441.318 225 408.5C221.637 377.017 227.97 347.683 244 320.5C263.568 292.253 285.401 265.753 309.5 241C319.042 232.456 328.875 224.29 339 216.5C338.923 215.17 338.423 213.836 337.5 212.5C337.719 211.062 338.219 209.729 339 208.5C361.317 188.092 387.484 175.259 417.5 170C427.243 159.795 439.243 153.795 453.5 152C469.5 150.098 484.5 153.098 498.5 161C502.621 163.714 506.287 166.881 509.5 170.5C524.985 155.283 543.651 149.116 565.5 152C576.781 153.629 587.114 157.629 596.5 164C598.543 165.708 600.21 167.708 601.5 170C630.671 174.755 656.338 186.755 678.5 206C681.466 209.03 682.3 212.53 681 216.5C694.161 226.241 706.494 236.908 718 248.5C731.333 263.833 744.667 279.167 758 294.5C774.181 315.194 785.847 338.194 793 363.5C797.915 388.123 795.915 412.123 787 435.5C768.594 471.352 739.094 488.685 698.5 487.5C702.159 495.163 704.993 503.163 707 511.5C707.735 515.813 708.235 520.147 708.5 524.5Z" fill="#1D0903"/>
<path fill-rule="evenodd" clip-rule="evenodd" d="M683.5 296.5C687.846 296.334 692.179 296.501 696.5 297C698.527 298.396 698.86 300.062 697.5 302C692.833 302.667 688.167 302.667 683.5 302C682.464 300.224 682.464 298.391 683.5 296.5Z" fill="#FBF6ED"/>
<path fill-rule="evenodd" clip-rule="evenodd" d="M303.5 284.5C303.334 292.84 303.5 301.173 304 309.5C305.167 310.667 306.333 311.833 307.5 313C313.096 314.975 318.596 317.142 324 319.5C323.711 339.878 329.878 357.878 342.5 373.5C337.051 385.187 334.718 397.52 335.5 410.5C335.095 425.211 337.595 439.211 343 452.5C339.001 448.463 335.501 444.129 332.5 439.5C326.649 426.43 323.149 412.764 322 398.5C320.267 396.398 318.267 396.065 316 397.5C314.558 411.136 315.891 424.469 320 437.5C321.381 441.204 323.214 444.537 325.5 447.5C328.216 453.052 331.549 458.219 335.5 463C333.193 462.358 330.859 461.358 328.5 460C319.224 452.562 311.224 444.062 304.5 434.5C295.974 416.821 293.141 398.155 296 378.5C297.192 371.76 298.692 365.093 300.5 358.5C300.902 353.931 298.902 352.431 294.5 354C275.815 381.267 269.982 411.1 277 443.5C277.374 445.491 278.207 447.158 279.5 448.5C280.528 453.059 282.528 457.225 285.5 461C284.833 461.667 284.167 461.667 283.5 461C269.421 445.269 262.754 426.769 263.5 405.5C262.488 383.046 267.988 362.38 280 343.5C280.748 341.16 280.248 339.16 278.5 337.5C276.372 336.371 274.039 336.204 271.5 337C270.692 338.706 269.359 339.539 267.5 339.5C267.662 341.527 267.495 343.527 267 345.5C265.269 348.268 263.436 350.935 261.5 353.5C260.795 347.541 262.128 341.875 265.5 336.5C268.463 338.671 270.463 337.671 271.5 333.5C269.493 331.111 269.16 328.444 270.5 325.5C280.301 310.916 291.301 297.249 303.5 284.5Z" fill="#B67F60"/>
<path fill-rule="evenodd" clip-rule="evenodd" d="M323.5 296.5C327.846 296.334 332.179 296.501 336.5 297C339.003 298.784 339.003 300.451 336.5 302C331.845 302.499 327.179 302.666 322.5 302.5C322.325 300.379 322.659 298.379 323.5 296.5Z" fill="#F5ECE0"/>
<path fill-rule="evenodd" clip-rule="evenodd" d="M624.5 284.5C641.247 285.137 655.08 291.804 666 304.5C668.372 307.91 670.205 311.577 671.5 315.5C673.159 322.378 673.825 329.378 673.5 336.5C673.69 340.032 673.023 343.365 671.5 346.5C661.826 321.176 646.159 300.509 624.5 284.5Z" fill="#FCF7E7"/>
<path fill-rule="evenodd" clip-rule="evenodd" d="M499.5 294.5C507.228 294.189 514.895 294.689 522.5 296C526.615 297.223 530.282 299.223 533.5 302C528.746 301.308 524.079 299.975 519.5 298C507.636 296.104 496.469 297.938 486 303.5C485.5 303.333 485 303.167 484.5 303C488.989 299.094 493.989 296.26 499.5 294.5Z" fill="#ECDFD1"/>
<path fill-rule="evenodd" clip-rule="evenodd" d="M624.5 284.5C646.159 300.509 661.826 321.176 671.5 346.5C658.936 371.534 638.936 380.701 611.5 374C604.646 370.408 598.313 366.075 592.5 361C579.012 358.957 567.512 353.124 558 343.5C545.99 324.768 548.49 308.268 565.5 294C570.448 290.572 575.781 287.906 581.5 286C595.793 284.631 610.126 284.131 624.5 284.5Z" fill="#B57F61"/>
<path fill-rule="evenodd" clip-rule="evenodd" d="M394.5 285.5C407.026 284.199 419.693 284.365 432.5 286C464.806 292.588 474.973 311.088 463 341.5C459.391 345.897 455.224 349.73 450.5 353C443.353 356.05 436.02 358.717 428.5 361C422.003 366.085 415.003 370.418 407.5 374C380.662 380.911 360.995 372.078 348.5 347.5C356.227 327.596 367.894 310.096 383.5 295C387.501 291.666 391.834 288.832 396.5 286.5C396.043 285.702 395.376 285.369 394.5 285.5Z" fill="#B57F60"/>
<path fill-rule="evenodd" clip-rule="evenodd" d="M416.5 298.5C430.76 297.598 440.927 303.598 447 316.5C448.78 327.708 445.28 336.875 436.5 344C420.378 351.304 407.878 347.471 399 332.5C391.888 337.978 385.054 343.811 378.5 350C375.97 351.422 373.303 351.755 370.5 351C369.424 349.274 369.257 347.441 370 345.5C378.045 338.453 386.378 331.787 395 325.5C395.784 311.234 402.951 302.234 416.5 298.5Z" fill="#1D0802"/>
<path fill-rule="evenodd" clip-rule="evenodd" d="M711.5 281.5C699.872 281.897 688.205 281.897 676.5 281.5C676.762 280.022 676.429 278.689 675.5 277.5C672.312 275.146 669.645 272.312 667.5 269C662.818 268.227 662.485 268.893 666.5 271C665.748 271.671 665.414 272.504 665.5 273.5C660.397 267.895 655.064 262.395 649.5 257C643.937 252.915 638.604 248.748 633.5 244.5C632.755 241.07 634.089 239.403 637.5 239.5C655.71 248.042 669.377 261.376 678.5 279.5C689.659 280.167 700.659 280.833 711.5 281.5Z" fill="#210A04"/>
<path fill-rule="evenodd" clip-rule="evenodd" d="M580.5 231.5C579.972 232.721 579.305 233.887 578.5 235C560.957 238.097 546.957 246.764 536.5 261C529.608 261.692 527.775 258.859 531 252.5C535.785 244.545 542.285 238.545 550.5 234.5C551.167 234.167 551.833 233.833 552.5 233.5C559.114 230.297 566.114 228.297 573.5 227.5C577.012 227.081 579.346 228.414 580.5 231.5Z" fill="#1F0D07"/>
<path fill-rule="evenodd" clip-rule="evenodd" d="M575.5 204.5C576.303 205.423 576.47 206.423 576 207.5C575.667 207.167 575.333 206.833 575 206.5C574.558 208.679 573.558 209.345 572 208.5C570.361 210.806 568.361 212.806 566 214.5C565 214.5 564 214.5 563 214.5C561.941 217.618 560.608 220.618 559 223.5C558.333 222.833 557.667 222.167 557 221.5C556.546 223.536 555.713 225.37 554.5 227C556.153 229.411 555.487 230.578 552.5 230.5C552.5 231.5 552.5 232.5 552.5 233.5C551.833 233.833 551.167 234.167 550.5 234.5C549.571 233.685 548.571 232.852 547.5 232C550.789 227.734 553.789 223.234 556.5 218.5C557.729 217.719 559.062 217.219 560.5 217C559.576 213.705 560.91 211.539 564.5 210.5C565.167 210.833 565.833 211.167 566.5 211.5C568.263 208.98 570.263 206.647 572.5 204.5C573.527 203.209 574.527 203.209 575.5 204.5Z" fill="#E5C8AF"/>
<path fill-rule="evenodd" clip-rule="evenodd" d="M565.5 168.5C569.172 169.241 572.839 170.407 576.5 172C573.964 172.186 571.631 172.686 569.5 173.5C544.436 179.061 526.27 193.394 515 216.5C512.108 223.263 514.275 226.43 521.5 226C528.061 215.439 536.061 206.105 545.5 198C563.26 186.516 582.593 182.849 603.5 187C612.741 189.36 621.741 192.193 630.5 195.5C630.631 196.239 630.464 196.906 630 197.5C611.185 192.705 593.352 194.371 576.5 202.5C575.702 202.957 575.369 203.624 575.5 204.5C574.527 203.209 573.527 203.209 572.5 204.5C570.263 206.647 568.263 208.98 566.5 211.5C565.833 211.167 565.167 210.833 564.5 210.5C560.91 211.539 559.576 213.705 560.5 217C559.062 217.219 557.729 217.719 556.5 218.5C553.789 223.234 550.789 227.734 547.5 232C548.571 232.852 549.571 233.685 550.5 234.5C542.285 238.545 535.785 244.545 531 252.5C527.775 258.859 529.608 261.692 536.5 261C546.957 246.764 560.957 238.097 578.5 235C579.305 233.887 579.972 232.721 580.5 231.5C584.956 231.652 589.456 231.652 594 231.5C596.508 233.174 599.342 234.174 602.5 234.5C604.098 234.39 605.765 234.057 607.5 233.5C609.362 234.59 611.195 235.59 613 236.5C614.017 233.972 615.184 233.972 616.5 236.5C617.086 236.291 617.586 235.957 618 235.5C619.395 239.269 621.395 239.936 624 237.5C626.456 239.321 629.289 239.988 632.5 239.5C632.216 241.415 632.549 243.081 633.5 244.5C638.604 248.748 643.937 252.915 649.5 257C655.064 262.395 660.397 267.895 665.5 273.5C666.242 275.426 667.242 277.259 668.5 279C664.858 277.686 661.191 276.019 657.5 274C650.933 272.053 644.266 270.553 637.5 269.5C634.715 266.6 631.382 264.434 627.5 263C613.777 256.883 599.444 254.883 584.5 257C581.059 258.318 579.725 260.818 580.5 264.5C590.698 264.033 600.698 265.2 610.5 268C589.83 265.252 570.83 269.585 553.5 281C549.66 283.674 546.327 286.841 543.5 290.5C526.859 278.92 508.859 276.42 489.5 283C484.995 284.749 480.995 287.249 477.5 290.5C465.036 277.269 449.702 269.935 431.5 268.5C425.833 267.833 420.167 267.167 414.5 266.5C422.444 265.236 430.444 264.236 438.5 263.5C439.982 259.785 438.649 257.619 434.5 257C420.172 254.878 406.505 256.878 393.5 263C390.872 264.626 388.539 266.626 386.5 269C379.722 269.719 373.056 271.052 366.5 273C361.507 275.667 356.507 278 351.5 280C359.575 266.258 370.575 255.591 384.5 248C385.636 246.855 386.636 245.688 387.5 244.5C388.339 243.359 389.006 242.026 389.5 240.5C391.465 239.708 393.465 239.041 395.5 238.5C396.478 238.977 397.311 239.643 398 240.5C398.465 239.069 399.299 237.903 400.5 237C403.172 236.166 405.839 235.332 408.5 234.5C409.803 235.718 410.803 235.385 411.5 233.5C414.068 234.19 416.568 234.523 419 234.5C419.333 233.833 419.667 233.167 420 232.5C422.522 232.023 425.355 232.023 428.5 232.5C429.167 231.833 429.833 231.167 430.5 230.5C433.654 229.9 436.654 230.566 439.5 232.5C439.953 233.458 440.619 234.292 441.5 235C450.154 236.33 458.154 239.33 465.5 244C472.689 249.363 479.355 255.196 485.5 261.5C489.254 260.148 490.421 257.482 489 253.5C484.677 247.013 479.51 241.346 473.5 236.5C469.432 230.83 465.099 225.33 460.5 220C442.763 209.169 423.763 206.502 403.5 212C386.931 217.452 371.265 224.785 356.5 234C342.445 244.382 329.279 255.882 317 268.5C313.619 272.375 310.453 276.375 307.5 280.5C305.806 281.527 304.473 282.861 303.5 284.5C291.301 297.249 280.301 310.916 270.5 325.5C257.622 344.111 249.622 364.778 246.5 387.5C245.358 395.819 244.358 404.152 243.5 412.5C242.686 410.369 242.186 408.036 242 405.5C239.406 376.209 246.073 349.209 262 324.5C284.229 292.258 310.063 263.091 339.5 237C347.088 230.914 355.088 225.414 363.5 220.5C365.086 218.827 365.753 216.827 365.5 214.5C364.167 214.5 362.833 214.5 361.5 214.5C361.351 213.448 361.517 212.448 362 211.5C385.813 193.688 412.647 185.188 442.5 186C461.135 189.9 476.635 199.066 489 213.5C491.71 217.753 494.543 221.92 497.5 226C503.829 226.668 506.329 223.834 505 217.5C491.872 191.18 470.705 176.013 441.5 172C459.315 165.211 476.315 166.878 492.5 177C498.345 182.18 504.178 187.346 510 192.5C517.035 183.793 525.535 176.96 535.5 172C545.246 168.898 555.246 167.731 565.5 168.5Z" fill="#FBF2E3"/>
<path fill-rule="evenodd" clip-rule="evenodd" d="M414.5 266.5C420.167 267.167 425.833 267.833 431.5 268.5C424.825 268.666 418.158 268.5 411.5 268C412.527 267.487 413.527 266.987 414.5 266.5Z" fill="#725B4C"/>
<path fill-rule="evenodd" clip-rule="evenodd" d="M473.5 236.5C479.51 241.346 484.677 247.013 489 253.5C490.421 257.482 489.254 260.148 485.5 261.5C479.355 255.196 472.689 249.363 465.5 244C458.154 239.33 450.154 236.33 441.5 235C440.619 234.292 439.953 233.458 439.5 232.5C438.824 228.51 440.49 226.843 444.5 227.5C454.849 228.519 464.515 231.519 473.5 236.5Z" fill="#210D07"/>
<path fill-rule="evenodd" clip-rule="evenodd" d="M473.5 236.5C464.515 231.519 454.849 228.519 444.5 227.5C440.49 226.843 438.824 228.51 439.5 232.5C436.654 230.566 433.654 229.9 430.5 230.5C429.833 231.167 429.167 231.833 428.5 232.5C425.355 232.023 422.522 232.023 420 232.5C419.667 233.167 419.333 233.833 419 234.5C416.568 234.523 414.068 234.19 411.5 233.5C410.803 235.385 409.803 235.718 408.5 234.5C405.839 235.332 403.172 236.166 400.5 237C399.299 237.903 398.465 239.069 398 240.5C397.311 239.643 396.478 238.977 395.5 238.5C393.465 239.041 391.465 239.708 389.5 240.5C389.006 242.026 388.339 243.359 387.5 244.5C386.615 240.216 383.949 238.716 379.5 240C362.676 249.488 350.01 262.821 341.5 280C330.172 280.5 318.838 280.667 307.5 280.5C310.453 276.375 313.619 272.375 317 268.5C329.279 255.882 342.445 244.382 356.5 234C371.265 224.785 386.931 217.452 403.5 212C423.763 206.502 442.763 209.169 460.5 220C465.099 225.33 469.432 230.83 473.5 236.5Z" fill="#BA8564"/>
<path fill-rule="evenodd" clip-rule="evenodd" d="M630.5 195.5C640.139 199.985 649.139 205.485 657.5 212C655.833 212.333 654.167 212.667 652.5 213C651.483 214.049 651.316 215.216 652 216.5C674.776 232.596 695.776 250.93 715 271.5C731.139 289.3 746.139 307.966 760 327.5C769.857 344.094 775.857 362.094 778 381.5C780.859 401.691 776.859 420.358 766 437.5C772.013 406.907 767.679 377.907 753 350.5C750.552 346.385 747.719 342.552 744.5 339C742.866 338.506 741.199 338.34 739.5 338.5C739.338 340.527 739.505 342.527 740 344.5C742.038 347.243 743.538 350.243 744.5 353.5C741.737 353.06 740.737 351.727 741.5 349.5C739.491 347.99 737.658 346.323 736 344.5C735.944 341.733 735.778 339.067 735.5 336.5C736.689 335.571 738.022 335.238 739.5 335.5C739.5 330.167 739.5 324.833 739.5 319.5C735.5 319.5 731.5 319.5 727.5 319.5C727.5 316.833 727.5 314.167 727.5 311.5C724.833 311.5 722.167 311.5 719.5 311.5C719.5 314.167 719.5 316.833 719.5 319.5C717.084 319.039 715.25 317.706 714 315.5C712.013 316.154 710.68 317.487 710 319.5C707.748 317.073 704.914 316.073 701.5 316.5C705.026 314.928 708.693 313.428 712.5 312C713.333 311.167 714.167 310.333 715 309.5C715.667 301.167 715.667 292.833 715 284.5C713.961 283.29 712.794 282.29 711.5 281.5C700.659 280.833 689.659 280.167 678.5 279.5C669.377 261.376 655.71 248.042 637.5 239.5C634.089 239.403 632.755 241.07 633.5 244.5C632.549 243.081 632.216 241.415 632.5 239.5C629.289 239.988 626.456 239.321 624 237.5C621.395 239.936 619.395 239.269 618 235.5C617.586 235.957 617.086 236.291 616.5 236.5C615.184 233.972 614.017 233.972 613 236.5C611.195 235.59 609.362 234.59 607.5 233.5C605.765 234.057 604.098 234.39 602.5 234.5C599.342 234.174 596.508 233.174 594 231.5C589.456 231.652 584.956 231.652 580.5 231.5C579.346 228.414 577.012 227.081 573.5 227.5C566.114 228.297 559.114 230.297 552.5 233.5C552.5 232.5 552.5 231.5 552.5 230.5C555.487 230.578 556.153 229.411 554.5 227C555.713 225.37 556.546 223.536 557 221.5C557.667 222.167 558.333 222.833 559 223.5C560.608 220.618 561.941 217.618 563 214.5C564 214.5 565 214.5 566 214.5C568.361 212.806 570.361 210.806 572 208.5C573.558 209.345 574.558 208.679 575 206.5C575.333 206.833 575.667 207.167 576 207.5C576.47 206.423 576.303 205.423 575.5 204.5C575.369 203.624 575.702 202.957 576.5 202.5C593.352 194.371 611.185 192.705 630 197.5C630.464 196.906 630.631 196.239 630.5 195.5Z" fill="#B68061"/>
<path fill-rule="evenodd" clip-rule="evenodd" d="M569.5 173.5C571.631 172.686 573.964 172.186 576.5 172C572.839 170.407 569.172 169.241 565.5 168.5C569.056 167.615 572.223 167.615 575 168.5C576.883 169.653 577.716 171.319 577.5 173.5C574.833 173.5 572.167 173.5 569.5 173.5Z" fill="#3E2E27"/>
<path fill-rule="evenodd" clip-rule="evenodd" d="M600.5 347.5C595.346 347.706 590.346 347.039 585.5 345.5C576.259 340.692 571.926 333.025 572.5 322.5C573.404 310.416 579.737 302.583 591.5 299C610.426 297.271 620.926 305.771 623 324.5C631.333 331.167 639.667 337.833 648 344.5C649.913 350.094 648.08 352.261 642.5 351C634.888 344.387 626.888 338.554 618.5 333.5C615.479 341.841 609.479 346.507 600.5 347.5Z" fill="#1C0602"/>
<path fill-rule="evenodd" clip-rule="evenodd" d="M394.5 285.5C395.376 285.369 396.043 285.702 396.5 286.5C391.834 288.832 387.501 291.666 383.5 295C367.894 310.096 356.227 327.596 348.5 347.5C340.292 320.082 349.292 300.582 375.5 289C381.678 286.97 388.012 285.804 394.5 285.5Z" fill="#FBF2E2"/>
<path fill-rule="evenodd" clip-rule="evenodd" d="M419.5 311.5C427.272 309.781 430.772 312.781 430 320.5C426.352 325.331 422.352 325.665 418 321.5C417.037 317.851 417.537 314.518 419.5 311.5Z" fill="#F6EDDD"/>
<path fill-rule="evenodd" clip-rule="evenodd" d="M590.5 311.5C600.191 310.428 603.191 314.261 599.5 323C591.398 325.895 587.565 323.062 588 314.5C589.045 313.627 589.878 312.627 590.5 311.5Z" fill="#F5F0DE"/>
<path fill-rule="evenodd" clip-rule="evenodd" d="M502.5 312.5C504.527 312.338 506.527 312.505 508.5 313C503.638 314.428 498.971 316.428 494.5 319C492.963 320.11 492.297 321.61 492.5 323.5C491.292 324.234 489.959 324.567 488.5 324.5C488.223 321.552 488.556 318.719 489.5 316C493.649 314.137 497.982 312.97 502.5 312.5Z" fill="#F9F3E8"/>
<path fill-rule="evenodd" clip-rule="evenodd" d="M671.5 315.5C672.6 317.277 673.434 319.277 674 321.5C674.816 326.684 674.65 331.684 673.5 336.5C673.825 329.378 673.159 322.378 671.5 315.5Z" fill="#BAAAA0"/>
<path fill-rule="evenodd" clip-rule="evenodd" d="M502.5 312.5C506.311 311.355 510.311 311.188 514.5 312C519.779 313.487 525.112 314.653 530.5 315.5C530.5 318.5 530.5 321.5 530.5 324.5C526.296 323.09 521.963 322.423 517.5 322.5C510.679 321.345 503.679 321.179 496.5 322C495.263 322.232 494.263 322.732 493.5 323.5C493.167 323.5 492.833 323.5 492.5 323.5C492.297 321.61 492.963 320.11 494.5 319C498.971 316.428 503.638 314.428 508.5 313C506.527 312.505 504.527 312.338 502.5 312.5Z" fill="#E6CAB4"/>
<path fill-rule="evenodd" clip-rule="evenodd" d="M517.5 322.5C509.483 322.501 501.483 322.834 493.5 323.5C494.263 322.732 495.263 322.232 496.5 322C503.679 321.179 510.679 321.345 517.5 322.5Z" fill="#3B1E15"/>
<path fill-rule="evenodd" clip-rule="evenodd" d="M744.5 353.5C758.4 381.268 760.233 409.934 750 439.5C746.244 448.02 741.244 455.687 735 462.5C737.301 456.958 739.634 451.291 742 445.5C743.478 440.257 744.312 434.924 744.5 429.5C748.238 401.621 741.571 376.454 724.5 354C721.143 352.859 719.143 354.025 718.5 357.5C725.21 377.863 726.21 398.53 721.5 419.5C716.025 436.623 706.025 450.456 691.5 461C689.598 462.301 687.598 462.968 685.5 463C693.16 452.859 698.827 441.692 702.5 429.5C703.322 427.611 704.155 425.611 705 423.5C705.823 414.99 705.657 406.656 704.5 398.5C702.718 396.313 700.552 395.98 698 397.5C696.482 418.057 689.815 436.724 678 453.5C677.346 454.696 676.846 454.696 676.5 453.5C687.059 426.786 687.059 400.119 676.5 373.5C689.697 358.066 695.863 340.066 695 319.5C696.843 317.829 699.009 316.829 701.5 316.5C704.914 316.073 707.748 317.073 710 319.5C710.68 317.487 712.013 316.154 714 315.5C715.25 317.706 717.084 319.039 719.5 319.5C719.5 316.833 719.5 314.167 719.5 311.5C722.167 311.5 724.833 311.5 727.5 311.5C727.5 314.167 727.5 316.833 727.5 319.5C731.5 319.5 735.5 319.5 739.5 319.5C739.5 324.833 739.5 330.167 739.5 335.5C738.022 335.238 736.689 335.571 735.5 336.5C735.778 339.067 735.944 341.733 736 344.5C737.658 346.323 739.491 347.99 741.5 349.5C740.737 351.727 741.737 353.06 744.5 353.5Z" fill="#B57E5E"/>
<path fill-rule="evenodd" clip-rule="evenodd" d="M585.5 345.5C590.346 347.039 595.346 347.706 600.5 347.5C597.36 348.641 594.027 348.808 590.5 348C588.509 347.626 586.842 346.793 585.5 345.5Z" fill="#582E1E"/>
<path fill-rule="evenodd" clip-rule="evenodd" d="M304.5 434.5C303.603 433.402 302.77 433.402 302 434.5C299.361 431.719 297.861 428.386 297.5 424.5C296.264 423.754 294.93 423.421 293.5 423.5C293.666 418.489 293.499 413.489 293 408.5C292.667 408.833 292.333 409.167 292 409.5C291.833 408.5 291.667 407.5 291.5 406.5C292.159 401.825 292.159 397.658 291.5 394C294.167 393.333 294.167 392.667 291.5 392C292.238 388.384 292.904 384.718 293.5 381C293.167 380.5 292.833 380 292.5 379.5C291.571 380.689 291.238 382.022 291.5 383.5C289.234 383.859 287.401 383.192 286 381.5C285.075 382.047 284.242 382.713 283.5 383.5C284.853 384.524 285.52 385.857 285.5 387.5C286.833 387.5 288.167 387.5 289.5 387.5C289.828 392.875 289.495 398.208 288.5 403.5C286.942 398.306 285.942 398.306 285.5 403.5C283.5 403.5 281.5 403.5 279.5 403.5C279.557 399.867 278.557 399.7 276.5 403C275.468 414.594 275.468 426.427 276.5 438.5C277.552 438.351 278.552 438.517 279.5 439C280.208 442.102 280.208 445.269 279.5 448.5C278.207 447.158 277.374 445.491 277 443.5C269.982 411.1 275.815 381.267 294.5 354C298.902 352.431 300.902 353.931 300.5 358.5C298.692 365.093 297.192 371.76 296 378.5C293.141 398.155 295.974 416.821 304.5 434.5Z" fill="#200A03"/>
<path fill-rule="evenodd" clip-rule="evenodd" d="M555.5 507.5C556.653 501.347 556.82 495.014 556 488.5C555.61 485.896 554.776 483.562 553.5 481.5C551.437 478.027 548.937 477.694 546 480.5C546.703 500.382 541.37 518.382 530 534.5C526.977 539.023 523.144 542.69 518.5 545.5C516.517 531.223 515.017 516.89 514 502.5C511.523 497.632 508.523 497.299 505 501.5C503.36 516.123 502.527 530.79 502.5 545.5C498.019 543.541 494.185 540.541 491 536.5C478.407 519.389 472.241 500.222 472.5 479C466.526 478.339 463.693 481.172 464 487.5C462.418 500.251 463.918 512.585 468.5 524.5C467.998 525.521 467.332 525.688 466.5 525C447.409 505.859 439.076 482.693 441.5 455.5C439.031 453.993 436.865 454.327 435 456.5C429.327 476.858 430.827 496.691 439.5 516C439.167 516.5 438.833 517 438.5 517.5C425.703 508.925 418.203 496.925 416 481.5C415.82 471.923 415.32 462.423 414.5 453C412.559 452.257 410.726 452.424 409 453.5C407.107 456.618 405.774 459.951 405 463.5C404.225 472.215 404.392 480.881 405.5 489.5C405.634 491.292 405.301 492.958 404.5 494.5C394.933 482.262 390.6 468.262 391.5 452.5C391.638 425.724 402.305 404.224 423.5 388C434.942 380.946 446.942 374.946 459.5 370C464.923 366.581 469.756 362.415 474 357.5C477.129 352.074 480.629 346.907 484.5 342C500.674 333.712 517.007 333.379 533.5 341C540.239 350.824 547.905 359.824 556.5 368C567.833 373.667 579.167 379.333 590.5 385C622.496 407.642 633.996 438.142 625 476.5C622.031 484.442 618.031 491.775 613 498.5C613.725 491.565 614.225 484.565 614.5 477.5C614.737 469.922 613.57 462.589 611 455.5C606.495 451 603.662 451.833 602.5 458C606.24 476.42 602.74 493.254 592 508.5C588.799 512.036 585.299 515.203 581.5 518C580.668 518.688 580.002 518.521 579.5 517.5C587.114 500.28 589.614 482.28 587 463.5C586.702 459.027 584.535 456.027 580.5 454.5C578.971 454.529 577.804 455.196 577 456.5C580.513 483.974 572.179 506.974 552 525.5C553.861 519.718 555.027 513.718 555.5 507.5Z" fill="#FCF2E4"/>
<path fill-rule="evenodd" clip-rule="evenodd" d="M744.5 429.5C744.979 425.566 744.312 421.899 742.5 418.5C743.606 414.223 743.772 409.89 743 405.5C740.442 401.945 739.109 397.945 739 393.5C738.667 393.833 738.333 394.167 738 394.5C736.474 389.373 735.474 389.373 735 394.5C734.517 393.552 734.351 392.552 734.5 391.5C732.5 391.5 730.5 391.5 728.5 391.5C728.354 395.519 728.021 399.519 727.5 403.5C728.833 403.5 730.167 403.5 731.5 403.5C731.5 407.5 731.5 411.5 731.5 415.5C732.833 415.5 734.167 415.5 735.5 415.5C735.5 417.5 735.5 419.5 735.5 421.5C732.639 421.342 729.972 422.008 727.5 423.5C725.109 422.809 725.109 421.809 727.5 420.5C725.604 419.534 723.604 419.201 721.5 419.5C726.21 398.53 725.21 377.863 718.5 357.5C719.143 354.025 721.143 352.859 724.5 354C741.571 376.454 748.238 401.621 744.5 429.5Z" fill="#1F0802"/>
<path fill-rule="evenodd" clip-rule="evenodd" d="M270.5 325.5C269.16 328.444 269.493 331.111 271.5 333.5C270.463 337.671 268.463 338.671 265.5 336.5C262.128 341.875 260.795 347.541 261.5 353.5C263.436 350.935 265.269 348.268 267 345.5C267.495 343.527 267.662 341.527 267.5 339.5C269.359 339.539 270.692 338.706 271.5 337C274.039 336.204 276.372 336.371 278.5 337.5C275.675 337.081 273.509 338.081 272 340.5C260.106 358.348 253.272 378.014 251.5 399.5C250.342 408.657 250.176 417.991 251 427.5C251.21 429.058 251.71 430.391 252.5 431.5C252.357 433.262 252.691 434.929 253.5 436.5C253.154 437.696 252.654 437.696 252 436.5C248.999 430.325 246.499 423.991 244.5 417.5C245.603 407.681 246.269 397.681 246.5 387.5C249.622 364.778 257.622 344.111 270.5 325.5Z" fill="#B3866A"/>
<path fill-rule="evenodd" clip-rule="evenodd" d="M497.5 387.5C499.833 387.5 502.167 387.5 504.5 387.5C504.768 389.099 504.434 390.432 503.5 391.5C503.5 390.5 503.5 389.5 503.5 388.5C501.265 388.795 499.265 388.461 497.5 387.5Z" fill="#806F66"/>
<path fill-rule="evenodd" clip-rule="evenodd" d="M357.5 385.5C363.563 387.694 369.563 390.194 375.5 393C381.139 393.96 386.806 394.793 392.5 395.5C375.736 419.077 370.236 445.077 376 473.5C354.3 447.376 348.134 418.043 357.5 385.5Z" fill="#B67E60"/>
<path fill-rule="evenodd" clip-rule="evenodd" d="M503.5 391.5C504.434 390.432 504.768 389.099 504.5 387.5C502.167 387.5 499.833 387.5 497.5 387.5C485.446 385.112 479.112 377.779 478.5 365.5C479.319 354.178 485.319 347.345 496.5 345C505.833 344.333 515.167 344.333 524.5 345C538.714 349.596 543.881 359.096 540 373.5C535.137 382.352 527.637 387.186 517.5 388C516.484 388.519 515.818 389.353 515.5 390.5C517.811 404.66 525.145 415.16 537.5 422C543.133 424.325 548.799 426.658 554.5 429C555.83 431.877 555.664 434.711 554 437.5C540.912 439.351 529.412 435.851 519.5 427C516.039 423.22 512.705 419.386 509.5 415.5C498.796 432.776 483.63 439.776 464 436.5C463.333 434.167 463.333 431.833 464 429.5C472.619 426.273 480.786 422.107 488.5 417C496.204 410.093 501.204 401.593 503.5 391.5Z" fill="#1D0A04"/>
<path fill-rule="evenodd" clip-rule="evenodd" d="M332.5 439.5C330.657 440.043 328.99 439.376 327.5 437.5C328.485 435.902 328.651 434.235 328 432.5C325.207 437.259 324.373 442.259 325.5 447.5C323.214 444.537 321.381 441.204 320 437.5C315.891 424.469 314.558 411.136 316 397.5C318.267 396.065 320.267 396.398 322 398.5C323.149 412.764 326.649 426.43 332.5 439.5Z" fill="#210802"/>
<path fill-rule="evenodd" clip-rule="evenodd" d="M246.5 387.5C246.269 397.681 245.603 407.681 244.5 417.5C244.371 415.784 244.038 414.117 243.5 412.5C244.358 404.152 245.358 395.819 246.5 387.5Z" fill="#DCC0AA"/>
<path fill-rule="evenodd" clip-rule="evenodd" d="M704.5 398.5C705.657 406.656 705.823 414.99 705 423.5C704.155 425.611 703.322 427.611 702.5 429.5C704.075 419.235 704.742 408.902 704.5 398.5Z" fill="#865B45"/>
<path fill-rule="evenodd" clip-rule="evenodd" d="M660.5 384.5C661.496 384.414 662.329 384.748 663 385.5C670.765 419.354 663.765 449.688 642 476.5C648.731 447.461 643.898 420.461 627.5 395.5C634.869 394.193 642.202 392.693 649.5 391C653.56 389.311 657.227 387.144 660.5 384.5Z" fill="#B37D5E"/>
<path fill-rule="evenodd" clip-rule="evenodd" d="M251.5 399.5C251.321 410.19 251.655 420.857 252.5 431.5C251.71 430.391 251.21 429.058 251 427.5C250.176 417.991 250.342 408.657 251.5 399.5Z" fill="#613827"/>
<path fill-rule="evenodd" clip-rule="evenodd" d="M673.5 542.5C674.118 533.26 672.951 524.26 670 515.5C668.978 514.646 668.145 513.646 667.5 512.5C666.277 511.386 664.944 511.219 663.5 512C658.294 516.711 652.961 521.211 647.5 525.5C645.064 523.983 642.898 524.316 641 526.5C640.827 532.348 640.327 538.015 639.5 543.5C639.823 539.774 639.489 536.107 638.5 532.5C632.018 536.343 625.351 539.677 618.5 542.5C618.813 546.042 618.479 549.375 617.5 552.5C617.666 548.486 617.499 544.486 617 540.5C614.333 537.833 611.667 537.833 609 540.5C608.465 544.038 607.632 547.372 606.5 550.5C606.631 549.761 606.464 549.094 606 548.5C581.58 562.122 555.414 570.122 527.5 572.5C524.41 572.478 521.743 571.812 519.5 570.5C524.546 562.946 530.546 556.112 537.5 550C539.055 550.425 540.555 551.258 542 552.5C550.32 548.58 557.487 543.08 563.5 536C566.445 536.914 569.612 537.414 573 537.5C595.643 534.513 613.476 523.68 626.5 505C629.428 505.456 632.428 505.456 635.5 505C644.454 499.713 651.787 492.713 657.5 484C661.906 485.669 666.572 486.502 671.5 486.5C674.867 486.355 678.201 486.022 681.5 485.5C683.01 490.86 684.843 496.193 687 501.5C693.968 523.736 694.302 546.069 688 568.5C686.542 560.579 684.209 552.913 681 545.5C679.152 542.959 676.652 541.959 673.5 542.5Z" fill="#E8CBAF"/>
<path fill-rule="evenodd" clip-rule="evenodd" d="M341.5 486.5C344.263 492.803 347.763 498.803 352 504.5C358.414 510.914 364.748 517.248 371 523.5C371.483 524.448 371.649 525.448 371.5 526.5C365.354 553.949 372.021 577.782 391.5 598C397.313 598.171 399.48 595.338 398 589.5C384.522 572.565 378.356 553.231 379.5 531.5C385.758 533.629 391.425 536.795 396.5 541C398.134 541.494 399.801 541.66 401.5 541.5C401.183 545.702 401.517 549.702 402.5 553.5C405.734 575.813 416.068 593.979 433.5 608C440.757 610.746 443.923 608.246 443 600.5C426.763 587.704 416.93 571.038 413.5 550.5C413.369 549.624 413.702 548.957 414.5 548.5C441.493 562.417 470.16 570.75 500.5 573.5C501.183 573.137 501.85 572.804 502.5 572.5C504.614 574.787 507.114 576.454 510 577.5C510.833 577.333 511.667 577.167 512.5 577C514.703 574.628 517.037 572.461 519.5 570.5C521.743 571.812 524.41 572.478 527.5 572.5C555.414 570.122 581.58 562.122 606 548.5C606.464 549.094 606.631 549.761 606.5 550.5C602.747 570.753 592.913 587.42 577 600.5C576.373 609.198 579.873 611.365 587.5 607C605.189 593.127 615.189 574.96 617.5 552.5C618.479 549.375 618.813 546.042 618.5 542.5C625.351 539.677 632.018 536.343 638.5 532.5C639.489 536.107 639.823 539.774 639.5 543.5C638.497 560.336 632.664 575.336 622 588.5C620.996 591.993 621.496 595.159 623.5 598C625.167 598.667 626.833 598.667 628.5 598C648.23 577.243 654.563 553.076 647.5 525.5C652.961 521.211 658.294 516.711 663.5 512C664.944 511.219 666.277 511.386 667.5 512.5C668.145 513.646 668.978 514.646 670 515.5C672.951 524.26 674.118 533.26 673.5 542.5C671.774 544.82 671.107 547.487 671.5 550.5C674 581.534 665.833 609.201 647 633.5C645.43 636.379 643.263 637.045 640.5 635.5C638.971 635.529 637.804 636.196 637 637.5C637.065 649.01 635.732 660.344 633 671.5C629.764 680.525 625.931 689.192 621.5 697.5C620.326 698.514 619.66 699.847 619.5 701.5C616.75 702.191 614.083 703.191 611.5 704.5C611.167 704.167 610.833 703.833 610.5 703.5C615.449 693.213 618.783 682.379 620.5 671C620.106 665.937 617.439 663.937 612.5 665C607.614 680.605 600.448 695.105 591 708.5C583.723 712.315 576.223 715.649 568.5 718.5C568.062 718.565 567.728 718.399 567.5 718C570.377 710.6 572.877 703.1 575 695.5C575.821 692.446 575.655 689.446 574.5 686.5C571.285 693.045 566.952 698.711 561.5 703.5C560.548 701.955 560.215 700.288 560.5 698.5C566.502 686.826 570.502 674.492 572.5 661.5C572.135 655.631 569.135 653.464 563.5 655C559.984 665.871 555.484 676.371 550 686.5C542.441 698.561 532.941 708.895 521.5 717.5C520.526 719.743 520.192 722.076 520.5 724.5C518.241 734.89 516.574 745.39 515.5 756C515.581 757.924 515.914 759.757 516.5 761.5C514.612 765.606 512.446 769.606 510 773.5C505.418 764.772 499.918 756.772 493.5 749.5C490.492 743.456 487.492 737.456 484.5 731.5C483.365 728.662 482.365 725.662 481.5 722.5C484.516 722.229 487.182 723.396 489.5 726C493.066 726.957 496.066 726.124 498.5 723.5C499.631 721.926 499.798 720.259 499 718.5C477.709 703.863 464.376 683.863 459 658.5C453.264 651.284 449.097 651.95 446.5 660.5C447.101 665.211 447.935 669.878 449 674.5C451.466 680.424 453.632 686.424 455.5 692.5C455.631 693.376 455.298 694.043 454.5 694.5C450.511 689.86 447.011 684.86 444 679.5C445.822 692.288 448.989 704.788 453.5 717C453.164 718.03 452.497 718.53 451.5 718.5C444.97 715.403 438.304 712.57 431.5 710C420.788 698.079 413.622 684.245 410 668.5C404.189 663.697 400.689 665.031 399.5 672.5C400.183 683.198 403.183 693.198 408.5 702.5C405.732 703.478 403.066 703.145 400.5 701.5C396.919 696.672 393.585 691.672 390.5 686.5C388.279 678.702 385.445 671.036 382 663.5C381.501 658.177 381.334 652.844 381.5 647.5C381.665 644.15 381.498 640.817 381 637.5C377.155 633.325 374.155 633.992 372 639.5C371.333 643.5 371.333 647.5 372 651.5C372.5 653.333 373.667 654.5 375.5 655C374.207 655.49 372.873 655.657 371.5 655.5C363.973 648.98 357.973 641.313 353.5 632.5C347.782 621.297 344.282 609.297 343 596.5C342.333 587.833 342.333 579.167 343 570.5C344.885 562.193 346.218 553.859 347 545.5C343.706 542.689 340.706 543.022 338 546.5C334.429 554.784 332.429 563.45 332 572.5C323.625 545.705 324.792 519.372 335.5 493.5C337.06 491.046 338.06 488.38 338.5 485.5C339.791 485.263 340.791 485.596 341.5 486.5Z" fill="#FDF3E4"/>
<path fill-rule="evenodd" clip-rule="evenodd" d="M502.5 572.5C501.85 572.804 501.183 573.137 500.5 573.5C470.16 570.75 441.493 562.417 414.5 548.5C413.702 548.957 413.369 549.624 413.5 550.5C412.718 547.286 411.885 543.952 411 540.5C408.847 538.556 406.347 538.056 403.5 539C402.531 543.737 402.197 548.57 402.5 553.5C401.517 549.702 401.183 545.702 401.5 541.5C399.801 541.66 398.134 541.494 396.5 541C391.425 536.795 385.758 533.629 379.5 531.5C379.158 525.437 376.492 523.77 371.5 526.5C371.649 525.448 371.483 524.448 371 523.5C364.748 517.248 358.414 510.914 352 504.5C347.763 498.803 344.263 492.803 341.5 486.5C346.179 486.666 350.845 486.499 355.5 486C357.369 484.398 359.369 483.398 361.5 483C367.545 492.046 375.212 499.379 384.5 505C387.614 505.123 390.614 505.29 393.5 505.5C405.036 520.857 420.036 531.357 438.5 537C442.833 537.667 447.167 537.667 451.5 537C452.354 535.978 453.354 535.145 454.5 534.5C459.684 539.518 465.017 544.351 470.5 549C472.39 550.112 474.39 550.946 476.5 551.5C478.05 550.268 479.717 549.768 481.5 550C489.072 557.068 496.072 564.568 502.5 572.5Z" fill="#E9CEB3"/>
<path fill-rule="evenodd" clip-rule="evenodd" d="M405.5 489.5C406.132 492.362 407.132 495.196 408.5 498C406.159 498.168 404.826 497.001 404.5 494.5C405.301 492.958 405.634 491.292 405.5 489.5Z" fill="#BDAEA3"/>
<path fill-rule="evenodd" clip-rule="evenodd" d="M553.5 481.5C554.776 483.562 555.61 485.896 556 488.5C556.82 495.014 556.653 501.347 555.5 507.5C555.865 498.732 555.199 490.065 553.5 481.5Z" fill="#5A463B"/>
<path fill-rule="evenodd" clip-rule="evenodd" d="M335.5 493.5C324.792 519.372 323.625 545.705 332 572.5C332.429 563.45 334.429 554.784 338 546.5C340.706 543.022 343.706 542.689 347 545.5C346.218 553.859 344.885 562.193 343 570.5C342.333 579.167 342.333 587.833 343 596.5C344.282 609.297 347.782 621.297 353.5 632.5C355.219 640.272 352.219 643.772 344.5 643C343.333 641.833 342.167 640.667 341 639.5C332.378 624.182 327.211 607.849 325.5 590.5C323.572 585.886 321.739 581.219 320 576.5C318.476 578.898 316.976 581.231 315.5 583.5C315.337 581.143 315.503 578.81 316 576.5C316.914 577.654 317.747 577.487 318.5 576C317.552 575.517 316.552 575.351 315.5 575.5C315.5 568.833 315.5 562.167 315.5 555.5C313.708 555.634 312.042 555.301 310.5 554.5C311.146 540.183 311.979 525.85 313 511.5C315.056 503.413 317.556 495.413 320.5 487.5C312.855 486.669 305.188 486.169 297.5 486C290.371 484.901 283.705 482.734 277.5 479.5C276.36 476.975 275.693 474.308 275.5 471.5C278.167 471.5 280.833 471.5 283.5 471.5C283.5 470.167 283.5 468.833 283.5 467.5C284.833 467.5 286.167 467.5 287.5 467.5C287.928 472.422 287.928 476.922 287.5 481C289.843 480.876 292.177 480.376 294.5 479.5C296.593 479.486 298.426 480.152 300 481.5C304.383 481.327 308.883 480.66 313.5 479.5C315.5 479.833 317.5 480.167 319.5 480.5C323.351 481.345 325.351 483.678 325.5 487.5C326.833 487.5 328.167 487.5 329.5 487.5C329.5 489.5 329.5 491.5 329.5 493.5C331.703 493.065 333.703 493.065 335.5 493.5Z" fill="#1E0A04"/>
<path fill-rule="evenodd" clip-rule="evenodd" d="M647.5 525.5C654.563 553.076 648.23 577.243 628.5 598C626.833 598.667 625.167 598.667 623.5 598C621.496 595.159 620.996 591.993 622 588.5C632.664 575.336 638.497 560.336 639.5 543.5C640.327 538.015 640.827 532.348 641 526.5C642.898 524.316 645.064 523.983 647.5 525.5Z" fill="#210E09"/>
<path fill-rule="evenodd" clip-rule="evenodd" d="M413.5 550.5C416.93 571.038 426.763 587.704 443 600.5C443.923 608.246 440.757 610.746 433.5 608C416.068 593.979 405.734 575.813 402.5 553.5C402.197 548.57 402.531 543.737 403.5 539C406.347 538.056 408.847 538.556 411 540.5C411.885 543.952 412.718 547.286 413.5 550.5Z" fill="#1F0C06"/>
<path fill-rule="evenodd" clip-rule="evenodd" d="M708.5 524.5C709.181 532.235 709.848 540.068 710.5 548C709.663 549.011 709.33 550.178 709.5 551.5C708.507 542.682 708.173 533.682 708.5 524.5Z" fill="#DDC6BB"/>
<path fill-rule="evenodd" clip-rule="evenodd" d="M379.5 531.5C378.356 553.231 384.522 572.565 398 589.5C399.48 595.338 397.313 598.171 391.5 598C372.021 577.782 365.354 553.949 371.5 526.5C376.492 523.77 379.158 525.437 379.5 531.5Z" fill="#210E08"/>
<path fill-rule="evenodd" clip-rule="evenodd" d="M617.5 552.5C615.189 574.96 605.189 593.127 587.5 607C579.873 611.365 576.373 609.198 577 600.5C592.913 587.42 602.747 570.753 606.5 550.5C607.632 547.372 608.465 544.038 609 540.5C611.667 537.833 614.333 537.833 617 540.5C617.499 544.486 617.666 548.486 617.5 552.5Z" fill="#1E0C06"/>
<path fill-rule="evenodd" clip-rule="evenodd" d="M619.5 701.5C619.66 699.847 620.326 698.514 621.5 697.5C632.612 683.578 639.112 667.578 641 649.5C645.24 656.958 650.24 657.291 656 650.5C658.118 645.906 660.952 641.906 664.5 638.5C664.859 640.371 665.859 641.871 667.5 643C671.793 644.202 675.293 643.035 678 639.5C685.916 624.86 690.916 609.193 693 592.5C694.08 590.004 695.414 587.67 697 585.5C697.27 582.638 698.104 579.972 699.5 577.5C715.722 603.771 722.888 632.437 721 663.5C720.246 674.04 717.579 684.04 713 693.5C706.924 694.476 700.758 694.81 694.5 694.5C695.315 690.856 696.148 687.189 697 683.5C697.667 673.5 697.667 663.5 697 653.5C697.071 647.552 694.404 645.552 689 647.5C689.669 664.492 685.503 680.158 676.5 694.5C657.407 696.18 638.407 698.514 619.5 701.5Z" fill="#B78060"/>
<path fill-rule="evenodd" clip-rule="evenodd" d="M671.5 550.5C673.842 557.184 675.342 564.184 676 571.5C676.667 580.167 676.667 588.833 676 597.5C673.66 611.675 669.826 625.341 664.5 638.5C660.952 641.906 658.118 645.906 656 650.5C650.24 657.291 645.24 656.958 641 649.5C639.112 667.578 632.612 683.578 621.5 697.5C625.931 689.192 629.764 680.525 633 671.5C635.732 660.344 637.065 649.01 637 637.5C637.804 636.196 638.971 635.529 640.5 635.5C643.263 637.045 645.43 636.379 647 633.5C665.833 609.201 674 581.534 671.5 550.5Z" fill="#E7CDB2"/>
<path fill-rule="evenodd" clip-rule="evenodd" d="M325.5 590.5C308.395 623.327 303.395 657.993 310.5 694.5C308.5 694.5 306.5 694.5 304.5 694.5C301.213 685.463 299.047 676.13 298 666.5C297.049 646.771 299.383 627.437 305 608.5C308.791 600.294 312.291 591.96 315.5 583.5C316.976 581.231 318.476 578.898 320 576.5C321.739 581.219 323.572 585.886 325.5 590.5Z" fill="#F9F1DF"/>
<path fill-rule="evenodd" clip-rule="evenodd" d="M325.5 590.5C327.211 607.849 332.378 624.182 341 639.5C342.167 640.667 343.333 641.833 344.5 643C352.219 643.772 355.219 640.272 353.5 632.5C357.973 641.313 363.973 648.98 371.5 655.5C372.919 656.451 374.585 656.784 376.5 656.5C377.117 656.611 377.617 656.944 378 657.5C380.54 667.979 384.706 677.646 390.5 686.5C393.585 691.672 396.919 696.672 400.5 701.5C381.346 697.907 362.013 695.907 342.5 695.5C339.957 689.412 337.124 683.412 334 677.5C331.262 667.691 329.928 657.691 330 647.5C325.127 645.348 322.46 647.015 322 652.5C320.52 666.439 321.687 680.106 325.5 693.5C320.544 694.494 315.544 694.827 310.5 694.5C303.395 657.993 308.395 623.327 325.5 590.5Z" fill="#B78061"/>
<path fill-rule="evenodd" clip-rule="evenodd" d="M381.5 647.5C380.71 646.391 380.21 645.058 380 643.5C377.138 647.343 375.971 651.676 376.5 656.5C374.585 656.784 372.919 656.451 371.5 655.5C372.873 655.657 374.207 655.49 375.5 655C373.667 654.5 372.5 653.333 372 651.5C371.333 647.5 371.333 643.5 372 639.5C374.155 633.992 377.155 633.325 381 637.5C381.498 640.817 381.665 644.15 381.5 647.5Z" fill="#E9CEB2"/>
<path fill-rule="evenodd" clip-rule="evenodd" d="M381.5 647.5C381.334 652.844 381.501 658.177 382 663.5C385.445 671.036 388.279 678.702 390.5 686.5C384.706 677.646 380.54 667.979 378 657.5C377.617 656.944 377.117 656.611 376.5 656.5C375.971 651.676 377.138 647.343 380 643.5C380.21 645.058 380.71 646.391 381.5 647.5Z" fill="#D5B79D"/>
<path fill-rule="evenodd" clip-rule="evenodd" d="M310.5 554.5C312.042 555.301 313.708 555.634 315.5 555.5C315.5 562.167 315.5 568.833 315.5 575.5C316.552 575.351 317.552 575.517 318.5 576C317.747 577.487 316.914 577.654 316 576.5C315.503 578.81 315.337 581.143 315.5 583.5C312.291 591.96 308.791 600.294 305 608.5C299.383 627.437 297.049 646.771 298 666.5C299.047 676.13 301.213 685.463 304.5 694.5C306.5 694.5 308.5 694.5 310.5 694.5C315.544 694.827 320.544 694.494 325.5 693.5C321.687 680.106 320.52 666.439 322 652.5C322.46 647.015 325.127 645.348 330 647.5C329.928 657.691 331.262 667.691 334 677.5C337.124 683.412 339.957 689.412 342.5 695.5C362.013 695.907 381.346 697.907 400.5 701.5C403.066 703.145 405.732 703.478 408.5 702.5C403.183 693.198 400.183 683.198 399.5 672.5C400.689 665.031 404.189 663.697 410 668.5C413.622 684.245 420.788 698.079 431.5 710C438.304 712.57 444.97 715.403 451.5 718.5C456.019 721.014 460.519 723.681 465 726.5C464.256 718.884 463.256 711.217 462 703.5C459.807 699.77 457.64 696.103 455.5 692.5C453.632 686.424 451.466 680.424 449 674.5C447.935 669.878 447.101 665.211 446.5 660.5C449.097 651.95 453.264 651.284 459 658.5C464.376 683.863 477.709 703.863 499 718.5C499.798 720.259 499.631 721.926 498.5 723.5C496.066 726.124 493.066 726.957 489.5 726C487.182 723.396 484.516 722.229 481.5 722.5C482.365 725.662 483.365 728.662 484.5 731.5C485.045 734.813 485.545 738.146 486 741.5C488.733 744.062 491.233 746.729 493.5 749.5C499.918 756.772 505.418 764.772 510 773.5C512.446 769.606 514.612 765.606 516.5 761.5C518.833 758.833 521.167 756.167 523.5 753.5C523.611 754.117 523.944 754.617 524.5 755C528.771 756.008 532.771 755.508 536.5 753.5C537.605 755.611 539.271 756.945 541.5 757.5C537.612 761.312 534.778 765.645 533 770.5C546.664 758.749 562.164 750.249 579.5 745C589.58 742.118 599.747 739.618 610 737.5C617.662 737.984 619.162 741.151 614.5 747C581.707 751.74 552.707 764.573 527.5 785.5C525.61 785.297 524.11 785.963 523 787.5C521.273 790.618 520.439 793.951 520.5 797.5C523.643 797.031 525.977 795.364 527.5 792.5C569.812 765.794 616.145 752.96 666.5 754C670.5 757 670.5 760 666.5 763C656.474 763.624 646.474 764.457 636.5 765.5C628.55 765.946 620.883 767.279 613.5 769.5C578.35 774.5 547.517 788.5 521 811.5C520.333 814.167 520.333 816.833 521 819.5C540.415 803.709 562.248 792.542 586.5 786C600.745 782.584 615.078 779.751 629.5 777.5C634.453 777.877 639.119 777.211 643.5 775.5C669.439 773.185 695.439 772.351 721.5 773C726.329 775.837 726.663 779.171 722.5 783C703.814 783.232 685.147 783.732 666.5 784.5C655.912 784.371 645.579 785.371 635.5 787.5C634.5 787.5 633.5 787.5 632.5 787.5C627.9 787.28 623.567 787.946 619.5 789.5C609.732 790.987 600.065 792.987 590.5 795.5C564.365 802.481 541.199 814.814 521 832.5C520.192 834.579 520.359 836.579 521.5 838.5C547.024 819.768 575.357 807.435 606.5 801.5C621.333 798.381 636.333 796.381 651.5 795.5C658.711 795.542 665.711 794.875 672.5 793.5C704.81 792.362 737.144 792.196 769.5 793C772.343 796.619 772.01 799.952 768.5 803C736.167 803.333 703.833 803.667 671.5 804C632.143 805.331 594.143 812.997 557.5 827C544.565 833.129 532.898 840.963 522.5 850.5C519.169 854.303 515.502 857.803 511.5 861C509.5 861.667 507.5 861.667 505.5 861C503.963 859.293 502.296 857.793 500.5 856.5C492.181 847.015 482.514 839.182 471.5 833C437.489 816.336 401.489 807.002 363.5 805C326.177 803.849 288.844 803.182 251.5 803C246.735 799.982 246.402 796.649 250.5 793C280.5 792.333 310.5 792.333 340.5 793C379.686 793.803 417.686 800.637 454.5 813.5C469.601 820.884 483.934 829.551 497.5 839.5C498.647 837.235 498.814 834.902 498 832.5C484.916 821.037 470.416 811.704 454.5 804.5C438.835 797.558 422.502 792.724 405.5 790C370.079 784.192 334.413 781.859 298.5 783C293.767 780.078 293.434 776.745 297.5 773C338.516 771.649 379.183 774.649 419.5 782C431.214 785.405 442.881 788.905 454.5 792.5C469.915 799.711 484.249 808.711 497.5 819.5C498.652 816.894 498.818 814.227 498 811.5C485.606 800.052 471.773 790.718 456.5 783.5C434.933 775.022 412.6 768.855 389.5 765C386.797 763.18 385.964 760.68 387 757.5C388.126 756.056 389.626 755.39 391.5 755.5C412.857 758.434 433.524 763.768 453.5 771.5C468.995 778.588 483.662 787.255 497.5 797.5C497.084 785.323 492.751 774.656 484.5 765.5C469.215 747.418 450.215 734.584 427.5 727C400.132 716.66 371.798 711.327 342.5 711C321.492 710.167 300.492 710.334 279.5 711.5C261.667 741.833 243.833 772.167 226 802.5C224.5 804 223 805.5 221.5 807C214.495 808.324 211.995 805.49 214 798.5C228.446 773.269 242.613 747.936 256.5 722.5C257.479 721.235 258.479 719.901 259.5 718.5C258.833 718.167 258.167 717.833 257.5 717.5C253.339 718.04 249.339 718.707 245.5 719.5C223.479 757.698 201.813 796.198 180.5 835C185.823 835.499 191.156 835.666 196.5 835.5C268.669 835.167 340.669 835.501 412.5 836.5C336.164 836.167 259.83 836.5 183.5 837.5C184.527 839.024 186.027 839.691 188 839.5C190.501 839.416 192.834 838.75 195 837.5C197.993 839.218 200.66 839.552 203 838.5C203.494 840.134 203.66 841.801 203.5 843.5C204.833 843.5 206.167 843.5 207.5 843.5C207.5 842.167 207.5 840.833 207.5 839.5C210.394 839.958 212.894 839.291 215 837.5C215.75 838.126 216.584 838.626 217.5 839C216.62 840.356 216.286 841.856 216.5 843.5C218.833 843.5 221.167 843.5 223.5 843.5C223.5 844.833 223.5 846.167 223.5 847.5C226.187 847.336 228.854 847.503 231.5 848C230.228 849.046 228.728 849.546 227 849.5C210.491 848.856 193.991 848.189 177.5 847.5C175.559 847.804 173.893 848.637 172.5 850C252.334 850.167 332.001 850.667 411.5 851.5C331.497 851.167 251.497 851.5 171.5 852.5C170.807 853.518 170.141 854.518 169.5 855.5C168.596 856.209 168.263 857.209 168.5 858.5C186.167 858.5 203.833 858.5 221.5 858.5C219.708 859.309 217.708 859.809 215.5 860C202.833 860.333 190.167 860.667 177.5 861C173.494 862.168 169.494 863.335 165.5 864.5C166.025 865.192 166.692 865.692 167.5 866C173.765 866.158 179.932 866.991 186 868.5C187.167 868.333 188.333 868.167 189.5 868C187.5 867.333 185.5 866.667 183.5 866C186.102 864.86 188.769 864.027 191.5 863.5C191.5 866.167 191.5 868.833 191.5 871.5C240.336 871.168 289.003 871.501 337.5 872.5C289.5 872.5 241.5 872.5 193.5 872.5C179.163 872.667 164.829 872.5 150.5 872C146.874 869.749 145.707 866.582 147 862.5C175.707 810.919 204.54 759.419 233.5 708C236.674 706.275 240.007 704.942 243.5 704C255.34 700.665 267.34 698.165 279.5 696.5C282.5 696.5 285.5 696.5 288.5 696.5C288.737 695.209 288.404 694.209 287.5 693.5C280.236 672.285 278.736 650.618 283 628.5C288.565 602.393 297.732 577.726 310.5 554.5Z" fill="#1F0D07"/>
<path fill-rule="evenodd" clip-rule="evenodd" d="M287.5 693.5C288.404 694.209 288.737 695.209 288.5 696.5C285.5 696.5 282.5 696.5 279.5 696.5C282.477 696.098 285.143 695.098 287.5 693.5Z" fill="#5F4C44"/>
<path fill-rule="evenodd" clip-rule="evenodd" d="M568.5 718.5C563.898 721.476 559.231 724.476 554.5 727.5C554.011 717.304 556.011 707.638 560.5 698.5C560.215 700.288 560.548 701.955 561.5 703.5C566.952 698.711 571.285 693.045 574.5 686.5C575.655 689.446 575.821 692.446 575 695.5C572.877 703.1 570.377 710.6 567.5 718C567.728 718.399 568.062 718.565 568.5 718.5Z" fill="#E2C9B2"/>
<path fill-rule="evenodd" clip-rule="evenodd" d="M455.5 692.5C457.64 696.103 459.807 699.77 462 703.5C463.256 711.217 464.256 718.884 465 726.5C460.519 723.681 456.019 721.014 451.5 718.5C452.497 718.53 453.164 718.03 453.5 717C448.989 704.788 445.822 692.288 444 679.5C447.011 684.86 450.511 689.86 454.5 694.5C455.298 694.043 455.631 693.376 455.5 692.5Z" fill="#E4C7AE"/>
<path fill-rule="evenodd" clip-rule="evenodd" d="M763.5 718.5C762.508 718.328 761.842 718.662 761.5 719.5C760.957 719.44 760.624 719.107 760.5 718.5C761.614 717.224 762.614 717.224 763.5 718.5Z" fill="#8C766F"/>
<path fill-rule="evenodd" clip-rule="evenodd" d="M256.5 722.5C256.5 721.5 256.5 720.5 256.5 719.5C252.833 719.5 249.167 719.5 245.5 719.5C249.339 718.707 253.339 718.04 257.5 717.5C258.167 717.833 258.833 718.167 259.5 718.5C258.479 719.901 257.479 721.235 256.5 722.5Z" fill="#C5B8AF"/>
<path fill-rule="evenodd" clip-rule="evenodd" d="M523.5 753.5C521.167 756.167 518.833 758.833 516.5 761.5C515.914 759.757 515.581 757.924 515.5 756C516.574 745.39 518.241 734.89 520.5 724.5C521.879 725.609 523.545 726.276 525.5 726.5C529.453 726.027 533.119 724.693 536.5 722.5C537.259 728.503 536.926 734.503 535.5 740.5C530.799 744.201 526.799 748.534 523.5 753.5Z" fill="#E8CBB0"/>
<path fill-rule="evenodd" clip-rule="evenodd" d="M411.5 737.5C413.599 738.612 415.933 739.279 418.5 739.5C442.946 743.754 464.946 753.421 484.5 768.5C486.744 770.584 488.411 773.084 489.5 776C488.942 778.058 487.609 779.225 485.5 779.5C477.634 774.065 469.301 769.399 460.5 765.5C459.014 763.381 457.014 761.881 454.5 761C438.242 754.616 421.575 749.616 404.5 746C402.016 743.716 401.849 741.216 404 738.5C406.381 737.565 408.881 737.232 411.5 737.5Z" fill="#1E0E08"/>
<path fill-rule="evenodd" clip-rule="evenodd" d="M484.5 731.5C487.492 737.456 490.492 743.456 493.5 749.5C491.233 746.729 488.733 744.062 486 741.5C485.545 738.146 485.045 734.813 484.5 731.5Z" fill="#E3C9B9"/>
<path fill-rule="evenodd" clip-rule="evenodd" d="M484.5 765.5C484.5 766.5 484.5 767.5 484.5 768.5C464.946 753.421 442.946 743.754 418.5 739.5C416.562 737.837 414.228 737.171 411.5 737.5C408.881 737.232 406.381 737.565 404 738.5C401.849 741.216 402.016 743.716 404.5 746C421.575 749.616 438.242 754.616 454.5 761C457.014 761.881 459.014 763.381 460.5 765.5C459.213 767.637 458.379 769.97 458 772.5C456.644 771.62 455.144 771.286 453.5 771.5C433.524 763.768 412.857 758.434 391.5 755.5C389.626 755.39 388.126 756.056 387 757.5C385.964 760.68 386.797 763.18 389.5 765C412.6 768.855 434.933 775.022 456.5 783.5C458.183 787.095 457.517 790.095 454.5 792.5C442.881 788.905 431.214 785.405 419.5 782C379.183 774.649 338.516 771.649 297.5 773C293.434 776.745 293.767 780.078 298.5 783C334.413 781.859 370.079 784.192 405.5 790C422.502 792.724 438.835 797.558 454.5 804.5C455.681 807.638 455.681 810.638 454.5 813.5C417.686 800.637 379.686 793.803 340.5 793C310.5 792.333 280.5 792.333 250.5 793C246.402 796.649 246.735 799.982 251.5 803C288.844 803.182 326.177 803.849 363.5 805C401.489 807.002 437.489 816.336 471.5 833C482.514 839.182 492.181 847.015 500.5 856.5C500.631 857.376 500.298 858.043 499.5 858.5C485.499 845.665 469.499 836.165 451.5 830C426.048 821.575 400.048 816.242 373.5 814C336.44 812.842 299.44 813.842 262.5 817C242.859 819.775 223.192 822.108 203.5 824C200.514 827.478 198.181 831.311 196.5 835.5C191.156 835.666 185.823 835.499 180.5 835C201.813 796.198 223.479 757.698 245.5 719.5C249.167 719.5 252.833 719.5 256.5 719.5C256.5 720.5 256.5 721.5 256.5 722.5C242.613 747.936 228.446 773.269 214 798.5C211.995 805.49 214.495 808.324 221.5 807C223 805.5 224.5 804 226 802.5C243.833 772.167 261.667 741.833 279.5 711.5C300.492 710.334 321.492 710.167 342.5 711C371.798 711.327 400.132 716.66 427.5 727C450.215 734.584 469.215 747.418 484.5 765.5Z" fill="#FAF2E3"/>
<path fill-rule="evenodd" clip-rule="evenodd" d="M411.5 737.5C414.228 737.171 416.562 737.837 418.5 739.5C415.933 739.279 413.599 738.612 411.5 737.5Z" fill="#AC9C91"/>
<path fill-rule="evenodd" clip-rule="evenodd" d="M286.5 727.5C313.215 726.971 339.882 727.804 366.5 730C369.036 730.339 371.536 730.839 374 731.5C377.063 734.152 377.229 736.985 374.5 740C361.471 740.176 348.471 739.509 335.5 738C318.833 737.667 302.167 737.333 285.5 737C282.753 733.553 283.087 730.386 286.5 727.5Z" fill="#1D0B08"/>
<path fill-rule="evenodd" clip-rule="evenodd" d="M342.5 754.5C349.175 754.334 355.842 754.5 362.5 755C366.424 757.818 366.424 760.818 362.5 764C355.808 764.453 349.141 764.119 342.5 763C339.885 760.093 339.885 757.26 342.5 754.5Z" fill="#20110C"/>
<path fill-rule="evenodd" clip-rule="evenodd" d="M270.5 753.5C286.17 753.333 301.837 753.5 317.5 754C322.395 756.823 322.729 760.157 318.5 764C302.167 764.667 285.833 764.667 269.5 764C266.711 760.225 267.045 756.725 270.5 753.5Z" fill="#241412"/>
<path fill-rule="evenodd" clip-rule="evenodd" d="M761.5 719.5C761.842 718.662 762.508 718.328 763.5 718.5C767.129 719.1 770.796 719.767 774.5 720.5C784.86 738.563 795.194 756.563 805.5 774.5C816.092 794.848 827.092 815.015 838.5 835C834.514 835.499 830.514 835.666 826.5 835.5C823.38 831.208 820.047 827.041 816.5 823C795.658 822.261 774.991 819.927 754.5 816C721.529 813.846 688.529 813.179 655.5 814C623.016 815.85 591.349 821.85 560.5 832C547.173 837.746 534.673 844.913 523 853.5C522.517 852.552 522.351 851.552 522.5 850.5C532.898 840.963 544.565 833.129 557.5 827C594.143 812.997 632.143 805.331 671.5 804C703.833 803.667 736.167 803.333 768.5 803C772.01 799.952 772.343 796.619 769.5 793C737.144 792.196 704.81 792.362 672.5 793.5C665.289 793.458 658.289 794.125 651.5 795.5C636.333 796.381 621.333 798.381 606.5 801.5C603.622 800.415 600.789 800.415 598 801.5C595.18 800.605 592.346 799.771 589.5 799C592.167 798.333 592.167 797.667 589.5 797C590.056 796.617 590.389 796.117 590.5 795.5C600.065 792.987 609.732 790.987 619.5 789.5C624.1 789.72 628.433 789.054 632.5 787.5C633.5 787.5 634.5 787.5 635.5 787.5C643.065 786.515 650.565 786.515 658 787.5C660.714 786.004 663.547 785.004 666.5 784.5C685.147 783.732 703.814 783.232 722.5 783C726.663 779.171 726.329 775.837 721.5 773C695.439 772.351 669.439 773.185 643.5 775.5C638.647 775.813 633.98 776.479 629.5 777.5C615.078 779.751 600.745 782.584 586.5 786C562.248 792.542 540.415 803.709 521 819.5C520.333 816.833 520.333 814.167 521 811.5C547.517 788.5 578.35 774.5 613.5 769.5C621.411 768.741 629.078 767.408 636.5 765.5C646.474 764.457 656.474 763.624 666.5 763C670.5 760 670.5 757 666.5 754C616.145 752.96 569.812 765.794 527.5 792.5C527.177 790.351 527.177 788.017 527.5 785.5C552.707 764.573 581.707 751.74 614.5 747C619.162 741.151 617.662 737.984 610 737.5C599.747 739.618 589.58 742.118 579.5 745C562.164 750.249 546.664 758.749 533 770.5C534.778 765.645 537.612 761.312 541.5 757.5C563.576 737.795 589.243 724.962 618.5 719C658.424 710.805 698.758 708.305 739.5 711.5C757.538 743.039 776.205 774.206 795.5 805C797.513 806.257 799.679 807.091 802 807.5C806.051 806.792 807.718 804.459 807 800.5C791.809 773.445 776.643 746.445 761.5 719.5Z" fill="#FAF3E4"/>
<path fill-rule="evenodd" clip-rule="evenodd" d="M691.5 753.5C710.503 753.333 729.503 753.5 748.5 754C753.395 756.823 753.729 760.157 749.5 764C729.833 764.667 710.167 764.667 690.5 764C687.711 760.225 688.045 756.725 691.5 753.5Z" fill="#241411"/>
<path fill-rule="evenodd" clip-rule="evenodd" d="M731.5 728.5C735.04 731.255 735.373 734.421 732.5 738C705.804 738.071 679.138 738.904 652.5 740.5C649.833 740.333 647.167 740.167 644.5 740C641.689 736.706 642.022 733.706 645.5 731C652.136 730.048 658.803 729.548 665.5 729.5C687.487 728.619 709.487 728.286 731.5 728.5Z" fill="#1F0E0B"/>
<path fill-rule="evenodd" clip-rule="evenodd" d="M731.5 728.5C709.487 728.286 687.487 728.619 665.5 729.5C668.305 728.681 671.305 728.181 674.5 728C693.671 727.171 712.671 727.338 731.5 728.5Z" fill="#56423A"/>
<path fill-rule="evenodd" clip-rule="evenodd" d="M636.5 765.5C629.078 767.408 621.411 768.741 613.5 769.5C620.883 767.279 628.55 765.946 636.5 765.5Z" fill="#BAA899"/>
<path fill-rule="evenodd" clip-rule="evenodd" d="M643.5 775.5C639.119 777.211 634.453 777.877 629.5 777.5C633.98 776.479 638.647 775.813 643.5 775.5Z" fill="#72574D"/>
<path fill-rule="evenodd" clip-rule="evenodd" d="M460.5 765.5C469.301 769.399 477.634 774.065 485.5 779.5C487.609 779.225 488.942 778.058 489.5 776C488.411 773.084 486.744 770.584 484.5 768.5C484.5 767.5 484.5 766.5 484.5 765.5C492.751 774.656 497.084 785.323 497.5 797.5C483.662 787.255 468.995 778.588 453.5 771.5C455.144 771.286 456.644 771.62 458 772.5C458.379 769.97 459.213 767.637 460.5 765.5Z" fill="#E2CBB3"/>
<path fill-rule="evenodd" clip-rule="evenodd" d="M666.5 784.5C663.547 785.004 660.714 786.004 658 787.5C650.565 786.515 643.065 786.515 635.5 787.5C645.579 785.371 655.912 784.371 666.5 784.5Z" fill="#DECFC0"/>
<path fill-rule="evenodd" clip-rule="evenodd" d="M632.5 787.5C628.433 789.054 624.1 789.72 619.5 789.5C623.567 787.946 627.9 787.28 632.5 787.5Z" fill="#C9B7A5"/>
<path fill-rule="evenodd" clip-rule="evenodd" d="M527.5 785.5C527.177 788.017 527.177 790.351 527.5 792.5C525.977 795.364 523.643 797.031 520.5 797.5C520.439 793.951 521.273 790.618 523 787.5C524.11 785.963 525.61 785.297 527.5 785.5Z" fill="#E2CEB4"/>
<path fill-rule="evenodd" clip-rule="evenodd" d="M672.5 793.5C665.711 794.875 658.711 795.542 651.5 795.5C658.289 794.125 665.289 793.458 672.5 793.5Z" fill="#573D31"/>
<path fill-rule="evenodd" clip-rule="evenodd" d="M590.5 795.5C590.389 796.117 590.056 796.617 589.5 797C592.167 797.667 592.167 798.333 589.5 799C592.346 799.771 595.18 800.605 598 801.5C600.789 800.415 603.622 800.415 606.5 801.5C575.357 807.435 547.024 819.768 521.5 838.5C520.359 836.579 520.192 834.579 521 832.5C541.199 814.814 564.365 802.481 590.5 795.5Z" fill="#F7EFDD"/>
<path fill-rule="evenodd" clip-rule="evenodd" d="M456.5 783.5C471.773 790.718 485.606 800.052 498 811.5C498.818 814.227 498.652 816.894 497.5 819.5C484.249 808.711 469.915 799.711 454.5 792.5C457.517 790.095 458.183 787.095 456.5 783.5Z" fill="#E4CEB5"/>
<path fill-rule="evenodd" clip-rule="evenodd" d="M454.5 804.5C470.416 811.704 484.916 821.037 498 832.5C498.814 834.902 498.647 837.235 497.5 839.5C483.934 829.551 469.601 820.884 454.5 813.5C455.681 810.638 455.681 807.638 454.5 804.5Z" fill="#E5CBB0"/>
<path fill-rule="evenodd" clip-rule="evenodd" d="M500.5 856.5C502.296 857.793 503.963 859.293 505.5 861C507.5 861.667 509.5 861.667 511.5 861C515.502 857.803 519.169 854.303 522.5 850.5C522.351 851.552 522.517 852.552 523 853.5C534.673 844.913 547.173 837.746 560.5 832C591.349 821.85 623.016 815.85 655.5 814C688.529 813.179 721.529 813.846 754.5 816C774.991 819.927 795.658 822.261 816.5 823C820.047 827.041 823.38 831.208 826.5 835.5C752.166 835.333 677.833 835.5 603.5 836C575.111 839.528 551.111 851.528 531.5 872C516.489 872.833 501.489 872.666 486.5 871.5C466.225 850.697 441.559 839.031 412.5 836.5C340.669 835.501 268.669 835.167 196.5 835.5C198.181 831.311 200.514 827.478 203.5 824C223.192 822.108 242.859 819.775 262.5 817C299.44 813.842 336.44 812.842 373.5 814C400.048 816.242 426.048 821.575 451.5 830C469.499 836.165 485.499 845.665 499.5 858.5C500.298 858.043 500.631 857.376 500.5 856.5Z" fill="#E9CFB3"/>
<path fill-rule="evenodd" clip-rule="evenodd" d="M822.5 772.5C837.273 797.71 851.273 823.377 864.5 849.5C860.851 849.345 858.184 847.678 856.5 844.5C855.264 845.246 853.93 845.579 852.5 845.5C852.273 850.544 852.606 855.544 853.5 860.5C853.444 861.737 852.944 862.737 852 863.5C851.097 862.299 849.931 861.465 848.5 861C838.49 860.37 828.49 860.537 818.5 861.5C803.16 860.277 787.826 859.944 772.5 860.5C766.983 860.125 761.649 859.458 756.5 858.5C768.5 858.5 780.5 858.5 792.5 858.5C812.004 859.828 831.671 859.828 851.5 858.5C851.376 857.893 851.043 857.56 850.5 857.5C850.5 856.833 850.167 856.5 849.5 856.5C848.883 854.771 847.883 853.271 846.5 852C764.167 851.333 681.833 851.333 599.5 852C593.346 852.968 587.346 854.468 581.5 856.5C580.244 856.461 579.244 856.961 578.5 858C637.499 858.5 696.499 858.667 755.5 858.5C738.181 859.99 720.681 860.99 703 861.5C697.196 860.669 691.362 860.335 685.5 860.5C686.876 863.658 687.542 866.991 687.5 870.5C691.846 870.666 696.179 870.499 700.5 870C701.5 868 702.5 868 703.5 870C710.346 870.172 717.013 870.672 723.5 871.5C676.664 871.168 629.997 871.501 583.5 872.5C574.494 881.506 565.827 890.84 557.5 900.5C554.191 904.309 550.191 907.142 545.5 909C521.5 909.667 497.5 909.667 473.5 909C469.957 905.951 466.291 903.118 462.5 900.5C453.339 891.172 444.339 881.672 435.5 872C424.839 871.5 414.172 871.333 403.5 871.5C405.265 870.539 407.265 870.205 409.5 870.5C409.5 869.5 409.5 868.5 409.5 867.5C411.492 867.672 413.158 867.005 414.5 865.5C415.842 867.005 417.508 867.672 419.5 867.5C419.5 865.167 419.5 862.833 419.5 860.5C381.996 860.832 344.663 860.498 307.5 859.5C318.346 859.828 329.013 859.494 339.5 858.5C372.502 858.667 405.502 858.5 438.5 858C437.756 856.961 436.756 856.461 435.5 856.5C428.969 854.547 422.302 853.213 415.5 852.5C414.432 851.566 413.099 851.232 411.5 851.5C332.001 850.667 252.334 850.167 172.5 850C173.893 848.637 175.559 847.804 177.5 847.5C193.991 848.189 210.491 848.856 227 849.5C228.728 849.546 230.228 849.046 231.5 848C228.854 847.503 226.187 847.336 223.5 847.5C223.5 846.167 223.5 844.833 223.5 843.5C221.167 843.5 218.833 843.5 216.5 843.5C216.286 841.856 216.62 840.356 217.5 839C216.584 838.626 215.75 838.126 215 837.5C212.894 839.291 210.394 839.958 207.5 839.5C207.5 840.833 207.5 842.167 207.5 843.5C206.167 843.5 204.833 843.5 203.5 843.5C203.66 841.801 203.494 840.134 203 838.5C200.66 839.552 197.993 839.218 195 837.5C192.834 838.75 190.501 839.416 188 839.5C186.027 839.691 184.527 839.024 183.5 837.5C259.83 836.5 336.164 836.167 412.5 836.5C441.559 839.031 466.225 850.697 486.5 871.5C501.489 872.666 516.489 872.833 531.5 872C551.111 851.528 575.111 839.528 603.5 836C677.833 835.5 752.166 835.333 826.5 835.5C830.514 835.666 834.514 835.499 838.5 835C827.092 815.015 816.092 794.848 805.5 774.5C805.177 770.774 805.511 767.107 806.5 763.5C807.429 764.689 807.762 766.022 807.5 767.5C808.833 767.5 810.167 767.5 811.5 767.5C811.5 768.833 811.5 770.167 811.5 771.5C812.833 771.5 814.167 771.5 815.5 771.5C815.5 773.5 815.5 775.5 815.5 777.5C816.833 777.5 818.167 777.5 819.5 777.5C818.916 774.715 819.916 773.048 822.5 772.5Z" fill="#1D0702"/>
<path fill-rule="evenodd" clip-rule="evenodd" d="M864.5 849.5C868.059 854.116 870.726 859.282 872.5 865C872.293 867.924 870.96 870.09 868.5 871.5C820.167 871.5 771.833 871.5 723.5 871.5C717.013 870.672 710.346 870.172 703.5 870C702.5 868 701.5 868 700.5 870C696.179 870.499 691.846 870.666 687.5 870.5C687.542 866.991 686.876 863.658 685.5 860.5C691.362 860.335 697.196 860.669 703 861.5C720.681 860.99 738.181 859.99 755.5 858.5C755.833 858.5 756.167 858.5 756.5 858.5C761.649 859.458 766.983 860.125 772.5 860.5C787.826 859.944 803.16 860.277 818.5 861.5C828.49 860.537 838.49 860.37 848.5 861C849.931 861.465 851.097 862.299 852 863.5C852.944 862.737 853.444 861.737 853.5 860.5C852.606 855.544 852.273 850.544 852.5 845.5C853.93 845.579 855.264 845.246 856.5 844.5C858.184 847.678 860.851 849.345 864.5 849.5Z" fill="#160400"/>
<path fill-rule="evenodd" clip-rule="evenodd" d="M411.5 851.5C413.099 851.232 414.432 851.566 415.5 852.5C335.166 852.333 254.833 852.5 174.5 853C172.137 853.589 171.137 855.089 171.5 857.5C170.167 857.5 169.5 856.833 169.5 855.5C170.141 854.518 170.807 853.518 171.5 852.5C251.497 851.5 331.497 851.167 411.5 851.5Z" fill="#A2705B"/>
<path fill-rule="evenodd" clip-rule="evenodd" d="M415.5 852.5C422.302 853.213 428.969 854.547 435.5 856.5C347.668 857.499 259.668 857.833 171.5 857.5C171.137 855.089 172.137 853.589 174.5 853C254.833 852.5 335.166 852.333 415.5 852.5Z" fill="#B68267"/>
<path fill-rule="evenodd" clip-rule="evenodd" d="M849.5 856.5C760.167 857.833 670.833 857.833 581.5 856.5C587.346 854.468 593.346 852.968 599.5 852C681.833 851.333 764.167 851.333 846.5 852C847.883 853.271 848.883 854.771 849.5 856.5Z" fill="#B37D62"/>
<path fill-rule="evenodd" clip-rule="evenodd" d="M169.5 855.5C169.5 856.833 170.167 857.5 171.5 857.5C259.668 857.833 347.668 857.499 435.5 856.5C436.756 856.461 437.756 856.961 438.5 858C405.502 858.5 372.502 858.667 339.5 858.5C300.5 858.5 261.5 858.5 222.5 858.5C222.167 858.5 221.833 858.5 221.5 858.5C203.833 858.5 186.167 858.5 168.5 858.5C168.263 857.209 168.596 856.209 169.5 855.5Z" fill="#724935"/>
<path fill-rule="evenodd" clip-rule="evenodd" d="M581.5 856.5C670.833 857.833 760.167 857.833 849.5 856.5C850.167 856.5 850.5 856.833 850.5 857.5C831.341 858.497 812.007 858.83 792.5 858.5C780.5 858.5 768.5 858.5 756.5 858.5C756.167 858.5 755.833 858.5 755.5 858.5C696.499 858.667 637.499 858.5 578.5 858C579.244 856.961 580.244 856.461 581.5 856.5Z" fill="#734B38"/>
<path fill-rule="evenodd" clip-rule="evenodd" d="M222.5 858.5C261.5 858.5 300.5 858.5 339.5 858.5C329.013 859.494 318.346 859.828 307.5 859.5C286.156 859.262 264.823 859.595 243.5 860.5C236.311 860.232 229.311 859.565 222.5 858.5Z" fill="#270800"/>
<path fill-rule="evenodd" clip-rule="evenodd" d="M850.5 857.5C851.043 857.56 851.376 857.893 851.5 858.5C831.671 859.828 812.004 859.828 792.5 858.5C812.007 858.83 831.341 858.497 850.5 857.5Z" fill="#2C0F01"/>
<path fill-rule="evenodd" clip-rule="evenodd" d="M221.5 858.5C221.833 858.5 222.167 858.5 222.5 858.5C229.311 859.565 236.311 860.232 243.5 860.5C264.823 859.595 286.156 859.262 307.5 859.5C344.663 860.498 381.996 860.832 419.5 860.5C419.5 862.833 419.5 865.167 419.5 867.5C417.508 867.672 415.842 867.005 414.5 865.5C413.158 867.005 411.492 867.672 409.5 867.5C409.5 868.5 409.5 869.5 409.5 870.5C407.265 870.205 405.265 870.539 403.5 871.5C381.425 871.178 359.425 871.511 337.5 872.5C289.003 871.501 240.336 871.168 191.5 871.5C191.5 868.833 191.5 866.167 191.5 863.5C188.769 864.027 186.102 864.86 183.5 866C185.5 866.667 187.5 867.333 189.5 868C188.333 868.167 187.167 868.333 186 868.5C179.932 866.991 173.765 866.158 167.5 866C166.692 865.692 166.025 865.192 165.5 864.5C169.494 863.335 173.494 862.168 177.5 861C190.167 860.667 202.833 860.333 215.5 860C217.708 859.809 219.708 859.309 221.5 858.5Z" fill="#160300"/>
<path fill-rule="evenodd" clip-rule="evenodd" d="M547.5 890.5C545.99 891.836 544.323 893.003 542.5 894C521.169 894.5 499.836 894.667 478.5 894.5C469.926 887.761 462.092 880.094 455 871.5C454.312 870.668 454.479 870.002 455.5 869.5C463.6 875.097 471.267 881.264 478.5 888C488.333 888.167 498.167 888.333 508 888.5C518.902 888.633 529.735 888.133 540.5 887C545.833 882.333 551.167 877.667 556.5 873C558.833 871.833 561.167 870.667 563.5 869.5C564.408 870.79 564.241 872.123 563 873.5C557.996 879.336 552.829 885.003 547.5 890.5Z" fill="#B48264"/>
<path fill-rule="evenodd" clip-rule="evenodd" d="M547.5 890.5C547.084 892.752 545.751 894.252 543.5 895C521.663 895.829 499.996 895.663 478.5 894.5C499.836 894.667 521.169 894.5 542.5 894C544.323 893.003 545.99 891.836 547.5 890.5Z" fill="#341001"/>
</svg>
