<svg width="1024" height="1024" viewBox="0 0 1024 1024" fill="none" xmlns="http://www.w3.org/2000/svg">
<path d="M555.377 431.442C600.323 455.339 620.396 497.836 608.975 543.909C591.939 612.633 506.643 641.219 450.558 597C418.311 571.577 405.775 529.054 418.622 488.674C430.719 450.654 465.353 424.686 506.346 422.664C523.184 421.834 539.307 424.568 555.377 431.442Z" fill="#111C1E"/>
<path d="M132.969 500.057C199.845 499.95 265.882 499.942 331.918 499.932C333.038 499.932 334.157 499.868 335.277 499.873C345.164 499.917 351.205 504.944 351.304 513.198C351.394 520.745 344.429 526.315 334.868 526.275C320.861 526.216 306.855 526.05 292.849 526.044C211.303 526.006 129.756 526.003 48.21 525.983C45.6895 525.982 43.1665 525.976 40.6488 525.871C31.8886 525.506 26.9181 520.585 27.001 512.417C27.0793 504.704 32.1221 499.921 40.6284 499.926C71.129 499.943 101.63 500.071 132.969 500.057Z" fill="#192023"/>
<path d="M411.348 163.371C404.656 133.425 398.076 104.181 391.562 74.9218C389.22 64.403 392.107 57.9647 399.89 55.886C408.634 53.5505 415.414 57.9702 417.787 68.6676C426.868 109.615 435.508 150.661 444.586 191.609C454.47 236.188 464.635 280.703 474.729 325.235C477.176 336.031 473.93 343.591 465.805 345.473C457.928 347.298 452.742 342.725 450.016 331.088C436.985 275.458 422.998 220.048 411.348 163.371Z" fill="#152124"/>
<path d="M626.345 109.656C610.045 182.298 593.846 254.238 577.571 326.162C576.587 330.509 575.443 334.921 573.602 338.95C570.47 345.805 564.549 348.332 557.566 346.016C550.532 343.683 549.171 338.103 550.526 331.041C558.825 287.805 569.783 245.169 579.311 202.212C589.132 157.938 599.045 113.685 608.834 69.4036C611.022 59.5042 616.823 54.4579 624.802 56.0126C632.328 57.4791 636.035 64.1159 634.119 73.7498C631.778 85.5278 629.011 97.2214 626.345 109.656Z" fill="#172226"/>
<path d="M596.261 794.578C608.498 847.239 620.648 899.2 632.757 951.171C634.775 959.83 630.495 967.846 622.933 969.9C616.069 971.765 608.801 966.362 606.757 957.557C589.415 882.848 572.132 808.127 554.812 733.413C553.489 727.709 553.019 722.25 558.201 718.015C562.299 714.667 566.853 714.409 571.67 716.109C576.794 717.916 578.627 722.255 579.987 726.953C586.378 749.021 591.135 771.484 596.261 794.578Z" fill="#162224"/>
<path d="M439.789 747.806C441.983 739.848 443.67 732.442 446.157 725.316C449.125 716.814 454.821 713.907 462.38 716.188C469.331 718.286 472.457 724.82 470.407 732.993C452.138 805.826 436.316 879.218 420.212 952.546C419.671 955.008 419.177 957.503 418.357 959.877C415.656 967.701 408.377 971.989 401.406 970.011C394.532 968.06 391.216 961.747 393.108 953.221C400.267 920.966 407.509 888.728 414.839 856.511C423.037 820.486 431.365 784.49 439.789 747.806Z" fill="#162126"/>
<path d="M500.401 115.772C503.11 107.226 508.92 104.787 516.403 106.356C523.588 107.862 526.078 113.177 526.068 120.128C525.963 190.959 525.919 261.789 525.806 332.62C525.787 344.563 518.276 352.067 509.365 349.251C502.461 347.07 500.039 342.118 500.052 335.09C500.15 283.8 500.063 232.51 500.082 181.219C500.09 159.642 500.213 138.065 500.401 115.772Z" fill="#171E21"/>
<path d="M499.866 816.948C499.934 778.016 499.996 739.928 500.071 701.838C500.09 691.935 504.528 686.436 512.595 686.255C520.509 686.077 526.166 691.567 526.208 701.019C526.346 732.31 525.96 763.604 525.943 794.897C525.925 828.453 526.126 862.009 526.146 895.566C526.148 899.191 526.243 903.03 525.147 906.397C523.012 912.952 517.88 916.524 511.012 916.024C504.682 915.563 500.886 911.304 500.017 905.108C499.439 900.981 499.711 896.726 499.716 892.528C499.747 867.615 499.812 842.702 499.866 816.948Z" fill="#151E21"/>
<path d="M728.944 606.989C760.516 623.517 791.555 639.714 822.534 656.024C826.483 658.103 830.328 660.504 833.856 663.229C839.41 667.518 841.054 673.2 837.791 679.619C834.656 685.788 827.143 688.646 820.519 685.367C804.965 677.669 789.702 669.38 774.342 661.292C740.149 643.287 705.952 625.288 671.807 607.191C668.623 605.503 665.553 603.413 662.864 601.022C657.818 596.535 656.801 590.942 660.347 585.13C663.982 579.175 669.723 577.89 675.736 580.608C685.668 585.097 695.311 590.226 705.076 595.085C712.849 598.954 720.621 602.823 728.944 606.989Z" fill="#162120"/>
<path d="M238.145 667.588C228.535 672.918 219.513 678.021 210.385 682.924C199.013 689.033 191.194 688.035 186.915 680.15C182.792 672.552 186.665 664.631 197.578 658.931C238.793 637.407 280.048 615.961 321.279 594.467C328.982 590.451 336.572 586.213 344.341 582.33C352.25 578.377 359.101 579.833 362.787 585.884C366.417 591.841 364.156 600.221 356.589 604.524C342.226 612.69 327.487 620.195 312.887 627.944C288.16 641.067 263.42 654.165 238.145 667.588Z" fill="#161F22"/>
<path d="M230.731 434.322C215.611 428.924 201.11 423.765 186.617 418.58C177.267 415.234 172.878 408.205 175.542 400.915C178.444 392.972 184.972 390.552 194.952 393.9C244.84 410.641 294.719 427.412 344.591 444.201C347.773 445.273 350.948 446.424 353.996 447.821C361.512 451.265 364.866 458.012 362.601 464.747C360.334 471.49 353.748 474.683 345.402 472.023C316.613 462.846 287.924 453.356 259.212 443.938C249.901 440.883 240.638 437.683 230.731 434.322Z" fill="#162023"/>
<path d="M660.294 461.297C660.506 451.195 667.206 448.031 674.76 445.591C710.473 434.055 746.216 422.611 781.857 410.858C797.283 405.772 812.515 400.091 827.785 394.542C837.764 390.916 845.57 393.127 848.393 400.661C851.346 408.542 846.602 416.168 836.608 419.511C787.19 436.038 737.771 452.56 688.342 469.054C684.889 470.206 681.393 471.27 677.854 472.112C667.848 474.494 663.688 472.031 660.294 461.297Z" fill="#162023"/>
<path d="M826.619 500.903C829.334 500.383 831.604 500.326 834.539 500.438C836.035 501.273 836.929 501.605 838.37 500.802C875.405 500.3 912.042 500.114 948.68 499.923C960.143 499.864 971.608 499.656 983.07 499.767C992.398 499.857 997.559 504.596 997.407 512.424C997.255 520.212 991.073 525.941 982.366 525.95C937.502 525.997 892.638 525.956 847.774 525.948C842.445 525.947 837.117 525.964 831.103 525.778C823.037 522.865 820.398 516.781 822.935 507.97C823.614 505.613 824.523 503.286 826.619 500.903Z" fill="#182024"/>
<path d="M768.392 524.994C740.568 525.72 713.135 526.164 685.702 526.284C677.639 526.32 672.102 520.535 672.229 513.306C672.353 506.24 678.027 500.196 685.824 500.08C703.164 499.822 720.512 500.086 737.857 500.142C743.455 500.161 749.053 500.196 755.426 500.382C756.964 501.22 757.783 501.664 759.214 500.851C763.754 500.469 767.905 500.39 772.689 500.548C773.339 501.159 773.356 501.532 773.625 502.408C773.938 503.666 773.894 504.414 773.623 505.708C773.303 506.986 773.082 507.706 772.657 508.952C770.114 514.243 772.042 520.05 768.392 524.994Z" fill="#182024"/>
<path d="M195.428 616.269C191.321 617.357 188.044 619.253 184.251 618.659C179.408 617.899 175.933 615.101 174.16 610.738C172.257 606.055 172.826 601.456 176.376 597.445C178.894 594.6 182.154 593.063 185.596 591.878C204.597 585.337 223.613 578.839 242.641 572.373C252.267 569.102 259.388 571.063 262.276 577.657C265.189 584.307 261.117 592.537 252.011 595.987C233.481 603.007 214.714 609.399 195.428 616.269Z" fill="#172226"/>
<path d="M790.989 573.532C807.319 579.718 823.089 585.507 838.724 591.637C849.293 595.78 853 602.283 849.778 609.885C846.427 617.787 839.163 620.398 829.272 616.592C812.042 609.962 794.923 603.041 777.809 596.113C774.981 594.968 772.363 593.257 769.742 591.654C763.637 587.92 762.564 582.301 765.391 576.366C768.212 570.444 773.425 567.843 780.073 569.652C783.576 570.606 786.944 572.054 790.989 573.532Z" fill="#162224"/>
<path d="M381.503 314.043C379.725 310.793 378.291 308.072 376.849 305.355C373.442 298.937 375.808 293.819 380.991 289.956C386.019 286.208 391.474 286.501 396.484 290.39C401.257 294.095 403.91 299.501 406.893 304.501C415.487 318.906 423.806 333.478 432.047 348.089C436.234 355.513 434.09 363.316 427.102 367.614C420.827 371.474 414.509 369.486 409.656 361.478C400.236 345.934 391.099 330.218 381.503 314.043Z" fill="#172226"/>
<path d="M626.809 293.191C636.711 282.586 648.252 290.325 650.052 298.638C650.605 301.192 650.693 303.422 649.212 305.831C637.647 324.642 626.306 343.591 614.646 362.342C611.721 367.044 607.289 370.232 601.256 369.023C595.736 367.917 592.693 364.044 591.418 358.74C590.424 354.605 592.121 350.966 594.121 347.594C604.809 329.571 615.61 311.614 626.809 293.191Z" fill="#152124"/>
<path d="M598.565 675.059C598.778 667.888 601.935 663.419 608.406 661.646C614.658 659.933 619.763 662.376 623.017 667.384C632.466 681.922 641.636 696.649 650.581 711.504C654.317 717.708 651.297 722.928 646.266 726.863C641.119 730.889 634.339 732.441 630.425 726.834C618.948 710.395 606.88 694.224 598.565 675.059Z" fill="#162023"/>
<path d="M425.12 679.679C416.981 693.5 409.193 706.811 401.274 720.044C398.814 724.155 396.017 728.306 391.075 729.565C386.138 730.823 381.658 729.432 378.171 725.443C374.311 721.029 374.342 715.939 376.833 711.287C382.512 700.678 388.689 690.333 394.758 679.936C397.154 675.831 399.632 671.752 402.373 667.874C406.801 661.608 414.275 659.232 419.958 662.603C426.336 666.385 428.438 672.029 425.12 679.679Z" fill="#151E21"/>
<path d="M210.579 330.177C219.812 334.334 228.453 338.262 237.048 342.291C240.586 343.949 244.196 345.552 247.468 347.656C253.284 351.397 255.807 356.638 253.074 363.473C250.428 370.09 243.28 374.144 236.735 371.637C221.064 365.631 206.226 357.726 191.909 349.046C186.312 345.653 184.117 339.465 187.742 332.895C191.365 326.329 196.704 323.922 203.911 327.132C205.95 328.04 207.95 329.035 210.579 330.177Z" fill="#182224"/>
<path d="M826.162 352.979C813.067 359.345 800.553 365.493 787.92 371.388C782.726 373.813 777.649 373.657 773.341 369.098C769.483 365.016 768.666 360.224 770.281 355.12C771.729 350.548 775.657 348.098 779.679 346.047C790.851 340.349 802.045 334.692 813.294 329.147C823.25 324.238 831.01 325.881 835.082 333.552C838.718 340.402 835.997 346.601 826.162 352.979Z" fill="#182224"/>
<path d="M362.874 336.064C368.762 342.119 374.401 347.596 379.662 353.416C385.103 359.436 384.892 365.873 379.561 371.405C374.236 376.931 366.423 377.567 360.861 372.033C351.529 362.749 342.672 352.984 333.663 343.377C328.793 338.184 329.042 332.639 333.539 327.549C338.374 322.076 344.561 320.423 350.809 324.778C355.12 327.783 358.604 331.976 362.874 336.064Z" fill="#152124"/>
<path d="M500.162 32.007C500.112 25.0246 499.941 18.878 500.049 12.7364C500.18 5.30958 504.747 0.483038 511.758 0.0376956C519.397 -0.44746 525.435 3.77549 525.751 11.2591C526.325 24.8331 526.398 38.4592 525.905 52.0354C525.618 59.9664 520.273 64.094 512.656 63.9575C505.246 63.8247 500.421 59.1128 500.134 51.2537C499.91 45.126 500.137 38.9818 500.162 32.007Z" fill="#161F22"/>
<path d="M524.582 964.273C526.884 980.592 525.776 996.456 525.542 1012.27C525.44 1019.22 518.069 1024.77 511.577 1023.91C504.262 1022.95 500.048 1018.45 499.983 1010.92C499.864 997.258 500.03 983.592 500.033 969.926C500.035 964.397 503.282 960.771 507.863 959.12C514.045 956.893 520.03 957.806 524.582 964.273Z" fill="#111C1E"/>
<path d="M689.435 345.672C681.597 354.113 674.41 362.328 666.757 370.082C658.75 378.194 652.602 378.729 646.487 372.626C640.673 366.823 641.255 360.165 648.549 352.109C655.485 344.448 662.588 336.938 669.629 329.372C675.979 322.549 682.052 321.261 687.883 325.478C694.477 330.247 695.116 336.563 689.435 345.672Z" fill="#161F22"/>
<path d="M768.677 525.609C769.612 520.171 766.881 514.274 770.928 509.011C774.583 505.641 776.959 497.383 781.898 507.627C784.004 511.993 787.656 507.445 790.689 508.342C790.569 505.253 788.447 503.831 788.178 501.09C800.792 500.389 813.278 500.258 826.414 500.283C828.4 505.454 823.635 509.162 824.683 514.798C825.524 519.324 826.909 522.118 830.331 525.068C810.063 525.661 789.708 525.74 768.677 525.609Z" fill="#232B2D"/>
<path d="M310.83 399.874C299.52 390.364 297.528 383.743 303.441 376.546C309.189 369.549 316.957 370.391 327.398 379.161C332.947 383.822 338.572 388.4 343.991 393.208C348.776 397.453 350.307 402.608 346.033 407.971C341.938 413.109 336.824 415.916 329.911 412.943C322.852 409.907 317.631 404.29 310.83 399.874Z" fill="#162126"/>
<path d="M678.301 397.319C686.116 387.686 695.634 380.79 705.194 374.038C711.281 369.738 717.256 371.813 721.587 377.06C725.688 382.029 726.307 387.682 721.422 392.957C713.92 401.056 704.742 407.124 695.359 412.509C686.228 417.749 677.638 410.024 678.301 397.319Z" fill="#162126"/>
<path d="M696.208 668.144C699.198 675.266 697.46 680.78 691.913 684.916C686.333 689.076 680.672 687.485 675.6 683.841C668.772 678.937 662.761 673.152 657.801 666.26C654.05 661.049 653.306 655.853 657.714 651.034C662.191 646.138 668.119 645.205 673.74 648.67C682.065 653.801 689.803 659.801 696.208 668.144Z" fill="#182224"/>
<path d="M309.359 297.173C299.261 309.725 284.226 310.282 277.648 298.897C272.665 290.271 273.647 280.377 280.098 274.238C285.923 268.694 296.2 268.123 303.452 272.94C310.909 277.893 313.202 286.585 309.359 297.173Z" fill="#172226"/>
<path d="M744.463 301.529C734.259 308.964 725.183 308.723 718.601 301.3C711.647 293.456 711.908 281.994 719.205 274.768C725.554 268.483 736.754 268.122 743.779 273.977C751.368 280.303 751.805 290.987 744.463 301.529Z" fill="#162126"/>
<path d="M331.19 666.895C337.439 661.235 342.997 655.7 349.13 650.902C355.903 645.603 362.783 645.98 367.14 651.041C372.124 656.83 371.531 662.823 365.06 669.505C360.788 673.916 356.392 678.219 351.87 682.373C346.356 687.439 340.141 688.961 333.667 684.336C327.283 679.776 327.173 673.792 331.19 666.895Z" fill="#162023"/>
<path d="M812.2 799.246C815.812 789.152 821.314 784.932 830.253 785.427C838.529 785.884 844.577 790.002 847.366 797.948C850.117 805.783 847.444 812.442 841.243 817.336C835.236 822.077 828.184 822.215 821.438 818.969C813.538 815.167 811.743 807.977 812.2 799.246Z" fill="#192023"/>
<path d="M176.609 799.558C183.31 784.434 196.875 780.598 206.604 790.493C212.874 796.87 214.152 803.945 210.331 811.114C206.391 818.505 198.672 822.313 190.751 820.773C182.771 819.222 177.27 812.931 176.484 804.37C176.357 802.982 176.498 801.57 176.609 799.558Z" fill="#192023"/>
<path d="M812.832 217.741C811.497 208.895 813.584 201.834 821.277 197.938C828.691 194.183 836.117 195.465 842.276 201.011C847.784 205.971 849.183 212.487 846.629 219.404C843.856 226.909 838.077 231.326 830.139 231.593C821.168 231.895 815.65 226.759 812.832 217.741Z" fill="#172226"/>
<path d="M210.879 206.937C214.342 215.576 212.026 222.434 205.678 227.674C199.889 232.452 193.184 233.664 186.31 229.539C179.43 225.41 176.376 219.152 176.996 211.267C177.618 203.35 182.406 198.741 189.795 196.691C198.324 194.323 204.521 197.28 210.879 206.937Z" fill="#172226"/>
<path d="M359.43 252.148C356.106 250.411 353.711 248.498 351.896 245.94C347.087 239.159 347.349 229.209 352.46 223.231C357.298 217.574 366.335 216.091 373.229 219.823C380.804 223.923 384.805 233.429 382.282 241.33C379.809 249.077 372.635 253.804 364.122 253.211C362.738 253.114 361.376 252.681 359.43 252.148Z" fill="#182224"/>
<path d="M676.157 795.663C668.932 805.777 660.879 808.163 652.212 803.215C643.954 798.499 640.812 788.664 644.782 779.959C648.516 771.773 657.949 768.087 666.743 771.377C675.581 774.683 679.438 784.102 676.157 795.663Z" fill="#172226"/>
<path d="M371.73 804.95C359.638 806.581 351.635 801.847 349.127 792.146C347.07 784.19 350.78 775.42 357.606 772.101C365.155 768.43 374.341 770.553 379.5 777.161C384.449 783.499 384.294 793.391 378.831 799.6C377.035 801.641 374.508 803.039 371.73 804.95Z" fill="#162023"/>
<path d="M664.039 252.857C650.6 255.39 642.695 243.226 643.509 233.862C644.237 225.494 650.227 218.854 658.021 217.694C665.554 216.572 673.772 221.585 676.628 229.042C679.548 236.665 677.139 245.545 670.703 250.02C668.911 251.265 666.685 251.884 664.039 252.857Z" fill="#162224"/>
<path d="M786.937 730.765C793.066 741.94 791.011 752.021 782.024 757.401C774.062 762.168 764.746 759.743 759.539 751.547C754.909 744.259 755.825 734.649 761.662 729.267C768.805 722.681 777.128 723.023 786.937 730.765Z" fill="#192023"/>
<path d="M240.243 757.324C233.431 751.64 230.475 745.051 232.842 736.909C234.604 730.847 238.829 727.159 245.082 725.578C253.338 723.491 259.16 726.864 263.682 733.336C267.867 739.328 267.375 745.464 263.364 751.262C258.878 757.746 252.902 761.193 244.724 759.048C243.386 758.698 242.103 758.139 240.243 757.324Z" fill="#152124"/>
<path d="M116.676 631.917C111.6 641.96 103.138 646.677 94.9291 644.551C87.9763 642.751 82.8266 635.617 83.0361 628.076C83.3258 617.646 90.5913 610.76 100.913 611.13C111.507 611.511 117.773 619.433 116.676 631.917Z" fill="#162023"/>
<path d="M95.3927 405.299C86.3223 402.665 82.3563 396.679 82.6826 388.28C82.9969 380.187 87.5968 374.523 95.474 372.67C103.612 370.756 110.287 373.873 114.889 380.909C118.267 386.072 117.959 391.248 115.044 396.681C110.838 404.518 104.236 406.55 95.3927 405.299Z" fill="#192023"/>
<path d="M928.661 644.085C916.571 644.482 910.174 639.93 908.479 630.306C907.046 622.167 911.765 614.165 919.421 611.754C927.77 609.124 936.927 613.12 940.6 620.996C944.988 630.407 940.364 639.799 928.661 644.085Z" fill="#162224"/>
<path d="M933.219 403.057C924.788 407.338 917.351 406.871 911.33 400.112C906.331 394.501 906.467 387.739 909.462 381.247C912.695 374.239 918.92 372.008 926.167 372.641C933.36 373.268 937.795 377.685 940.129 384.258C942.889 392.032 939.369 397.759 933.219 403.057Z" fill="#152124"/>
<path d="M137.561 320.252C128.74 323.223 121.368 322.019 116.25 314.652C111.899 308.39 111.515 301.465 116.357 295.19C121.404 288.651 128.399 287.337 135.92 289.92C149.209 294.485 150.31 313.123 137.561 320.252Z" fill="#182024"/>
<path d="M123.155 695.497C135.413 692.954 143.924 697.481 146.087 707.125C148.033 715.801 142.195 724.709 133.2 726.79C125.745 728.514 117.276 724.45 114.241 717.692C110.617 709.624 113.581 701.795 123.155 695.497Z" fill="#182224"/>
<path d="M883.774 292.502C891.228 287.323 898.444 286.527 905.034 292.268C910.452 296.988 912.861 303.31 909.889 310.387C906.683 318.021 900.809 322.201 892.266 322.02C885.882 321.885 881.958 318.021 879.41 312.78C875.79 305.338 877.635 298.688 883.774 292.502Z" fill="#172226"/>
<path d="M907.81 720.659C896.076 731.35 882.515 728.829 878.869 715.803C876.763 708.277 878.613 701.869 885.236 697.393C891.465 693.183 899.94 693.981 905.465 698.967C911.894 704.77 912.708 711.117 907.81 720.659Z" fill="#182224"/>
<path d="M741.202 132.883C737.282 122.414 740.038 114.295 748.323 110.459C755.805 106.994 765.139 110.048 769.458 117.374C773.634 124.457 771.34 133.905 764.236 138.891C757.174 143.847 749.592 142.018 741.202 132.883Z" fill="#152124"/>
<path d="M751.183 909.517C748.933 908.312 747.127 907.472 745.613 906.267C739.313 901.252 737.131 893.321 740.131 886.841C743.318 879.959 751.592 876.048 759.077 877.886C766.219 879.64 771.36 886.435 771.27 894.002C771.186 901.094 764.811 908.659 757.561 909.947C755.701 910.278 753.699 909.813 751.183 909.517Z" fill="#172226"/>
<path d="M261.026 138.438C251.526 129.395 250.393 121.476 257.067 114.046C262.377 108.133 272.934 107.262 279.217 112.218C285.605 117.257 287.271 126.542 282.998 133.293C277.746 141.592 270.764 143.389 261.026 138.438Z" fill="#182024"/>
<path d="M276.262 908.093C267.219 910.989 260.388 908.931 256.038 902.309C251.869 895.962 251.865 889.552 256.852 883.728C261.974 877.746 268.598 876.502 275.902 879.14C286.926 883.121 288.793 900.412 276.262 908.093Z" fill="#182224"/>
<path d="M787.618 500.425C791.491 502.982 793.365 506.269 794.802 511.587C789.617 506.756 778.799 520.621 778.642 504.163C776.415 505.619 774.404 506.933 771.888 508.459C771.38 507.94 771.379 507.209 771.377 505.93C771.788 505.015 772.16 504.612 772.779 503.878C773.097 503.116 773.128 502.649 773.24 501.484C777.818 499.433 782.389 500.339 787.618 500.425Z" fill="#162023"/>
<path d="M838.356 500.248C838.551 501.974 839.208 504.019 836.907 504.248C836.456 504.293 835.839 502.671 835.251 501.212C836.117 500.407 837.031 500.207 838.356 500.248Z" fill="#232B2D"/>
<path d="M759.039 500.408C759.371 502.092 759.279 503.826 757.283 504.021C757.005 504.048 756.565 502.405 756.2 501.038C756.959 500.45 757.717 500.359 759.039 500.408Z" fill="#232B2D"/>
<path d="M772.69 503.784C772.752 504.046 772.438 504.509 771.751 505.176C771.689 504.915 772.001 504.45 772.69 503.784Z" fill="#232B2D"/>
<path d="M789.122 504.567C789.215 504.512 789.029 504.623 789.122 504.567Z" fill="#232B2D"/>
</svg>
