<svg width="200" height="200" viewBox="0 0 200 200" fill="none" xmlns="http://www.w3.org/2000/svg">
<path d="M46.8218 121.576C47.8522 120.917 48.8743 119.978 49.8605 119.29C51.8425 117.909 53.761 116.444 55.5939 114.866C56.0456 114.478 57.4351 112.999 58.0815 113.932C58.4102 114.408 57.7403 114.974 57.377 115.283C53.4751 118.604 50.6643 120.804 47.2003 123.029C45.7085 123.988 44.2403 124.967 42.7168 125.89C39.6579 127.743 37.2426 129.28 35.471 130.499C32.8881 132.276 30.5221 133.818 27.761 135.874C27.1837 136.304 26.2445 135.584 26.7721 134.89C26.947 134.659 27.2758 134.367 27.7583 134.013C31.0723 131.574 34.4585 129.242 37.9171 127.015C38.2108 126.827 38.7942 126.369 39.6671 125.642C43.4065 122.531 47.0212 119.282 50.511 115.895C51.186 115.241 51.8554 114.609 52.5193 114.002C54.7072 111.999 56.8177 109.917 59 107.912C60.1519 106.854 61.2859 105.777 62.4019 104.681C62.7776 104.313 63.1648 103.956 63.5635 103.609C64.7928 102.54 65.8287 101.275 67.6782 101.776C68.9599 102.124 70.116 102.684 71.1464 103.457C71.1838 103.485 71.2302 103.498 71.2767 103.495C71.3232 103.491 71.3667 103.47 71.3991 103.437C74.006 100.746 76.5948 98.0729 79.1657 95.4173C80.1215 94.4297 81.1989 93.206 82.0027 92.3621C86.8757 87.2516 91.6643 82.032 96.7306 77.1107C96.7726 77.0696 96.8059 77.0205 96.8287 76.9665C96.8515 76.9124 96.8632 76.8544 96.8632 76.7958C96.8319 71.4155 96.8218 66.0029 96.8329 60.5582C96.8329 60.1825 96.5456 59.967 96.5414 59.601C96.529 58.5016 98.1975 58.6121 98.4503 59.6273C98.4613 59.6715 98.4885 59.7005 98.5317 59.7143C100.022 60.1866 101.537 60.88 103.145 60.6618C104.508 60.4753 105.924 60.2598 107.251 60.2115C107.791 60.1908 111.04 59.8786 109.746 61.4049C109.071 62.2014 108.462 63.0536 107.918 63.9615C107.912 63.9726 107.908 63.9854 107.909 63.9983C107.909 64.0112 107.913 64.0239 107.92 64.0347C108.275 64.5761 108.598 65.1286 109.018 65.6314C109.402 66.0909 109.779 66.5563 110.149 67.0278C110.695 67.7226 110.119 68.3386 109.394 68.3938C107.974 68.5006 107.075 68.5145 106.697 68.4353C105.419 68.1655 104.591 68.0172 104.213 67.9905C102.718 67.8855 101.355 67.996 99.8964 68.2985C99.3982 68.4017 98.8918 68.4233 98.377 68.3634C98.3619 68.3617 98.3465 68.3632 98.332 68.3678C98.3175 68.3724 98.3041 68.3801 98.2927 68.3902C98.2813 68.4004 98.2723 68.4129 98.2661 68.4269C98.2599 68.4408 98.2568 68.4559 98.2569 68.4712L98.2776 76.7032C98.2785 76.7882 98.3127 76.8691 98.3729 76.9284C100.003 78.5195 101.601 79.9712 103.344 81.6245C104.159 82.398 105.086 83.1811 105.837 83.8869C109.449 87.2861 113.157 90.5499 116.726 94.0181C116.769 94.0594 116.825 94.0846 116.884 94.0894C116.943 94.0942 117.002 94.0783 117.051 94.0444C117.298 93.8722 117.542 93.6599 117.785 93.4076C118.423 92.7428 119.046 92.0656 119.656 91.3759C120.349 90.5927 121.58 90.5527 122.318 91.2875C122.849 91.8169 123.391 92.3335 123.945 92.8372C126.593 95.2488 129.28 97.6162 131.925 100.029C136.497 104.201 139.901 107.25 142.137 109.176C144.525 111.233 146.46 112.936 147.942 114.286C152.005 117.986 157.298 122.437 160.235 125.055C162.584 127.148 164.141 128.515 164.906 129.155C167.852 131.622 170.357 133.824 172.423 135.763C172.598 135.927 172.64 136.154 172.548 136.444C172.289 137.25 171.544 137.042 171.032 136.562C168.726 134.41 166.364 132.322 163.946 130.299C163.119 129.605 162.418 129.007 161.844 128.504C158.609 125.674 155.383 122.837 152.122 120.035C148.177 116.645 144.091 112.787 140.47 109.666C138.756 108.19 137.287 106.893 136.062 105.775C132.883 102.872 129.651 100.022 126.446 97.1466C124.816 95.6839 123.001 93.9933 121.286 92.4049C121.241 92.3638 121.186 92.336 121.126 92.3248C121.067 92.3136 121.005 92.3193 120.949 92.3413C120.776 92.4076 120.616 92.5186 120.471 92.6742C119.435 93.7866 118.412 94.9099 117.401 96.0444C115.866 97.7668 114.269 99.1949 112.483 100.398C110.776 101.548 109.096 102.753 107.442 104.013C107.432 104.02 107.424 104.03 107.418 104.041C107.413 104.052 107.41 104.065 107.41 104.077C107.41 104.09 107.413 104.102 107.419 104.114C107.425 104.125 107.433 104.135 107.443 104.142L112.581 107.991C112.621 108.02 112.67 108.035 112.72 108.032C112.769 108.029 112.815 108.008 112.851 107.974C114.075 106.781 115.312 105.592 116.561 104.406C117.905 103.127 119.174 103.56 120.338 104.732C121.102 105.5 121.856 106.276 122.601 107.061C125.367 109.974 128.133 112.887 130.901 115.8C132.823 117.825 134.816 119.891 136.914 121.732C138.512 123.133 140.138 124.638 141.914 125.941C142.428 126.317 143.016 126.676 143.678 127.017C146.619 128.531 149.537 130.02 152.526 131.473C152.852 131.631 153.244 131.855 153.374 132.195C153.532 132.607 153.269 133.177 152.791 133.192C152.661 133.197 152.487 133.145 152.271 133.037C149.51 131.658 146.7 130.363 143.971 128.928C141.304 127.525 138.674 126.192 136.018 124.854C133.903 123.787 131.436 122.354 128.616 120.553C127.126 119.601 124.751 118.191 122.88 116.95C120.798 115.572 118.702 114.205 116.667 112.761C113.802 110.728 110.887 108.716 108.127 106.542C105.318 104.329 102.663 102.424 100.297 100.22C99.6312 99.5996 99.3494 99.9988 98.8342 100.532C97 102.434 95.0746 104.238 93.2541 106.149C89.4254 110.173 85.4986 114.095 81.5856 118.036C79.2458 120.392 76.8439 122.703 73.9654 124.412C71.0603 126.138 68.0382 127.627 64.8991 128.879C64.8872 128.883 64.8817 128.889 64.8826 128.897C64.8826 128.899 64.883 128.902 64.884 128.903C64.8849 128.909 64.8881 128.911 64.8936 128.909C66.3052 128.51 67.1436 128.181 68.5055 127.731C71.605 126.707 74.7348 125.52 77.895 124.171C78.6132 123.865 79.3609 123.508 80.1381 123.102C81.1215 122.589 82.1464 122.072 83.0594 121.532C85.4834 120.097 87.8536 118.482 90.0193 116.676C90.3494 116.401 90.7403 116.192 91.1284 116.46C91.9447 117.024 91.2748 117.636 90.7914 118.036C87.5732 120.705 84.1768 122.783 80.2113 124.745C79.3936 125.149 78.5571 125.533 77.7016 125.898C73.9153 127.509 70.0423 128.884 66.0829 130.021C63.9134 130.643 61.7288 131.208 59.529 131.714C55.627 132.613 52.5069 133.656 49.0359 135.485C48.5138 135.76 48.1712 135.978 47.6989 135.731C46.7693 135.246 47.5235 134.484 48.116 134.213C49.4627 133.598 50.7831 132.861 52.1574 132.329C58.1947 129.991 64.4323 127.984 70.1533 124.906C71.5262 124.167 72.4751 123.684 73.5773 122.916C75.5626 121.535 77.4226 120.002 79.1574 118.316C81.5552 115.988 84.6119 112.716 87.761 109.565C89.6653 107.66 91.5488 105.735 93.4116 103.79C94.7265 102.417 96.1892 101.01 97.5566 99.5941C98.7748 98.3331 99.884 97.8924 101.325 99.1618C102.873 100.526 104.458 101.849 106.077 103.13C106.115 103.159 106.152 103.159 106.188 103.127C108.757 100.862 112.099 98.8538 113.767 97.5016C114.565 96.8542 115.309 96.1576 115.999 95.4118C116.009 95.4001 116.018 95.3861 116.022 95.3708C116.027 95.3555 116.028 95.3394 116.026 95.3236C116.023 95.3078 116.017 95.2928 116.008 95.2796C115.999 95.2664 115.988 95.2554 115.974 95.2474C115.716 95.0982 115.473 94.9159 115.244 94.7005C112.374 91.9914 109.187 89.055 105.684 85.8911C104.034 84.4012 102.273 82.7488 100.402 80.9339C99.5677 80.1231 98.6146 79.2819 97.7224 78.4339C97.7046 78.417 97.6837 78.4038 97.6608 78.395C97.6379 78.3862 97.6135 78.382 97.589 78.3826C97.5645 78.3833 97.5404 78.3887 97.518 78.3987C97.4956 78.4087 97.4754 78.423 97.4585 78.4408C96.2099 79.7585 94.9387 81.0761 93.645 82.3938C92.947 83.1056 92.308 83.7691 91.7279 84.3842C89.2187 87.0444 86.6998 89.6949 84.1713 92.3358C81.8909 94.7184 79.6547 97.1383 77.3425 99.4919C75.5538 101.312 73.8563 103.166 72.0994 104.988C69.9153 107.253 67.7302 109.518 65.5442 111.782C63.9162 113.469 62.2725 115.141 60.6132 116.799C56.7527 120.658 53.8411 123.804 50.5083 127.343C49.0704 128.872 47.471 130.442 46.127 131.848C44.0124 134.062 41.9572 136.311 39.7569 138.444C39.0594 139.119 37.9641 138.297 38.6381 137.529C39.0948 137.009 39.5607 136.498 40.0359 135.996C42.1298 133.785 44.2297 131.58 46.3356 129.381C46.5161 129.194 46.6975 129.007 46.8798 128.821C47.7288 127.953 48.5736 127.082 49.4143 126.207C49.8278 125.777 50.2394 125.345 50.6492 124.91C51.0073 124.53 51.4235 124.103 51.8978 123.63C54.3909 121.137 56.5994 118.707 59.4613 115.836C62.1008 113.188 64.5994 110.403 67.261 107.778C68.284 106.768 69.2914 105.724 70.2831 104.648C70.2912 104.639 70.2971 104.628 70.3003 104.617C70.3036 104.605 70.3041 104.593 70.3018 104.581C70.2995 104.569 70.2945 104.558 70.2872 104.548C70.2799 104.538 70.2705 104.53 70.2596 104.525C69.2486 104.017 68.232 103.457 67.1616 103.167C66.0898 102.877 65.348 104.156 64.6657 104.756C63.6851 105.616 62.8108 106.558 61.8315 107.473C58.348 110.728 54.9005 114.015 51.3784 117.229C50.651 117.892 49.9295 118.562 49.2141 119.239C48.4116 119.999 47.5511 120.729 46.7362 121.464C46.319 121.841 46.3476 121.878 46.8218 121.576ZM101.38 62.0831C100.47 61.985 99.3812 61.4601 98.3895 61.1411C98.3751 61.1362 98.3597 61.1349 98.3447 61.1372C98.3297 61.1395 98.3154 61.1453 98.3031 61.1542C98.2908 61.1632 98.2808 61.1749 98.274 61.1885C98.2672 61.202 98.2637 61.217 98.2638 61.2322L98.2403 66.8648C98.2394 66.9072 98.2601 66.9307 98.3025 66.9353C98.9088 67.0057 99.6491 66.8358 100.251 66.7295C102.83 66.2709 105.376 66.5513 107.903 67.148C108.022 67.1756 108.117 67.1609 108.189 67.1038C108.225 67.0765 108.248 67.0369 108.255 66.993C108.263 66.9491 108.253 66.9042 108.228 66.8676C107.994 66.5149 107.74 66.1848 107.467 65.8773C107.115 65.4808 106.162 64.3966 106.381 63.9132C106.555 63.5273 106.744 63.1493 106.949 62.7792C107.17 62.3772 107.525 62.0706 107.825 61.7018C107.834 61.6902 107.84 61.6763 107.842 61.6615C107.844 61.6466 107.842 61.6316 107.836 61.6179C107.83 61.6042 107.82 61.5924 107.808 61.5839C107.796 61.5753 107.781 61.5702 107.767 61.5692C107.507 61.5508 107.233 61.5619 106.945 61.6024C105.935 61.7479 104.923 61.8819 103.909 62.0043C103.087 62.1024 102.068 62.1563 101.38 62.0831ZM126.355 117.398C129.747 119.497 133.145 121.555 136.62 123.553C136.674 123.583 136.707 123.568 136.72 123.508C136.73 123.465 136.695 123.416 136.616 123.362C136.091 122.996 135.596 122.595 135.131 122.156C133.906 121 132.713 119.81 131.552 118.586C128.081 114.924 124.477 111.383 121.068 107.663C120.424 106.961 119.754 106.282 119.057 105.629C118.512 105.119 117.967 105.124 117.42 105.644C116.621 106.403 115.985 107.012 115.512 107.473C115.018 107.953 114.43 108.381 113.885 108.844C113.845 108.879 113.847 108.911 113.891 108.941C115.088 109.76 116.29 110.727 117.406 111.479C120.366 113.475 123.32 115.518 126.355 117.398Z" fill="#0C1211"/>
</svg>
