<svg width="197" height="200" viewBox="0 0 197 200" fill="none" xmlns="http://www.w3.org/2000/svg">
<path d="M163.023 104.572C162.988 105.896 162.904 107.217 162.736 108.549C162.536 110.144 162.315 111.736 162.074 113.326C160.721 122.238 157.076 131.404 151.729 139.215C150.84 140.512 149.945 141.869 148.996 143.058C146.885 145.706 144.607 148.2 142.16 150.543C141.729 150.957 141.135 151.433 140.648 151.914C140.361 152.198 140.072 152.45 139.783 152.672C139.476 152.906 139.175 153.148 138.881 153.396C135.058 156.636 130.993 159.343 126.686 161.517C120.809 164.486 114.787 166.539 108.344 167.818C105.668 168.351 102.686 168.652 99.873 168.994C99.7181 169.012 99.6308 169.099 99.6113 169.256C99.2832 171.838 98.6465 174.435 98.1582 176.996C98.1126 177.229 98.082 177.409 98.0664 177.537C98.0586 177.598 98.0423 177.656 98.0176 177.711C97.9525 177.854 97.903 178.073 97.8691 178.367C97.7897 179.053 97.4115 179.552 96.7344 179.863C96.6816 179.887 96.6228 179.89 96.5703 179.871C95.8958 179.638 95.4922 179.196 95.3594 178.547C94.7402 175.521 94.2266 172.472 93.5391 169.461C93.5078 169.324 93.543 169.213 93.5273 169.068C93.5208 168.998 93.4824 168.96 93.4121 168.955C90.9746 168.764 88.4596 168.42 85.8672 167.926C82.2891 167.242 78.8828 166.459 75.5019 165.191C72.0762 163.907 69.5859 162.869 68.0312 162.076C62.1289 159.064 56.1601 155.055 51.3379 150.445C43.0527 142.525 36.9433 133.004 33.4336 122.119C32.2969 118.594 31.6211 114.892 31.1094 111.226C30.8086 109.066 30.5078 106.982 30.4101 104.785C30.4075 104.715 30.3724 104.671 30.3047 104.654C29.4141 104.438 28.5293 104.262 27.6504 104.125C25.9069 103.851 24.1673 103.568 22.4316 103.273C21.679 103.146 20.9336 102.983 20.1953 102.785C18.7285 102.392 19.4062 101.101 20.4883 100.892C22.4883 100.507 24.4941 100.159 26.5059 99.8475C26.5684 99.8384 26.6269 99.8175 26.6816 99.785C26.8672 99.6717 27.0586 99.742 27.2363 99.7108C27.5111 99.6639 27.7838 99.6105 28.0547 99.5506C28.3144 99.494 28.5723 99.5819 28.8437 99.4119C28.8672 99.3969 28.894 99.3878 28.9219 99.3854C28.9498 99.383 28.9779 99.3874 29.0039 99.3983L29.1328 99.451C29.2018 99.4796 29.2637 99.4679 29.3184 99.4158C29.4082 99.3312 29.5143 99.311 29.6367 99.3553C29.6979 99.3774 29.7591 99.3761 29.8203 99.3514C29.9818 99.285 30.151 99.2511 30.3281 99.2498C30.3604 99.2493 30.3912 99.2363 30.4139 99.2137C30.4365 99.191 30.4492 99.1605 30.4492 99.1287C30.4512 98.5994 30.4414 98.076 30.4902 97.5662C30.7949 94.4022 31.2246 91.8846 31.8281 88.5858C31.9987 87.6509 32.235 86.6457 32.5371 85.5701C33.1914 83.2381 33.6601 81.3416 34.6543 78.6522C36.6406 73.2694 39.3808 68.1131 42.7793 63.4881C45.4394 59.8709 48.3711 56.2381 51.8574 53.074C62.1406 43.744 75.3535 37.4022 89.2226 35.4783C90.4583 35.3078 91.6933 35.2004 92.9277 35.1561C92.9625 35.1549 92.9957 35.1418 93.022 35.1191C93.0483 35.0963 93.066 35.0653 93.0723 35.0311C93.7493 31.2147 94.4655 27.395 95.2207 23.5721C95.5078 22.119 97.1172 21.5115 97.8535 23.0721C98.0501 23.4875 98.2051 24.1522 98.3183 25.0662C98.3236 25.1118 98.3392 25.1535 98.3652 25.1912C98.3743 25.2056 98.3835 25.2199 98.3926 25.2342C98.3991 25.2459 98.4036 25.2596 98.4062 25.2752C98.6575 26.826 98.9303 28.3729 99.2246 29.9158C99.5462 31.6099 99.8249 33.3019 100.061 34.992C100.065 35.0216 100.08 35.0486 100.103 35.068C100.126 35.0874 100.155 35.0979 100.186 35.0975C101.244 35.0819 102.311 35.2655 103.271 35.3885C112.879 36.6033 122.01 39.9002 130.338 44.8221C132.725 46.2303 135.387 47.9979 137.437 49.6561C141.065 52.591 144.398 55.8299 147.437 59.3729C151.568 64.1906 154.885 69.5174 157.389 75.3533C159.502 80.2811 161.145 85.4998 162.008 90.7947C162.453 93.5304 162.787 96.2661 163.01 99.0018C163.015 99.0623 163.041 99.1191 163.083 99.1626C163.125 99.206 163.18 99.2334 163.24 99.2401C164.002 99.3234 164.773 99.4321 165.553 99.5662C167.924 99.9764 170.29 100.411 172.65 100.871C173.088 100.957 173.385 101.066 173.541 101.199C174.367 101.906 173.473 102.728 172.645 102.844C171.951 102.941 171.26 103.053 170.574 103.178C168.091 103.631 165.604 104.062 163.113 104.471C163.055 104.48 163.025 104.513 163.023 104.572ZM99.0019 49.9764C99.0859 50.8553 99.25 51.7147 99.3574 52.5916C99.8392 56.5057 100.372 60.4126 100.955 64.3123C101.773 69.785 102.527 75.7069 103.514 83.6424C103.563 84.0356 103.59 84.4048 103.594 84.7498C103.594 84.7887 103.605 84.8267 103.626 84.8596C103.646 84.8926 103.676 84.9192 103.71 84.9366C103.745 84.9539 103.784 84.9614 103.823 84.9581C103.861 84.9548 103.898 84.9408 103.93 84.9178L106.498 83.0408C106.57 82.9888 106.6 82.9184 106.588 82.8299C106.104 79.3084 105.42 75.742 104.887 72.2947C103.912 65.9822 103.268 62.1912 102.031 55.1033C101.779 53.6541 101.578 51.9569 101.32 50.5096C100.531 46.0819 99.9805 41.9412 99.1777 37.6815C98.6172 34.7069 98.1601 31.7186 97.5957 28.744C97.5058 28.2694 97.4687 27.7283 97.3984 27.2381C97.3646 27.0089 97.3346 27.0096 97.3086 27.2401C97.2695 27.5851 97.2519 27.9614 97.2558 28.369C97.2754 30.2257 97.3203 32.0812 97.3906 33.9354C97.4323 35.0434 97.5403 36.3403 97.7148 37.826C98.0195 40.4451 98.2246 43.1717 98.5078 45.6893C98.6549 46.994 98.7917 48.3 98.918 49.6073C98.9297 49.744 98.9883 49.826 99.0019 49.9764ZM94.625 47.5389C94.9844 44.6112 95.2109 41.6092 95.4551 38.6483C95.5508 37.4823 95.8555 36.0135 95.8633 34.8397C95.8776 32.453 95.8939 30.0656 95.9121 27.6776C95.9121 27.658 95.9082 27.6424 95.9004 27.6307C95.8874 27.6138 95.8717 27.6046 95.8535 27.6033C95.8467 27.6028 95.8398 27.6037 95.8333 27.6059C95.8268 27.6081 95.8209 27.6115 95.8157 27.6161C95.8106 27.6207 95.8065 27.6262 95.8036 27.6324C95.8007 27.6386 95.7991 27.6453 95.7988 27.6522C95.7773 28.1873 95.5898 28.8143 95.5215 29.1893C95.0475 31.8273 94.5814 34.4673 94.123 37.1092C93.6269 39.9608 93.2246 42.9901 92.7832 45.6776C92.2715 48.7889 91.8301 51.7772 91.25 55.0115C90.7812 57.6248 90.3945 60.4549 89.9687 62.8612C89.5742 65.1014 89.1113 67.3455 88.8496 69.6053C88.8014 70.0128 88.72 70.4132 88.6055 70.8065C88.5351 71.0467 88.5547 71.2967 88.5 71.5799C87.9004 74.6795 87.3808 78.2791 86.7207 81.9139C86.6836 82.117 86.7109 82.4881 86.5449 82.7479C86.5235 82.7816 86.5158 82.8223 86.5234 82.8615C86.531 82.9008 86.5534 82.9356 86.5859 82.9588L89.3808 84.9588C89.4002 84.9727 89.4228 84.9812 89.4465 84.9835C89.4702 84.9858 89.4941 84.9818 89.5157 84.9719C89.5373 84.9619 89.5559 84.9465 89.5696 84.927C89.5833 84.9076 89.5917 84.8849 89.5937 84.8612C89.9336 81.2381 90.5351 77.6639 90.9668 74.0369C91.3515 70.8065 91.834 67.5799 92.2988 64.3592C92.7194 61.4438 93.1452 58.5298 93.5762 55.617C93.6907 54.8371 93.7715 54.227 93.8183 53.7869C93.8587 53.4085 93.905 53.0293 93.957 52.6522C94.1849 51.0089 94.4075 49.3045 94.625 47.5389ZM153.557 97.7733L161.541 99.0096C161.605 99.02 161.641 98.9927 161.648 98.9276C161.687 98.6033 161.657 98.2446 161.557 97.8514C161.477 97.535 161.553 97.1307 161.518 96.8104C161.122 93.1828 160.578 89.8833 159.887 86.9119C157.879 78.2752 153.918 69.5467 148.359 62.5018C143.877 56.8201 138.617 51.7205 132.521 47.7811C130.842 46.6951 129.133 45.5838 127.404 44.66C123.537 42.5871 119.883 40.977 116.441 39.8299C113.207 38.7531 111.088 38.1086 110.084 37.8963C106.926 37.2296 103.717 36.7524 100.455 36.4647C100.443 36.4636 100.43 36.4654 100.418 36.4699C100.407 36.4745 100.396 36.4817 100.388 36.4909C100.379 36.5002 100.373 36.5112 100.369 36.5233C100.366 36.5353 100.365 36.548 100.367 36.5604L101.771 45.0819C101.775 45.1029 101.787 45.122 101.803 45.1358C101.819 45.1497 101.84 45.1575 101.861 45.158C102.778 45.1737 103.632 45.2375 104.424 45.3494C110.867 46.2596 117.16 48.6463 122.809 51.7283C138.486 60.283 149.797 75.5018 152.502 93.3123C152.701 94.6287 152.888 95.9477 153.062 97.2694C153.102 97.561 153.266 97.729 153.557 97.7733ZM32.2754 98.9451C32.4238 98.9894 32.567 98.9725 32.7051 98.8944C32.76 98.8643 32.8246 98.8573 32.8848 98.8748C33.1445 98.949 33.2969 98.8143 33.5156 98.7908C33.7943 98.7609 34.0768 98.7095 34.3633 98.6365C34.4232 98.6209 34.4557 98.5819 34.4609 98.5194C34.612 96.2147 34.8932 93.9263 35.3047 91.6541C35.7226 89.3612 36.1328 87.0369 36.791 84.8475C37.5879 82.1951 38.472 79.7466 39.4433 77.5018C45.584 63.3006 57.1426 52.1619 71.1601 45.6287C74.582 44.033 78.2129 42.8768 81.8144 41.7615C82.429 41.5714 82.8346 41.7954 83.0312 42.4334C83.0495 42.492 83.0436 42.548 83.0137 42.6014C82.5859 43.3455 81.9492 43.1307 81.3379 43.3065C76.8952 44.5903 72.6172 46.2902 68.5039 48.4061C67.6367 48.8527 66.1315 49.7336 63.9883 51.0487C62.9766 51.6697 62.0039 52.4022 61.0137 53.0955C53.4726 58.3905 47.291 65.3045 42.9355 73.328C38.6947 81.1418 36.3476 89.4953 35.8945 98.3885C35.8941 98.3973 35.8957 98.406 35.8991 98.4141C35.9025 98.4221 35.9076 98.4293 35.9142 98.4351C35.9208 98.441 35.9285 98.4452 35.937 98.4476C35.9454 98.45 35.9542 98.4505 35.9629 98.449L40.1777 97.7225C40.2519 97.7095 40.293 97.6645 40.3008 97.5877C40.5299 95.0734 40.7174 93.425 40.8633 92.6424C44.7402 71.8533 59.2793 54.3631 79.4336 47.578C83.5482 46.1925 87.5547 45.3384 91.4531 45.0155C91.5052 45.0102 91.5351 44.9823 91.543 44.9315L92.8086 36.7811C92.8411 36.5675 92.7493 36.4692 92.5332 36.4862C89.3906 36.7381 86.373 37.16 83.3301 37.8963C77.3327 39.3494 71.6224 41.5701 66.1992 44.5584C65.4544 44.9699 64.7096 45.3833 63.9648 45.7987C62.4609 46.6385 61.0996 47.578 59.6973 48.5448C54.2168 52.3182 49.1328 57.0076 45.1914 62.3787C44.209 63.7147 43.1211 65.1619 42.2988 66.4119C40.222 69.5695 38.4316 72.8813 36.9277 76.3475C36.1641 78.1033 35.543 80.0838 34.8945 81.9822C34.4128 83.3885 33.8392 85.5858 33.1738 88.574C32.8398 90.0721 32.6191 91.619 32.3594 93.1033C32.0247 95.0122 31.8268 96.9367 31.7656 98.8768C31.7617 99.007 31.8086 99.0845 31.9062 99.1092C31.9753 99.1274 32.0338 99.1099 32.082 99.0565L32.1523 98.9803C32.1862 98.9425 32.2272 98.9308 32.2754 98.9451ZM96.5254 44.91H96.7988C96.8045 44.91 96.81 44.9077 96.814 44.9037C96.818 44.8997 96.8203 44.8942 96.8203 44.8885V44.8533C96.8194 44.3097 96.8151 43.7715 96.8077 43.2695C96.8003 42.7675 96.7899 42.3116 96.7772 41.9282C96.7645 41.5447 96.7497 41.2411 96.7336 41.0349C96.7176 40.8286 96.7006 40.7238 96.6836 40.7264H96.625C96.5909 40.7316 96.559 41.1687 96.5364 41.9421C96.5137 42.7155 96.502 43.7622 96.5039 44.8533V44.8885C96.5039 44.8942 96.5062 44.8997 96.5102 44.9037C96.5142 44.9077 96.5197 44.91 96.5254 44.91ZM42.3691 97.3573C51.4902 95.8045 59.8887 93.6678 68.918 90.8963C70.6107 90.3768 72.2747 89.7889 73.9101 89.1326C73.9184 89.1292 73.926 89.1241 73.9322 89.1177C73.9384 89.1113 73.9433 89.1037 73.9464 89.0954C73.9495 89.0872 73.9509 89.0784 73.9503 89.0697C73.9498 89.0609 73.9474 89.0524 73.9434 89.0448C71.6152 84.3924 69.041 79.8826 66.6523 75.244C65.5156 73.0369 64.2754 70.8826 63.1836 68.6561C63.1549 68.5962 63.1471 68.5343 63.1601 68.4705C63.334 67.6658 64.0762 67.5584 64.6777 68.0155C65.9954 69.0181 67.3444 69.9757 68.7246 70.8885C74.2871 74.5662 79.7851 78.3377 85.2519 82.158C85.2634 82.1662 85.2767 82.1713 85.2907 82.1729C85.3047 82.1744 85.3188 82.1723 85.3317 82.1669C85.3447 82.1614 85.356 82.1526 85.3646 82.1415C85.3732 82.1304 85.3788 82.1172 85.3809 82.1033L91.3476 46.533C91.3507 46.5146 91.3495 46.4958 91.3441 46.4779C91.3388 46.4601 91.3295 46.4437 91.3169 46.4299C91.3043 46.4162 91.2887 46.4055 91.2714 46.3987C91.254 46.3918 91.2354 46.389 91.2168 46.3905C87.4629 46.6522 83.6269 47.5623 80.0683 48.7772C76.3281 50.0565 72.9902 51.5799 69.2754 53.6854C68.0254 54.3924 66.9759 55.048 66.1269 55.6522C61.7051 58.8026 57.4316 62.6385 54.0156 66.9393C49.0312 73.2127 45.5176 79.8651 43.418 87.4237C42.5039 90.7166 42.1211 93.5272 41.6621 96.6307C41.6152 96.9497 41.6003 97.2108 41.6172 97.4139C41.6197 97.4441 41.634 97.4722 41.657 97.4919C41.6801 97.5117 41.71 97.5215 41.7402 97.5194C41.9609 97.5037 42.2187 97.3826 42.3691 97.3573ZM116.697 50.2713C113.279 48.8397 109.686 47.6092 106.131 46.9901C105.549 46.8885 104.199 46.7101 102.08 46.4549C102.015 46.4471 101.988 46.4751 101.998 46.5389L107.844 82.0311C107.846 82.0465 107.853 82.0611 107.862 82.0734C107.872 82.0857 107.885 82.0954 107.899 82.1017C107.913 82.1079 107.929 82.1104 107.945 82.109C107.96 82.1076 107.975 82.1023 107.988 82.0936C113.195 78.5545 118.463 75.0662 123.627 71.449C125.197 70.3475 126.979 69.244 128.6 68.0467C129.215 67.5936 129.877 67.8065 130.195 68.4627C130.208 68.4884 130.214 68.517 130.212 68.546C130.211 68.575 130.202 68.6034 130.187 68.6287C128.84 70.9549 127.314 73.951 126.365 75.7069C124.894 78.4295 123.431 81.1567 121.977 83.8885C121.117 85.5037 120.225 87.3729 119.32 89.1053C119.316 89.1129 119.314 89.1214 119.314 89.13C119.314 89.1387 119.316 89.1473 119.319 89.1552C119.323 89.1631 119.329 89.1701 119.336 89.1757C119.343 89.1812 119.351 89.1852 119.359 89.1873C119.838 89.3045 120.234 89.5936 120.656 89.7283C123.627 90.6815 126.516 91.5916 129.615 92.4295C131.576 92.9588 133.496 93.5506 135.498 94.0096C136.261 94.1841 137.022 94.369 137.781 94.5643C139.048 94.8898 140.191 95.1548 141.209 95.3592C142.886 95.6977 144.56 96.0539 146.23 96.4276C147.951 96.8143 149.76 97.0662 151.508 97.3924C151.689 97.4276 151.766 97.3533 151.74 97.1698C151.375 94.5701 151.004 91.9959 150.406 89.449C148.209 80.0897 143.75 71.5838 137.195 64.5448C131.402 58.3234 124.57 53.5656 116.697 50.2713ZM102.666 90.3182C102.602 88.5115 102.537 86.7088 102.328 84.9119C101.823 80.5434 101.266 76.1808 100.658 71.824C100.295 69.2127 99.9863 66.6522 99.5527 63.992C99.054 60.9295 98.6191 57.8586 98.248 54.7791C98.0195 52.8768 97.5977 50.5213 97.3945 48.3709C97.3932 48.3566 97.3854 48.3501 97.3711 48.3514L97.3144 48.3533C97.291 48.3546 97.2799 48.367 97.2812 48.3905C97.3854 61.8892 97.401 75.3872 97.3281 88.8846C97.3281 89.007 97.3887 89.0695 97.5098 89.0721C99.2832 89.1072 100.937 89.66 102.57 90.3826C102.635 90.4126 102.667 90.3911 102.666 90.3182ZM91.1719 82.4959C90.8385 85.1001 90.6276 87.7043 90.5391 90.3084C90.5383 90.3225 90.5414 90.3364 90.5479 90.3489C90.5545 90.3614 90.5643 90.3719 90.5764 90.3794C90.5884 90.3869 90.6024 90.3912 90.6167 90.3918C90.6311 90.3923 90.6454 90.3892 90.6582 90.3826C92.291 89.5168 94.0364 89.0643 95.8945 89.0252C95.9805 89.0239 96.0234 88.9803 96.0234 88.8944L95.9473 49.2108C95.9473 49.0819 95.9277 49.0793 95.8887 49.203C95.75 49.6522 95.748 50.2049 95.6816 50.5936C95.332 52.6658 95.0547 54.951 94.7578 56.8319C94.2357 60.13 93.75 63.4334 93.3008 66.742C92.9492 69.3358 92.6068 71.9308 92.2734 74.5272C91.9531 77.033 91.5117 79.8319 91.1719 82.4959ZM108.047 95.4022C109.617 93.1196 111.134 90.9823 112.598 88.9901C116.768 83.3182 120.859 77.6014 125.295 72.1092C125.438 71.9334 125.4 71.8755 125.182 71.9354C125.14 71.9471 125.085 72.0018 125.018 72.0994C124.971 72.1671 124.919 72.2212 124.861 72.2615C123.661 73.1092 122.9 73.6235 122.58 73.8045C122.503 73.8462 122.429 73.8918 122.357 73.9412L103.971 86.4627C103.916 86.4992 103.889 86.55 103.891 86.6151L103.918 91.0115C103.918 91.05 103.927 91.0879 103.945 91.1219C103.963 91.1559 103.988 91.1851 104.02 91.2069C105.616 92.3267 106.913 93.7238 107.912 95.3983C107.919 95.4098 107.929 95.4194 107.94 95.4261C107.952 95.4329 107.965 95.4367 107.978 95.4371C107.992 95.4374 108.005 95.4345 108.017 95.4284C108.029 95.4223 108.039 95.4133 108.047 95.4022ZM89.3965 86.5174C87.5 85.1619 85.7051 84.117 83.5801 82.6014C78.8476 79.2264 73.9707 76.0155 69.1504 72.7635C68.985 72.6502 68.8678 72.5851 68.7988 72.5682C68.5332 72.5018 68.498 72.5643 68.6934 72.7557C75.1465 79.0448 82.0019 84.8963 88.8262 90.8377C88.8577 90.8649 88.8963 90.8828 88.9374 90.8893C88.9786 90.8959 89.0207 90.8908 89.0589 90.8747C89.0972 90.8587 89.1301 90.8322 89.1538 90.7984C89.1776 90.7646 89.1913 90.7247 89.1933 90.6834L89.4375 86.6033C89.4387 86.5867 89.4356 86.57 89.4284 86.5549C89.4212 86.5398 89.4102 86.5269 89.3965 86.5174ZM113.609 97.1092C115.016 93.8631 116.895 90.8201 118.551 87.6971C121.021 83.0382 123.48 78.3768 125.928 73.7127C125.939 73.6906 125.942 73.6653 125.937 73.6411C125.931 73.6169 125.918 73.5953 125.898 73.5799L125.859 73.5487C125.827 73.5226 125.798 73.5259 125.773 73.5584C123.699 76.2635 121.566 78.9256 119.574 81.6932C116.594 85.8377 113.587 89.9621 110.553 94.0662C110.003 94.8097 109.507 95.5858 109.062 96.3944C109.046 96.4234 109.038 96.456 109.037 96.4892C109.037 96.5223 109.044 96.5551 109.059 96.5845C109.074 96.6139 109.097 96.639 109.124 96.6576C109.151 96.6762 109.182 96.6878 109.215 96.6912L113.467 97.1912C113.534 97.199 113.582 97.1717 113.609 97.1092ZM67.5723 74.2674L79.7734 97.0819C79.8112 97.1509 79.8691 97.1808 79.9473 97.1717L84.1113 96.6541C84.1416 96.6504 84.1705 96.6388 84.195 96.6206C84.2194 96.6023 84.2388 96.578 84.251 96.55C84.2632 96.522 84.2679 96.4913 84.2647 96.4609C84.2614 96.4306 84.2503 96.4016 84.2324 96.3768C82.5059 93.9653 80.817 91.5773 79.166 89.2127C76.1074 84.8325 72.9323 80.5382 69.6406 76.3299C68.957 75.4562 68.3262 74.7251 67.748 74.1365C67.3887 73.772 67.3301 73.8156 67.5723 74.2674ZM73.2519 78.9334C74.1582 80.0441 74.8125 80.882 75.2148 81.4471C78.5117 86.0838 81.8906 90.6678 85.1289 95.3475C85.142 95.3659 85.1595 95.3808 85.1797 95.391C85.1998 95.4011 85.2222 95.4061 85.2446 95.4055C85.2671 95.4049 85.289 95.3988 85.3083 95.3877C85.3276 95.3765 85.3439 95.3607 85.3555 95.3416C86.056 94.2062 86.8945 93.188 87.8711 92.2869C87.9061 92.2546 87.9341 92.2153 87.9532 92.1716C87.9723 92.1279 87.9822 92.0807 87.9822 92.033C87.9822 91.9853 87.9723 91.9382 87.9532 91.8945C87.9341 91.8508 87.9061 91.8115 87.8711 91.7791C86.388 90.4119 84.8652 89.0662 83.3027 87.742C80.5625 85.4217 78.0644 83.199 75.4512 80.9217C74.7064 80.2733 73.9896 79.5955 73.3008 78.8885C73.2864 78.8742 73.2715 78.8742 73.2558 78.8885C73.2389 78.9028 73.2376 78.9178 73.2519 78.9334ZM69.1914 98.4158C72.2422 98.0395 75.25 97.6756 78.2148 97.324C78.3802 97.3045 78.4232 97.2212 78.3437 97.074L74.7695 90.4237C74.7318 90.3533 74.6764 90.3319 74.6035 90.3592C71.0749 91.6691 67.4889 92.7941 63.8457 93.7342C63.0449 93.9412 62.2773 94.1795 61.5 94.4119C60.0605 94.8455 58.5371 95.16 57.0644 95.5721C55.972 95.8755 55.084 96.104 54.4004 96.2576C50.0697 97.2342 45.7187 98.1099 41.3476 98.8846C39.668 99.1834 37.6504 99.4471 35.8066 99.7635C35.7324 99.7765 35.6947 99.8208 35.6933 99.8963L35.6797 100.871C35.6784 100.944 35.7142 100.98 35.7871 100.98C39.8861 101.004 43.985 101.007 48.084 100.99C48.375 100.988 48.668 100.769 48.9785 100.717C50.3717 100.478 52.1374 100.272 54.2754 100.097C56.7715 99.8931 61.7435 99.3325 69.1914 98.4158ZM101.992 91.5877C98.5683 89.8885 94.4883 89.9061 91.0176 91.619C88.207 93.0076 85.6719 96.3143 85.1328 99.4041C84.9648 100.369 84.7539 101.371 84.7891 102.293C84.8945 105.139 85.8997 107.608 87.8047 109.699C89.0098 111.021 90.4434 112.137 92.2969 112.765C94.7598 113.603 96.9687 113.771 99.7285 113.154C103.41 112.328 106.328 109.668 107.641 106.158C109.756 100.504 107.432 94.285 101.992 91.5877ZM161.514 100.301C160.125 100.082 158.639 99.9237 157.332 99.7108C154.123 99.1893 150.936 98.6951 147.721 98.0467C146.221 97.7459 144.721 97.4484 143.221 97.1541C139.23 96.3709 135.355 95.4354 131.326 94.2459C130.754 94.076 129.92 93.9334 129.248 93.7401C125.701 92.7088 122.161 91.6385 118.627 90.5291C118.6 90.5202 118.57 90.5211 118.543 90.5319C118.516 90.5426 118.494 90.5623 118.48 90.5877L114.883 97.1619C114.874 97.1788 114.869 97.1977 114.868 97.217C114.868 97.2362 114.873 97.2551 114.881 97.2721C114.89 97.2891 114.903 97.3036 114.918 97.3144C114.934 97.3251 114.952 97.3318 114.971 97.3338C117.136 97.5916 119.302 97.8507 121.469 98.1112C126.281 98.688 131.097 99.2381 135.916 99.7615C136.035 99.7752 136.158 99.8573 136.313 99.8494C136.826 99.824 137.416 99.951 137.803 99.9823C139.673 100.131 141.339 100.315 142.801 100.535C143.664 100.664 144.49 101.014 145.4 101.014C150.779 101.012 156.16 101.017 161.541 101.027C161.618 101.027 161.655 100.989 161.652 100.912L161.639 100.445C161.636 100.362 161.594 100.314 161.514 100.301ZM138.363 101.701C138.818 101.617 139.178 101.664 139.623 101.664C139.639 101.664 139.649 101.657 139.654 101.642L139.678 101.576C139.681 101.567 139.682 101.557 139.681 101.547C139.68 101.538 139.677 101.528 139.671 101.52C139.666 101.512 139.659 101.505 139.651 101.5C139.642 101.496 139.633 101.493 139.623 101.492C138.972 101.453 138.319 101.426 137.664 101.41C137.238 101.4 136.807 101.25 136.359 101.219C134.67 101.107 132.971 100.748 131.279 100.57C129.325 100.366 127.37 100.172 125.414 99.9901C123.588 99.8201 121.072 99.4412 118.773 99.1893C115.619 98.8455 112.484 98.3533 109.324 98.0682C109.191 98.0552 109.143 98.1131 109.178 98.242C109.559 99.6157 109.734 101.015 109.701 102.439C109.701 102.454 109.703 102.47 109.709 102.484C109.714 102.498 109.723 102.511 109.733 102.522C109.744 102.533 109.757 102.542 109.771 102.547C109.786 102.553 109.801 102.556 109.816 102.556C115.177 102.581 120.531 102.56 125.879 102.492C127.281 102.474 128.932 102.263 130.477 102.254C131.072 102.252 131.68 102.107 132.303 102.086C133.498 102.043 134.692 101.965 135.885 101.853C136.607 101.785 137.533 101.855 138.363 101.701ZM55.6133 101.303C54.6732 101.405 53.7331 101.491 52.793 101.558C52.7812 101.558 52.7747 101.564 52.7734 101.576L52.7676 101.631C52.7637 101.672 52.7832 101.694 52.8262 101.695C56.5058 101.806 60.1816 102.002 63.8535 102.283C65.2611 102.391 66.5605 102.454 67.7519 102.471C72.9538 102.549 78.1608 102.581 83.373 102.568C83.4434 102.568 83.4792 102.533 83.4805 102.463C83.4961 101.36 83.6113 100.27 83.8262 99.1932C83.8848 98.8983 84.0469 98.6522 84.1641 98.3612C84.1757 98.3327 84.1803 98.3018 84.1775 98.2711C84.1746 98.2405 84.1644 98.2109 84.1478 98.1851C84.1311 98.1592 84.1084 98.1377 84.0817 98.1225C84.0549 98.1072 84.0249 98.0987 83.9941 98.0975C83.7741 98.0897 83.5371 98.102 83.2832 98.1346C80.4902 98.4901 77.5098 98.7342 74.8945 99.0584C73.3789 99.2459 71.8626 99.4315 70.3457 99.6151C69.5508 99.7127 68.6797 99.826 67.9121 99.8709C66.959 99.9256 65.9258 100.139 65.0898 100.221C63.5625 100.369 62.0449 100.572 60.5195 100.75C58.8854 100.939 57.25 101.123 55.6133 101.303ZM34.2539 101.014C34.2693 101.014 34.2841 101.008 34.2954 100.997C34.3066 100.987 34.3135 100.972 34.3144 100.957L34.375 99.9432C34.3755 99.9338 34.3739 99.9244 34.3702 99.9157C34.3664 99.9071 34.3608 99.8994 34.3535 99.8933C34.3463 99.8873 34.3378 99.883 34.3287 99.8808C34.3195 99.8786 34.3099 99.8785 34.3008 99.8807L31.8906 100.383C31.8791 100.385 31.8685 100.391 31.8602 100.399C31.8519 100.407 31.8461 100.418 31.8437 100.43L31.7402 100.935C31.7385 100.944 31.7387 100.953 31.7409 100.962C31.743 100.97 31.747 100.978 31.7526 100.985C31.7582 100.992 31.7652 100.998 31.7732 101.002C31.7812 101.005 31.7899 101.008 31.7988 101.008L34.2539 101.014ZM26.8809 100.994C26.8725 100.995 26.8648 100.999 26.8591 101.005C26.8534 101.011 26.85 101.019 26.8496 101.027L26.8457 101.096C26.8454 101.1 26.8462 101.105 26.8479 101.11C26.8497 101.115 26.8524 101.119 26.8559 101.122C26.8594 101.126 26.8636 101.129 26.8683 101.13C26.8729 101.132 26.8779 101.133 26.8828 101.133L30.291 101.019C30.3003 101.019 30.3093 101.016 30.3159 101.009C30.3225 101.002 30.3262 100.994 30.3262 100.984L30.3359 100.609C30.336 100.604 30.3349 100.599 30.3329 100.595C30.3309 100.59 30.328 100.586 30.3243 100.583C30.3206 100.58 30.3162 100.577 30.3115 100.576C30.3068 100.574 30.3018 100.573 30.2969 100.574L26.8809 100.994ZM165.525 100.924C165.526 100.918 165.525 100.911 165.523 100.905C165.521 100.898 165.518 100.892 165.514 100.887C165.509 100.882 165.504 100.878 165.498 100.874C165.493 100.871 165.486 100.869 165.479 100.869L163.233 100.644C163.219 100.643 163.206 100.647 163.196 100.656C163.185 100.664 163.179 100.677 163.177 100.69L163.151 100.954C163.15 100.961 163.151 100.968 163.153 100.974C163.155 100.98 163.158 100.986 163.162 100.991C163.166 100.997 163.171 101.001 163.177 101.004C163.183 101.007 163.19 101.009 163.196 101.01L165.443 101.234C165.456 101.235 165.47 101.231 165.48 101.223C165.491 101.214 165.497 101.202 165.499 101.189L165.525 100.924ZM166.971 101.135C166.774 101.019 166.566 100.995 166.346 101.064C166.313 101.074 166.279 101.076 166.245 101.069C166.212 101.063 166.181 101.047 166.154 101.025C166.051 100.938 165.936 100.911 165.809 100.945C165.784 100.952 165.763 100.967 165.748 100.987C165.733 101.008 165.725 101.033 165.725 101.058C165.725 101.083 165.734 101.108 165.75 101.128C165.766 101.148 165.788 101.162 165.812 101.168C166.297 101.28 166.787 101.29 167.283 101.197C167.347 101.185 167.35 101.166 167.291 101.139C167.218 101.103 167.144 101.103 167.068 101.139C167.053 101.146 167.036 101.149 167.019 101.149C167.002 101.148 166.986 101.143 166.971 101.135ZM26.4705 101.112C26.4676 101.097 26.4404 101.087 26.3948 101.084C26.3492 101.082 26.289 101.087 26.2274 101.098C26.1969 101.104 26.167 101.111 26.1393 101.12C26.1117 101.128 26.0869 101.137 26.0664 101.146C26.0458 101.156 26.0299 101.165 26.0195 101.175C26.0092 101.184 26.0046 101.192 26.006 101.2C26.0089 101.215 26.0362 101.225 26.0818 101.228C26.1274 101.23 26.1876 101.225 26.2492 101.214C26.2797 101.208 26.3096 101.201 26.3372 101.192C26.3648 101.184 26.3896 101.175 26.4102 101.166C26.4307 101.156 26.4466 101.147 26.457 101.138C26.4673 101.128 26.4719 101.12 26.4705 101.112ZM166.828 102.476C166.945 102.545 167.057 102.535 167.164 102.445C167.217 102.401 167.273 102.398 167.33 102.435C167.394 102.474 167.439 102.486 167.465 102.471C167.625 102.375 167.607 102.331 167.41 102.336L163.254 102.447C163.191 102.448 163.16 102.481 163.16 102.545L163.158 103.015C163.158 103.077 163.188 103.103 163.248 103.094L166.211 102.623C166.266 102.614 166.32 102.612 166.375 102.619C166.499 102.633 166.604 102.593 166.691 102.498C166.732 102.454 166.777 102.446 166.828 102.476ZM34.2363 103.894C34.2508 103.897 34.2657 103.897 34.28 103.893C34.2943 103.89 34.3076 103.883 34.319 103.874C34.3304 103.864 34.3396 103.853 34.3459 103.839C34.3522 103.826 34.3555 103.811 34.3555 103.797L34.3516 102.472C34.3516 102.459 34.349 102.446 34.344 102.434C34.339 102.422 34.3316 102.411 34.3224 102.402C34.3131 102.393 34.3021 102.385 34.2901 102.38C34.278 102.375 34.265 102.373 34.2519 102.373L31.8867 102.371C31.8603 102.371 31.835 102.381 31.8163 102.4C31.7976 102.419 31.7871 102.444 31.7871 102.471L31.7812 103.306C31.7812 103.329 31.7892 103.352 31.8038 103.37C31.8184 103.387 31.8387 103.4 31.8613 103.404L34.2363 103.894ZM30.1719 103.267C30.2474 103.284 30.2864 103.254 30.2891 103.176L30.3144 102.551C30.315 102.537 30.3128 102.524 30.308 102.511C30.3032 102.499 30.296 102.487 30.2867 102.478C30.2774 102.468 30.2662 102.46 30.2539 102.455C30.2415 102.45 30.2283 102.447 30.2148 102.447L25.9551 102.433C25.3665 102.431 25.3581 102.499 25.9297 102.637C26.5469 102.785 27.2187 102.722 27.8555 102.846C28.6055 102.992 29.3379 103.086 30.1719 103.267ZM69.2266 125.959C68.7109 127.039 68.0215 128.299 67.5117 129.484C67.3333 129.897 67.3724 129.918 67.6289 129.549C68.916 127.691 70.5625 125.748 71.7715 124.09C74.3789 120.521 77.0703 116.992 79.5508 113.336C81.0684 111.096 82.5586 108.769 84.2226 106.635C84.263 106.584 84.2734 106.527 84.2539 106.465C84.0019 105.656 83.7598 104.871 83.6016 104.035C83.5898 103.971 83.5521 103.939 83.4883 103.937C78.7643 103.851 74.0397 103.827 69.3144 103.863C68.7558 103.867 68.082 103.836 67.293 103.769C65.1699 103.588 63.043 103.594 60.9141 103.398C60.293 103.34 59.625 103.373 58.8379 103.281C58.375 103.226 57.8516 103.262 57.4414 103.232C55.9544 103.129 54.4655 103.044 52.9746 102.976C52.2637 102.945 51.3691 102.82 50.5566 102.81C50.0351 102.805 49.5527 102.678 49.0312 102.627C48.6894 102.594 48.4824 102.387 48.1113 102.387C43.9902 102.39 39.9277 102.39 35.9238 102.387C35.7637 102.387 35.6836 102.467 35.6836 102.627L35.6875 103.885C35.6875 104.063 35.776 104.167 35.9531 104.197C38.5156 104.633 41.2266 104.91 43.6055 105.34C46.6797 105.894 49.7285 106.4 52.8184 107.058C55.5723 107.646 57.9473 108.047 60.4101 108.672C65.1601 109.875 69.9492 110.904 74.6523 112.297C74.6942 112.309 74.7392 112.306 74.7793 112.288C74.8194 112.27 74.8519 112.239 74.8711 112.199L75.7187 110.412C75.7589 110.327 75.8153 110.252 75.8848 110.189C75.9543 110.126 76.0355 110.078 76.1236 110.047C76.2118 110.016 76.3053 110.002 76.3987 110.007C76.4921 110.012 76.5836 110.036 76.668 110.076L76.8125 110.146C76.8756 110.177 76.9319 110.22 76.9779 110.272C77.0239 110.325 77.0587 110.387 77.0801 110.454C77.1014 110.52 77.109 110.591 77.1023 110.66C77.0956 110.73 77.0747 110.798 77.041 110.859C76.3887 112.047 75.6816 113.24 75.082 114.439C74.2786 116.043 73.4785 117.65 72.6816 119.258C71.6894 121.262 70.3086 123.687 69.2266 125.959ZM152.717 104.781C155.692 104.35 158.656 103.851 161.609 103.285C161.676 103.272 161.708 103.232 161.707 103.164L161.703 102.541C161.702 102.447 161.654 102.4 161.561 102.4C156.117 102.387 150.671 102.388 145.225 102.404C144.837 102.405 144.399 102.465 143.912 102.582C143.064 102.785 142.205 102.887 141.334 102.888C140.213 102.888 139.273 103.035 138.225 103.101C135.982 103.244 134.17 103.389 132.141 103.469C131.906 103.476 131.611 103.562 131.424 103.564C130.576 103.568 129.873 103.591 129.314 103.633C128.83 103.668 128.295 103.631 127.789 103.678C125.424 103.898 123.008 103.879 120.635 103.871C116.967 103.859 113.367 103.939 109.75 103.896C109.697 103.896 109.645 103.914 109.604 103.947C109.563 103.981 109.535 104.028 109.525 104.08L109.066 106.488C109.056 106.543 109.066 106.593 109.098 106.638C110.512 108.721 111.958 110.78 113.436 112.818C115.941 116.273 118.311 119.834 120.891 123.23C122.116 124.842 123.34 126.455 124.562 128.068C124.953 128.584 125.496 129.205 125.93 129.806C125.938 129.818 125.95 129.825 125.963 129.828C125.976 129.831 125.989 129.829 126 129.822L126.041 129.797C126.045 129.794 126.046 129.792 126.043 129.789C123.486 124.797 120.954 119.791 118.449 114.771C117.871 113.613 117.258 112.57 116.605 111.504C116.338 111.068 116.039 110.601 116.404 110.222C117.314 109.279 118.27 111.66 118.574 112.185C118.588 112.21 118.611 112.228 118.638 112.238C118.664 112.248 118.694 112.248 118.721 112.238C119.527 111.962 120.343 111.724 121.17 111.523C127.001 110.113 132.843 108.757 138.697 107.455C142.062 106.707 145.473 106.078 148.865 105.424C150.001 105.204 151.285 104.989 152.717 104.781ZM106.953 124.556L101.357 158.285C101.337 158.415 101.389 158.464 101.516 158.431C101.76 158.367 102.02 158.412 102.266 158.367C102.995 158.23 103.731 158.131 104.475 158.068C105.42 157.988 105.652 159.215 104.662 159.387C103.546 159.578 102.42 159.714 101.283 159.795C101.23 159.799 101.199 159.827 101.189 159.879L99.914 167.195C99.9036 167.255 99.8835 167.312 99.8535 167.365L99.791 167.472C99.7831 167.487 99.779 167.503 99.7793 167.519C99.7795 167.535 99.784 167.551 99.7923 167.565C99.8007 167.579 99.8125 167.59 99.8267 167.598C99.8409 167.606 99.8569 167.61 99.873 167.609C100.238 167.603 100.598 167.581 100.955 167.545C103.098 167.329 105.227 167.016 107.342 166.607C109.33 166.222 111.381 165.859 113.256 165.332C123.029 162.584 131.928 157.824 139.559 151.103C142.337 148.654 145.033 145.831 147.645 142.635C151.013 138.51 153.905 133.698 156.32 128.199C157.743 124.957 158.822 121.888 159.557 118.992C160.564 115.018 161.256 110.73 161.631 106.127C161.667 105.68 161.68 105.272 161.668 104.902C161.663 104.764 161.592 104.706 161.455 104.728L153.438 106.047C153.293 106.07 153.215 106.155 153.205 106.301C152.952 109.901 152.421 113.491 151.609 117.07C151.18 118.969 150.549 120.775 149.877 122.609C148.986 125.044 147.926 127.404 146.697 129.689C146.104 130.793 145.495 131.89 144.873 132.98C144.412 133.786 143.363 135.278 141.727 137.457C141.252 138.088 140.648 138.824 140.205 139.347C136.447 143.785 132.133 147.573 127.264 150.711C123.043 153.431 118.348 155.533 113.6 157.154C112.429 157.554 111.258 157.952 110.086 158.349C109.624 158.506 109.234 158.347 108.918 157.873C108.887 157.826 108.881 157.777 108.9 157.724C109.057 157.308 109.338 157.043 109.744 156.931C115.044 155.471 120.011 153.409 124.646 150.748C129.408 148.012 133.432 144.605 137.23 140.621C142.749 134.832 146.771 128.137 149.297 120.535C149.618 119.571 149.92 118.465 150.201 117.215C151.006 113.644 151.583 110.019 151.932 106.338C151.933 106.322 151.931 106.306 151.926 106.291C151.92 106.276 151.912 106.262 151.9 106.251C151.889 106.24 151.875 106.232 151.86 106.227C151.844 106.222 151.828 106.22 151.812 106.222C151.207 106.311 150.598 106.414 149.984 106.531C143.066 107.846 136.184 109.327 129.336 110.972C127.073 111.517 124.81 112.058 122.547 112.596C121.527 112.836 120.508 113.113 119.49 113.426C119.467 113.433 119.445 113.445 119.427 113.461C119.409 113.477 119.394 113.496 119.384 113.519C119.374 113.541 119.369 113.565 119.369 113.589C119.369 113.614 119.374 113.638 119.385 113.66C121.357 117.914 123.629 122.031 125.65 126.271C126.105 127.226 126.799 128.365 127.295 129.439C128.225 131.454 129.202 133.445 130.227 135.414C130.602 136.131 129.869 136.906 129.102 136.443C128.064 135.816 127.035 135.113 125.99 134.562C119.861 131.322 113.848 127.896 107.766 124.574C107.559 124.461 107.385 124.389 107.244 124.359C107.077 124.324 106.98 124.39 106.953 124.556ZM54.9668 142.285C54.9303 141.799 55.1413 141.498 55.5996 141.381C55.6764 141.361 55.7493 141.37 55.8183 141.406C56.1517 141.578 56.4785 141.827 56.7988 142.154C57.7767 143.154 58.9479 144.211 60.3125 145.324C64.7363 148.933 69.5625 151.875 74.8301 154.072C76.9824 154.971 78.5775 155.583 79.6152 155.908C82.571 156.833 84.7689 157.414 86.209 157.652C87.9473 157.94 89.7838 158.214 91.7187 158.474C91.8372 158.49 91.8932 158.438 91.8867 158.318C91.8724 158.037 91.8353 157.722 91.7754 157.373C91.1777 153.955 90.7187 150.504 90.1113 147.099C89.7298 144.954 89.3691 142.805 89.0293 140.652C88.4687 137.078 87.75 133.555 87.1172 130.006C86.7832 128.131 86.3867 126.338 85.9844 124.519C85.9622 124.422 85.9075 124.396 85.8203 124.443C81.3789 126.773 77.0156 129.201 72.6269 131.596C71.5202 132.198 70.4219 132.816 69.332 133.449C68.2031 134.105 66.1992 135.131 64.7246 136.131C64.3613 136.377 63.7891 136.867 63.3281 136.547C62.7871 136.174 62.8672 135.73 63.1484 135.185C64.4355 132.674 65.6348 130.121 66.9277 127.611C68.7949 123.986 70.6738 120.342 72.4785 116.717C72.9043 115.859 73.5508 114.719 74.0351 113.68C74.0451 113.658 74.0503 113.635 74.0503 113.612C74.0503 113.589 74.0452 113.566 74.0353 113.545C74.0254 113.524 74.011 113.505 73.9931 113.49C73.9752 113.475 73.9542 113.465 73.9316 113.459C71.0775 112.704 68.2025 111.956 65.3066 111.217C61.4238 110.226 57.4961 109.443 53.5918 108.549C52.0228 108.188 48.2298 107.491 42.2129 106.459C41.9342 106.411 41.6419 106.383 41.3359 106.375C41.2591 106.374 41.2246 106.411 41.2324 106.486C41.3939 107.977 41.6172 109.459 41.9023 110.931C41.9883 111.367 42.2187 112.781 41.3164 112.756C40.7246 112.74 40.6211 112.103 40.5566 111.619C40.2676 109.498 40.0508 107.713 39.9062 106.264C39.901 106.215 39.8743 106.187 39.8262 106.178L36.0996 105.504C35.9082 105.469 35.8183 105.548 35.8301 105.742C36.0391 109.205 36.4668 112.07 37.209 116.072C37.4251 117.243 37.6849 118.366 37.9883 119.443C41.4375 131.721 48.5098 141.992 58.3008 149.976C60.1992 151.525 62.4004 152.982 64.4609 154.265C70.5703 158.068 77.5019 160.648 84.6172 162.092C85.0443 162.179 85.2207 162.437 85.1465 162.867L85.1191 163.021C85.1075 163.088 85.0825 163.152 85.0456 163.209C85.0087 163.266 84.9607 163.315 84.9044 163.353C84.8481 163.391 84.7847 163.418 84.7179 163.431C84.6511 163.444 84.5823 163.443 84.5156 163.43C79.7344 162.435 75.5039 161.232 71.3476 159.32C69.5293 158.486 67.6367 157.633 65.9629 156.691C53.6816 149.783 43.6953 138.609 38.5937 125.369C37.5664 122.703 36.7168 120.148 36.1406 117.433C35.3008 113.463 34.7396 109.454 34.457 105.406C34.4518 105.334 34.4141 105.293 34.3437 105.281L32.0351 104.877C32.0013 104.871 31.9665 104.873 31.9335 104.882C31.9004 104.891 31.8698 104.908 31.844 104.931C31.8181 104.953 31.7977 104.981 31.7841 105.013C31.7706 105.045 31.7642 105.079 31.7656 105.113C31.7956 105.793 31.8437 106.431 31.9101 107.029C32.2832 110.396 32.7129 113.799 33.4707 117.094C34.9551 123.551 37.4766 130.012 41.125 135.857C45.582 143 51.2715 149.379 58 154.332C64.7949 159.334 72.4433 163.252 80.6719 165.394C84.6875 166.439 88.7773 167.197 92.918 167.519C92.9831 167.525 93.0443 167.544 93.1016 167.578C93.1471 167.604 93.1933 167.614 93.2402 167.607C93.2713 167.602 93.2991 167.585 93.3177 167.56C93.3363 167.534 93.3443 167.503 93.3398 167.472L92.1484 159.976C92.138 159.914 92.1009 159.878 92.0371 159.869C90.9407 159.719 89.8457 159.566 88.7519 159.408C76.6094 157.654 65.3223 152.023 56.5332 143.764C56.1074 143.365 55.5137 142.91 55.0391 142.439C54.9974 142.398 54.9718 142.343 54.9668 142.285ZM79.3301 116.013C77.8223 118.092 76.3535 120.14 74.7637 122.209C72.7793 124.796 70.8294 127.367 68.9141 129.922C68.6823 130.23 68.7057 130.251 68.9844 129.984C69.5371 129.453 70.1172 128.953 70.7812 128.482C72.8965 126.984 74.9668 125.416 77.1152 123.965C81.0879 121.284 85.1016 118.67 89.1562 116.125C89.2059 116.094 89.2468 116.05 89.2751 115.999C89.3035 115.947 89.3184 115.889 89.3184 115.83L89.3203 112.908C89.3203 112.879 89.3138 112.85 89.3013 112.824C89.2887 112.798 89.2705 112.775 89.248 112.758C88.8945 112.488 88.5019 112.248 88.1914 111.967C86.9258 110.819 85.847 109.523 84.9551 108.076C84.9469 108.062 84.9355 108.051 84.9219 108.043C84.9082 108.035 84.8928 108.031 84.877 108.031C84.8613 108.03 84.8456 108.034 84.8316 108.041C84.8176 108.048 84.8057 108.059 84.7969 108.072C83.2487 110.305 81.7005 112.528 80.1523 114.742C79.8633 115.158 79.6094 115.629 79.3301 116.013ZM104.248 112.658C104.18 112.706 104.112 112.761 104.043 112.822C103.995 112.865 103.971 112.919 103.971 112.984L103.965 115.613C103.965 115.672 103.988 115.719 104.035 115.754C104.365 116.002 104.676 116.31 105.002 116.523C109.537 119.498 114.129 122.467 118.516 125.656C120.422 127.041 122.316 128.351 124.143 129.851C124.2 129.898 124.242 129.891 124.268 129.83C124.273 129.817 124.274 129.803 124.272 129.789C124.27 129.775 124.265 129.762 124.256 129.752C120.109 124.553 116.312 119.07 112.424 113.681C111.07 111.805 109.779 109.898 108.379 108.058C108.367 108.043 108.352 108.031 108.335 108.023C108.317 108.015 108.298 108.012 108.279 108.013C108.26 108.015 108.241 108.021 108.225 108.032C108.209 108.042 108.196 108.057 108.187 108.074C107.258 109.918 105.945 111.446 104.248 112.658ZM91.7383 123.914C91.9596 125.48 92.1738 127.049 92.3809 128.619C92.4512 129.14 92.6016 129.707 92.6719 130.174C93.0664 132.756 93.4707 135.344 93.8027 137.935C94.0189 139.616 94.2461 141.296 94.4844 142.974C94.8646 145.654 95.2767 148.329 95.7207 151C95.7637 151.262 95.8613 151.533 95.8164 151.855C95.8073 151.923 95.8183 151.977 95.8496 152.017C95.8861 152.067 95.9049 152.06 95.9062 151.998C95.9101 151.42 95.9746 150.795 95.9726 150.256C95.9629 138.474 95.9766 126.693 95.9941 114.912C95.9942 114.895 95.9908 114.879 95.984 114.863C95.9772 114.848 95.9673 114.834 95.9548 114.823C95.9423 114.811 95.9275 114.803 95.9115 114.797C95.8954 114.792 95.8783 114.789 95.8613 114.791C94.2812 114.924 92.1621 114.24 90.7422 113.599C90.7254 113.591 90.7068 113.588 90.6882 113.589C90.6696 113.591 90.6517 113.597 90.636 113.607C90.6204 113.618 90.6076 113.632 90.5988 113.649C90.5901 113.665 90.5856 113.684 90.5859 113.703C90.6471 116.069 90.8594 118.392 91.2226 120.674C91.5651 122.823 91.737 123.903 91.7383 123.914ZM102.564 113.703C100.838 114.185 99.3398 114.758 97.5234 114.754C97.4284 114.754 97.3809 114.801 97.3809 114.896C97.3144 126.26 97.3392 137.622 97.4551 148.984C97.4629 149.816 97.5469 149.824 97.707 149.008C97.873 148.156 97.9297 147.158 98.0723 146.299C98.2298 145.334 98.4232 144.045 98.6523 142.431C99.0332 139.74 99.7969 134.965 100.49 130.523C101.199 125.965 101.949 121.394 102.498 116.814C102.613 115.842 102.619 114.806 102.684 113.801C102.684 113.785 102.682 113.77 102.675 113.756C102.669 113.742 102.66 113.73 102.648 113.721C102.637 113.711 102.623 113.705 102.609 113.701C102.594 113.698 102.579 113.699 102.564 113.703ZM103.596 120.558C110.426 124.808 117.656 128.49 124.715 132.349C124.737 132.362 124.763 132.365 124.788 132.358C124.812 132.352 124.834 132.336 124.848 132.314L124.873 132.271C124.88 132.26 124.882 132.247 124.88 132.234C124.877 132.222 124.87 132.21 124.859 132.203C124.207 131.756 123.39 131.124 122.408 130.305C119.99 128.287 117.352 126.367 114.539 124.476C111.045 122.127 107.566 119.767 104.021 117.494C103.995 117.477 103.966 117.467 103.935 117.465C103.904 117.463 103.873 117.469 103.845 117.482C103.817 117.495 103.792 117.515 103.774 117.54C103.756 117.565 103.744 117.594 103.74 117.625C103.631 118.488 103.676 119.303 103.436 120.144C103.414 120.221 103.417 120.303 103.446 120.377C103.475 120.452 103.528 120.516 103.596 120.558ZM84.5664 123.558C86.3151 122.625 88.0325 121.637 89.7187 120.594C89.749 120.575 89.7733 120.548 89.7889 120.516C89.8045 120.484 89.8106 120.448 89.8066 120.412L89.4746 117.744C89.4715 117.72 89.4624 117.697 89.4482 117.678C89.434 117.659 89.4151 117.643 89.3932 117.633C89.3714 117.623 89.3473 117.618 89.3233 117.62C89.2993 117.622 89.2761 117.629 89.2559 117.642C86.7324 119.286 84.2155 120.903 81.7051 122.496C80.7519 123.099 79.666 123.877 78.5781 124.57C74.8281 126.957 71.3516 129.793 67.8887 132.482C67.6113 132.697 67.6308 132.728 67.9473 132.574C70.1387 131.508 72.2598 130.205 74.4375 129.041C77.8242 127.232 81.1816 125.369 84.5664 123.558ZM91.1465 129.496C90.8066 127.037 90.3926 124.568 90.1269 122.123C90.1126 121.994 90.0495 121.961 89.9375 122.025L87.4121 123.461C87.2988 123.525 87.2539 123.621 87.2773 123.75C87.8652 126.875 88.4922 129.654 88.9941 132.877C89.1803 134.069 89.4017 135.324 89.6582 136.64C90.2812 139.838 90.7187 143.058 91.3086 146.254C91.7435 148.609 92.1217 150.973 92.4434 153.346C92.6934 155.181 93.0488 157.064 93.3183 158.933C93.5351 160.431 93.8672 162.176 94.0644 163.814C94.1933 164.889 94.4687 166.014 94.6094 167.129C94.6269 167.264 94.7168 167.369 94.7187 167.5C94.72 167.558 94.75 167.588 94.8086 167.588L95.834 167.586C95.8621 167.586 95.8892 167.575 95.9092 167.555C95.9293 167.535 95.9409 167.508 95.9414 167.48C95.9726 165.573 95.9772 163.65 95.9551 161.711C95.9453 160.914 95.6621 160.176 95.5625 159.439C95.2461 157.053 94.8535 154.678 94.498 152.297C93.64 146.545 92.8118 140.789 92.0137 135.027C91.7773 133.324 91.4023 131.346 91.1465 129.496ZM102.348 127.451C101.422 133.123 100.639 138.822 99.7734 144.504C99.2168 148.162 98.7519 151.824 98.2558 155.486C98.0859 156.738 97.9629 158.965 97.5683 160.693C97.4473 161.222 97.3861 161.718 97.3848 162.181C97.3795 163.971 97.3743 165.734 97.3691 167.471C97.369 167.501 97.3758 167.531 97.389 167.559C97.4022 167.587 97.4215 167.611 97.4454 167.63C97.4694 167.65 97.4975 167.663 97.5275 167.671C97.5576 167.678 97.5889 167.678 97.6191 167.672L98.6152 167.453C98.6634 167.443 98.6803 167.414 98.666 167.367C98.6087 167.186 98.5911 167.028 98.6133 166.892C99.1875 163.362 99.776 159.834 100.379 156.308C100.779 153.975 101.153 151.638 101.502 149.297C102.174 144.797 103.018 140.32 103.701 135.82C104.08 133.328 104.695 130.545 105.086 127.881C105.299 126.433 105.582 125.025 105.816 123.594C105.828 123.519 105.801 123.463 105.736 123.424L103.373 122.015C103.354 122.004 103.332 121.998 103.31 121.997C103.288 121.996 103.266 122 103.246 122.009C103.226 122.018 103.208 122.031 103.195 122.048C103.181 122.066 103.172 122.086 103.168 122.107C102.814 123.877 102.596 125.931 102.348 127.451ZM96.7324 156.121C96.8379 155.609 96.8743 155.103 96.8418 154.603C96.8379 154.546 96.8086 154.523 96.7539 154.533L96.6777 154.547C96.5944 154.562 96.5527 154.612 96.5527 154.697L96.5605 156.836C96.5618 157.185 96.6172 157.189 96.7266 156.847C96.7773 156.691 96.6836 156.359 96.7324 156.121ZM95.9004 172.389C95.9186 171.256 95.9303 170.137 95.9355 169.031C95.9368 168.965 95.9043 168.933 95.8379 168.937L94.9453 168.99C94.8776 168.994 94.8503 169.028 94.8633 169.094L95.7793 173.73C95.8548 174.113 95.8984 174.114 95.9101 173.732C95.9141 173.59 95.89 173.383 95.8379 173.109C95.8262 173.045 95.8288 172.983 95.8457 172.922C95.8795 172.802 95.8978 172.624 95.9004 172.389ZM97.418 173.535L98.3301 169.088C98.3483 168.998 98.3112 168.952 98.2187 168.951L97.5312 168.945C97.5174 168.945 97.5036 168.947 97.4907 168.952C97.4778 168.957 97.4661 168.965 97.4561 168.975C97.4461 168.984 97.4381 168.996 97.4326 169.008C97.4271 169.021 97.4241 169.035 97.4238 169.049L97.3691 173.531C97.3681 173.538 97.3697 173.544 97.3735 173.549C97.3774 173.554 97.3832 173.557 97.3896 173.557C97.3961 173.558 97.4027 173.556 97.408 173.552C97.4134 173.547 97.4169 173.541 97.418 173.535Z" fill="#010101"/>
</svg>
