<svg width="200" height="200" viewBox="0 0 200 200" fill="none" xmlns="http://www.w3.org/2000/svg">
<path d="M100.408 21.7845L100.366 21.7846C99.8682 21.7854 99.4651 22.1899 99.4659 22.6881L99.4789 30.0914C99.4797 30.5895 99.8842 30.9926 100.382 30.9917L100.424 30.9917C100.922 30.9908 101.325 30.5863 101.324 30.0881L101.311 22.6848C101.31 22.1867 100.906 21.7836 100.408 21.7845Z" fill="#1F1F19"/>
<path d="M68.6367 37.8868C69.1547 38.7377 67.866 39.9062 67.2569 38.967C66.6381 38.0148 66.0294 37.054 65.4309 36.0844C65.1146 35.5706 65.4323 34.9794 65.9516 34.8095C66.384 34.6659 66.8025 35.1548 67.0248 35.4614C67.5939 36.2487 68.1312 37.0572 68.6367 37.8868Z" fill="#1F1F19"/>
<path d="M135.141 35.063L135.055 35.0036C134.673 34.7425 134.152 34.84 133.891 35.2214L132.078 37.87C131.816 38.2514 131.914 38.7723 132.295 39.0335L132.382 39.0928C132.763 39.354 133.284 39.2565 133.545 38.875L135.359 36.2265C135.62 35.845 135.523 35.3241 135.141 35.063Z" fill="#1F1F19"/>
<path d="M133.287 49.7599C133.122 49.7894 133.109 49.8819 133.249 50.0375C133.282 50.0734 133.305 50.1149 133.319 50.1618L133.428 50.5113C133.439 50.5468 133.462 50.5773 133.494 50.5969C133.611 50.6697 133.711 50.7595 133.794 50.8663C134.025 51.1688 134.3 51.3428 134.497 51.6632C134.7 51.9892 134.816 52.1715 134.845 52.2102C135.172 52.6374 135.502 53.0615 135.834 53.4823C135.844 53.4952 135.855 53.5076 135.865 53.5196C135.974 53.6467 136.015 53.8041 136.109 53.9201C136.588 54.5104 137.029 55.1269 137.431 55.7696C137.536 55.9381 137.652 56.0997 137.779 56.2544C138.137 56.6909 138.367 57.1453 138.677 57.5859C139.177 58.3014 139.532 59.021 139.913 59.7696C140.489 60.9049 140.919 62.1522 141.387 63.3483C141.428 63.4505 141.416 63.6107 141.45 63.6936C141.755 64.398 141.969 65.0021 142.091 65.5058C142.184 65.8851 142.288 66.212 142.402 66.4864C142.489 66.6964 142.497 66.9229 142.573 67.1425C142.642 67.3405 142.684 67.5025 142.699 67.6287C142.76 68.1522 142.957 68.5679 143.047 69.061C143.082 69.2572 143.191 69.4367 143.244 69.6591C143.451 70.5127 143.616 71.3165 143.74 72.0707C143.901 73.0362 143.963 74.3676 144.152 75.5168C144.227 75.9699 144.137 76.4616 144.156 76.8538C144.189 77.5592 144.187 78.265 144.151 78.9712C144.137 79.2447 144.229 79.5997 144.119 79.9422C144.116 79.9505 144.119 79.9551 144.128 79.956C144.139 79.957 144.151 79.9602 144.164 79.9657C144.173 79.9703 144.177 79.9772 144.177 79.9864C144.178 80.4791 144.183 80.9717 144.193 81.4643C144.193 81.4708 144.198 81.4749 144.207 81.4768C144.211 81.4768 144.215 81.4777 144.22 81.4795C144.232 81.486 144.236 81.4975 144.232 81.5141C144.197 81.6899 144.143 81.8594 144.069 82.0223C143.978 82.224 143.997 82.3621 143.96 82.5652C143.836 83.2461 143.994 83.9188 143.837 84.5914C143.803 84.7387 143.791 84.8893 143.801 85.0431C143.804 85.0873 143.797 85.1296 143.779 85.1701C143.704 85.3455 143.74 85.5458 143.702 85.7047C143.644 85.9409 143.624 86.2392 143.468 86.4326C143.44 86.4676 143.425 86.5071 143.425 86.5513C143.424 86.7737 143.327 86.9754 143.297 87.1715C143.256 87.4339 143.189 87.6886 143.095 87.9353C142.989 88.2153 142.916 88.4648 142.878 88.6839C142.796 89.1775 142.671 89.6595 142.504 90.1301C142.416 90.3815 142.384 90.6729 142.283 90.9422C142.199 91.1678 142.14 91.3667 142.105 91.5389C141.986 92.1218 141.685 92.6038 141.564 93.1618C141.369 94.0486 140.88 95.0348 140.485 96.0292C140.345 96.3801 140.175 96.7162 139.974 97.0375C139.789 97.3317 139.66 97.6549 139.472 97.9547C139.304 98.2245 139.18 98.4524 139.099 98.6384C138.822 99.2848 138.565 99.6232 138.224 100.241C138.159 100.359 138.019 100.477 137.938 100.62C137.663 101.108 137.365 101.58 137.043 102.036C136.964 102.148 136.884 102.259 136.804 102.372C136.36 102.991 135.936 103.625 135.53 104.274C135.483 104.347 135.408 104.43 135.304 104.521C135.087 104.712 134.939 105.05 134.815 105.202C134.531 105.547 134.242 105.884 133.946 106.212C133.903 106.259 133.88 106.321 133.881 106.384C133.881 106.448 133.906 106.509 133.95 106.555C133.973 106.58 134.028 106.596 134.115 106.601C133.285 107.586 132.7 108.253 132.359 108.601C130.819 110.174 129.323 111.786 127.873 113.438C127.882 113.375 127.878 113.335 127.859 113.321C127.838 113.303 127.809 113.294 127.78 113.296C127.75 113.298 127.72 113.311 127.696 113.332L127.367 113.615C127.333 113.643 127.295 113.658 127.251 113.658H127.133C127.063 113.658 127.029 113.692 127.033 113.761C127.045 113.955 126.955 114.067 126.762 114.098C126.727 114.104 126.692 114.106 126.657 114.104C126.601 114.1 126.554 114.119 126.515 114.159C126.443 114.234 126.468 114.344 126.468 114.444C126.468 114.496 126.451 114.543 126.417 114.583C126.297 114.726 126.157 114.846 125.997 114.945C125.957 114.97 125.925 115.006 125.905 115.047C125.782 115.294 125.698 115.481 125.496 115.691C125.123 116.079 124.902 116.514 124.568 116.917C124.115 117.467 123.794 118.094 123.423 118.695C123.131 119.167 122.854 119.682 122.593 120.239C122.146 121.191 121.642 122.119 121.406 123.158C121.333 123.482 121.184 123.819 121.124 124.097C120.977 124.789 120.887 125.323 120.714 126.181C120.501 127.231 120.535 128.423 120.575 129.491C120.599 130.14 120.626 130.789 120.656 131.438C120.663 131.584 120.654 131.758 120.627 131.957C120.569 132.393 120.594 132.923 120.561 133.263C120.527 133.614 120.494 133.966 120.461 134.318C120.414 134.839 120.26 135.322 120.127 135.823C120.007 136.27 119.88 136.634 119.746 136.916C119.541 137.346 119.298 137.755 119.019 138.143C118.833 138.402 118.548 138.612 118.315 138.851C118.136 139.034 117.941 139.186 117.729 139.307C117.349 139.524 117.106 139.706 117.001 139.851C116.689 140.282 116.213 140.583 115.704 140.734C115.635 140.754 115.572 140.794 115.524 140.849C115.476 140.904 115.444 140.971 115.432 141.043C115.332 141.678 115.983 142.108 116.181 142.703C116.212 142.799 116.276 142.933 116.373 143.107C116.619 143.551 116.609 144.225 116.535 144.694C116.491 144.962 116.378 145.235 116.196 145.513C116.03 145.764 115.851 146.005 115.657 146.236C115.566 146.346 115.53 146.423 115.384 146.477C115.08 146.586 114.405 146.754 114.606 147.23C114.629 147.285 114.674 147.329 114.729 147.352C114.785 147.375 114.847 147.375 114.903 147.352L115.332 147.178C116.032 147.695 116.53 148.36 116.826 149.173C117.356 150.633 116.515 152.22 115.235 152.96C115.223 152.967 115.213 152.977 115.206 152.989C115.199 153.001 115.196 153.015 115.196 153.029C115.196 153.042 115.199 153.056 115.206 153.067C115.213 153.079 115.223 153.089 115.235 153.096C116.363 153.735 117.262 155.294 116.983 156.596C116.751 157.678 116.196 158.519 115.316 159.12C115.278 159.147 115.249 159.183 115.232 159.226C115.214 159.269 115.21 159.317 115.22 159.362C115.348 159.984 115.341 160.557 115.113 161.172C114.267 163.451 112.07 164.924 109.695 165.271C109.65 165.277 109.624 165.303 109.617 165.348C109.514 166.113 109.227 166.804 108.754 167.422C107.242 169.397 104.783 169.963 102.452 170.017C101.069 170.049 99.791 170.055 98.6188 170.033C97.3895 170.011 96.4756 169.927 95.8771 169.779C93.652 169.231 91.5926 167.696 91.0649 165.383C91.0576 165.35 91.0378 165.33 91.0055 165.323C88.9337 164.912 87.0387 163.614 85.9904 161.796C85.5346 161.009 85.4517 160.275 85.6036 159.405C85.6118 159.358 85.6063 159.309 85.5877 159.265C85.5691 159.22 85.5382 159.182 85.4986 159.155C83.4061 157.716 83.0815 154.662 85.2334 153.069C85.249 153.058 85.2614 153.043 85.2696 153.025C85.2779 153.007 85.2816 152.988 85.2805 152.969C85.2794 152.95 85.2735 152.931 85.2634 152.915C85.2532 152.899 85.2391 152.885 85.2224 152.876C83.9379 152.149 83.5166 150.524 83.866 149.174L83.8605 149.41C83.8597 149.435 83.8651 149.459 83.8761 149.481C83.8871 149.502 83.9034 149.521 83.9235 149.535C83.9436 149.549 83.9668 149.557 83.9911 149.559C84.0153 149.562 84.0398 149.558 84.0622 149.549C84.1819 149.497 84.25 149.403 84.2666 149.267C84.2721 149.228 84.2836 149.191 84.3011 149.155C84.3683 149.02 84.4738 148.783 84.6174 148.446C84.8108 147.991 85.1294 147.607 85.5732 147.293C85.7601 147.16 85.7938 147.017 85.6741 146.864C85.616 146.789 85.5401 146.729 85.4462 146.683C85.2321 146.578 84.8674 146.281 84.7528 146.071C84.6022 145.792 84.413 145.558 84.3066 145.254C84.1837 144.906 83.971 144.623 84.1948 144.242C84.2187 144.201 84.2265 144.158 84.2182 144.111C84.1667 143.814 84.1925 143.532 84.2956 143.265C84.3771 143.055 84.6022 142.951 84.6298 142.644C84.6335 142.602 84.6478 142.562 84.6727 142.526C84.7988 142.345 84.9287 142.166 85.0622 141.991C85.2735 141.713 85.5263 141.601 85.8232 141.463C85.8564 141.447 85.8859 141.425 85.9097 141.397C85.9334 141.369 85.951 141.337 85.961 141.302C85.9711 141.267 85.9735 141.23 85.9681 141.194C85.9627 141.158 85.9495 141.123 85.9296 141.093C85.7951 140.887 85.6018 140.802 85.3495 140.837C85.3024 140.844 85.2547 140.837 85.2113 140.819C84.855 140.672 84.5194 140.41 84.2238 140.25C83.1754 139.68 82.3205 138.779 81.7044 137.879C80.8522 136.637 80.3343 135.275 80.2528 133.702C80.2417 133.486 80.2247 133.271 80.2017 133.055C80.1437 132.521 80.2017 131.993 80.1934 131.457C80.174 130.269 80.1593 129.079 80.1492 127.89C80.1437 127.252 80.0373 126.546 80.0221 125.864C80.0166 125.608 79.9517 125.179 79.8274 124.579C79.7694 124.303 79.6257 124.025 79.547 123.736C79.4706 123.46 79.4029 123.25 79.3439 123.105C79.0926 122.497 78.8798 121.83 78.6395 121.267C78.5152 120.977 78.39 120.686 78.2638 120.395C77.9558 119.681 77.5415 118.992 77.1892 118.285C77.0778 118.059 76.8596 117.749 76.5345 117.355C75.7417 116.391 75.0111 115.384 74.2735 114.379C74.1741 114.243 74.0069 114.107 73.9199 113.995C73.4604 113.397 72.9788 112.817 72.4752 112.256C72.2528 112.007 72.1036 111.703 71.8729 111.455C70.4273 109.889 68.9752 108.33 67.5166 106.776C66.239 105.416 64.9945 103.934 64.0732 102.589C63.3771 101.576 62.5184 100.143 61.4973 98.2903C61.4899 98.2774 61.4853 98.2631 61.4834 98.2475C61.4816 98.2337 61.4802 98.2194 61.4793 98.2047C61.4775 98.1807 61.4715 98.1591 61.4613 98.1397C60.791 96.8967 60.2178 95.6107 59.7417 94.282C59.6837 94.1176 59.5691 94.0417 59.5318 93.8566C59.4392 93.4063 59.192 92.8856 59.0884 92.5873C58.8426 91.8746 58.6045 91.1595 58.3743 90.4422C58.3301 90.3083 58.3246 90.1356 58.2611 89.9947C58.1985 89.8538 58.1598 89.7493 58.145 89.6812C58.1073 89.4979 58.0566 89.3184 57.9931 89.1425C57.7873 88.5679 57.7252 87.9491 57.6271 87.3483C57.5718 87.0085 57.395 86.6342 57.3384 86.2571C57.1414 84.9432 56.9466 83.6287 56.7542 82.3138C56.7486 82.2788 56.7348 82.2475 56.7127 82.2199C56.6823 82.1812 56.6828 82.1462 56.7141 82.1149C56.715 81.9224 56.7155 81.7332 56.7155 81.5472C56.7155 81.5278 56.7078 81.5092 56.694 81.4954C56.6803 81.4817 56.6617 81.474 56.6423 81.474L56.5746 81.4754C56.5092 81.4763 56.4811 81.509 56.4903 81.5735L56.5953 82.3179C56.6008 82.3538 56.5944 82.387 56.576 82.4174L56.5166 82.5182C56.2224 78.9547 56.2583 75.2862 56.8578 71.7502L56.8812 72.0444C56.8823 72.0592 56.8869 72.0735 56.8947 72.0861C56.9026 72.0987 56.9133 72.1092 56.9261 72.1167C56.9389 72.1241 56.9533 72.1284 56.9681 72.129C56.9829 72.1297 56.9977 72.1267 57.0111 72.1204C57.1814 72.0403 57.2555 71.9072 57.2334 71.7212C57.2334 71.7212 57.2394 71.7093 57.2514 71.6853C57.2578 71.6715 57.2675 71.6651 57.2804 71.666C57.3237 71.6706 57.3513 71.6522 57.3633 71.6107C57.4756 71.2452 57.5488 70.8713 57.5829 70.4892C57.5857 70.4514 57.599 70.4174 57.6229 70.387C57.6561 70.3455 57.6754 70.2834 57.681 70.2005C57.7104 69.7963 57.8034 69.2093 57.96 68.4395C57.9959 68.2627 58.0396 68.1393 58.0912 68.0693C58.1102 68.043 58.1226 68.0122 58.1271 67.9795L58.2486 67.195C58.2569 67.137 58.2809 67.0868 58.3205 67.0444C58.3711 66.9901 58.4066 66.9257 58.4268 66.8511C58.5336 66.4717 58.6312 66.0905 58.7196 65.7074C58.7638 65.5182 58.895 65.3428 58.9517 65.1411C59.0691 64.7143 59.2252 64.3649 59.3564 63.9671C59.4033 63.8271 59.4788 63.6361 59.5829 63.3939C59.6639 63.2033 59.7302 63.0076 59.7818 62.8069C59.8527 62.5352 59.9402 62.2995 60.0442 62.0997C60.2643 61.678 60.4475 61.241 60.5939 60.7889C60.7707 60.2489 61.1257 59.5776 61.4213 59.1025C61.8011 58.492 62.0787 57.829 62.4544 57.224C62.5824 57.0196 62.7132 56.8175 62.8467 56.6176C63.5806 55.5182 64.3136 54.4183 65.0456 53.3179C65.3426 52.8718 65.7569 52.4063 66.0815 51.9229C66.2044 51.7378 66.3881 51.5776 66.5235 51.3842C66.7915 51.0002 67.0649 50.7185 67.3398 50.3773C67.5129 50.1628 67.6883 49.9735 67.866 49.8096C68.4498 49.2719 68.8891 48.8396 69.1837 48.5127C69.8808 47.7392 70.3868 47.2668 70.7017 47.0955C71.4075 46.713 71.8066 46.0306 72.4531 45.5596C73.2431 44.9837 74.0028 44.3621 74.7928 43.7931C74.9659 43.6688 75.3057 43.4588 75.8122 43.1632C76.279 42.8911 76.7196 42.5389 77.1589 42.2875C77.4876 42.0997 77.8145 41.91 78.1395 41.7185C78.32 41.6126 78.4531 41.5265 78.5387 41.4602C78.9959 41.1025 79.5332 40.8014 80.0373 40.5141C80.3094 40.3607 80.6368 40.3013 80.884 40.1757C81.4282 39.898 81.9089 39.5679 82.5042 39.4049C82.7758 39.3294 83.0465 39.2521 83.3163 39.1729C83.5705 39.0969 83.7528 38.8994 84.0194 38.8124C84.2938 38.7231 84.5705 38.6393 84.8495 38.561C85.2334 38.4524 85.6147 38.3377 85.9931 38.2171C86.1492 38.1674 86.337 38.1577 86.5097 38.1135C86.7767 38.0454 87.0424 37.9745 87.3066 37.9008C87.4125 37.8713 87.669 37.7733 88.076 37.6066C88.3421 37.4979 88.6206 37.4307 88.9116 37.4049C88.9556 37.4005 88.9971 37.3826 89.0304 37.3538C89.2486 37.1646 89.4199 36.9781 89.7127 36.9049C90.058 36.8179 90.402 36.7889 90.7376 36.6743C91.2247 36.5095 91.6879 36.3999 92.1271 36.3456C92.3053 36.3235 92.3039 36.3193 92.471 36.2019C92.5134 36.1724 92.5622 36.1632 92.6174 36.1743C92.6598 36.1835 92.686 36.1665 92.6961 36.1232C92.7081 36.0716 92.7008 36.0348 92.6741 36.0127C92.6492 35.9924 92.6059 35.9883 92.5442 36.0002C92.3601 36.0352 92.1759 36.0385 91.9917 36.0099C94.7956 35.4409 97.6685 35.0942 100.529 35.1397C101.555 35.1563 102.594 35.1563 103.597 35.2502C105.006 35.381 106.181 35.5389 107.122 35.724C108.856 36.0665 110.609 36.3746 112.29 36.8635C113.769 37.2944 114.824 37.6259 115.456 37.858C122.207 40.34 128.507 44.3442 133.287 49.7599ZM93.413 37.7033C93.378 37.6379 93.3766 37.579 93.4089 37.5265C93.4162 37.5145 93.4264 37.5118 93.4392 37.5182C93.4521 37.5246 93.4646 37.5306 93.4765 37.5362C93.4857 37.5408 93.4908 37.5385 93.4917 37.5292C93.4927 37.5191 93.4963 37.5062 93.5028 37.4906C93.5073 37.48 93.5082 37.4682 93.5055 37.457C93.5029 37.4458 93.4967 37.4358 93.4879 37.4284C93.4791 37.421 93.4681 37.4166 93.4566 37.4158C93.4452 37.4151 93.4337 37.4181 93.4241 37.4243C93.2344 37.5449 93.0387 37.5808 92.837 37.532C92.7965 37.523 92.7537 37.5264 92.7141 37.5417C92.7012 37.5463 92.6883 37.5514 92.6754 37.5569C92.6331 37.5744 92.5907 37.5744 92.5484 37.5569C92.4121 37.5025 92.2942 37.4933 92.1948 37.5292C91.5198 37.7723 91.0249 37.916 90.71 37.9602C90.384 38.0058 90.116 38.1259 89.8287 38.1591C89.4586 38.2019 89.1381 38.3469 88.7915 38.3939C88.2123 38.4712 87.6497 38.6176 87.1036 38.8331C86.8868 38.9188 86.6064 38.9547 86.3743 39.0444C85.8762 39.236 85.3766 39.4238 84.8757 39.608C84.5926 39.713 83.7155 39.8897 83.5097 40.1715C83.4857 40.2047 83.4544 40.2286 83.4158 40.2433C83.1506 40.3442 82.9724 40.456 82.6768 40.5085C82.3757 40.5619 82.1096 40.6922 81.8785 40.8994C81.8468 40.9274 81.8077 40.9465 81.7652 40.9547C81.2707 41.0458 80.9558 41.4188 80.5069 41.6246C79.7003 41.9961 78.8978 42.3235 78.1589 42.8152C77.4581 43.282 76.7629 43.7571 76.0732 44.2406C75.7017 44.5016 75.2334 44.742 74.8301 45.0265C74.6299 45.1674 74.3633 45.2641 74.1589 45.4602C73.2997 46.2848 72.2859 47.0016 71.3343 47.7226C71.2781 47.765 71.244 47.7512 71.2321 47.6812L71.2086 47.55C71.2042 47.5235 71.1895 47.4998 71.1678 47.4841C71.1461 47.4683 71.1191 47.4617 71.0926 47.4657C70.8136 47.5099 70.8149 47.7199 70.866 47.9422C70.8771 47.9874 70.866 48.0269 70.8329 48.061C70.2473 48.666 69.6616 49.2714 69.076 49.8773C68.9121 50.0458 68.7523 50.2687 68.5967 50.5458C68.3048 51.0652 67.9323 51.5223 67.4793 51.9174C67.3757 52.0072 67.3053 52.1715 67.1948 52.2696C67.0686 52.381 66.9899 52.457 66.9586 52.4975C66.616 52.9533 66.2763 53.4109 65.9392 53.8704C65.8895 53.9395 65.8812 54.0417 65.8412 54.0983C65.6091 54.4215 65.3605 54.7323 65.0953 55.0306C65.0309 55.1034 64.9747 55.1913 64.9268 55.2944C64.6962 55.7931 64.3868 56.1964 64.0857 56.6494C63.9489 56.8525 63.9254 57.0596 63.7638 57.2682C63.6285 57.4413 63.4977 57.6186 63.3716 57.8C63.181 58.0721 63.2141 58.3442 62.9765 58.6259C62.7712 58.8709 62.5999 59.1374 62.4627 59.4257C62.3315 59.7019 62.1285 59.9395 62.0083 60.2254C61.9079 60.463 61.8076 60.6646 61.7072 60.8304C61.512 61.1554 61.3808 61.5085 61.3136 61.8897C61.3064 61.9285 61.2876 61.9641 61.2597 61.992C61.0304 62.2139 60.9079 62.4855 60.8923 62.8069C60.8895 62.8575 60.8752 62.904 60.8495 62.9464C60.7169 63.1628 60.611 63.3897 60.5318 63.6273C60.3329 64.2268 60.1478 64.6411 60.0014 65.1646C59.9066 65.5044 59.8172 65.7825 59.7334 65.9989C59.2404 67.2696 58.9531 68.3165 58.5138 69.8897C58.4291 70.1918 58.3822 70.4827 58.3729 70.7627C58.3605 71.1839 58.2707 71.5569 58.2707 71.9657C58.2707 72.0808 58.2961 72.1618 58.3467 72.2088C58.4176 72.2742 58.5161 72.2885 58.6423 72.2516C58.2776 75.2728 58.151 78.3073 58.2625 81.3552C58.244 81.2935 58.2224 81.247 58.1975 81.2157C58.1579 81.1678 58.1289 81.1734 58.1105 81.2323C58.0912 81.294 58.0502 81.3396 57.9876 81.369C57.9474 81.3877 57.9145 81.419 57.8938 81.4582C57.8731 81.4973 57.8658 81.5422 57.8729 81.5859C57.9374 81.9901 57.9793 82.3727 57.9986 82.7337C58.0677 83.9749 58.2311 85.2024 58.489 86.416C58.5511 86.713 58.5857 87.0983 58.6823 87.4409C58.7597 87.7153 58.8232 87.9666 58.8729 88.195C58.9862 88.7088 59.2072 89.2074 59.2956 89.7502C59.3435 90.0477 59.4135 90.3101 59.5055 90.5375C59.7514 91.1379 59.9609 91.7507 60.134 92.3759C60.2182 92.6757 60.3412 92.9906 60.4296 93.3083C60.6312 94.0403 60.9738 94.8 61.2928 95.4892C61.4586 95.8456 61.547 96.2281 61.7804 96.5873C62.1091 97.0928 62.2832 97.6467 62.5718 98.1701C62.6671 98.3428 62.8688 98.5113 62.9821 98.7143C63.1312 98.9841 63.2915 99.247 63.4627 99.503C63.8868 100.138 64.2265 100.803 64.6671 101.423C64.7638 101.558 64.8053 101.743 64.9158 101.88C65.8264 103.013 66.6971 104.175 67.5276 105.368C67.7836 105.735 68.2694 106.251 68.9848 106.916C69.2887 107.198 69.4586 107.596 69.779 107.897C69.9006 108.012 70.0101 108.14 70.1078 108.282C70.221 108.446 70.3527 108.598 70.5028 108.739C70.5194 108.754 70.5263 108.772 70.5235 108.794C70.5217 108.823 70.5382 108.833 70.5732 108.823C70.6211 108.811 70.6621 108.823 70.6962 108.859C70.7763 108.947 70.8614 109.026 70.9517 109.096C71.2265 109.31 71.4365 109.59 71.7058 109.811C71.9121 109.98 72.0797 110.143 72.2086 110.3C72.7749 110.991 73.4531 111.572 74.0028 112.268C74.1363 112.437 74.2984 112.611 74.489 112.792C74.8647 113.147 75.2012 113.536 75.4986 113.959C76.0497 114.743 76.7058 115.442 77.2155 116.245C77.7008 117.008 78.1676 117.782 78.616 118.568C78.7997 118.89 78.9379 119.265 79.1216 119.614C79.2781 119.909 79.3941 120.173 79.4696 120.405C79.721 121.172 79.9798 121.937 80.2459 122.699C80.3398 122.964 80.5774 123.364 80.6036 123.689C80.6294 124.009 80.6879 124.292 80.779 124.538C80.8812 124.816 80.9439 125.015 80.9669 125.136C81.0415 125.544 81.0718 125.891 81.308 126.282C81.3322 126.321 81.3424 126.368 81.337 126.415C81.3113 126.635 81.3159 126.852 81.3508 127.067C81.3996 127.363 81.4213 127.577 81.4158 127.709C81.4056 127.953 81.3868 128.196 81.3591 128.438C81.2542 129.387 81.2666 130.364 81.2307 131.319C81.1883 132.445 81.2003 133.28 81.2666 133.823C81.4517 135.328 82.3343 137.328 83.5194 138.406C83.7164 138.585 84.1777 138.92 84.9033 139.412C85.5194 139.828 86.3343 139.963 87.0318 140.191C87.1865 140.241 87.3656 140.271 87.5691 140.281C87.8674 140.293 88.1216 140.405 88.4075 140.424C88.6658 140.441 88.8481 140.455 89.1326 140.427C89.5166 140.391 89.9641 140.452 90.2721 140.453C91.0861 140.455 91.9001 140.454 92.7141 140.451C92.8366 140.45 92.9222 140.426 92.971 140.38C93.0355 140.319 93.0728 140.228 93.0829 140.107C93.1547 139.257 93.1842 138.653 93.1713 138.296C93.1704 138.257 93.1842 138.226 93.2127 138.202C93.2367 138.182 93.244 138.155 93.2348 138.122C93.1814 137.941 93.1575 137.757 93.163 137.569C93.1658 137.47 93.1934 137.425 93.2459 137.435C93.2744 137.164 93.2873 136.891 93.2845 136.616C93.2836 136.573 93.2947 136.533 93.3177 136.497C93.3812 136.394 93.3467 136.268 93.3536 136.18C93.4821 134.618 93.3757 133.051 93.3937 131.457C93.3946 131.408 93.3941 131.358 93.3923 131.31C93.384 131.079 93.3831 130.847 93.3895 130.615C93.4061 130.039 93.3426 129.475 93.3536 128.899C93.3536 128.891 93.3485 128.887 93.3384 128.886C93.3338 128.885 93.3292 128.883 93.3246 128.881C93.3173 128.879 93.3109 128.874 93.3063 128.866C93.3016 128.859 93.2988 128.85 93.2984 128.84C93.2615 127.802 93.2694 126.765 93.3218 125.727C93.3449 125.266 93.4144 124.835 93.5304 124.431C93.6998 123.842 93.8601 123.431 94.0111 123.199C94.3122 122.739 94.4664 122.292 94.4738 121.859C94.4876 121.114 94.3964 120.215 94.2003 119.165C94.1727 119.018 94.1962 118.854 94.1409 118.688C93.7072 117.373 93.6381 116.333 93.3357 115.136C93.0898 114.163 92.9089 113.055 92.6851 112.205C92.5 111.496 92.2749 110.796 92.0746 110.091C91.7928 109.096 91.5129 108.1 91.2348 107.102C91.2044 106.991 91.116 106.628 90.9696 106.013C90.837 105.456 90.6312 104.931 90.5138 104.362C90.384 103.739 90.1368 103.123 89.9544 102.511C89.3246 100.394 88.576 98.3 87.8688 96.206C87.6312 95.5002 87.4199 94.4602 87.0497 93.6135C87.0332 93.5748 87.0281 93.5334 87.0345 93.4892C87.0399 93.4568 87.0356 93.4236 87.0221 93.3939C86.7182 92.7162 86.4894 92.1328 86.3357 91.6439C86.0548 90.7507 85.6957 89.9427 85.2583 89.2199C85.0346 88.8511 84.8605 88.3897 84.7542 87.9616C84.6022 87.3538 84.326 86.8815 84.1395 86.3483C84.0502 86.0932 83.9554 85.858 83.855 85.6425C83.7003 85.3083 83.6326 84.9602 83.4807 84.6232C83.4245 84.4998 83.378 84.3736 83.3412 84.2447C83.227 83.8525 83.0916 83.468 82.9351 83.0914C82.8071 82.7839 82.7017 82.4694 82.6188 82.148C82.5313 81.8101 82.4379 81.4938 82.3384 81.1991C82.1105 80.521 82.0304 79.985 81.8729 79.1149C81.6782 78.0389 81.6271 76.5265 81.9558 75.4685C82.2749 74.445 82.8508 73.5362 83.5456 72.724C83.5695 72.6964 83.599 72.678 83.634 72.6688C83.6561 72.6632 83.6764 72.6536 83.6948 72.6397C84.2841 72.2143 84.9139 71.8663 85.5843 71.5955C86.0194 71.4187 86.5359 71.3621 87.0166 71.2516C87.3831 71.1678 88.0327 71.1789 88.9655 71.2848C89.0088 71.2894 89.0479 71.305 89.0829 71.3317C89.2956 71.4947 89.5663 71.4505 89.7445 71.4947C90.0415 71.5693 90.279 71.6149 90.5539 71.7751C91.2597 72.1853 92.0967 72.4229 92.7473 72.9132C93.2712 73.3092 93.7776 73.7254 94.2666 74.1618C94.5622 74.4257 95.0511 74.8027 95.3522 75.1936C95.6082 75.5242 95.8941 75.9432 96.21 76.4505C96.3122 76.6135 96.4779 76.7226 96.5787 76.9008C96.5962 76.9312 96.6202 76.9542 96.6506 76.9699C96.7044 76.9989 96.7307 77.0099 96.7694 77.0596C97.2767 77.695 97.6575 78.2231 97.9116 78.6439C98.2624 79.2222 98.5322 79.6536 98.721 79.9381C99.0124 80.3787 99.3536 80.985 99.5318 81.456C99.7224 81.9629 99.7749 82.5182 100.334 82.8013C100.371 82.8198 100.409 82.8221 100.448 82.8083C100.96 82.6204 101.08 81.9574 101.264 81.5141C101.642 80.5997 102.293 79.7295 102.822 78.8925C103.128 78.4049 103.598 77.8096 103.931 77.224C104.069 76.9795 104.283 76.8842 104.419 76.6011C104.514 76.4022 104.638 76.2212 104.789 76.0583C105.363 75.4395 105.931 74.8133 106.493 74.1798C106.924 73.6936 107.425 73.3746 107.942 72.9975C108.423 72.6467 108.96 72.4063 109.486 72.1163C109.739 71.9754 110.03 71.9008 110.303 71.7696C111.39 71.2447 112.838 71.1467 114.025 71.2199C114.436 71.2461 114.818 71.3676 115.227 71.4657C115.519 71.5362 115.736 71.6936 116.004 71.8262C117.303 72.4657 117.97 73.4878 118.595 74.7406C118.753 75.0583 118.793 75.4574 118.856 75.7102C119.133 76.8179 119.104 77.4381 119.029 78.7737C119.015 79.0085 118.903 79.2682 118.936 79.5583C118.941 79.6043 118.936 79.6494 118.921 79.6936C118.786 80.0721 118.865 80.4906 118.696 80.8704C118.392 81.5601 118.185 82.1697 118.073 82.6991C117.952 83.2737 117.613 83.9795 117.431 84.4961C116.958 85.8396 116.417 87.1554 115.809 88.4436C115.749 88.5744 115.672 88.7834 115.58 89.0707C115.467 89.4215 115.264 89.7074 115.148 90.0569C115.039 90.3897 114.823 90.6978 114.733 90.9809C114.624 91.3221 114.543 91.6743 114.407 91.9933C114.246 92.3746 114.076 92.7516 113.895 93.1245C113.693 93.5403 113.652 93.9892 113.467 94.4381C113.214 95.0458 113.062 95.7558 112.865 96.2972C112.463 97.3953 112.066 98.4326 111.739 99.5997C111.442 100.653 111.116 101.698 110.761 102.734C110.376 103.852 110.144 104.774 109.789 106.143C109.54 107.102 109.224 108.097 108.99 109.304C108.914 109.696 108.764 110.123 108.682 110.544C108.508 111.444 108.213 112.279 108.048 113.17C108.003 113.417 107.87 113.942 107.648 114.746C107.323 115.921 107.05 117.174 106.829 118.506C106.812 118.608 106.711 119.158 106.525 120.156C106.394 120.861 106.119 122.071 106.482 122.743C106.588 122.938 106.812 123.235 106.856 123.444C106.867 123.493 106.887 123.536 106.917 123.571C107.383 124.122 107.533 124.897 107.536 125.654C107.539 126.383 107.74 127.039 107.834 127.714C107.873 127.99 107.918 128.265 107.97 128.539C107.966 128.54 107.966 128.54 107.971 128.54C107.974 128.54 107.975 128.539 107.975 128.538C107.948 128.436 107.96 128.383 108.011 128.377L108.007 140.127C108.007 140.188 108.037 140.218 108.098 140.217L111.682 140.155L111.586 140.247C111.578 140.255 111.572 140.263 111.568 140.273C111.564 140.283 111.562 140.293 111.563 140.304C111.563 140.314 111.566 140.324 111.57 140.334C111.575 140.343 111.582 140.351 111.59 140.358C111.651 140.408 111.685 140.468 111.689 140.538C111.691 140.568 111.707 140.583 111.738 140.582C112.983 140.528 114.337 140.311 115.492 139.759C115.899 139.564 116.273 139.242 116.685 138.996C116.957 138.833 117.303 138.525 117.725 138.072C118.09 137.681 118.246 137.192 118.519 136.725C118.707 136.403 118.847 136.12 118.938 135.877C119.094 135.463 119.262 135.058 119.341 134.619C119.424 134.154 119.615 133.811 119.601 133.282C119.582 132.512 119.588 131.743 119.622 130.974C119.627 130.84 119.566 130.743 119.564 130.627C119.545 129.622 119.577 128.618 119.659 127.615C119.669 127.489 119.724 127.308 119.738 127.107C119.816 125.963 120.221 124.799 120.45 123.667C120.559 123.131 120.699 122.612 120.798 122.071C120.817 121.968 120.842 121.876 120.874 121.793C121.582 119.982 122.203 118.828 123.048 117.406C123.801 116.141 124.731 115.011 125.541 113.768C125.711 113.509 126.037 113.13 126.521 112.629C126.861 112.276 127.192 111.903 127.515 111.509C128.093 110.803 128.706 110.129 129.354 109.486C129.714 109.13 130.131 108.608 130.601 108.156C131.453 107.34 132.397 106.33 133.434 105.129C133.898 104.591 134.341 103.993 134.787 103.417C135.101 103.01 135.369 102.513 135.691 102.073C136.177 101.41 136.537 100.738 137.008 100.093C137.311 99.677 137.514 99.2558 137.768 98.8221C138.406 97.7323 138.968 96.5969 139.536 95.4685C139.85 94.8442 140.121 94.241 140.349 93.6591C140.943 92.1508 141.238 90.8856 141.62 89.4699C141.639 89.4045 141.689 89.2848 141.772 89.1107C141.855 88.9353 141.823 88.7544 141.935 88.5748C141.959 88.5362 141.971 88.4943 141.97 88.4491C141.965 88.0928 142.093 87.7502 142.131 87.4339C142.228 86.6397 142.445 85.8663 142.532 85.0624C142.536 85.0164 142.526 84.9735 142.501 84.9339C142.431 84.8253 142.351 84.7834 142.261 84.8083C142.76 81.3455 142.78 77.8828 142.537 74.398C142.46 73.2829 142.393 72.5739 142.336 72.271C141.459 67.6107 140.011 62.8607 137.652 58.8635C136.588 57.0606 135.407 55.3382 134.109 53.6964C133.702 53.1812 133.186 52.6135 132.729 52.0665C130.144 48.9602 127.188 46.474 123.863 44.2088C122.173 43.0569 120.138 41.9892 118.399 41.166C115.097 39.6038 111.463 38.5016 107.798 37.7986C103.12 36.9008 98.0608 36.945 93.413 37.7033ZM114.481 76.0099C114.772 75.3096 115.151 73.677 114.427 73.1066C113.403 72.3 110.942 73.1605 109.912 73.6674C106.401 75.398 104.185 78.9574 102.5 82.3207C102.493 82.3339 102.49 82.3487 102.492 82.3635C102.493 82.3783 102.498 82.3924 102.507 82.4043C102.516 82.4161 102.528 82.4252 102.542 82.4304C102.556 82.4357 102.571 82.4369 102.586 82.4339C104.783 82.0362 106.906 81.6922 108.992 80.8469C111.153 79.9685 113.544 78.2558 114.481 76.0099ZM97.9116 81.5141C97.152 80.0306 96.2362 78.66 95.1644 77.4022C93.5553 75.5141 91.9365 74.0362 89.6423 73.1715C88.6851 72.811 86.5028 72.3607 86.1754 73.8248C85.6713 76.0804 87.4337 78.2226 89.1699 79.4077C90.9277 80.6084 92.8702 81.4459 94.9973 81.9201C95.9586 82.1342 97.1216 82.2199 98.1837 82.358C98.194 82.3592 98.2043 82.3579 98.2139 82.354C98.2235 82.3502 98.2319 82.3439 98.2384 82.3359C98.2449 82.3279 98.2492 82.3184 98.251 82.3082C98.2528 82.2981 98.252 82.2876 98.2486 82.2779C98.1547 82.0237 98.0424 81.7691 97.9116 81.5141ZM99.5263 119.201C99.4811 114.623 99.4613 110.053 99.4669 105.491C99.4738 98.6425 99.5014 91.7931 99.5042 84.945C99.5042 84.759 99.4756 84.6038 99.4185 84.4795C99.3972 84.4335 99.364 84.394 99.3222 84.3652C99.2805 84.3363 99.2317 84.319 99.181 84.3152C98.1128 84.236 97.0507 84.1365 95.9945 84.0168C93.3297 83.7157 90.8973 82.8525 88.6975 81.427C86.6229 80.0817 84.681 77.9118 84.2652 75.4146C84.181 74.9146 84.2638 74.4174 84.3177 73.9008C84.4254 73.9063 84.4793 73.8465 84.4793 73.7212C84.4792 73.6877 84.47 73.6549 84.4525 73.6263C84.4349 73.5977 84.4099 73.5745 84.3801 73.5592C84.3502 73.544 84.3168 73.5372 84.2833 73.5397C84.2499 73.5422 84.2178 73.5539 84.1906 73.5734C83.7735 73.8732 83.5553 74.3262 83.268 74.742C83.058 75.0458 82.9268 75.9091 82.895 76.3911C82.8711 76.7447 82.8495 77.0988 82.8301 77.4533C82.7841 78.2885 82.8964 79.0965 83.1671 79.8773C83.2749 80.1881 83.2279 80.5002 83.3329 80.8262C83.587 81.6236 83.8504 82.4178 84.1229 83.2088C84.1741 83.3594 84.1464 83.5845 84.1962 83.6867C84.3564 84.0182 84.4807 84.3055 84.5691 84.5486C84.7532 85.0606 84.8462 85.3188 84.8481 85.3234C85.1114 85.9468 85.3776 86.5688 85.6464 87.1895C85.7127 87.3451 85.7615 87.5352 85.7928 87.7599C85.7993 87.8041 85.8154 87.8437 85.8412 87.8787C85.9323 88.0021 85.9908 88.0942 86.0166 88.1549C86.3748 89.0058 86.5857 89.5477 86.6492 89.7806C86.7146 90.021 86.7855 90.1909 86.8619 90.2903C86.8914 90.329 86.9015 90.3723 86.8923 90.4201C86.8849 90.4588 86.8955 90.486 86.9241 90.5016C86.9544 90.5182 86.9756 90.5431 86.9876 90.5762L87.5401 92.1411C87.5548 92.1816 87.5769 92.2176 87.6064 92.2489C87.7206 92.3686 87.7717 92.5108 87.7597 92.6757C87.7584 92.6951 87.7613 92.7147 87.7682 92.7331C87.7751 92.7514 87.7858 92.7681 87.7997 92.782C87.9867 92.9671 88.0829 93.189 88.0884 93.4478C88.0893 93.4892 88.0967 93.5288 88.1105 93.5665C88.1326 93.6245 88.1602 93.6706 88.1934 93.7047C88.2256 93.7369 88.2477 93.7756 88.2597 93.8207C88.3748 94.2572 88.5235 94.6807 88.7058 95.0914C88.8651 95.4496 88.9871 95.7862 89.0718 96.1011C89.3495 97.1328 89.739 98.148 90.0525 99.1729C90.1008 99.329 90.2362 99.4823 90.279 99.666C90.4531 100.402 90.6464 101.132 90.8591 101.857C90.965 102.215 91.1165 102.758 91.3136 103.486C91.4406 103.954 91.6377 104.541 91.9047 105.247C91.9931 105.478 91.9779 105.753 92.0608 105.991C92.2072 106.419 92.4613 106.87 92.5221 107.315C92.5732 107.683 92.6658 108.022 92.7252 108.412C92.7845 108.803 92.9406 109.151 93.0042 109.538C93.0691 109.923 93.2293 110.364 93.2887 110.665C93.3614 111.03 93.4351 111.395 93.5097 111.76C93.5815 112.111 93.7321 112.569 93.7928 112.991C93.8287 113.238 93.8923 113.491 93.9834 113.747C94.1395 114.188 94.1906 114.669 94.3025 115.071C94.4333 115.538 94.5405 116.011 94.6243 116.489C94.6363 116.56 94.6754 116.643 94.7417 116.739C94.7663 116.775 94.7823 116.815 94.7887 116.858C94.9369 117.887 95.0912 118.916 95.2514 119.942C95.3122 120.332 95.2763 120.707 95.2707 121.112C95.2703 121.144 95.279 121.175 95.2959 121.202C95.3128 121.229 95.3371 121.251 95.366 121.265C95.3949 121.278 95.427 121.283 95.4587 121.279C95.4903 121.275 95.52 121.261 95.5442 121.241L95.75 121.068C95.7896 121.035 95.8352 121.017 95.8868 121.015L96.0276 121.013C96.0663 121.012 96.099 120.997 96.1257 120.968C96.4171 120.648 96.9461 120.352 97.5276 119.905C97.989 119.553 98.768 119.597 99.2997 119.528C99.3808 119.518 99.4475 119.491 99.5 119.446C99.6381 119.332 99.6469 119.25 99.5263 119.201ZM101.402 84.6342L101.374 117.865C101.298 117.774 101.206 117.818 101.098 117.999C101.076 118.035 101.064 118.074 101.064 118.116L101.03 119.285C101.029 119.333 101.044 119.381 101.074 119.42C101.104 119.458 101.146 119.485 101.193 119.496C101.824 119.638 102.442 119.829 103.047 120.068C103.37 120.195 103.601 120.441 103.895 120.634C104.265 120.877 104.606 121.195 105.012 121.415C105.034 121.427 105.059 121.434 105.084 121.435C105.109 121.436 105.134 121.432 105.157 121.423C105.18 121.414 105.201 121.399 105.218 121.381C105.235 121.362 105.248 121.34 105.256 121.317C105.367 120.97 105.45 120.674 105.467 120.282C105.484 119.891 105.536 119.484 105.622 119.061C105.758 118.381 105.921 117.254 106.203 116.073C106.238 115.928 106.272 115.75 106.304 115.539C106.424 114.775 106.878 113.504 107.039 112.37C107.096 111.969 107.158 111.655 107.225 111.43C107.396 110.852 107.598 110.059 107.83 109.049C108.082 107.953 108.499 106.658 108.867 105.216C109.017 104.631 109.215 104.136 109.41 103.388C109.492 103.076 109.597 102.721 109.724 102.322C110.035 101.35 110.218 100.361 110.608 99.3828C111.134 98.0569 111.459 96.6895 111.997 95.3455C112.259 94.6899 112.602 93.8175 113.028 92.7281C113.195 92.3013 113.305 91.8428 113.457 91.4726C113.945 90.2958 114.45 89.1301 114.928 87.9491C115.2 87.2797 115.477 86.6126 115.758 85.9478C115.837 85.7641 115.858 85.5279 115.965 85.3165C116.22 84.8193 116.422 84.3018 116.572 83.7641C116.746 83.1342 117.021 82.5458 117.191 81.9188C117.331 81.4022 117.471 80.8865 117.613 80.3718C117.745 79.8957 117.831 79.4151 117.872 78.9298C117.946 78.0223 118.138 77.1301 117.91 76.224C117.777 75.6991 117.594 75.1927 117.362 74.7047C117.275 74.5237 117.105 74.3331 117.026 74.1176C116.974 73.9758 116.873 73.8902 116.724 73.8607L116.297 73.7765C116.135 73.7443 116.068 73.8096 116.095 73.9726C116.225 74.7406 116.18 75.3359 116.035 75.9823C116.026 76.0219 116.013 76.0596 115.996 76.0955C115.859 76.3787 115.667 76.6922 115.584 76.9933C115.454 77.4593 115.206 77.8524 114.838 78.1729C114.804 78.2026 114.78 78.2416 114.768 78.2848C114.615 78.8511 113.814 79.619 113.387 80.0265C112.816 80.5707 111.952 81.1135 111.258 81.4837C110.796 81.7323 110.336 82.0279 109.843 82.2074C109.365 82.3801 108.95 82.5472 108.442 82.6605C107.806 82.8004 107.104 82.98 106.336 83.1991C105.46 83.4487 104.535 83.6048 103.562 83.6674C103.286 83.6849 102.988 83.7286 102.667 83.7986C102.32 83.8746 101.599 83.8746 101.348 84.0914C101.142 84.2682 101.16 84.4491 101.402 84.6342ZM95.0815 124.509C94.8053 125.207 94.669 125.809 94.6727 126.312C94.7067 130.928 94.7224 135.506 94.7196 140.046C94.7196 140.16 94.7772 140.217 94.8923 140.217L99.4185 140.205C99.4409 140.205 99.4624 140.196 99.4786 140.181C99.4948 140.165 99.5045 140.144 99.5055 140.122C99.5147 139.945 99.5194 139.762 99.5194 139.572C99.5313 135.75 99.5447 131.928 99.5594 128.107C99.5677 125.81 99.4282 123.143 99.576 121.148C99.5797 121.106 99.5599 121.088 99.5166 121.094C97.4517 121.41 95.8301 122.619 95.0815 124.509ZM105.866 124.895C105.209 123.125 103.257 121.405 101.392 121.055C101.375 121.052 101.358 121.053 101.342 121.058C101.325 121.063 101.31 121.071 101.298 121.083C101.285 121.094 101.275 121.108 101.269 121.124C101.262 121.14 101.26 121.157 101.261 121.174C101.289 121.555 101.306 121.95 101.314 122.359C101.404 127.936 101.426 133.512 101.381 139.089C101.378 139.426 101.378 139.735 101.38 140.015C101.38 140.127 101.436 140.183 101.547 140.183L105.916 140.209C106.045 140.21 106.11 140.146 106.111 140.017C106.135 135.627 106.148 131.243 106.148 126.865C106.147 126.055 106.053 125.399 105.866 124.895ZM115.156 144.27C115.336 143.112 114.446 142.148 113.294 142.141C109.532 142.119 103.754 142.112 95.96 142.119C95.088 142.12 93.8679 142.131 92.2997 142.151C91.6312 142.16 90.0893 142.157 87.6741 142.143C86.7523 142.137 86.0778 142.48 85.6506 143.17C85.4669 143.468 85.3978 143.839 85.4821 144.167C85.9904 146.14 87.5511 146.185 89.2611 146.184C97.0032 146.175 104.745 146.166 112.488 146.159C113.702 146.158 114.95 145.594 115.156 144.27ZM112.673 152.115C113.468 152.108 114.361 151.85 114.849 151.185C115.291 150.582 115.285 149.694 114.804 149.113C114.185 148.366 113.369 148.158 112.343 148.151C104.271 148.097 96.0345 148.119 87.8785 148.094C86.9572 148.091 86.4558 148.272 85.9254 148.974C85.0622 150.12 85.7169 151.492 86.9351 151.962C87.2408 152.079 87.7634 152.141 88.5028 152.145C96.559 152.189 104.616 152.179 112.673 152.115ZM85.6326 155.805C85.5553 156.161 85.5953 156.5 85.7528 156.822C86.3508 158.049 87.6354 158.091 88.8122 158.096C92.9742 158.108 100.755 158.125 112.155 158.147C112.773 158.148 113.291 158.09 113.709 157.97C114.662 157.698 115.514 156.357 114.974 155.433C114.273 154.235 113.133 154.131 111.702 154.129C104.256 154.112 96.8103 154.116 89.3647 154.141C88.0055 154.147 86.0207 154.036 85.6326 155.805ZM87.4821 160.131C87.4903 161.812 89.4268 162.869 90.8274 163.192C91.8172 163.42 92.6533 163.534 93.3357 163.535C97.9977 163.538 102.659 163.531 107.32 163.513C109.559 163.503 113.058 162.789 113.461 160.072C113.463 160.063 113.462 160.055 113.459 160.046C113.457 160.038 113.453 160.03 113.447 160.024C113.441 160.017 113.434 160.012 113.426 160.008C113.418 160.005 113.409 160.003 113.401 160.003L87.5967 160.017C87.5817 160.017 87.5667 160.02 87.5528 160.026C87.5389 160.031 87.5263 160.04 87.5156 160.05C87.505 160.061 87.4965 160.074 87.4908 160.088C87.485 160.101 87.4821 160.116 87.4821 160.131ZM102.83 168.149C104.431 168.133 107.087 167.441 107.489 165.561C107.504 165.49 107.475 165.455 107.403 165.455C102.981 165.441 98.5792 165.426 94.1989 165.41C93.8297 165.41 93.4646 165.391 93.1036 165.354C93.0474 165.348 93.0309 165.371 93.0539 165.423C93.9917 167.504 95.8716 168.076 97.9973 168.122C99.6087 168.157 101.22 168.166 102.83 168.149Z" fill="#1F1F19"/>
<path d="M56.8577 71.7498C57.645 66.417 59.5414 61.3023 62.192 56.667C63.0525 55.1601 63.7818 54.2512 64.7721 52.8645C65.7712 51.4658 66.9305 50.1255 68.25 48.8438C68.4268 48.6711 68.6367 48.3907 68.8439 48.1877C75.0912 42.0496 83.3812 37.6407 91.9917 36.0095C92.1759 36.038 92.36 36.0348 92.5442 35.9998C92.6059 35.9879 92.6492 35.992 92.674 36.0123C92.7007 36.0344 92.7081 36.0712 92.6961 36.1228C92.686 36.166 92.6598 36.1831 92.6174 36.1739C92.5621 36.1628 92.5133 36.172 92.471 36.2015C92.3039 36.3189 92.3052 36.323 92.1271 36.3451C91.6878 36.3995 91.2247 36.509 90.7376 36.6739C90.4019 36.7885 90.058 36.8175 89.7127 36.9045C89.4199 36.9777 89.2486 37.1642 89.0304 37.3534C88.9971 37.3822 88.9556 37.4001 88.9116 37.4045C88.6206 37.4303 88.3421 37.4975 88.076 37.6062C87.669 37.7729 87.4125 37.8709 87.3066 37.9004C87.0423 37.974 86.7767 38.045 86.5097 38.1131C86.337 38.1573 86.1492 38.167 85.9931 38.2167C85.6146 38.3373 85.2334 38.4519 84.8494 38.5606C84.5704 38.6389 84.2937 38.7227 84.0193 38.812C83.7528 38.899 83.5704 39.0965 83.3163 39.1725C83.0465 39.2517 82.7758 39.329 82.5041 39.4045C81.9088 39.5675 81.4282 39.8976 80.884 40.1752C80.6367 40.3009 80.3094 40.3603 80.0373 40.5136C79.5331 40.8009 78.9958 41.102 78.5387 41.4598C78.453 41.5261 78.32 41.6122 78.1395 41.7181C77.8144 41.9096 77.4876 42.0993 77.1588 42.2871C76.7196 42.5385 76.279 42.8907 75.8121 43.1628C75.3057 43.4584 74.9659 43.6683 74.7928 43.7926C74.0028 44.3617 73.2431 44.9833 72.453 45.5592C71.8066 46.0302 71.4075 46.7125 70.7017 47.0951C70.3867 47.2664 69.8808 47.7388 69.1837 48.5123C68.889 48.8392 68.4498 49.2715 67.866 49.8092C67.6883 49.9731 67.5129 50.1624 67.3398 50.3769C67.0649 50.7181 66.7914 50.9998 66.5235 51.3838C66.3881 51.5772 66.2044 51.7374 66.0815 51.9225C65.7569 52.4059 65.3425 52.8714 65.0456 53.3175C64.3135 54.4179 63.5806 55.5178 62.8467 56.6172C62.7132 56.8171 62.5824 57.0192 62.4544 57.2236C62.0787 57.8286 61.8011 58.4915 61.4213 59.102C61.1257 59.5772 60.7707 60.2484 60.5939 60.7885C60.4475 61.2406 60.2643 61.6775 60.0442 62.0993C59.9401 62.2991 59.8527 62.5348 59.7818 62.8065C59.7302 63.0072 59.6639 63.2029 59.5829 63.3935C59.4788 63.6357 59.4033 63.8267 59.3563 63.9667C59.2251 64.3645 59.0691 64.7139 58.9517 65.1407C58.895 65.3424 58.7638 65.5178 58.7196 65.707C58.6312 66.0901 58.5336 66.4713 58.4268 66.8507C58.4065 66.9252 58.3711 66.9897 58.3204 67.044C58.2808 67.0864 58.2569 67.1366 58.2486 67.1946L58.1271 67.9791C58.1225 68.0118 58.1102 68.0426 58.0912 68.0689C58.0396 68.1389 57.9959 68.2623 57.9599 68.4391C57.8034 69.2089 57.7104 69.7959 57.6809 70.2001C57.6754 70.283 57.6561 70.3451 57.6229 70.3866C57.599 70.417 57.5856 70.451 57.5829 70.4888C57.5488 70.8709 57.4756 71.2448 57.3633 71.6103C57.3513 71.6518 57.3237 71.6702 57.2804 71.6656C57.2675 71.6647 57.2578 71.6711 57.2514 71.6849C57.2394 71.7089 57.2334 71.7208 57.2334 71.7208C57.2555 71.9068 57.1814 72.0399 57.011 72.12C56.9976 72.1263 56.9829 72.1293 56.9681 72.1286C56.9533 72.128 56.9389 72.1237 56.9261 72.1162C56.9133 72.1088 56.9025 72.0983 56.8947 72.0857C56.8869 72.0731 56.8823 72.0588 56.8812 72.044L56.8577 71.7498Z" fill="#080805"/>
<path d="M93.413 37.7031C91.4875 38.1036 90.2583 38.4379 88.0359 39.0359C87.0202 39.3085 86.1432 39.5852 85.4047 39.8661C80.3881 41.7721 75.5345 44.5829 71.5842 48.2417C70.8384 48.9324 70.0925 49.7818 69.3467 50.5622C67.9627 52.0143 67.011 53.1119 66.4917 53.855C65.6132 55.1105 64.6561 56.4006 63.9088 57.6478C62.7514 59.5801 61.663 61.5622 60.9447 63.7058C60.4461 65.1962 59.8729 66.6699 59.4516 68.1824C59.0842 69.5028 58.8688 70.9006 58.6422 72.2514C58.5161 72.2882 58.4176 72.274 58.3467 72.2086C58.296 72.1616 58.2707 72.0806 58.2707 71.9655C58.2707 71.5567 58.3605 71.1837 58.3729 70.7625C58.3821 70.4825 58.4291 70.1916 58.5138 69.8895C58.953 68.3163 59.2403 67.2694 59.7334 65.9987C59.8172 65.7823 59.9065 65.5042 60.0014 65.1644C60.1478 64.6409 60.3328 64.2266 60.5317 63.6271C60.6109 63.3895 60.7168 63.1626 60.8494 62.9462C60.8752 62.9038 60.8895 62.8573 60.8922 62.8067C60.9079 62.4853 61.0304 62.2137 61.2596 61.9918C61.2875 61.9639 61.3063 61.9283 61.3135 61.8895C61.3807 61.5083 61.5119 61.1552 61.7072 60.8301C61.8075 60.6644 61.9079 60.4627 62.0083 60.2252C62.1284 59.9393 62.3315 59.7017 62.4627 59.4255C62.5999 59.1372 62.7712 58.8707 62.9765 58.6257C63.2141 58.344 63.1809 58.0719 63.3715 57.7998C63.4977 57.6184 63.6284 57.4411 63.7638 57.268C63.9254 57.0594 63.9489 56.8523 64.0856 56.6492C64.3867 56.1962 64.6961 55.7929 64.9268 55.2942C64.9747 55.1911 65.0308 55.1032 65.0953 55.0304C65.3605 54.7321 65.6091 54.4213 65.8411 54.0981C65.8812 54.0415 65.8895 53.9393 65.9392 53.8702C66.2762 53.4107 66.616 52.9531 66.9585 52.4973C66.9898 52.4568 67.0686 52.3808 67.1947 52.2694C67.3052 52.1713 67.3757 52.0069 67.4793 51.9172C67.9323 51.5221 68.3048 51.065 68.5967 50.5456C68.7523 50.2685 68.912 50.0456 69.0759 49.8771C69.6616 49.2712 70.2472 48.6658 70.8328 48.0608C70.866 48.0267 70.877 47.9871 70.866 47.942C70.8149 47.7197 70.8135 47.5097 71.0925 47.4655C71.119 47.4615 71.1461 47.4681 71.1678 47.4839C71.1895 47.4996 71.2041 47.5233 71.2085 47.5498L71.232 47.681C71.244 47.751 71.2781 47.7648 71.3342 47.7224C72.2859 47.0014 73.2997 46.2846 74.1588 45.46C74.3632 45.2639 74.6298 45.1672 74.8301 45.0263C75.2334 44.7417 75.7016 44.5014 76.0732 44.2404C76.7629 43.7569 77.4581 43.2818 78.1588 42.815C78.8978 42.3232 79.7002 41.9959 80.5069 41.6243C80.9558 41.4185 81.2707 41.0456 81.7652 40.9545C81.8077 40.9463 81.8468 40.9272 81.8784 40.8992C82.1095 40.692 82.3757 40.5617 82.6768 40.5083C82.9723 40.4558 83.1505 40.344 83.4157 40.2431C83.4544 40.2284 83.4857 40.2045 83.5096 40.1713C83.7154 39.8895 84.5925 39.7127 84.8757 39.6078C85.3766 39.4236 85.8761 39.2358 86.3743 39.0442C86.6063 38.9545 86.8867 38.9185 87.1036 38.8329C87.6496 38.6174 88.2122 38.471 88.7914 38.3937C89.1381 38.3467 89.4585 38.2017 89.8287 38.1589C90.116 38.1257 90.3839 38.0056 90.7099 37.96C91.0248 37.9158 91.5198 37.7721 92.1947 37.529C92.2942 37.4931 92.412 37.5023 92.5483 37.5567C92.5907 37.5742 92.633 37.5742 92.6754 37.5567C92.6883 37.5511 92.7012 37.5461 92.7141 37.5415C92.7537 37.5262 92.7964 37.5228 92.837 37.5318C93.0386 37.5806 93.2343 37.5447 93.424 37.4241C93.4337 37.4179 93.4451 37.4149 93.4566 37.4156C93.4681 37.4164 93.479 37.4208 93.4878 37.4282C93.4966 37.4356 93.5028 37.4456 93.5055 37.4568C93.5082 37.468 93.5072 37.4798 93.5027 37.4904C93.4963 37.506 93.4926 37.5189 93.4917 37.529C93.4908 37.5383 93.4857 37.5406 93.4765 37.536C93.4645 37.5304 93.4521 37.5244 93.4392 37.518C93.4263 37.5115 93.4162 37.5143 93.4088 37.5263C93.3766 37.5788 93.378 37.6377 93.413 37.7031Z" fill="#080805"/>
<path d="M85.6727 42.8299C87.2293 42.1062 88.8191 41.4653 90.4696 40.9888C90.9751 40.8424 91.9273 40.631 93.326 40.3548C95.4185 39.9418 97.2279 39.7415 99.2403 39.754C99.8177 39.7567 100.276 40.2111 100.102 40.8161C99.9461 41.3589 99.4282 41.4888 98.8743 41.4998C95.971 41.5606 92.6865 41.9819 89.9309 43.0413C89.4088 43.2429 88.8633 43.3907 88.3356 43.5951C87.4811 43.9275 86.6298 44.2627 85.7818 44.6006C85.7442 44.616 85.7038 44.6236 85.663 44.6232C85.6222 44.6227 85.5818 44.6141 85.5442 44.5979C84.6285 44.2098 84.9019 43.1863 85.6727 42.8299Z" fill="#1F1F19"/>
<path d="M130.615 61.236C126.579 55.3092 120.838 50.4266 113.935 48.2001C113.203 47.9653 112.456 47.6918 111.736 47.504C110.189 47.1007 108.828 46.7876 107.652 46.5648C106.362 46.3189 106.83 44.725 108.113 44.9239C109.484 45.1366 110.843 45.4087 112.189 45.7402C113.816 46.1407 115.424 46.754 116.978 47.3741C117.728 47.6743 118.404 47.986 119.004 48.3092C121.838 49.8322 124.417 51.7153 126.739 53.9584C128.553 55.7098 130.113 57.6808 131.674 59.6587C132.138 60.2471 132.436 61.1849 131.555 61.562C131.185 61.7213 130.872 61.6126 130.615 61.236Z" fill="#1F1F19"/>
<path d="M144.384 45.352C144.963 44.8962 145.61 44.6766 146.146 45.3576C146.626 45.9653 146.174 46.4777 145.652 46.8658C144.329 47.8502 143.017 48.8493 141.717 49.8631C140.725 50.6366 139.544 49.4335 140.598 48.5067C141.833 47.4211 143.095 46.3695 144.384 45.352Z" fill="#1F1F19"/>
<path d="M60.2665 48.8522C60.5621 49.4102 60.1022 50.3508 59.3701 50.1049C59.1685 50.0377 59.0055 49.9549 58.8812 49.8563C57.5727 48.825 56.2527 47.8084 54.9212 46.8066C54.4862 46.4793 54.1671 46.0621 54.4737 45.5C54.9102 44.6975 55.7306 44.9806 56.3094 45.4502C57.4816 46.4042 58.6422 47.3711 59.7914 48.3508C60.0456 48.5663 60.2039 48.7334 60.2665 48.8522Z" fill="#1F1F19"/>
<path d="M123.156 46.3106C125.431 47.7843 127.612 49.4915 129.507 51.4293C130.222 52.1614 130.956 52.8879 131.602 53.6614C132.806 55.1034 133.956 56.5868 135.053 58.1117C135.141 58.2332 135.216 58.3617 135.279 58.497C135.644 59.2774 134.412 60.2443 133.935 59.5081C133.456 58.765 132.968 58.0108 132.423 57.323C130.818 55.2954 129.091 53.3147 127.137 51.6089C125.548 50.2222 123.907 48.9003 122.211 47.6434C121.262 46.939 122.062 45.5992 123.156 46.3106Z" fill="#1F1F19"/>
<path d="M75.2238 48.3258C75.9061 48.3976 76.2114 49.2208 75.7017 49.6655C74.0562 51.1048 72.5916 52.5412 71.308 53.9749C69.902 55.5454 68.297 57.4653 67.1257 59.5702C66.6948 60.3423 66.087 61.2263 65.6658 62.1158C64.4945 64.584 63.4544 67.2222 62.8067 69.8782C61.8564 73.7829 61.5967 78.0757 61.9724 82.0757C62.2196 84.7083 62.7611 86.8672 63.6368 89.363C63.9116 90.1448 63.1478 90.7415 62.4282 90.3299C62.21 90.2056 61.9904 89.794 61.8964 89.5136C61.262 87.6232 60.8297 85.9851 60.5995 84.5992C60.0774 81.4547 59.9742 78.16 60.2901 74.7153C60.6423 70.8838 61.7265 67.1158 63.2224 63.4929C65.076 59.0012 68.0401 54.5675 71.7583 51.0702C72.6533 50.2268 73.564 49.3999 74.4904 48.5896C74.7224 48.3861 74.9669 48.2981 75.2238 48.3258Z" fill="#1F1F19"/>
<path d="M133.287 49.7598C133.492 49.9587 133.687 50.1649 133.873 50.3785C136.345 53.2197 138.668 56.3564 140.271 59.6686C143.074 65.4633 144.532 71.6097 144.645 78.1078C144.735 83.1617 143.713 88.3523 142.105 93.1189C141.648 94.4752 140.997 95.8426 140.381 97.1769C138.747 100.714 136.638 103.707 134.115 106.601C134.028 106.595 133.973 106.58 133.95 106.555C133.906 106.509 133.881 106.448 133.881 106.384C133.88 106.32 133.903 106.259 133.946 106.211C134.242 105.884 134.531 105.547 134.815 105.202C134.939 105.05 135.087 104.711 135.304 104.521C135.408 104.43 135.483 104.347 135.53 104.274C135.936 103.625 136.36 102.991 136.804 102.372C136.884 102.259 136.964 102.147 137.043 102.036C137.365 101.58 137.663 101.108 137.938 100.62C138.019 100.477 138.159 100.359 138.224 100.24C138.565 99.623 138.822 99.2846 139.099 98.6382C139.18 98.4522 139.304 98.2243 139.472 97.9545C139.66 97.6548 139.789 97.3316 139.974 97.0374C140.174 96.716 140.345 96.3799 140.485 96.0291C140.88 95.0346 141.369 94.0484 141.564 93.1617C141.685 92.6037 141.986 92.1216 142.105 91.5388C142.14 91.3666 142.199 91.1677 142.283 90.9421C142.384 90.6727 142.416 90.3813 142.504 90.1299C142.671 89.6594 142.796 89.1774 142.878 88.6838C142.916 88.4646 142.988 88.2151 143.095 87.9352C143.189 87.6884 143.256 87.4338 143.297 87.1714C143.327 86.9752 143.424 86.7736 143.425 86.5512C143.425 86.507 143.44 86.4674 143.468 86.4324C143.624 86.239 143.644 85.9407 143.702 85.7045C143.74 85.5457 143.704 85.3454 143.779 85.17C143.796 85.1295 143.804 85.0871 143.801 85.0429C143.791 84.8891 143.803 84.7386 143.837 84.5913C143.994 83.9186 143.836 83.246 143.96 82.565C143.997 82.362 143.978 82.2239 144.069 82.0222C144.143 81.8592 144.197 81.6898 144.232 81.5139C144.236 81.4973 144.232 81.4858 144.22 81.4794C144.215 81.4775 144.211 81.4766 144.207 81.4766C144.198 81.4748 144.193 81.4706 144.193 81.4642C144.183 80.9715 144.178 80.4789 144.177 79.9863C144.177 79.9771 144.173 79.9702 144.164 79.9656C144.151 79.96 144.139 79.9568 144.128 79.9559C144.119 79.955 144.116 79.9504 144.119 79.9421C144.229 79.5995 144.137 79.2446 144.151 78.9711C144.187 78.2648 144.189 77.559 144.156 76.8537C144.137 76.4614 144.226 75.9697 144.152 75.5167C143.963 74.3675 143.901 73.036 143.74 72.0705C143.616 71.3164 143.451 70.5125 143.244 69.6589C143.191 69.4366 143.081 69.257 143.047 69.0609C142.957 68.5678 142.76 68.152 142.699 67.6285C142.684 67.5024 142.642 67.3403 142.573 67.1424C142.497 66.9227 142.489 66.6962 142.402 66.4863C142.288 66.2119 142.184 65.885 142.091 65.5056C141.969 65.0019 141.755 64.3979 141.45 63.6935C141.416 63.6106 141.428 63.4504 141.387 63.3482C140.918 62.152 140.489 60.9048 139.913 59.7694C139.532 59.0208 139.177 58.3012 138.677 57.5857C138.367 57.1451 138.137 56.6907 137.779 56.2542C137.652 56.0995 137.536 55.9379 137.431 55.7694C137.029 55.1267 136.588 54.5102 136.109 53.92C136.015 53.804 135.974 53.6465 135.865 53.5194C135.854 53.5075 135.844 53.495 135.834 53.4821C135.502 53.0613 135.172 52.6373 134.845 52.21C134.816 52.1714 134.7 51.989 134.497 51.6631C134.3 51.3426 134.025 51.1686 133.794 50.8661C133.711 50.7593 133.611 50.6695 133.494 50.5968C133.462 50.5772 133.439 50.5467 133.428 50.5111L133.319 50.1617C133.305 50.1147 133.282 50.0733 133.249 50.0374C133.109 49.8818 133.122 49.7892 133.287 49.7598Z" fill="#080805"/>
<path d="M67.058 64.1603C68.1519 61.9241 69.4889 59.6147 70.9724 57.5429C72.5428 55.3467 74.6022 53.4407 76.5552 51.7984C77.4572 51.0387 78.6367 52.1962 77.6588 53.036C75.855 54.582 74.3734 56.0714 73.2141 57.5042C72.2979 58.6377 71.2357 60.1851 70.0276 62.1465C68.9834 63.8417 68.1625 65.5571 67.5649 67.2929C67.0041 68.9213 66.4378 70.8302 66.1326 72.5346C65.663 75.1598 65.5078 77.8117 65.6671 80.4904C65.6975 80.9959 65.7569 81.4982 65.8453 81.9973C65.9572 82.6285 65.9806 83.1851 65.3398 83.4365C64.7445 83.6686 64.2956 83.2252 64.2237 82.6534C63.9351 80.3357 63.8398 77.9821 64.0635 75.6603C64.4351 71.8219 65.3356 67.6796 67.058 64.1603ZM76.3121 52.518C75.8444 52.902 75.3794 53.2887 74.9171 53.6782C73.9199 54.518 73.0898 55.4641 72.2389 56.4282C71.8356 56.8868 71.4392 57.4199 71.1146 57.9503C70.8522 58.3813 70.5608 58.7349 70.308 59.2017C70.1911 59.4181 70.058 59.6234 69.9088 59.8177C69.7698 59.9982 69.6597 60.1635 69.5787 60.3136C69.3895 60.6644 69.134 60.9379 69.0608 61.2542C69.0506 61.2975 69.0322 61.3371 69.0055 61.373C68.5488 61.9816 68.1662 62.6317 67.8577 63.3233C67.7555 63.5544 67.5976 63.8527 67.384 64.2183C67.1897 64.5498 67.0377 64.902 66.9282 65.2749C66.8425 65.5691 66.6644 65.8108 66.5594 66.0746C66.3283 66.652 66.1248 67.2823 65.9489 67.9655C65.8481 68.3564 65.8398 68.8688 65.6947 69.3164C65.5856 69.652 65.5649 69.942 65.4986 70.2721C65.4857 70.3357 65.436 70.4559 65.3494 70.6326C65.2389 70.8582 65.1805 71.1313 65.174 71.4517C65.1699 71.6727 65.1022 71.8578 65.0842 72.0802C65.0806 72.1234 65.0677 72.164 65.0456 72.2017C64.9645 72.3407 64.9272 72.4908 64.9337 72.652C64.9346 72.6943 64.9153 72.722 64.8757 72.7349C64.7643 72.7708 64.7201 72.8532 64.7431 72.9821C64.6897 73.0245 64.6832 73.0742 64.7237 73.1313C64.7495 73.1681 64.7597 73.2086 64.7541 73.2528C64.6768 73.8191 64.6119 74.3868 64.5594 74.9559C64.5097 75.5014 64.5318 76.181 64.4724 76.7956C64.4466 77.0535 64.4498 77.4218 64.482 77.9006C64.506 78.2533 64.5055 78.7855 64.4806 79.4973C64.4604 80.0884 64.4655 80.5995 64.4958 81.0304C64.5327 81.5415 64.5783 82.0521 64.6326 82.5622C64.6538 82.7666 64.7431 82.9333 64.9005 83.0622C64.9176 83.0762 64.9371 83.0867 64.958 83.0931C64.9789 83.0995 65.0006 83.1017 65.0221 83.0995C65.7016 83.0346 65.4033 82.5346 65.384 82.1478C65.3757 81.9609 65.3177 81.512 65.2099 80.8012C65.1307 80.2791 65.1022 79.611 65.1243 78.797C65.1685 77.1962 65.1602 76.3371 65.3342 75.123C65.4337 74.4296 65.4503 73.6907 65.5539 73.1009C65.634 72.6492 65.7776 72.2183 65.8674 71.7652C65.8996 71.6023 65.9351 71.46 65.9737 71.3384C66.1883 70.6598 66.3669 69.9715 66.5097 69.2735C66.5152 69.2468 66.5152 69.1971 66.5097 69.1244C66.5041 69.0627 66.5207 69.0088 66.5594 68.9628C66.5879 68.9287 66.6082 68.89 66.6201 68.8467C66.692 68.5889 66.761 68.3302 66.8273 68.0705C66.9406 67.6326 66.8701 67.2556 66.866 66.8067C66.8651 66.7643 66.8748 66.7238 66.895 66.6851C66.9521 66.5728 67.0092 66.4618 67.0663 66.3523C67.197 66.1055 67.3103 65.8509 67.4061 65.5884C67.4724 65.4061 67.6077 65.315 67.7472 65.1948C67.7629 65.1813 67.7755 65.1647 67.7843 65.1462C67.7931 65.1276 67.7979 65.1075 67.7983 65.0871C67.8002 64.9646 67.8342 64.8513 67.9005 64.7473C67.9254 64.7095 67.9378 64.6676 67.9378 64.6216C67.9369 64.4816 67.9848 64.3642 68.0815 64.2694C68.1165 64.2353 68.1399 64.1943 68.1519 64.1465L68.2652 63.7086C68.2725 63.6791 68.2873 63.6534 68.3094 63.6313L68.355 63.5857C68.378 63.5627 68.3946 63.536 68.4047 63.5056C68.4779 63.2777 68.6616 63.1782 68.7541 62.989C68.8941 62.7026 69.0258 62.4126 69.1492 62.1188C69.1667 62.0783 69.1929 62.0438 69.2279 62.0152C69.2656 61.983 69.2974 61.9434 69.3232 61.8965C69.4309 61.6957 69.5313 61.4918 69.6243 61.2846C69.7251 61.0581 69.9116 60.8702 70.0276 60.634C70.0479 60.5926 70.0746 60.5558 70.1077 60.5235C70.2035 60.4324 70.2721 60.3223 70.3135 60.1934C70.3273 60.1492 70.3513 60.111 70.3853 60.0788C70.6312 59.8412 71.3039 59.2625 71.3646 58.9434C71.3729 58.902 71.3904 58.8647 71.4171 58.8315C71.6782 58.5208 71.8094 58.0733 72.1574 57.8578C72.1961 57.8338 72.227 57.8025 72.25 57.7639C72.4618 57.4057 72.7256 57.0912 73.0414 56.8205C73.2721 56.623 73.4061 56.3661 73.645 56.1603C74.2624 55.6299 74.9019 55.1188 75.453 54.518C75.6326 54.321 75.8246 54.1363 76.029 53.9641C76.1795 53.8385 76.2707 53.6907 76.4268 53.5843C76.8715 53.2804 77.2343 52.9706 77.5152 52.6547C77.6809 52.4669 77.7196 52.0898 77.4365 51.971C77.0304 51.8012 76.8246 52.0843 76.5027 52.2611C76.4503 52.2896 76.4116 52.3398 76.3867 52.4117C76.3723 52.4532 76.3465 52.49 76.3121 52.518Z" fill="#080805"/>
<path d="M76.3868 52.4114C76.4116 52.3396 76.4503 52.2894 76.5028 52.2608C76.8246 52.084 77.0304 51.8009 77.4365 51.9708C77.7196 52.0896 77.681 52.4666 77.5152 52.6545C77.2344 52.9703 76.8716 53.2802 76.4268 53.584C76.2707 53.6904 76.1796 53.8382 76.029 53.9639C75.8246 54.1361 75.6326 54.3207 75.4531 54.5177C74.902 55.1186 74.2624 55.6296 73.645 56.16C73.4061 56.3658 73.2721 56.6227 73.0415 56.8202C72.7256 57.0909 72.4618 57.4054 72.25 57.7636C72.227 57.8023 72.1961 57.8336 72.1575 57.8575C71.8094 58.073 71.6782 58.5205 71.4171 58.8313C71.3904 58.8644 71.3729 58.9017 71.3647 58.9431C71.3039 59.2622 70.6312 59.8409 70.3854 60.0785C70.3513 60.1107 70.3274 60.1489 70.3135 60.1931C70.2721 60.3221 70.2035 60.4321 70.1077 60.5233C70.0746 60.5555 70.0479 60.5923 70.0276 60.6338C69.9116 60.8699 69.7251 61.0578 69.6243 61.2843C69.5313 61.4915 69.431 61.6955 69.3232 61.8962C69.2974 61.9431 69.2657 61.9827 69.2279 62.015C69.1929 62.0435 69.1667 62.078 69.1492 62.1186C69.0258 62.4123 68.8941 62.7024 68.7542 62.9887C68.6616 63.178 68.4779 63.2774 68.4047 63.5053C68.3946 63.5357 68.378 63.5624 68.355 63.5854L68.3094 63.631C68.2873 63.6531 68.2726 63.6789 68.2652 63.7083L68.1519 64.1462C68.14 64.1941 68.1165 64.235 68.0815 64.2691C67.9848 64.364 67.9369 64.4814 67.9379 64.6213C67.9379 64.6674 67.9254 64.7093 67.9006 64.747C67.8343 64.8511 67.8002 64.9643 67.7984 65.0868C67.7979 65.1072 67.7932 65.1273 67.7844 65.1459C67.7756 65.1644 67.7629 65.181 67.7472 65.1945C67.6077 65.3147 67.4724 65.4059 67.4061 65.5882C67.3103 65.8506 67.1971 66.1052 67.0663 66.352C67.0092 66.4616 66.9521 66.5725 66.895 66.6849C66.8748 66.7235 66.8651 66.7641 66.866 66.8064C66.8702 67.2553 66.9406 67.6324 66.8274 68.0702C66.7611 68.3299 66.692 68.5886 66.6202 68.8465C66.6082 68.8897 66.588 68.9284 66.5594 68.9625C66.5207 69.0085 66.5042 69.0624 66.5097 69.1241C66.5152 69.1968 66.5152 69.2466 66.5097 69.2733C66.367 69.9712 66.1883 70.6595 65.9738 71.3382C65.9351 71.4597 65.8996 71.602 65.8674 71.765C65.7776 72.218 65.634 72.6489 65.5539 73.1006C65.4503 73.6904 65.4337 74.4293 65.3343 75.1227C65.1602 76.3368 65.1685 77.1959 65.1243 78.7967C65.1022 79.6107 65.1308 80.2788 65.21 80.8009C65.3177 81.5117 65.3757 81.9606 65.384 82.1476C65.4033 82.5343 65.7017 83.0343 65.0221 83.0992C65.0007 83.1014 64.9789 83.0992 64.958 83.0928C64.9372 83.0864 64.9176 83.0759 64.9006 83.0619C64.7431 82.933 64.6538 82.7664 64.6326 82.5619C64.5783 82.0518 64.5327 81.5412 64.4959 81.0302C64.4655 80.5992 64.4604 80.0882 64.4807 79.497C64.5055 78.7852 64.506 78.253 64.4821 77.9003C64.4498 77.4215 64.4466 77.0532 64.4724 76.7954C64.5318 76.1807 64.5097 75.5012 64.5594 74.9556C64.6119 74.3865 64.6768 73.8188 64.7542 73.2525C64.7597 73.2083 64.7496 73.1678 64.7238 73.131C64.6833 73.0739 64.6897 73.0242 64.7431 72.9818C64.7201 72.8529 64.7643 72.7705 64.8757 72.7346C64.9153 72.7217 64.9346 72.6941 64.9337 72.6517C64.9273 72.4906 64.9646 72.3405 65.0456 72.2014C65.0677 72.1637 65.0806 72.1232 65.0843 72.0799C65.1022 71.8575 65.1699 71.6724 65.174 71.4514C65.1805 71.131 65.239 70.858 65.3495 70.6324C65.436 70.4556 65.4857 70.3354 65.4986 70.2719C65.5649 69.9418 65.5856 69.6517 65.6948 69.3161C65.8398 68.8686 65.8481 68.3561 65.9489 67.9652C66.1248 67.282 66.3283 66.6517 66.5594 66.0744C66.6644 65.8106 66.8426 65.5688 66.9282 65.2746C67.0378 64.9017 67.1897 64.5495 67.384 64.218C67.5976 63.8524 67.7555 63.5541 67.8577 63.323C68.1662 62.6315 68.5488 61.9814 69.0055 61.3727C69.0322 61.3368 69.0507 61.2972 69.0608 61.2539C69.134 60.9376 69.3895 60.6641 69.5787 60.3133C69.6598 60.1632 69.7698 59.9979 69.9089 59.8175C70.058 59.6232 70.1911 59.4178 70.308 59.2014C70.5608 58.7346 70.8522 58.381 71.1147 57.9501C71.4392 57.4197 71.8356 56.8865 72.239 56.428C73.0898 55.4639 73.9199 54.5177 74.9171 53.678C75.3794 53.2885 75.8444 52.9017 76.3122 52.5177C76.3465 52.4897 76.3723 52.4529 76.3868 52.4114Z" fill="#1F1F19"/>
<path d="M138.336 91.9724C138.184 92.3895 137.988 92.7408 137.749 93.0263C137.45 93.3812 137.032 93.4144 136.67 93.1285C136.374 92.8964 136.302 92.5718 136.454 92.1547C138.385 86.8577 139.456 81.1892 139.026 75.6561C138.882 73.7951 138.555 71.7666 138.047 69.5705C137.507 67.2431 136.645 64.8135 135.67 62.7431C135.421 62.2155 135.48 61.8034 135.845 61.5069C136.696 60.8177 137.417 62.3481 137.662 62.9392C140.738 70.3854 141.619 78.3467 139.892 86.2459C139.471 88.1699 139.008 90.1202 138.336 91.9724Z" fill="#1F1F19"/>
<path d="M153.903 66.5834L150.287 66.596C149.793 66.5977 149.395 66.9992 149.396 67.4928L149.397 67.5618C149.398 68.0554 149.8 68.4541 150.293 68.4523L153.909 68.4397C154.403 68.438 154.802 68.0365 154.8 67.543L154.8 67.4739C154.798 66.9804 154.396 66.5817 153.903 66.5834Z" fill="#1F1F19"/>
<path d="M50.5404 66.6146L46.6979 66.6012C46.2135 66.5995 45.8195 66.9908 45.8178 67.4752L45.8176 67.5387C45.8159 68.0231 46.2072 68.4172 46.6916 68.4189L50.5341 68.4323C51.0185 68.434 51.4125 68.0427 51.4142 67.5583L51.4145 67.4947C51.4161 67.0104 51.0248 66.6163 50.5404 66.6146Z" fill="#1F1F19"/>
<path d="M108.011 128.377C107.96 128.382 107.948 128.436 107.975 128.537C107.975 128.539 107.974 128.54 107.971 128.54C107.966 128.54 107.966 128.539 107.97 128.539C107.918 128.264 107.873 127.989 107.834 127.714C107.74 127.039 107.539 126.382 107.536 125.653C107.533 124.896 107.383 124.121 106.917 123.57C106.887 123.535 106.866 123.493 106.856 123.443C106.812 123.235 106.588 122.938 106.482 122.743C106.119 122.07 106.394 120.86 106.525 120.156C106.711 119.158 106.812 118.608 106.829 118.505C107.05 117.174 107.323 115.921 107.648 114.746C107.87 113.942 108.003 113.417 108.048 113.17C108.213 112.279 108.508 111.443 108.682 110.544C108.764 110.123 108.914 109.696 108.99 109.304C109.224 108.097 109.54 107.102 109.789 106.142C110.144 104.773 110.376 103.852 110.761 102.733C111.116 101.697 111.442 100.653 111.739 99.5993C112.066 98.4322 112.463 97.3949 112.865 96.2968C113.062 95.7554 113.214 95.0455 113.467 94.4377C113.652 93.9888 113.693 93.5399 113.895 93.1242C114.075 92.7513 114.246 92.3742 114.407 91.993C114.543 91.6739 114.624 91.3217 114.733 90.9805C114.823 90.6974 115.039 90.3894 115.148 90.0565C115.264 89.7071 115.467 89.4211 115.58 89.0703C115.672 88.783 115.749 88.574 115.809 88.4432C116.417 87.155 116.958 85.8392 117.431 84.4957C117.613 83.9792 117.952 83.2734 118.073 82.6988C118.185 82.1693 118.392 81.5597 118.696 80.87C118.865 80.4902 118.786 80.0717 118.921 79.6932C118.936 79.649 118.941 79.6039 118.936 79.5579C118.903 79.2678 119.015 79.0082 119.029 78.7734C119.104 77.4377 119.133 76.8176 118.856 75.7098C118.793 75.4571 118.753 75.0579 118.595 74.7402C117.97 73.4874 117.302 72.4653 116.004 71.8258C115.736 71.6932 115.519 71.5358 115.226 71.4653C114.818 71.3673 114.436 71.2457 114.025 71.2195C112.838 71.1463 111.389 71.2443 110.302 71.7692C110.03 71.9004 109.739 71.975 109.486 72.1159C108.96 72.406 108.423 72.6463 107.942 72.9971C107.425 73.3742 106.924 73.6932 106.493 74.1794C105.931 74.813 105.363 75.4391 104.789 76.0579C104.638 76.2209 104.514 76.4018 104.418 76.6007C104.283 76.8839 104.069 76.9792 103.931 77.2236C103.598 77.8093 103.128 78.4046 102.822 78.8921C102.293 79.7292 101.642 80.5993 101.264 81.5137C101.08 81.9571 100.96 82.62 100.447 82.8079C100.409 82.8217 100.371 82.8194 100.334 82.801C99.7748 82.5178 99.7224 81.9626 99.5317 81.4557C99.3536 80.9847 99.0124 80.3783 98.721 79.9377C98.5322 79.6532 98.2624 79.2218 97.9116 78.6435C97.6574 78.2227 97.2767 77.6946 96.7693 77.0593C96.7306 77.0095 96.7044 76.9985 96.6505 76.9695C96.6201 76.9538 96.5962 76.9308 96.5787 76.9004C96.4779 76.7223 96.3121 76.6131 96.2099 76.4502C95.8941 75.9428 95.6082 75.5238 95.3522 75.1933C95.0511 74.8024 94.5621 74.4253 94.2666 74.1615C93.7776 73.725 93.2712 73.3088 92.7472 72.9129C92.0967 72.4225 91.2596 72.185 90.5538 71.7747C90.279 71.6145 90.0414 71.5689 89.7445 71.4944C89.5663 71.4502 89.2956 71.4944 89.0829 71.3314C89.0479 71.3047 89.0087 71.289 88.9654 71.2844C88.0327 71.1785 87.383 71.1675 87.0166 71.2513C86.5359 71.3618 86.0193 71.4184 85.5842 71.5952C84.9139 71.8659 84.284 72.214 83.6947 72.6394C83.6763 72.6532 83.6561 72.6629 83.634 72.6684C83.599 72.6776 83.5695 72.696 83.5456 72.7236C82.8508 73.5358 82.2748 74.4446 81.9558 75.4681C81.627 76.5261 81.6782 78.0385 81.8729 79.1145C82.0304 79.9847 82.1105 80.5206 82.3384 81.1988C82.4378 81.4934 82.5313 81.8097 82.6188 82.1477C82.7016 82.469 82.8071 82.7835 82.9351 83.091C83.0916 83.4677 83.227 83.8521 83.3411 84.2444C83.378 84.3733 83.4245 84.4994 83.4806 84.6228C83.6326 84.9598 83.7003 85.3079 83.8549 85.6421C83.9553 85.8576 84.0502 86.0929 84.1395 86.3479C84.3259 86.8811 84.6022 87.3535 84.7541 87.9612C84.8605 88.3894 85.0345 88.8507 85.2583 89.2195C85.6957 89.9423 86.0548 90.7503 86.3356 91.6435C86.4894 92.1325 86.7182 92.7158 87.0221 93.3935C87.0356 93.4233 87.0399 93.4564 87.0345 93.4888C87.0281 93.533 87.0331 93.5745 87.0497 93.6131C87.4199 94.4598 87.6312 95.4999 87.8688 96.2057C88.5759 98.2996 89.3246 100.394 89.9544 102.511C90.1367 103.123 90.384 103.739 90.5138 104.362C90.6312 104.931 90.837 105.456 90.9696 106.012C91.116 106.627 91.2044 106.991 91.2348 107.102C91.5129 108.099 91.7928 109.096 92.0746 110.091C92.2748 110.795 92.5 111.496 92.6851 112.204C92.9088 113.055 93.0898 114.163 93.3356 115.135C93.6381 116.333 93.7072 117.373 94.1409 118.688C94.1961 118.853 94.1726 119.018 94.2003 119.164C94.3964 120.215 94.4875 121.113 94.4737 121.859C94.4664 122.292 94.3121 122.738 94.011 123.199C93.86 123.431 93.6998 123.841 93.5304 124.431C93.4143 124.834 93.3448 125.266 93.3218 125.726C93.2693 126.764 93.2615 127.802 93.2983 128.84C93.2988 128.849 93.3015 128.859 93.3062 128.866C93.3109 128.873 93.3173 128.879 93.3246 128.881C93.3292 128.883 93.3338 128.884 93.3384 128.885C93.3485 128.886 93.3536 128.891 93.3536 128.899C93.3425 129.475 93.4061 130.039 93.3895 130.615C93.383 130.847 93.384 131.078 93.3922 131.309C93.3941 131.358 93.3945 131.407 93.3936 131.457C93.3757 133.051 93.482 134.617 93.3536 136.179C93.3467 136.268 93.3812 136.394 93.3177 136.497C93.2946 136.533 93.2836 136.573 93.2845 136.616C93.2873 136.89 93.2744 137.163 93.2458 137.435C93.1933 137.425 93.1657 137.469 93.163 137.569C93.1574 137.757 93.1814 137.941 93.2348 138.121C93.244 138.155 93.2366 138.181 93.2127 138.202C93.1841 138.225 93.1703 138.257 93.1712 138.295C93.1841 138.653 93.1547 139.256 93.0828 140.106C93.0727 140.228 93.0354 140.319 92.971 140.38C92.9222 140.426 92.8365 140.449 92.7141 140.45C91.9001 140.454 91.0861 140.455 90.2721 140.453C89.9641 140.452 89.5166 140.391 89.1326 140.427C88.848 140.454 88.6657 140.44 88.4074 140.424C88.1215 140.405 87.8674 140.293 87.569 140.28C87.3655 140.271 87.1864 140.241 87.0317 140.19C86.3342 139.963 85.5193 139.827 84.9033 139.411C84.1777 138.92 83.7164 138.585 83.5193 138.406C82.3342 137.327 81.4516 135.327 81.2666 133.823C81.2003 133.28 81.1883 132.445 81.2306 131.319C81.2665 130.363 81.2541 129.387 81.3591 128.438C81.3867 128.196 81.4056 127.952 81.4157 127.708C81.4212 127.577 81.3996 127.363 81.3508 127.066C81.3158 126.852 81.3112 126.634 81.337 126.414C81.3424 126.368 81.3321 126.321 81.308 126.282C81.0718 125.891 81.0414 125.544 80.9668 125.135C80.9438 125.015 80.8812 124.815 80.779 124.537C80.6878 124.291 80.6294 124.009 80.6036 123.689C80.5773 123.363 80.3398 122.964 80.2458 122.699C79.9797 121.936 79.721 121.172 79.4696 120.405C79.3941 120.173 79.2781 119.909 79.1215 119.613C78.9378 119.265 78.7997 118.889 78.616 118.568C78.1676 117.782 77.7007 117.008 77.2154 116.244C76.7058 115.442 76.0497 114.743 75.4986 113.958C75.2012 113.536 74.8646 113.147 74.4889 112.791C74.2983 112.611 74.1363 112.436 74.0027 112.268C73.453 111.572 72.7748 110.99 72.2085 110.3C72.0796 110.143 71.912 109.98 71.7058 109.811C71.4364 109.59 71.2265 109.309 70.9516 109.095C70.8614 109.025 70.7762 108.946 70.6961 108.859C70.662 108.823 70.6211 108.811 70.5732 108.823C70.5382 108.832 70.5216 108.823 70.5235 108.794C70.5262 108.772 70.5193 108.754 70.5027 108.739C70.3526 108.598 70.221 108.446 70.1077 108.282C70.0101 108.14 69.9005 108.011 69.779 107.896C69.4585 107.595 69.2887 107.197 68.9848 106.916C68.2693 106.251 67.7836 105.735 67.5276 105.367C66.697 104.175 65.8264 103.012 64.9157 101.88C64.8052 101.743 64.7638 101.558 64.6671 101.423C64.2265 100.802 63.8867 100.138 63.4627 99.5026C63.2914 99.2467 63.1312 98.9838 62.982 98.714C62.8688 98.5109 62.6671 98.3424 62.5718 98.1698C62.2831 97.6463 62.1091 97.0924 61.7804 96.5869C61.5469 96.2278 61.4585 95.8452 61.2928 95.4888C60.9737 94.7996 60.6312 94.0399 60.4295 93.3079C60.3411 92.9902 60.2182 92.6753 60.134 92.3756C59.9608 91.7503 59.7514 91.1375 59.5055 90.5372C59.4134 90.3097 59.3434 90.0473 59.2956 89.7499C59.2072 89.2071 58.9862 88.7084 58.8729 88.1946C58.8232 87.9663 58.7596 87.7149 58.6823 87.4405C58.5856 87.0979 58.5511 86.7126 58.4889 86.4156C58.2311 85.202 58.0677 83.9746 57.9986 82.7333C57.9793 82.3723 57.9374 81.9897 57.8729 81.5855C57.8658 81.5418 57.8731 81.497 57.8938 81.4578C57.9145 81.4187 57.9474 81.3874 57.9875 81.3687C58.0502 81.3392 58.0911 81.2936 58.1105 81.2319C58.1289 81.173 58.1579 81.1675 58.1975 81.2153C58.2224 81.2467 58.244 81.2932 58.2624 81.3549C58.2937 82.83 58.4535 84.2909 58.7417 85.7374C59.0469 87.2651 59.3494 88.8355 59.7942 90.2747C61.6271 96.2126 64.7445 101.811 69.0262 106.336C70.8978 108.313 72.8757 110.258 74.6174 112.345C77.4061 115.69 79.8922 119.21 81.0014 123.476C81.4369 125.15 81.6496 126.763 81.6395 128.315C81.6188 131.445 81.3729 133.877 82.5663 136.359C84.4765 140.329 88.9641 140.236 92.7003 140.192C92.7573 140.192 92.7859 140.163 92.7859 140.105C92.7785 135.502 92.7914 130.893 92.8246 126.278C92.8356 124.682 93.3356 123.722 93.9585 122.432C94.0497 122.245 94.0911 122.05 94.0828 121.847C94.0506 121.017 93.9659 120.261 93.8287 119.579C92.9659 115.279 92.3402 112.459 91.9516 111.117C91.5262 109.652 91.1395 107.958 90.7845 106.7C89.6243 102.571 88.2877 98.4161 86.7748 94.2347C85.4751 90.6449 83.9364 87.2305 82.6326 83.6808C82.0239 82.0224 81.6298 80.3148 81.4503 78.5579C81.2707 76.8024 81.4751 74.8466 82.4862 73.399C84.1657 70.993 87.4323 70.3797 90.1464 71.272C94.3936 72.6698 97.5594 76.7195 99.5221 80.5634C99.8052 81.12 100.032 81.7471 100.275 82.3438C100.368 82.5731 100.451 82.5694 100.525 82.3328C100.837 81.3286 101.311 80.493 101.902 79.4446C102.636 78.1426 103.484 76.9198 104.447 75.7761C104.862 75.2844 105.453 74.7374 105.956 74.214C107.425 72.6781 109.465 71.5993 111.5 71.091C113.916 70.4874 116.352 71.0289 118.008 72.9446C120.32 75.6159 119.34 79.7305 118.456 82.7955C117.86 84.8604 116.986 86.7609 116.064 88.9198C115.326 90.6477 114.627 92.6877 113.95 94.4336C112.148 99.0814 110.738 103.969 109.394 109.152C108.447 112.803 107.682 116.231 107.099 119.435C106.99 120.032 106.639 122.128 106.894 122.588C107.946 124.497 108.026 126.243 108.011 128.377Z" fill="#080805"/>
<path d="M84.3177 73.9006C84.012 74.2294 83.7818 74.6074 83.6271 75.0346C82.605 77.8551 83.5635 80.7667 84.5677 83.4255C86.2251 87.8136 88.145 92.1341 89.6229 96.5843C90.9047 100.448 91.8296 103.394 92.3978 105.423C93.3877 108.96 94.4424 113.402 95.5621 118.749C95.6957 119.388 95.7408 120.013 95.6975 120.626C95.6846 120.806 95.7417 120.832 95.8688 120.703C96.8494 119.711 98.0686 119.21 99.5262 119.2C99.6469 119.25 99.6381 119.332 99.5 119.446C99.4475 119.49 99.3807 119.518 99.2997 119.528C98.768 119.597 97.9889 119.553 97.5276 119.905C96.9461 120.352 96.4171 120.648 96.1257 120.968C96.099 120.997 96.0663 121.012 96.0276 121.013L95.8867 121.015C95.8352 121.017 95.7896 121.035 95.75 121.068L95.5442 121.24C95.52 121.261 95.4902 121.274 95.4586 121.279C95.427 121.283 95.3949 121.278 95.366 121.265C95.3371 121.251 95.3128 121.229 95.2959 121.202C95.279 121.175 95.2702 121.144 95.2707 121.112C95.2762 120.707 95.3121 120.332 95.2514 119.942C95.0912 118.915 94.9369 117.887 94.7887 116.858C94.7823 116.815 94.7663 116.774 94.7417 116.739C94.6754 116.643 94.6363 116.56 94.6243 116.489C94.5405 116.011 94.4332 115.538 94.3025 115.071C94.1906 114.669 94.1395 114.188 93.9834 113.747C93.8923 113.49 93.8287 113.238 93.7928 112.99C93.732 112.569 93.5815 112.111 93.5097 111.76C93.4351 111.395 93.3614 111.03 93.2887 110.664C93.2293 110.363 93.0691 109.923 93.0041 109.537C92.9406 109.151 92.7845 108.803 92.7251 108.412C92.6657 108.022 92.5732 107.682 92.5221 107.315C92.4613 106.87 92.2072 106.419 92.0608 105.99C91.9779 105.753 91.9931 105.478 91.9047 105.247C91.6377 104.541 91.4406 103.954 91.3135 103.486C91.1165 102.758 90.965 102.215 90.8591 101.856C90.6464 101.132 90.453 100.402 90.279 99.6658C90.2362 99.4821 90.1008 99.3288 90.0525 99.1727C89.7389 98.1479 89.3494 97.1327 89.0718 96.1009C88.9871 95.786 88.8651 95.4494 88.7058 95.0913C88.5235 94.6806 88.3748 94.257 88.2597 93.8205C88.2477 93.7754 88.2256 93.7367 88.1934 93.7045C88.1602 93.6704 88.1326 93.6244 88.1105 93.5664C88.0967 93.5286 88.0893 93.489 88.0884 93.4476C88.0829 93.1889 87.9866 92.9669 87.7997 92.7819C87.7858 92.7679 87.775 92.7512 87.7681 92.7329C87.7612 92.7146 87.7583 92.695 87.7597 92.6755C87.7716 92.5107 87.7205 92.3684 87.6064 92.2487C87.5769 92.2174 87.5548 92.1815 87.54 92.141L86.9876 90.5761C86.9756 90.5429 86.9544 90.518 86.924 90.5015C86.8955 90.4858 86.8849 90.4587 86.8923 90.42C86.9015 90.3721 86.8913 90.3288 86.8619 90.2901C86.7854 90.1907 86.7145 90.0208 86.6492 89.7805C86.5856 89.5475 86.3748 89.0056 86.0166 88.1548C85.9908 88.094 85.9323 88.0019 85.8412 87.8785C85.8154 87.8436 85.7993 87.804 85.7928 87.7598C85.7615 87.5351 85.7127 87.3449 85.6464 87.1893C85.3775 86.5687 85.1114 85.9467 84.8481 85.3233C84.8462 85.3187 84.7532 85.0604 84.5691 84.5484C84.4807 84.3053 84.3564 84.018 84.1961 83.6866C84.1464 83.5843 84.174 83.3592 84.1229 83.2087C83.8504 82.4177 83.587 81.6235 83.3329 80.8261C83.2279 80.5001 83.2749 80.1879 83.1671 79.8772C82.8964 79.0963 82.7841 78.2883 82.8301 77.4531C82.8494 77.0986 82.8711 76.7446 82.895 76.391C82.9268 75.9089 83.058 75.0457 83.2679 74.7418C83.5552 74.3261 83.7735 73.873 84.1906 73.5733C84.2178 73.5537 84.2499 73.5421 84.2833 73.5396C84.3167 73.5371 84.3502 73.5438 84.38 73.5591C84.4099 73.5744 84.4349 73.5976 84.4524 73.6261C84.4699 73.6547 84.4792 73.6876 84.4793 73.7211C84.4793 73.8463 84.4254 73.9062 84.3177 73.9006Z" fill="#080805"/>
<path d="M101.374 117.864L101.337 119.12C101.337 119.136 101.342 119.152 101.352 119.165C101.362 119.178 101.376 119.187 101.392 119.19C102.698 119.468 103.982 119.922 104.961 120.873C104.97 120.881 104.98 120.886 104.992 120.889C105.003 120.891 105.015 120.889 105.026 120.885C105.037 120.88 105.046 120.873 105.052 120.863C105.059 120.853 105.062 120.842 105.062 120.83C105.062 120.647 105.076 120.461 105.104 120.272C105.382 118.37 105.727 116.481 106.139 114.605C106.981 110.776 107.936 106.953 109.062 103.197C110.07 99.8318 110.895 97.2461 111.537 95.4404C112.275 93.3658 113.39 90.5311 114.884 86.9363C115.851 84.6103 116.779 82.1655 117.286 79.6946C117.666 77.8382 117.783 75.7539 116.503 74.1227C116.481 74.0933 116.472 74.0969 116.478 74.1338C116.894 76.62 115.163 79.0053 113.33 80.5316C112.507 81.2176 111.387 81.8617 109.97 82.4639C107.239 83.6241 104.678 84.1421 101.691 84.2401C101.572 84.2447 101.498 84.2825 101.47 84.3534C101.443 84.4178 101.42 84.5113 101.402 84.6338C101.16 84.4487 101.142 84.2678 101.348 84.091C101.599 83.8741 102.32 83.8741 102.667 83.7981C102.988 83.7282 103.286 83.6844 103.562 83.6669C104.535 83.6043 105.46 83.4482 106.336 83.1987C107.104 82.9795 107.806 82.8 108.442 82.66C108.95 82.5468 109.365 82.3796 109.843 82.207C110.336 82.0274 110.796 81.7318 111.258 81.4832C111.952 81.1131 112.816 80.5702 113.387 80.026C113.814 79.6186 114.615 78.8506 114.768 78.2843C114.78 78.2411 114.804 78.2022 114.838 78.1725C115.206 77.852 115.454 77.4588 115.584 76.9929C115.667 76.6918 115.859 76.3783 115.996 76.0951C116.013 76.0592 116.026 76.0214 116.035 75.9818C116.18 75.3354 116.225 74.7401 116.095 73.9722C116.068 73.8092 116.135 73.7438 116.297 73.776L116.724 73.8603C116.873 73.8898 116.974 73.9754 117.026 74.1172C117.105 74.3327 117.275 74.5233 117.362 74.7042C117.594 75.1922 117.777 75.6987 117.91 76.2236C118.138 77.1296 117.946 78.0219 117.872 78.9294C117.831 79.4146 117.745 79.8953 117.613 80.3714C117.471 80.8861 117.331 81.4017 117.191 81.9183C117.021 82.5454 116.746 83.1338 116.572 83.7636C116.422 84.3014 116.22 84.8189 115.965 85.3161C115.858 85.5274 115.837 85.7636 115.758 85.9473C115.477 86.6121 115.2 87.2793 114.928 87.9487C114.45 89.1296 113.945 90.2954 113.457 91.4722C113.305 91.8423 113.195 92.3009 113.028 92.7277C112.602 93.817 112.259 94.6895 111.997 95.3451C111.459 96.689 111.134 98.0564 110.608 99.3824C110.218 100.36 110.035 101.349 109.724 102.322C109.597 102.72 109.492 103.076 109.41 103.388C109.215 104.135 109.017 104.631 108.867 105.215C108.499 106.657 108.081 107.953 107.83 109.048C107.598 110.058 107.396 110.852 107.225 111.429C107.158 111.655 107.096 111.968 107.039 112.37C106.878 113.504 106.424 114.775 106.304 115.538C106.272 115.749 106.238 115.928 106.203 116.073C105.921 117.254 105.758 118.381 105.622 119.061C105.536 119.483 105.484 119.89 105.467 120.282C105.45 120.674 105.367 120.969 105.256 121.316C105.248 121.34 105.235 121.362 105.218 121.38C105.201 121.399 105.18 121.413 105.157 121.422C105.134 121.432 105.109 121.436 105.084 121.434C105.059 121.433 105.034 121.426 105.012 121.414C104.606 121.195 104.265 120.877 103.895 120.634C103.601 120.44 103.37 120.195 103.047 120.067C102.442 119.828 101.824 119.637 101.193 119.496C101.146 119.485 101.104 119.458 101.074 119.419C101.044 119.381 101.029 119.333 101.03 119.284L101.064 118.116C101.064 118.073 101.076 118.034 101.098 117.998C101.206 117.818 101.298 117.773 101.374 117.864Z" fill="#080805"/>
<path d="M49.0052 79.889L43.4196 79.8988C42.9016 79.8997 42.4825 80.3203 42.4834 80.8382L42.4835 80.8962C42.4844 81.4142 42.905 81.8334 43.423 81.8325L49.0086 81.8227C49.5266 81.8218 49.9457 81.4012 49.9448 80.8832L49.9447 80.8252C49.9438 80.3073 49.5232 79.8881 49.0052 79.889Z" fill="#1F1F19"/>
<path d="M157.379 79.8921L151.813 79.9115C151.328 79.9132 150.936 80.3078 150.938 80.793L150.938 80.956C150.94 81.4411 151.335 81.8331 151.82 81.8314L157.386 81.8119C157.871 81.8102 158.263 81.4156 158.261 80.9304L158.261 80.7674C158.259 80.2823 157.864 79.8904 157.379 79.8921Z" fill="#1F1F19"/>
<path d="M83.866 149.174C84.0276 148.418 84.5428 147.508 85.2887 147.063C85.2983 147.058 85.3064 147.05 85.3121 147.04C85.3178 147.03 85.321 147.019 85.3214 147.008C85.3218 146.997 85.3194 146.986 85.3144 146.975C85.3095 146.965 85.302 146.957 85.2928 146.95C83.4835 145.688 83.0138 142.655 84.9835 141.253C84.993 141.246 85.0005 141.237 85.0053 141.226C85.01 141.215 85.0119 141.203 85.0106 141.192C85.0093 141.18 85.005 141.169 84.9981 141.16C84.9911 141.15 84.9818 141.143 84.971 141.138C81.7334 139.726 79.8729 136.349 79.8232 132.906C79.7832 130.11 79.9862 127.407 79.3094 124.544C78.6879 121.916 77.5405 119.452 75.8674 117.153C74.1437 114.783 72.5 112.775 70.5373 110.762C68.4351 108.605 66.866 106.894 65.0995 104.657C60.1285 98.3645 57.1202 90.4543 56.5166 82.5178L56.576 82.417C56.5944 82.3866 56.6009 82.3535 56.5953 82.3176L56.4904 81.5731C56.4811 81.5086 56.5092 81.4759 56.5746 81.475L56.6423 81.4736C56.6617 81.4736 56.6803 81.4813 56.694 81.4951C56.7078 81.5088 56.7155 81.5274 56.7155 81.5468C56.7155 81.7328 56.715 81.9221 56.7141 82.1145C56.6828 82.1458 56.6823 82.1808 56.7127 82.2195C56.7348 82.2471 56.7486 82.2784 56.7542 82.3134C56.9466 83.6283 57.1414 84.9428 57.3384 86.2568C57.3951 86.6339 57.5718 87.0082 57.6271 87.3479C57.7252 87.9488 57.7873 88.5676 57.9931 89.1421C58.0567 89.318 58.1073 89.4976 58.1451 89.6808C58.1598 89.749 58.1985 89.8535 58.2611 89.9944C58.3246 90.1352 58.3301 90.3079 58.3743 90.4419C58.6045 91.1592 58.8426 91.8742 59.0884 92.5869C59.192 92.8852 59.4393 93.406 59.5318 93.8562C59.5691 94.0413 59.6837 94.1173 59.7417 94.2816C60.2178 95.6104 60.791 96.8963 61.4613 98.1394C61.4715 98.1587 61.4775 98.1804 61.4793 98.2043C61.4802 98.219 61.4816 98.2333 61.4834 98.2471C61.4853 98.2628 61.4899 98.277 61.4973 98.2899C62.5184 100.143 63.3771 101.575 64.0732 102.588C64.9945 103.934 66.239 105.416 67.5166 106.776C68.9752 108.33 70.4273 109.889 71.8729 111.454C72.1036 111.703 72.2528 112.007 72.4752 112.255C72.9788 112.817 73.4604 113.397 73.9199 113.994C74.0069 114.106 74.1741 114.243 74.2735 114.378C75.0111 115.384 75.7417 116.391 76.5346 117.355C76.8596 117.749 77.0778 118.059 77.1892 118.284C77.5415 118.992 77.9558 119.681 78.2638 120.395C78.39 120.686 78.5152 120.976 78.6395 121.266C78.8799 121.83 79.0926 122.497 79.3439 123.105C79.4029 123.249 79.4706 123.46 79.547 123.736C79.6257 124.025 79.7694 124.302 79.8274 124.579C79.9517 125.179 80.0166 125.607 80.0221 125.863C80.0373 126.545 80.1437 127.251 80.1492 127.889C80.1593 129.079 80.1741 130.268 80.1934 131.457C80.2017 131.993 80.1437 132.521 80.2017 133.055C80.2247 133.271 80.2417 133.486 80.2528 133.702C80.3343 135.275 80.8522 136.637 81.7044 137.878C82.3205 138.779 83.1754 139.679 84.2238 140.25C84.5194 140.41 84.855 140.671 85.2113 140.819C85.2547 140.837 85.3024 140.843 85.3495 140.837C85.6018 140.802 85.7951 140.887 85.9296 141.092C85.9495 141.123 85.9627 141.157 85.9681 141.193C85.9735 141.229 85.9711 141.266 85.9611 141.301C85.951 141.336 85.9334 141.369 85.9097 141.397C85.8859 141.425 85.8564 141.447 85.8232 141.463C85.5263 141.601 85.2735 141.713 85.0622 141.99C84.9287 142.166 84.7988 142.345 84.6727 142.526C84.6478 142.562 84.6335 142.601 84.6299 142.644C84.6022 142.95 84.3771 143.055 84.2956 143.265C84.1925 143.532 84.1667 143.814 84.2183 144.11C84.2265 144.157 84.2187 144.201 84.1948 144.242C83.971 144.623 84.1837 144.906 84.3067 145.254C84.413 145.558 84.6022 145.791 84.7528 146.07C84.8674 146.28 85.2321 146.577 85.4462 146.682C85.5401 146.728 85.616 146.789 85.6741 146.863C85.7938 147.017 85.7601 147.16 85.5732 147.293C85.1294 147.607 84.8108 147.991 84.6174 148.446C84.4738 148.783 84.3683 149.019 84.3011 149.155C84.2836 149.19 84.2721 149.228 84.2666 149.266C84.25 149.403 84.1819 149.497 84.0622 149.548C84.0398 149.558 84.0153 149.561 83.9911 149.559C83.9668 149.557 83.9436 149.548 83.9235 149.534C83.9034 149.521 83.8871 149.502 83.8761 149.48C83.8651 149.459 83.8597 149.434 83.8605 149.41L83.866 149.174Z" fill="#080805"/>
<path d="M142.261 84.8082C142.351 84.7834 142.431 84.8252 142.501 84.9339C142.526 84.9735 142.536 85.0163 142.532 85.0624C142.445 85.8662 142.228 86.6397 142.131 87.4339C142.093 87.7502 141.965 88.0927 141.97 88.4491C141.971 88.4942 141.959 88.5361 141.935 88.5748C141.823 88.7543 141.855 88.9353 141.772 89.1107C141.689 89.2847 141.639 89.4044 141.62 89.4698C141.238 90.8856 140.943 92.1508 140.349 93.659C140.121 94.241 139.85 94.8441 139.536 95.4684C138.968 96.5969 138.406 97.7322 137.768 98.822C137.514 99.2557 137.311 99.677 137.008 100.093C136.537 100.738 136.177 101.41 135.691 102.073C135.369 102.513 135.101 103.01 134.787 103.417C134.341 103.993 133.898 104.591 133.434 105.129C132.397 106.33 131.453 107.34 130.601 108.156C130.131 108.608 129.714 109.13 129.354 109.486C128.706 110.129 128.093 110.803 127.515 111.508C127.192 111.903 126.86 112.276 126.521 112.629C126.037 113.13 125.711 113.509 125.541 113.768C124.731 115.011 123.801 116.141 123.048 117.406C122.203 118.828 121.581 119.982 120.874 121.793C120.842 121.876 120.817 121.968 120.798 122.071C120.699 122.612 120.559 123.131 120.45 123.667C120.221 124.799 119.816 125.963 119.738 127.107C119.724 127.308 119.668 127.489 119.659 127.615C119.577 128.618 119.545 129.622 119.564 130.627C119.566 130.743 119.627 130.84 119.622 130.974C119.588 131.743 119.581 132.512 119.601 133.282C119.615 133.811 119.424 134.154 119.341 134.619C119.262 135.058 119.094 135.463 118.938 135.877C118.847 136.12 118.707 136.403 118.519 136.725C118.246 137.192 118.09 137.681 117.725 138.072C117.303 138.525 116.957 138.833 116.685 138.996C116.273 139.242 115.899 139.564 115.492 139.758C114.337 140.311 112.983 140.528 111.738 140.582C111.707 140.583 111.691 140.568 111.689 140.537C111.685 140.468 111.651 140.408 111.59 140.358C111.582 140.351 111.575 140.343 111.57 140.334C111.566 140.324 111.563 140.314 111.562 140.304C111.562 140.293 111.564 140.283 111.568 140.273C111.572 140.263 111.578 140.255 111.586 140.247L111.682 140.155C113.168 140.075 114.518 139.681 115.735 138.974C119.588 136.736 119.214 132.591 119.267 128.797C119.333 124.014 120.764 119.814 123.479 115.934C124.994 113.768 126.662 111.723 128.482 109.8C131.436 106.68 133.412 104.558 135.436 101.767C137.28 99.2253 138.909 96.3414 140.003 93.3952C141.038 90.6079 141.79 87.7456 142.261 84.8082Z" fill="#080805"/>
<path d="M127.873 113.438C127.32 114.097 126.771 114.756 126.224 115.416C123.173 119.092 121.191 123.667 121.108 128.487C121.037 132.653 121.413 136.954 117.838 139.833C117.207 140.34 116.37 140.719 115.613 141.101C115.602 141.106 115.591 141.115 115.584 141.125C115.576 141.136 115.571 141.148 115.57 141.161C115.568 141.174 115.569 141.187 115.574 141.199C115.578 141.211 115.586 141.222 115.595 141.23C116.34 141.882 116.811 142.503 117.001 143.483C117.276 144.886 116.492 146.214 115.322 146.968C115.272 147 115.244 147.03 115.239 147.056C115.229 147.101 115.26 147.141 115.331 147.178L114.903 147.352C114.847 147.375 114.785 147.374 114.729 147.351C114.674 147.328 114.629 147.284 114.606 147.229C114.405 146.754 115.08 146.585 115.384 146.476C115.53 146.422 115.566 146.345 115.657 146.236C115.851 146.005 116.03 145.764 116.196 145.512C116.378 145.234 116.491 144.961 116.535 144.693C116.609 144.225 116.619 143.551 116.373 143.106C116.276 142.933 116.212 142.799 116.181 142.703C115.983 142.108 115.331 141.678 115.432 141.043C115.444 140.971 115.476 140.903 115.524 140.849C115.572 140.794 115.635 140.754 115.704 140.733C116.213 140.583 116.689 140.282 117.001 139.851C117.106 139.705 117.349 139.524 117.729 139.306C117.941 139.186 118.136 139.034 118.315 138.851C118.548 138.612 118.833 138.402 119.019 138.142C119.298 137.754 119.541 137.346 119.746 136.916C119.88 136.634 120.007 136.27 120.127 135.823C120.26 135.322 120.414 134.838 120.461 134.317C120.494 133.966 120.527 133.614 120.561 133.262C120.594 132.922 120.569 132.392 120.627 131.957C120.654 131.757 120.663 131.584 120.656 131.438C120.626 130.788 120.599 130.139 120.575 129.49C120.535 128.422 120.501 127.23 120.714 126.181C120.887 125.323 120.977 124.788 121.124 124.096C121.184 123.819 121.333 123.482 121.406 123.157C121.642 122.119 122.146 121.19 122.593 120.239C122.854 119.682 123.131 119.167 123.423 118.695C123.794 118.094 124.115 117.467 124.568 116.917C124.902 116.514 125.123 116.078 125.496 115.69C125.698 115.48 125.782 115.294 125.905 115.047C125.925 115.005 125.957 114.97 125.997 114.945C126.157 114.846 126.297 114.725 126.417 114.583C126.451 114.542 126.468 114.496 126.468 114.443C126.468 114.344 126.443 114.233 126.515 114.159C126.554 114.118 126.601 114.1 126.657 114.103C126.692 114.105 126.727 114.103 126.762 114.098C126.955 114.067 127.045 113.954 127.033 113.761C127.029 113.692 127.063 113.657 127.133 113.657H127.251C127.295 113.657 127.333 113.643 127.367 113.614L127.696 113.331C127.72 113.31 127.75 113.298 127.78 113.296C127.809 113.294 127.838 113.302 127.859 113.32C127.878 113.335 127.882 113.374 127.873 113.438Z" fill="#080805"/>
<path d="M94.6667 149.215L88.1722 149.238C87.6711 149.24 87.2662 149.647 87.2679 150.149L87.2681 150.193C87.2698 150.694 87.6775 151.099 88.1787 151.097L94.6731 151.074C95.1743 151.073 95.5792 150.665 95.5774 150.164L95.5773 150.12C95.5755 149.618 95.1678 149.214 94.6667 149.215Z" fill="#1F1F19"/>
<path d="M118.695 177.711H81.9848C81.4958 177.711 81.0994 178.108 81.0994 178.597V178.611C81.0994 179.1 81.4958 179.496 81.9848 179.496H118.695C119.184 179.496 119.58 179.1 119.58 178.611V178.597C119.58 178.108 119.184 177.711 118.695 177.711Z" fill="#1F1F19"/>
</svg>
