<svg width="197" height="200" viewBox="0 0 197 200" fill="none" xmlns="http://www.w3.org/2000/svg">
<path d="M125.242 41.6599L125.201 41.6267C125.188 41.6176 125.176 41.6189 125.166 41.6306C124.514 42.4028 123.605 43.3377 122.441 44.4353C120.139 46.6033 117.848 49.4568 115.744 52.3181C114.547 53.9451 113 55.783 111.742 57.6091C109.055 61.5115 105.697 66.4978 103.209 70.9998C101.158 74.7133 99.1126 78.4295 97.0722 82.1482C96.7207 82.7888 96.0312 83.3904 95.2969 82.7088C94.9336 82.3728 94.8594 82.1599 94.9668 81.6521C95.2923 80.1313 95.6953 78.8585 96.1758 77.8338C96.9687 76.1424 98.1178 73.895 99.623 71.0916C102.617 65.5134 106.016 60.0935 109.543 54.8377C109.884 54.3298 110.47 53.5056 111.301 52.365C112.098 51.2732 112.881 50.0623 113.639 49.0603C115.343 46.8025 117.095 44.5825 118.895 42.4002C120.32 40.6697 122.189 38.6697 124.053 37.1209C124.713 36.5727 125.179 36.2283 125.451 36.0877C126.645 35.4705 128.186 35.7009 128.77 37.0681C128.803 37.1476 128.846 37.1521 128.896 37.0818C131.055 34.1131 132.119 31.3181 136.316 33.1814C138.994 34.3709 143.732 37.2049 144.004 40.1521C144.125 41.4763 143.299 43.324 142.699 44.5252C135.812 58.3025 127.41 71.0838 119.225 84.0916C117.83 86.3077 115.129 90.3865 111.121 96.3279C110.526 97.2107 109.825 98.3077 109.018 99.6189C107.783 101.623 106.297 103.828 105.199 105.558C99.4043 114.687 93.457 123.717 87.5566 132.777C87.293 133.183 86.8516 133.371 86.6504 133.761C86.3392 134.36 86.0247 134.956 85.707 135.549C85.4023 136.116 84.9596 136.383 84.3789 136.349C84.3112 136.347 84.2624 136.375 84.2324 136.433C83.8906 137.121 83.4375 138.054 82.8086 138.636C82.7767 138.666 82.7366 138.685 82.6933 138.691L82.3926 138.736C82.317 138.748 82.2819 138.792 82.2871 138.869C82.3275 139.424 82.1868 139.959 81.8652 140.476C80.5553 142.582 79.2278 144.676 77.8828 146.758C77.3066 147.65 77.1015 148.047 76.0019 147.881C75.8821 147.862 75.7936 147.907 75.7363 148.013C75.418 148.599 75.0078 149.75 74.2461 149.816C74.1797 149.823 74.1328 149.857 74.1055 149.918C73.7558 150.701 72.8281 153.006 71.6699 152.67C71.5019 152.622 71.3626 152.582 71.2519 152.553C71.1855 152.534 71.1348 152.554 71.0996 152.611C69.7324 154.826 68.317 157.008 66.8535 159.158C66.3769 159.857 65.6562 159.504 64.9668 159.732C64.067 160.03 63.209 160.416 62.3926 160.89C61.4082 161.461 61.0527 162.064 60.6738 163.094C60.6139 163.256 60.4681 163.343 60.2363 163.353C59.666 163.379 59.2871 163.48 58.8398 163.89C58.1465 164.531 57.3652 165.013 56.7129 165.679C56.3821 166.017 56.043 166.336 55.6953 166.638C55.6849 166.647 55.6774 166.659 55.6739 166.672C55.6704 166.685 55.671 166.699 55.6757 166.712C55.6804 166.725 55.6889 166.736 55.7001 166.744C55.7113 166.752 55.7246 166.756 55.7383 166.756C57.3828 166.744 59.0254 166.584 60.6719 166.539C61.7793 166.51 62.6894 166.443 63.9922 166.4C64.6523 166.379 65.3066 166.265 65.9453 166.265C66.7409 166.265 67.5345 166.241 68.3262 166.193C71.164 166.021 74.0039 165.892 76.8398 165.719C78.1953 165.636 79.5078 165.609 80.9512 165.625C81.6797 165.631 82.3965 165.472 83.0801 165.478C84.2598 165.49 85.5273 165.394 86.6016 165.39C89.4531 165.379 92.209 165.252 95.1601 165.234C104.32 165.177 109.51 165.336 116.686 165.373C116.994 165.375 117.238 165.519 117.533 165.519C119.282 165.527 121.03 165.526 122.777 165.517C123.236 165.513 123.773 165.353 124.148 165.367C127.68 165.492 131.179 165.218 134.646 164.545C136.377 164.211 139.252 163.342 140.508 162.051C141.527 161 140.205 160.57 139.383 160.549C138.008 160.51 136.706 160.789 135.479 161.386C135.088 161.575 134.776 161.487 134.543 161.121L134.479 161.019C134.443 160.963 134.42 160.9 134.411 160.835C134.402 160.769 134.406 160.703 134.425 160.639C134.443 160.576 134.474 160.517 134.517 160.467C134.56 160.416 134.612 160.376 134.672 160.347C136.594 159.428 138.532 159.141 140.486 159.486C141.324 159.635 141.998 160.269 142.123 161.127C142.406 163.062 139.437 164.34 137.977 164.871C134.291 166.209 130.187 166.576 126.346 166.613C123.367 166.642 120.388 166.642 117.41 166.615C105.935 166.508 94.4603 166.546 82.9863 166.728C82.8066 166.731 82.2871 166.756 81.4277 166.804C79.9765 166.886 78.4961 166.816 77.0469 166.929C75.4961 167.049 73.664 167.107 72.4394 167.183C67.9342 167.467 63.4258 167.691 58.914 167.853C56.8887 167.927 54.8848 167.924 52.8594 167.912C52.1419 167.908 51.3073 167.799 50.3555 167.584C48.2838 167.116 46.8815 165.957 46.1484 164.105C45.6113 162.746 45.6015 160.658 46.8613 159.672C47.5176 159.157 48.0814 159.194 48.5527 159.781C49.3672 160.797 48.3652 162.842 47.6738 163.76C47.6547 163.785 47.6411 163.815 47.6337 163.846C47.6263 163.877 47.6253 163.91 47.6308 163.941C47.9062 165.455 49.9512 166.234 51.25 166.457C52.1693 166.616 53.0957 166.715 54.0293 166.754C54.0509 166.755 54.0724 166.75 54.0914 166.739C54.1104 166.728 54.1261 166.712 54.1367 166.693C54.9531 165.218 55.4609 163.641 55.6601 161.963C55.7148 161.492 55.4726 161.097 55.8652 160.638C56.1256 160.335 56.3314 159.964 56.4824 159.525C57.0189 157.961 57.2565 156.396 57.1953 154.83C57.1836 154.506 57.0351 154.351 56.9277 154.052C56.903 153.983 56.9095 153.917 56.9472 153.853L61.375 146.537C61.414 146.474 61.4121 146.413 61.3691 146.351C60.7168 145.429 62.1601 143.636 62.7539 142.797C62.793 142.741 62.8008 142.681 62.7773 142.617L62.7109 142.443C62.7005 142.414 62.6964 142.384 62.6987 142.353C62.7011 142.323 62.7099 142.294 62.7246 142.267L63.998 139.943C64.0293 139.885 64.0293 139.827 63.998 139.769L63.8672 139.527C63.8508 139.496 63.8419 139.462 63.8412 139.427C63.8405 139.392 63.8481 139.357 63.8633 139.326C65.1055 136.75 66.6875 134.334 68.1074 131.849C68.3717 131.387 68.8053 131.049 69.4082 130.836C69.4681 130.814 69.5026 130.771 69.5117 130.709C69.6588 129.705 70.0749 128.827 70.7597 128.076C70.8001 128.032 70.8027 127.985 70.7676 127.935C70.2324 127.179 71.6269 125.429 72.0898 124.89C72.1315 124.841 72.1452 124.785 72.1308 124.722C72.0781 124.498 72.0488 124.336 72.1816 124.129C74.3789 120.689 76.625 117.281 78.8203 113.84C81.3262 109.91 83.7715 105.937 86.3086 102.027C92.8848 91.8865 99.3164 81.6599 105.697 71.3963C108.154 67.447 110.744 63.5779 113.254 59.6599C116.139 55.1599 120.141 49.1951 125.258 41.7654C125.286 41.725 125.281 41.6899 125.242 41.6599ZM132.818 34.2459C135.613 35.2771 138.164 36.7068 140.52 38.5174C140.528 38.5238 140.538 38.5284 140.548 38.5308C140.558 38.5332 140.569 38.5334 140.579 38.5313C140.589 38.5293 140.599 38.5251 140.608 38.519C140.616 38.5129 140.624 38.505 140.629 38.4959L141.008 37.8377C141.039 37.783 141.032 37.7328 140.986 37.6873C139.566 36.2869 137.76 35.2654 135.936 34.3435C135.016 33.8787 133.727 33.4119 132.795 34.0681C132.78 34.0788 132.768 34.0934 132.761 34.1103C132.753 34.1272 132.751 34.1458 132.753 34.164C132.756 34.1823 132.763 34.1996 132.774 34.214C132.786 34.2284 132.801 34.2394 132.818 34.2459ZM134.727 36.3728C133.833 35.9132 132.886 35.5714 131.885 35.3474C131.84 35.337 131.793 35.34 131.75 35.356C131.707 35.3719 131.67 35.4002 131.643 35.4373L130.01 37.6775C130.007 37.6804 130.006 37.6838 130.005 37.6875C130.004 37.6911 130.004 37.695 130.005 37.6986C130.006 37.7022 130.008 37.7056 130.01 37.7084C130.013 37.7112 130.016 37.7133 130.02 37.7146C132.947 39.0779 135.451 40.406 138.189 42.5799C138.244 42.6241 138.288 42.615 138.322 42.5525L139.803 39.8728C139.831 39.8207 139.824 39.7739 139.781 39.7322C138.361 38.4099 136.449 37.2576 134.727 36.3728ZM99.1875 74.8025C98.2943 76.5082 97.4818 78.1847 96.75 79.8318C96.6966 79.9529 96.6647 80.0955 96.6543 80.2595C96.6465 80.3819 96.6712 80.3891 96.7285 80.281C97.4707 78.8748 98.2207 77.3884 98.957 76.0681C100.816 72.7322 102.594 69.2966 104.641 66.0779C106.439 63.2498 108.279 60.449 110.162 57.6756C111.785 55.283 113.6 52.9685 115.369 50.6443C118.093 47.0701 121.115 43.7713 124.436 40.7478C124.727 40.4835 125.133 40.1515 125.652 39.7517C126.463 39.1287 127.523 38.6384 127.404 37.4041C127.377 37.1176 127.218 36.9627 126.928 36.9392C126.191 36.8787 125.375 37.5564 124.881 38.0369C122.758 40.1046 120.745 42.2713 118.84 44.5369C117.105 46.5974 115.326 49.1267 113.543 51.4041C113.068 52.0108 112.617 52.6345 112.189 53.2752C110.061 56.4685 107.891 59.6326 105.912 62.9236C105.54 63.5434 104.867 64.6573 103.893 66.2654C102.207 69.0466 100.68 71.949 99.1875 74.8025ZM142.773 40.8338C142.782 40.8441 142.794 40.8514 142.807 40.8546C142.821 40.8578 142.835 40.8567 142.847 40.8515C142.86 40.8463 142.87 40.8372 142.877 40.8256C142.885 40.814 142.888 40.8005 142.887 40.7869L142.805 39.9412C142.804 39.9299 142.8 39.9191 142.793 39.9099L141.961 38.7342C141.954 38.7253 141.946 38.7183 141.936 38.7138C141.926 38.7093 141.914 38.7075 141.903 38.7085C141.893 38.7094 141.882 38.7132 141.873 38.7194C141.864 38.7256 141.856 38.7341 141.852 38.7439L141.559 39.3416C141.554 39.3527 141.552 39.3651 141.554 39.3772C141.555 39.3893 141.56 39.4006 141.568 39.4099L142.773 40.8338ZM106.752 92.9373C108.113 90.6677 109.994 87.949 111.039 86.3357C114.16 81.5141 117.265 76.6808 120.353 71.8357C122.5 68.4666 124.607 64.9783 126.783 61.5799C130.674 55.5037 133.492 50.7517 137.473 43.9236C137.506 43.865 137.499 43.8129 137.451 43.7674C135.301 41.6795 132.338 40.0759 129.609 38.9959C129.38 38.9047 129.161 38.8364 128.951 38.7908C128.912 38.7821 128.871 38.7853 128.834 38.7999C128.797 38.8145 128.765 38.8399 128.742 38.8728C127.6 40.5232 126.492 42.3181 125.439 43.8377C124.208 45.6124 122.993 47.3989 121.795 49.197C119.496 52.6521 117.59 55.365 114.672 59.865C110.788 65.8572 106.954 71.8813 103.172 77.9373C101.38 80.8071 99.5827 83.6736 97.7793 86.5369C97.6308 86.7732 97.4492 86.947 97.2656 87.156C97.257 87.1657 97.2509 87.1774 97.2477 87.19C97.2446 87.2026 97.2446 87.2159 97.2476 87.2286C97.2507 87.2414 97.2567 87.2534 97.2653 87.2635C97.2738 87.2736 97.2847 87.2816 97.2969 87.2869C100.721 88.684 103.852 90.5707 106.687 92.947C106.692 92.9511 106.698 92.9541 106.704 92.9558C106.71 92.9575 106.716 92.9579 106.722 92.957C106.728 92.956 106.734 92.9538 106.739 92.9504C106.744 92.947 106.749 92.9425 106.752 92.9373ZM142.312 42.6521C142.413 42.4646 142.391 42.2927 142.248 42.1365L140.912 40.6853C140.901 40.674 140.888 40.6652 140.874 40.6598C140.859 40.6543 140.844 40.6522 140.828 40.6537C140.813 40.6552 140.798 40.6603 140.785 40.6685C140.771 40.6767 140.76 40.6878 140.752 40.7009L139.131 43.2947C139.116 43.3184 139.109 43.3463 139.112 43.3741C139.114 43.402 139.126 43.4282 139.145 43.449L140.738 45.1912C140.824 45.2836 140.897 45.2745 140.957 45.1638L142.312 42.6521ZM134.859 56.4138C136.236 54.1033 138.283 50.5037 140.107 46.7283C140.122 46.6991 140.127 46.6665 140.123 46.6343C140.119 46.6021 140.106 46.5717 140.086 46.5467L138.621 44.7302C138.56 44.6547 138.505 44.6593 138.457 44.7439C132.867 54.5506 126.76 64.0427 120.75 73.5955C116.508 80.3416 112.1 86.99 107.721 93.6502C107.708 93.6691 107.703 93.6915 107.705 93.7138C107.706 93.736 107.715 93.757 107.73 93.7732L109.752 95.9548C109.758 95.9612 109.765 95.9662 109.773 95.9694C109.781 95.9726 109.79 95.974 109.798 95.9734C109.807 95.9729 109.815 95.9704 109.822 95.9661C109.829 95.9619 109.835 95.956 109.84 95.949C112.492 91.9763 115.184 88.0095 117.76 83.9783C120.169 80.2101 122.576 76.4405 124.982 72.6697C126.834 69.7693 128.623 66.7478 130.473 63.8025C131.988 61.3865 133.393 58.8748 134.859 56.4138ZM73.8574 124.013C77.2051 125.402 80.3164 127.324 83.1894 129.469C83.2767 129.535 83.3522 129.523 83.416 129.433C83.7246 129.004 84.0345 128.548 84.3457 128.066C88.1321 122.191 91.9199 116.317 95.709 110.443C99.1953 105.041 102.576 99.5681 105.961 94.1111C105.978 94.084 105.984 94.0516 105.979 94.0201C105.974 93.9885 105.958 93.9598 105.934 93.9392C103.169 91.6345 100.111 89.8233 96.7597 88.5056C96.6347 88.4561 96.5364 88.4881 96.4648 88.6013L73.8379 123.955C73.8349 123.96 73.8331 123.966 73.8325 123.971C73.8318 123.977 73.8325 123.983 73.8343 123.989C73.8362 123.994 73.8392 123.999 73.8432 124.003C73.8472 124.008 73.852 124.011 73.8574 124.013ZM106.678 95.3826C101.989 102.965 97.2135 110.493 92.3516 117.967C89.6758 122.08 87.0742 126.25 84.3203 130.314C84.3121 130.326 84.3086 130.34 84.3104 130.355C84.3122 130.369 84.3192 130.382 84.3301 130.392L86.2598 132.187C86.2745 132.201 86.2921 132.211 86.3112 132.217C86.3303 132.224 86.3506 132.226 86.3706 132.224C86.3906 132.221 86.4098 132.215 86.4271 132.205C86.4444 132.194 86.4592 132.18 86.4707 132.164C86.7155 131.807 86.9642 131.433 87.2168 131.041C90.0592 126.618 92.9147 122.203 95.7832 117.797C97.6048 114.997 99.4329 112.202 101.268 109.412C101.898 108.452 102.6 107.355 103.373 106.121C105.209 103.193 107.113 100.363 108.93 97.3631C108.962 97.311 108.962 97.2595 108.928 97.2088C108.412 96.4041 107.808 95.6736 107.115 95.0173C107.037 94.9431 106.967 94.9496 106.904 95.0369C106.84 95.1254 106.765 95.2407 106.678 95.3826ZM75.3281 126.062C74.6927 125.748 74.028 125.511 73.334 125.349C73.2584 125.331 73.1979 125.355 73.1523 125.42L72.0058 127.053C71.9961 127.066 71.9898 127.082 71.9872 127.099C71.9846 127.116 71.9859 127.133 71.991 127.149C71.9961 127.166 72.0048 127.18 72.0166 127.193C72.0283 127.205 72.0426 127.215 72.0586 127.22C75.3555 128.4 78.4844 130.435 81.3555 132.445C81.3677 132.454 81.3816 132.46 81.3963 132.463C81.411 132.466 81.4261 132.465 81.4408 132.462C81.4554 132.459 81.4693 132.453 81.4815 132.444C81.4937 132.436 81.504 132.425 81.5117 132.412L82.5996 130.617C82.6093 130.602 82.6127 130.583 82.6091 130.565C82.6055 130.547 82.5951 130.53 82.5801 130.519C80.3066 128.811 77.8893 127.325 75.3281 126.062ZM71.7109 130.011C74.5781 131.119 77.4277 133.148 79.7637 134.89C79.8236 134.936 79.8737 134.927 79.914 134.863L80.6562 133.699C80.6731 133.673 80.6798 133.641 80.6751 133.61C80.6704 133.579 80.6547 133.551 80.6308 133.531C78.3418 131.574 75.2754 129.92 72.5762 128.795C72.1256 128.606 71.7702 128.719 71.5097 129.133L71.4512 129.226C71.2207 129.594 71.3073 129.855 71.7109 130.011ZM70.873 131.244C73.6836 132.474 76.2871 134.136 78.873 136.037C78.903 136.059 78.929 136.054 78.9512 136.023L78.9844 135.976C79.0013 135.952 79.0081 135.923 79.0033 135.894C78.9986 135.865 78.9826 135.839 78.959 135.822C77.2363 134.597 75.4648 133.436 73.6445 132.34C72.8203 131.842 71.9668 131.421 71.084 131.076C71.0522 131.064 71.0174 131.061 70.984 131.069C70.9506 131.077 70.9202 131.094 70.8965 131.119L70.8574 131.16C70.8515 131.166 70.8471 131.174 70.8447 131.182C70.8422 131.19 70.8417 131.199 70.8432 131.207C70.8448 131.215 70.8483 131.223 70.8535 131.229C70.8587 131.236 70.8654 131.241 70.873 131.244ZM84.3457 135.17C84.363 135.186 84.3838 135.198 84.4066 135.205C84.4293 135.211 84.4533 135.213 84.4766 135.208C84.4999 135.204 84.5219 135.195 84.5409 135.18C84.5599 135.166 84.5753 135.148 84.5859 135.127L85.4805 133.353C85.4947 133.325 85.4999 133.293 85.4953 133.262C85.4908 133.231 85.4767 133.202 85.4551 133.179L83.8594 131.521C83.8434 131.505 83.8239 131.492 83.8022 131.484C83.7806 131.476 83.7575 131.473 83.7345 131.475C83.7116 131.477 83.6895 131.485 83.6698 131.497C83.6502 131.509 83.6335 131.525 83.6211 131.545L82.5058 133.291C82.4868 133.321 82.4789 133.357 82.4835 133.392C82.4882 133.427 82.5051 133.46 82.5312 133.484L84.3457 135.17ZM71.0449 132.679C70.543 132.437 69.4844 131.888 69.1211 132.566C68.1172 134.432 67.0345 136.252 65.873 138.027C65.7519 138.212 65.5618 138.605 65.3027 139.205C65.2767 139.266 65.2936 139.312 65.3535 139.344C67.5879 140.508 69.765 141.77 71.8848 143.131C72.541 143.551 73.1673 144.01 73.7637 144.506C73.7679 144.509 73.7727 144.511 73.7778 144.512C73.7829 144.514 73.7882 144.514 73.7933 144.513C73.7984 144.513 73.8033 144.511 73.8076 144.508C73.8119 144.506 73.8155 144.502 73.8183 144.498L78.334 137.439C78.3593 137.399 78.3688 137.351 78.3605 137.305C78.3522 137.258 78.3267 137.216 78.2891 137.187C75.9805 135.398 73.5657 133.896 71.0449 132.679ZM82.2832 137.092C82.2961 137.104 82.3116 137.113 82.3286 137.118C82.3457 137.124 82.3637 137.125 82.3813 137.122C82.3989 137.119 82.4156 137.112 82.4301 137.102C82.4446 137.092 82.4565 137.078 82.4648 137.062L83.1211 135.847C83.133 135.825 83.1372 135.799 83.133 135.774C83.1287 135.749 83.1163 135.726 83.0976 135.709L81.8437 134.547C81.8317 134.536 81.8175 134.527 81.802 134.522C81.7865 134.517 81.7701 134.515 81.7538 134.517C81.7376 134.518 81.7219 134.523 81.7077 134.532C81.6936 134.54 81.6814 134.551 81.6719 134.564L80.9082 135.64C80.892 135.663 80.8844 135.691 80.887 135.718C80.8895 135.746 80.9019 135.772 80.9219 135.791L82.2832 137.092ZM80.7969 137.594C80.8841 137.666 80.9609 137.715 81.0273 137.74C81.1146 137.77 81.1263 137.752 81.0625 137.685L80.3691 136.955C80.3602 136.946 80.3484 136.942 80.336 136.941C80.3236 136.94 80.3115 136.944 80.3019 136.952C80.2923 136.959 80.2858 136.97 80.2838 136.981C80.2818 136.993 80.2844 137.005 80.291 137.015C80.4316 137.235 80.6002 137.428 80.7969 137.594ZM80.9492 139.535C80.9679 139.504 80.9758 139.469 80.9715 139.433C80.9673 139.398 80.9511 139.365 80.9258 139.34L79.6426 138.086C79.6258 138.069 79.6055 138.057 79.5833 138.049C79.5611 138.041 79.5374 138.039 79.514 138.041C79.4906 138.044 79.4681 138.052 79.4481 138.064C79.4281 138.077 79.4111 138.093 79.3984 138.113L74.8183 145.203C74.7978 145.235 74.7894 145.273 74.7948 145.311C74.8001 145.349 74.8189 145.383 74.8476 145.408L76.3047 146.679C76.3219 146.695 76.3422 146.706 76.3642 146.712C76.3862 146.719 76.4093 146.72 76.4319 146.717C76.4546 146.714 76.4763 146.705 76.4954 146.693C76.5146 146.68 76.5308 146.664 76.543 146.644L80.9492 139.535ZM72.9629 145.488C70.6308 143.658 68.0566 142.113 65.3926 140.818C65.3314 140.789 65.2618 140.782 65.1964 140.8C65.1311 140.817 65.0745 140.858 65.0371 140.914L64.3359 141.963C64.2461 142.097 64.2728 142.2 64.416 142.273C67.0736 143.642 69.5957 145.224 71.9824 147.021C72.0553 147.076 72.1152 147.064 72.1621 146.986L72.9883 145.627C73.0208 145.573 73.0124 145.527 72.9629 145.488ZM63.9336 143.424C63.875 143.395 63.8288 143.408 63.7949 143.463L62.5508 145.424C62.5367 145.446 62.5275 145.471 62.5239 145.498C62.5204 145.524 62.5224 145.551 62.53 145.576C62.5376 145.602 62.5505 145.626 62.5679 145.646C62.5853 145.666 62.6067 145.682 62.6308 145.693C65.1992 146.886 67.4277 148.373 69.7637 149.965C69.7902 149.983 69.8202 149.996 69.8517 150.002C69.8833 150.009 69.9159 150.009 69.9475 150.003C69.9792 149.997 70.0093 149.984 70.0361 149.966C70.0629 149.948 70.0858 149.925 70.1035 149.898L71.2051 148.232C71.2297 148.195 71.2394 148.149 71.2321 148.105C71.2249 148.061 71.2013 148.02 71.166 147.992C68.9303 146.19 66.5195 144.667 63.9336 143.424ZM74.7344 147.148C74.7433 147.132 74.746 147.113 74.7421 147.094C74.7381 147.076 74.7278 147.06 74.7129 147.049L74.0722 146.545C74.0635 146.538 74.0534 146.533 74.0427 146.53C74.0319 146.528 74.0207 146.527 74.0098 146.529C73.9989 146.531 73.9885 146.536 73.9794 146.542C73.9703 146.548 73.9627 146.557 73.957 146.566L73.1016 147.924C73.0907 147.941 73.0873 147.962 73.092 147.983C73.0968 148.003 73.1093 148.02 73.1269 148.031L73.9023 148.513C73.9112 148.519 73.9212 148.523 73.9316 148.524C73.942 148.526 73.9526 148.526 73.9628 148.523C73.9731 148.521 73.9827 148.516 73.9911 148.51C73.9995 148.503 74.0065 148.495 74.0117 148.486L74.7344 147.148ZM58.4277 153.787C58.4232 153.794 58.4203 153.802 58.419 153.811C58.4178 153.819 58.4183 153.828 58.4205 153.836C58.4227 153.844 58.4265 153.852 58.4318 153.858C58.4371 153.865 58.4437 153.871 58.4512 153.875L60.0976 154.781C60.1122 154.789 60.1291 154.79 60.1448 154.786C60.1606 154.781 60.1738 154.77 60.1816 154.756L63.834 147.906C63.838 147.899 63.8405 147.89 63.8413 147.882C63.8421 147.874 63.8412 147.865 63.8386 147.857C63.8361 147.849 63.8319 147.842 63.8264 147.835C63.8209 147.829 63.8142 147.824 63.8066 147.82L62.5742 147.213C62.5603 147.206 62.5445 147.205 62.5297 147.209C62.5149 147.213 62.5022 147.223 62.4941 147.236L58.4277 153.787ZM64.9687 148.476L61.2969 155.211C61.2712 155.258 61.265 155.314 61.2796 155.366C61.2942 155.418 61.3284 155.463 61.375 155.49C62.3776 156.071 63.3144 156.696 64.1855 157.367C64.6556 157.729 65.1439 158.029 65.6504 158.267C65.7164 158.299 65.7915 158.305 65.8619 158.285C65.9322 158.266 65.9931 158.221 66.0332 158.16L70.041 151.982C70.1374 151.835 70.112 151.713 69.9648 151.617L65.1113 148.439C65.0501 148.4 65.0026 148.413 64.9687 148.476ZM72.9376 149.652C72.948 149.636 72.9551 149.619 72.9586 149.6C72.9621 149.581 72.9619 149.562 72.958 149.543C72.954 149.525 72.9465 149.507 72.9358 149.492C72.9251 149.476 72.9114 149.463 72.8955 149.452L72.3457 149.094C72.3136 149.073 72.2745 149.066 72.237 149.073C72.1995 149.081 72.1666 149.104 72.1457 149.136L71.0428 150.828C71.0325 150.844 71.0253 150.861 71.0218 150.88C71.0184 150.899 71.0186 150.918 71.0225 150.937C71.0264 150.955 71.0339 150.973 71.0447 150.988C71.0554 151.004 71.0691 151.017 71.085 151.028L71.6347 151.386C71.6668 151.407 71.706 151.414 71.7435 151.407C71.781 151.399 71.8138 151.376 71.8347 151.344L72.9376 149.652ZM58.0605 159.332C58.5605 158.375 59.0846 157.403 59.6328 156.416C59.6751 156.339 59.6867 156.249 59.6653 156.164C59.644 156.079 59.5912 156.005 59.5176 155.957L58.5234 155.318C58.504 155.306 58.4814 155.299 58.4582 155.298C58.4351 155.298 58.4123 155.304 58.3925 155.316C58.3727 155.328 58.3567 155.346 58.3463 155.366C58.336 155.387 58.3317 155.41 58.334 155.433C58.4967 157.211 58.1445 158.871 57.2773 160.414C57.0638 160.795 57.1133 160.832 57.4258 160.525C57.6699 160.285 57.918 159.605 58.0605 159.332ZM59.8594 159.209C60.3867 158.64 60.8984 157.888 61.3574 157.283C61.4056 157.219 61.3952 157.166 61.3262 157.125L60.7383 156.777C60.7249 156.769 60.7102 156.765 60.6949 156.763C60.6796 156.761 60.6641 156.763 60.6494 156.767C60.6348 156.772 60.6212 156.779 60.6096 156.79C60.598 156.8 60.5886 156.812 60.582 156.826C59.8633 158.351 59.0605 159.83 58.1738 161.263C58.1595 161.287 58.164 161.306 58.1875 161.32L58.2597 161.369C58.2871 161.387 58.3105 161.383 58.3301 161.357C58.832 160.65 59.2754 159.834 59.8594 159.209ZM60.2578 161.22C61.248 159.98 62.3515 159.422 63.7988 158.826C63.9433 158.767 63.9499 158.696 63.8183 158.611L62.4746 157.752C62.4581 157.741 62.438 157.736 62.4184 157.74C62.3988 157.743 62.3812 157.754 62.3691 157.769L59.4922 161.574C59.4845 161.584 59.4798 161.596 59.4785 161.607C59.4212 161.921 59.4935 162.057 59.6953 162.015C59.7682 162.001 59.8294 161.959 59.8789 161.89C60.0351 161.677 60.1055 161.414 60.2578 161.22ZM47.6191 160.828L47.3633 160.752C47.3545 160.749 47.3451 160.75 47.337 160.755C47.329 160.759 47.323 160.766 47.3203 160.775L47.2695 160.943C47.2123 161.135 47.1594 161.327 47.1139 161.506C47.0684 161.686 47.0313 161.85 47.0046 161.989C46.9779 162.129 46.9622 162.241 46.9584 162.318C46.9546 162.396 46.9628 162.439 46.9824 162.443L47.0117 162.453C47.0308 162.459 47.061 162.427 47.1005 162.359C47.14 162.291 47.1881 162.189 47.242 162.058C47.2958 161.927 47.3545 161.769 47.4145 161.595C47.4745 161.42 47.5347 161.232 47.5918 161.041L47.6426 160.871C47.645 160.862 47.6439 160.853 47.6395 160.845C47.6352 160.837 47.6279 160.831 47.6191 160.828ZM57.6674 163.195C57.6715 163.126 57.644 163.059 57.5909 163.007C57.5379 162.955 57.4637 162.923 57.3845 162.918C57.3454 162.916 57.3062 162.92 57.2692 162.931C57.2322 162.942 57.1982 162.959 57.1691 162.982C57.14 163.004 57.1163 163.031 57.0994 163.062C57.0826 163.092 57.0728 163.126 57.0708 163.16C57.0667 163.229 57.0942 163.296 57.1473 163.348C57.2004 163.4 57.2746 163.432 57.3537 163.437C57.3929 163.439 57.4321 163.435 57.469 163.424C57.506 163.413 57.54 163.396 57.5692 163.373C57.5983 163.351 57.622 163.324 57.6388 163.293C57.6557 163.263 57.6654 163.229 57.6674 163.195Z" fill="#010101"/>
</svg>
