<svg width="30" height="30" viewBox="0 0 30 30" fill="none" xmlns="http://www.w3.org/2000/svg">
<path d="M30 15C30 18.9782 28.4197 22.7936 25.6066 25.6066C22.7936 28.4196 18.9783 30 15 30C11.0218 30 7.20645 28.4196 4.3934 25.6066C1.58035 22.7936 0 18.9782 0 15C0 11.0218 1.58035 7.20645 4.3934 4.3934C7.20645 1.58035 11.0218 0 15 0C18.9783 0 22.7936 1.58035 25.6066 4.3934C28.4197 7.20645 30 11.0218 30 15ZM28.2436 15C28.2436 11.4876 26.8483 8.11901 24.3646 5.63536C21.881 3.1517 18.5124 1.75639 15 1.75639C11.4876 1.75639 8.11902 3.1517 5.63536 5.63536C3.15171 8.11901 1.7564 11.4876 1.7564 15C1.7564 18.5124 3.15171 21.881 5.63536 24.3646C8.11902 26.8483 11.4876 28.2436 15 28.2436C18.5124 28.2436 21.881 26.8483 24.3646 24.3646C26.8483 21.881 28.2436 18.5124 28.2436 15Z" fill="#95B2FD"/>
<path d="M20.5061 17.9465L10.1462 19.8292C9.71221 19.908 9.42429 20.3238 9.50317 20.7579L9.50948 20.7926C9.58836 21.2267 10.0042 21.5146 10.4382 21.4357L20.7981 19.553C21.2321 19.4741 21.52 19.0583 21.4412 18.6243L21.4348 18.5895C21.356 18.1555 20.9402 17.8676 20.5061 17.9465Z" fill="#95B2FD"/>
</svg>
