<svg width="30" height="30" viewBox="0 0 30 30" fill="none" xmlns="http://www.w3.org/2000/svg">
<path d="M30 15C30 18.9782 28.4196 22.7936 25.6066 25.6066C22.7936 28.4196 18.9782 30 15 30C11.0218 30 7.20645 28.4196 4.3934 25.6066C1.58035 22.7936 0 18.9782 0 15C0 11.0218 1.58035 7.20645 4.3934 4.3934C7.20645 1.58035 11.0218 0 15 0C18.9782 0 22.7936 1.58035 25.6066 4.3934C28.4196 7.20645 30 11.0218 30 15ZM28.248 15C28.248 11.4864 26.8523 8.11672 24.3678 5.63223C21.8833 3.14775 18.5136 1.75199 15 1.75199C11.4864 1.75199 8.11672 3.14775 5.63223 5.63223C3.14775 8.11672 1.75199 11.4864 1.75199 15C1.75199 18.5136 3.14775 21.8833 5.63223 24.3678C8.11672 26.8523 11.4864 28.248 15 28.248C18.5136 28.248 21.8833 26.8523 24.3678 24.3678C26.8523 21.8833 28.248 18.5136 28.248 15Z" fill="#97E7E1"/>
<path d="M10.3133 14.0644C11.3541 14.0644 12.1977 13.2208 12.1977 12.18C12.1977 11.1393 11.3541 10.2957 10.3133 10.2957C9.27263 10.2957 8.42896 11.1393 8.42896 12.18C8.42896 13.2208 9.27263 14.0644 10.3133 14.0644Z" fill="#97E7E1"/>
<path d="M19.6823 14.0689C20.723 14.0689 21.5667 13.2252 21.5667 12.1845C21.5667 11.1438 20.723 10.3001 19.6823 10.3001C18.6416 10.3001 17.798 11.1438 17.798 12.1845C17.798 13.2252 18.6416 14.0689 19.6823 14.0689Z" fill="#97E7E1"/>
<path d="M9.92054 18.1509C12.639 21.7079 17.3875 21.5402 20.1059 18.12C20.1517 18.0618 20.2096 18.014 20.2758 17.9798C20.342 17.9455 20.415 17.9257 20.4898 17.9214C20.9929 17.8979 21.318 18.1362 21.4651 18.6364C21.5063 18.7805 21.4857 18.9129 21.4033 19.0335C18.2039 23.6231 11.7696 23.3936 8.55692 18.985C8.52401 18.9383 8.5021 18.885 8.49292 18.8292C8.48375 18.7733 8.48753 18.7164 8.50397 18.6628C8.67461 18.1097 9.03646 17.8729 9.58956 17.9523C9.65532 17.962 9.71844 17.9846 9.77526 18.0186C9.83207 18.0527 9.88144 18.0977 9.92054 18.1509Z" fill="#97E7E1"/>
</svg>
