<svg width="30" height="30" viewBox="0 0 30 30" fill="none" xmlns="http://www.w3.org/2000/svg">
<path d="M30 15C30 18.9782 28.4197 22.7936 25.6066 25.6066C22.7936 28.4196 18.9783 30 15 30C11.0218 30 7.20644 28.4196 4.3934 25.6066C1.58035 22.7936 0 18.9782 0 15C0 11.0218 1.58035 7.20645 4.3934 4.3934C7.20644 1.58035 11.0218 0 15 0C18.9783 0 22.7936 1.58035 25.6066 4.3934C28.4197 7.20645 30 11.0218 30 15ZM28.2436 15C28.2436 11.4876 26.8483 8.11901 24.3646 5.63536C21.881 3.1517 18.5124 1.75639 15 1.75639C11.4876 1.75639 8.11902 3.1517 5.63536 5.63536C3.1517 8.11901 1.7564 11.4876 1.7564 15C1.7564 18.5124 3.1517 21.881 5.63536 24.3646C8.11902 26.8483 11.4876 28.2436 15 28.2436C18.5124 28.2436 21.881 26.8483 24.3646 24.3646C26.8483 21.881 28.2436 18.5124 28.2436 15Z" fill="#BF9EED"/>
<path d="M19.9867 21.2092C17.1932 17.7405 12.5375 17.8508 9.76606 21.368C9.71857 21.4276 9.65916 21.4766 9.59165 21.5119C9.52413 21.5472 9.44999 21.568 9.37397 21.573C9.29794 21.578 9.22172 21.567 9.15017 21.5409C9.07862 21.5147 9.01333 21.4739 8.95847 21.421L8.49068 20.9665C8.36123 20.8429 8.34358 20.7046 8.43773 20.5516C11.24 15.9488 17.0829 16.2445 20.6663 19.4881C21.0723 19.8558 21.3033 20.228 21.3592 20.6046C21.3849 20.7734 21.3543 20.9459 21.2721 21.0956C21.1899 21.2452 21.0607 21.3636 20.9045 21.4324C20.7482 21.5013 20.5736 21.5167 20.4078 21.4764C20.2419 21.436 20.0939 21.3421 19.9867 21.2092Z" fill="#BF9EED"/>
</svg>
