<svg width="30" height="30" viewBox="0 0 30 30" fill="none" xmlns="http://www.w3.org/2000/svg">
<path d="M30 15C30 18.9782 28.4196 22.7936 25.6066 25.6066C22.7936 28.4196 18.9782 30 15 30C11.0218 30 7.20645 28.4196 4.3934 25.6066C1.58035 22.7936 0 18.9782 0 15C0 11.0218 1.58035 7.20645 4.3934 4.3934C7.20645 1.58035 11.0218 0 15 0C18.9782 0 22.7936 1.58035 25.6066 4.3934C28.4196 7.20645 30 11.0218 30 15ZM28.248 15C28.248 11.4864 26.8523 8.11672 24.3678 5.63223C21.8833 3.14775 18.5136 1.75199 15 1.75199C11.4864 1.75199 8.11672 3.14775 5.63223 5.63223C3.14775 8.11672 1.75197 11.4864 1.75197 15C1.75197 18.5136 3.14775 21.8833 5.63223 24.3678C8.11672 26.8523 11.4864 28.248 15 28.248C18.5136 28.248 21.8833 26.8523 24.3678 24.3678C26.8523 21.8833 28.248 18.5136 28.248 15Z" fill="#9BE2B1"/>
<path d="M10.3177 14.0644C11.3584 14.0644 12.2021 13.2208 12.2021 12.18C12.2021 11.1393 11.3584 10.2957 10.3177 10.2957C9.27702 10.2957 8.43335 11.1393 8.43335 12.18C8.43335 13.2208 9.27702 14.0644 10.3177 14.0644Z" fill="#9BE2B1"/>
<path d="M19.6823 14.0689C20.723 14.0689 21.5667 13.2252 21.5667 12.1845C21.5667 11.1438 20.723 10.3001 19.6823 10.3001C18.6416 10.3001 17.798 11.1438 17.798 12.1845C17.798 13.2252 18.6416 14.0689 19.6823 14.0689Z" fill="#9BE2B1"/>
<path d="M18.4422 22.4095C14.7309 24.744 10.5738 22.8685 8.60995 19.2807C8.2216 18.5702 8.58346 17.8067 9.3734 17.8067C13.1981 17.8185 16.9859 17.8214 20.737 17.8155C20.8784 17.8158 21.0175 17.851 21.1418 17.9181C21.2662 17.9852 21.3719 18.082 21.4494 18.1998C21.5269 18.3175 21.5737 18.4526 21.5857 18.5928C21.5977 18.7329 21.5745 18.8738 21.5182 19.0027C20.9268 20.3589 19.9015 21.4946 18.4422 22.4095Z" fill="#9BE2B1"/>
</svg>
