<svg width="102" height="100" viewBox="0 0 102 100" fill="none" xmlns="http://www.w3.org/2000/svg">
<path d="M58.1036 19.1329L62.1774 29.1468C62.2425 29.3063 62.3621 29.3935 62.5365 29.4083L66.5615 29.7053C74.7534 30.3614 82.9424 30.9347 91.1284 31.4252C92.4361 31.505 93.664 31.8508 93.6285 33.3048C93.6228 33.4556 93.5575 33.5988 93.4468 33.7037L90.2064 36.6649C83.5837 42.7733 76.8635 48.8375 70.0458 54.8573C69.5315 55.3095 69.3468 55.8163 69.4916 56.3778C71.1791 63.0625 73.4206 71.1554 76.2163 80.6565C76.3581 81.1441 76.5665 82.1282 76.8413 83.6088C76.865 83.7448 76.8487 83.8733 76.7925 83.9945C76.2192 85.2209 75.3785 85.4839 74.2702 84.7835C65.2922 79.1154 57.0457 74.1846 49.5305 69.9911C49.1138 69.7576 48.7311 69.6069 48.3824 69.5389C48.2287 69.5094 48.0854 69.536 47.9524 69.6187L27.2953 82.3321L22.3615 85.4573C22.2363 85.5372 22.086 85.5673 21.9404 85.5415C20.1096 85.2091 20.052 83.826 20.5042 82.2745C23.0752 73.4886 25.6241 64.6495 28.1508 55.7572C28.1881 55.6241 28.1875 55.4833 28.1491 55.3509C28.1107 55.2185 28.0361 55.0997 27.9336 55.008C20.2914 48.1194 12.525 41.3859 4.93599 34.444C4.38188 33.9342 3.85438 33.4511 4.08932 32.6664C4.31983 31.8863 5.15321 31.4474 5.99988 31.4075C15.4951 30.9376 24.9311 30.2638 34.3081 29.3861C34.4884 29.3685 34.6606 29.3034 34.807 29.1974C34.9535 29.0915 35.069 28.9485 35.1415 28.7833C37.1451 24.1938 39.0675 19.591 40.9086 14.9749C42.7527 10.347 44.7386 5.99396 46.689 1.51234C47.6731 -0.752849 49.6901 -0.291834 50.5722 1.69409C52.5788 6.20378 54.7672 11.4345 57.1373 17.3864C57.418 18.0927 57.7401 18.6749 58.1036 19.1329ZM64.1767 74.4151L71.38 78.7548C71.7642 78.9853 71.8972 78.8849 71.779 78.4534L65.3913 55.0701C65.3418 54.8889 65.3438 54.6976 65.3971 54.5175C65.4503 54.3374 65.5527 54.1757 65.6927 54.0505L86.8064 35.0159C86.8324 34.9918 86.8508 34.9606 86.8594 34.9261C86.8679 34.8917 86.8662 34.8555 86.8544 34.8221C86.8426 34.7886 86.8213 34.7593 86.7931 34.7378C86.7648 34.7163 86.7309 34.7036 86.6955 34.7011L81.9169 34.4529C75.0164 33.9446 68.2357 33.3195 61.5746 32.5778C59.664 32.365 59.0922 30.614 58.4139 29.1069C55.0272 21.5799 51.874 14.2376 48.9542 7.08C48.6114 6.24663 48.2716 6.24811 47.9347 7.08444C44.6544 15.1788 41.4287 23.0841 38.2577 30.8002C37.8351 31.8286 37.2678 32.3857 36.5555 32.4714C28.009 33.4998 19.4048 34.2135 10.743 34.6125C10.71 34.6135 10.6781 34.6245 10.6514 34.644C10.6247 34.6635 10.6046 34.6905 10.5936 34.7217C10.5825 34.7528 10.5812 34.7866 10.5897 34.8185C10.5981 34.8504 10.6161 34.879 10.6411 34.9006C17.6095 41.1465 25.1764 47.0776 31.604 53.8333C31.7714 54.009 31.89 54.2253 31.9483 54.4608C32.0066 54.6964 32.0025 54.943 31.9365 55.1765L25.0744 79.3577C25.0705 79.3755 25.0717 79.3942 25.0779 79.4115C25.0841 79.4287 25.0949 79.4437 25.1092 79.4546C25.1234 79.4655 25.1403 79.4718 25.1577 79.4727C25.1752 79.4736 25.1925 79.4691 25.2074 79.4596C32.5926 74.8495 40.0013 70.3915 47.4338 66.0857C48.2198 65.6306 49.0118 65.6203 49.8098 66.0547C53.9382 68.3007 57.9987 70.6634 61.9913 73.1428C62.9133 73.7161 63.6418 74.1402 64.1767 74.4151Z" fill="#2D395C"/>
<path d="M74.3369 1.97399L73.7048 2.4895C73.314 2.80825 73.2556 3.38348 73.5743 3.7743L74.3196 4.68807C74.6383 5.0789 75.2136 5.13733 75.6044 4.81858L76.2365 4.30307C76.6273 3.98432 76.6857 3.40909 76.367 3.01826L75.6217 2.1045C75.303 1.71367 74.7278 1.65524 74.3369 1.97399Z" fill="#D8D7D2"/>
<path d="M81.917 34.4529C81.4087 35.6822 80.896 36.5466 80.3788 37.0461C76.8281 40.5081 73.9999 43.2698 69.6734 47.3702C68.0481 48.9128 66.4759 50.5116 64.9569 52.1665C63.7999 53.4255 63.8886 54.8794 63.9418 56.493C64.1132 61.641 64.1915 67.615 64.1767 74.415C63.6418 74.1402 62.9134 73.7161 61.9913 73.1428C57.9988 70.6634 53.9383 68.3007 49.8098 66.0547C49.0119 65.6203 48.2199 65.6306 47.4338 66.0857C40.0014 70.3915 32.5926 74.8495 25.2075 79.4596C25.1926 79.469 25.1753 79.4736 25.1578 79.4727C25.1403 79.4718 25.1234 79.4655 25.1092 79.4546C25.095 79.4437 25.0841 79.4287 25.0779 79.4114C25.0718 79.3942 25.0706 79.3755 25.0745 79.3577L31.9366 55.1764C32.0026 54.943 32.0067 54.6963 31.9484 54.4608C31.8901 54.2253 31.7714 54.009 31.6041 53.8333C25.1764 47.0776 17.6096 41.1465 10.6411 34.9006C10.6161 34.879 10.5982 34.8504 10.5897 34.8185C10.5812 34.7865 10.5826 34.7528 10.5936 34.7217C10.6046 34.6905 10.6248 34.6634 10.6515 34.644C10.6781 34.6245 10.7101 34.6135 10.7431 34.6124C19.4049 34.2135 28.0091 33.4998 36.5556 32.4714C37.2678 32.3857 37.8352 31.8286 38.2578 30.8002C41.4288 23.0841 44.6544 15.1788 47.9347 7.08441C48.2716 6.24808 48.6115 6.2466 48.9543 7.07998C51.8741 14.2376 55.0273 21.5798 58.414 29.1068C59.0922 30.614 59.6641 32.365 61.5746 32.5778C68.2357 33.3195 75.0165 33.9446 81.917 34.4529ZM56.7694 52.1178C56.4901 50.8101 56.8714 49.8393 57.984 49.0059C59.797 47.645 62.8335 45.5173 63.5206 43.2964C63.5565 43.1808 63.5675 43.0589 63.553 42.9387C63.5384 42.8185 63.4987 42.7027 63.4364 42.5989C63.374 42.4952 63.2905 42.4057 63.1912 42.3365C63.0919 42.2672 62.9791 42.2197 62.8601 42.1971C60.1945 41.6888 57.5245 41.1997 54.85 40.7298C53.4758 40.4904 52.044 37.1569 51.5608 35.9113C50.9978 34.4484 50.1689 33.3225 49.4818 32.0059C49.4336 31.9132 49.3629 31.834 49.2761 31.7757C49.1894 31.7174 49.0894 31.6817 48.9853 31.672C48.8812 31.6623 48.7764 31.6789 48.6803 31.7202C48.5843 31.7615 48.5002 31.8262 48.4356 31.9084C47.4072 33.225 46.9595 34.8164 46.3212 35.9999C45.8897 36.7949 45.4582 37.6962 45.0268 38.704C44.0383 41.0002 42.6951 40.9115 40.5186 41.0667C38.5371 41.2041 36.6309 41.7405 34.7913 42.33C34.6619 42.3714 34.5434 42.4412 34.4446 42.5344C34.3457 42.6276 34.2691 42.7417 34.2202 42.8685C34.1713 42.9952 34.1514 43.1313 34.162 43.2667C34.1726 43.4022 34.2135 43.5335 34.2815 43.651C34.716 44.3928 35.2908 45.0814 36.0059 45.7167C37.6904 47.215 39.27 48.8153 40.7446 50.5175C41.1037 50.9298 41.1791 51.7055 40.9929 52.2153C40.2541 54.216 39.997 56.261 40.2216 58.3504C40.2515 58.6244 40.3794 58.8783 40.5815 59.065C40.7837 59.2517 41.0464 59.3584 41.3209 59.3655C44.251 59.4453 47.2343 55.2208 50.1733 56.3999C51.716 57.0176 53.4906 57.9307 55.4972 59.1394C56.4281 59.7024 57.2349 59.2813 57.2925 58.1819C57.393 56.2285 57.2186 54.2071 56.7694 52.1178Z" fill="#999999"/>
<path d="M84.9225 9.82831C87.4581 10.6085 96.3726 6.19337 91.4078 13.8666C91.3622 13.9378 91.3463 14.0252 91.3635 14.1104L92.0594 17.5725C92.2722 18.6216 91.8526 19.0427 90.8005 18.8359C89.3111 18.5389 87.7862 18.3261 86.3854 19.1861C85.3437 19.8244 83.739 21.2074 82.5199 20.2411C82.0944 19.9012 81.954 19.3501 82.0988 18.5876C82.4387 16.779 82.5938 14.9423 82.5643 13.0776C82.5614 12.919 82.5201 12.7632 82.4437 12.6235C82.3673 12.4838 82.2581 12.3643 82.1254 12.2752C81.23 11.6724 79.6563 10.4312 80.1794 9.15895C80.8842 7.44787 83.0253 7.88228 83.9828 9.06142C84.3285 9.48698 84.6418 9.7426 84.9225 9.82831Z" fill="#FCD895"/>
<path d="M28.078 8.88227L25.8774 11.0448C25.6487 11.2696 25.6455 11.6372 25.8703 11.866L28.0141 14.0476C28.2389 14.2763 28.6066 14.2795 28.8353 14.0547L31.0359 11.8922C31.2647 11.6675 31.2679 11.2998 31.0431 11.071L28.8992 8.88944C28.6744 8.66069 28.3068 8.65748 28.078 8.88227Z" fill="#FEBEC2"/>
<path d="M15.9606 15.2764C15.2218 17.5371 13.7796 19.0192 11.6341 19.7225C9.564 19.953 7.27222 19.8112 6.07092 17.9405C4.44406 15.4049 7.63129 13.9376 9.42659 16.3048C9.51468 16.4244 9.64437 16.5066 9.79009 16.5353C11.0712 16.8057 12.4764 15.662 12.4099 14.3854C12.2813 12.0182 9.07198 12.9713 8.74395 11.0607C8.61096 10.2628 9.20052 9.56685 9.94967 9.29201C13.5669 7.95329 16.1823 12.1335 15.9606 15.2764Z" fill="#2D395C"/>
<path d="M66.6015 14.9305C67.9847 14.9305 69.106 13.8092 69.106 12.4259C69.106 11.0427 67.9847 9.92139 66.6015 9.92139C65.2182 9.92139 64.0969 11.0427 64.0969 12.4259C64.0969 13.8092 65.2182 14.9305 66.6015 14.9305Z" fill="#2D395C"/>
<path d="M71.5619 14.7267C69.9439 14.1992 69.2745 11.8675 70.3074 10.5776C70.73 10.0515 71.1866 10.0205 71.6771 10.4845L73.6232 12.3197C73.6806 12.3735 73.719 12.4446 73.7326 12.5221C73.7462 12.5997 73.7342 12.6795 73.6985 12.7497C73.2996 13.5269 72.7381 14.1638 72.014 14.6602C71.949 14.7044 71.8747 14.7333 71.7964 14.7449C71.7181 14.7564 71.638 14.7502 71.5619 14.7267Z" fill="#FCD895"/>
<path d="M15.9606 15.2764C16.4039 18.137 15.1332 19.9648 12.1484 20.7598C12.0965 20.7746 12.0413 20.7732 11.9902 20.7559C11.939 20.7386 11.8944 20.7061 11.8622 20.6628C11.83 20.6195 11.8117 20.5675 11.8097 20.5135C11.8078 20.4596 11.8223 20.4063 11.8514 20.3609C11.878 20.3136 11.9075 20.2397 11.94 20.1392C11.9666 20.0506 11.9637 19.9781 11.9311 19.922C11.875 19.8304 11.776 19.7639 11.6342 19.7225C13.7797 19.0192 15.2218 17.5371 15.9606 15.2764Z" fill="#D8D7D2"/>
<path d="M58.1036 19.1329C61.7474 21.9552 64.5667 25.4793 66.5615 29.7053L62.5365 29.4083C62.3621 29.3935 62.2424 29.3063 62.1774 29.1468L58.1036 19.1329Z" fill="#E1D5CD"/>
<path d="M56.7694 52.1178C57.2186 54.2071 57.3929 56.2285 57.2925 58.1819C57.2348 59.2813 56.4281 59.7024 55.4972 59.1394C53.4906 57.9307 51.7159 57.0176 50.1733 56.3999C47.2343 55.2208 44.251 59.4453 41.3209 59.3655C41.0464 59.3584 40.7837 59.2517 40.5815 59.065C40.3794 58.8783 40.2514 58.6244 40.2215 58.3504C39.9969 56.261 40.2541 54.216 40.9929 52.2153C41.1791 51.7055 41.1037 50.9298 40.7446 50.5175C39.2699 48.8153 37.6904 47.215 36.0059 45.7167C35.2907 45.0814 34.7159 44.3928 34.2815 43.651C34.2134 43.5335 34.1726 43.4022 34.162 43.2667C34.1513 43.1313 34.1712 42.9952 34.2201 42.8685C34.269 42.7417 34.3457 42.6276 34.4446 42.5344C34.5434 42.4412 34.6619 42.3714 34.7913 42.33C36.6309 41.7405 38.5371 41.2041 40.5186 41.0667C42.6951 40.9115 44.0382 41.0002 45.0268 38.704C45.4582 37.6962 45.8897 36.7949 46.3211 35.9999C46.9595 34.8164 47.4072 33.225 48.4356 31.9084C48.5002 31.8262 48.5843 31.7615 48.6803 31.7202C48.7763 31.6789 48.8812 31.6623 48.9853 31.672C49.0893 31.6817 49.1894 31.7174 49.2761 31.7757C49.3628 31.834 49.4335 31.9132 49.4818 32.0059C50.1689 33.3225 50.9978 34.4484 51.5608 35.9113C52.044 37.1569 53.4758 40.4904 54.85 40.7298C57.5244 41.1997 60.1945 41.6888 62.8601 42.1971C62.979 42.2197 63.0919 42.2672 63.1912 42.3365C63.2904 42.4057 63.374 42.4952 63.4364 42.5989C63.4987 42.7027 63.5384 42.8185 63.5529 42.9387C63.5675 43.0589 63.5564 43.1808 63.5206 43.2964C62.8335 45.5173 59.797 47.645 57.984 49.0059C56.8713 49.8393 56.4901 50.8101 56.7694 52.1178Z" fill="white"/>
<path d="M81.917 34.4529L86.6956 34.7011C86.731 34.7036 86.7649 34.7163 86.7931 34.7378C86.8214 34.7593 86.8427 34.7886 86.8545 34.8221C86.8663 34.8555 86.868 34.8917 86.8595 34.9261C86.8509 34.9606 86.8325 34.9918 86.8065 35.0159L65.6928 54.0505C65.5528 54.1757 65.4504 54.3374 65.3972 54.5175C65.3439 54.6976 65.3419 54.8889 65.3913 55.0701L71.7791 78.4534C71.8973 78.8849 71.7643 78.9853 71.3801 78.7548L64.1767 74.4151C64.1915 67.6151 64.1132 61.6411 63.9418 56.493C63.8886 54.8795 63.8 53.4255 64.9569 52.1666C66.4759 50.5116 68.0481 48.9129 69.6735 47.3702C73.9999 43.2698 76.8281 40.5082 80.3788 37.0461C80.896 36.5467 81.4087 35.6823 81.917 34.4529Z" fill="black"/>
<path d="M90.2063 36.6649C90.6319 36.7684 91.0722 36.8142 91.5274 36.8023C92.0682 36.7905 92.4981 36.823 92.8173 36.8999C94.7988 37.3697 101.014 38.7971 101.829 40.2422C101.9 40.3663 101.924 40.4993 101.9 40.6412C101.791 41.2352 101.575 41.6785 101.253 41.971C98.0259 44.91 94.0407 47.8933 90.4767 51.1648C87.3117 54.0727 83.8925 56.994 80.2191 59.9285C79.8586 60.2181 79.5793 60.589 79.3813 61.0412C79.3222 61.1801 79.3133 61.3234 79.3547 61.4712C82.7503 72.8547 85.3923 84.4333 88.3091 95.941C88.5455 96.8719 88.7213 97.9698 88.8366 99.2347C88.8522 99.4093 88.801 99.5833 88.6931 99.7216C88.5853 99.8598 88.4291 99.952 88.2559 99.9794C87.7683 100.056 87.2452 99.9188 86.6867 99.5671C79.7359 95.152 72.6848 90.9053 65.5331 86.8271C61.2022 84.358 56.8137 81.4766 52.3985 78.8745C51.645 78.4313 51.0509 78.3293 50.2264 78.7815C42.3093 83.1523 34.5164 87.727 26.5904 92.0889C25.3182 92.7893 24.5292 92.0712 24.906 90.7369C25.5207 88.5411 26.0792 86.3321 26.5816 84.1097C26.6141 83.9649 26.6806 83.8379 26.7811 83.7285C27.2421 83.2143 27.4135 82.7489 27.2953 82.3322L47.9524 69.6187C48.0854 69.536 48.2287 69.5094 48.3824 69.539C48.7311 69.6069 49.1138 69.7577 49.5305 69.9911C57.0456 74.1846 65.2922 79.1154 74.2702 84.7836C75.3784 85.4839 76.2192 85.2209 76.7925 83.9945C76.8487 83.8733 76.8649 83.7448 76.8413 83.6088C76.5665 82.1283 76.3581 81.1442 76.2163 80.6566C73.4206 71.1555 71.1791 63.0626 69.4916 56.3778C69.3468 55.8163 69.5315 55.3095 70.0457 54.8573C76.8635 48.8375 83.5837 42.7734 90.2063 36.6649Z" fill="#E7E7E7"/>
<path d="M2.61324 57.0205C4.00626 57.0205 5.13553 55.8913 5.13553 54.4982C5.13553 53.1052 4.00626 51.976 2.61324 51.976C1.22021 51.976 0.0909424 53.1052 0.0909424 54.4982C0.0909424 55.8913 1.22021 57.0205 2.61324 57.0205Z" fill="#2D395C"/>
<path d="M91.4609 61.316C92.6179 61.1697 92.4849 60.1103 93.1986 59.8354C93.5178 59.7143 93.8827 59.8103 94.2935 60.1236C98.8062 63.5945 88.8633 67.4422 86.4208 61.4889C85.8947 60.2063 85.8874 58.909 86.3986 57.5968C87.1699 55.6065 89.9715 53.3723 92.2721 53.9176C93.2119 54.1392 93.8192 54.8012 94.094 55.9035C94.12 56.0097 94.1233 56.1201 94.1038 56.2276C94.0843 56.3351 94.0424 56.4372 93.9809 56.5272C93.9194 56.6172 93.8396 56.6931 93.7468 56.7498C93.654 56.8066 93.5502 56.8429 93.4424 56.8565C92.0062 57.0427 89.2755 57.5924 89.4484 59.5827C89.5666 60.8919 90.2375 61.4697 91.4609 61.316Z" fill="#2D395C"/>
<path d="M14.0411 70.0841C15.4414 70.0841 16.5767 68.9489 16.5767 67.5485C16.5767 66.1482 15.4414 65.0129 14.0411 65.0129C12.6407 65.0129 11.5055 66.1482 11.5055 67.5485C11.5055 68.9489 12.6407 70.0841 14.0411 70.0841Z" fill="#FEBEC2"/>
<path d="M49.9887 92.0997C51.5053 91.6961 52.4223 90.1953 52.0371 88.7473C51.6518 87.2994 50.1101 86.4528 48.5936 86.8563C47.077 87.2598 46.16 88.7607 46.5452 90.2086C46.9305 91.6565 48.4722 92.5032 49.9887 92.0997Z" fill="#FEBEC2"/>
</svg>
