<svg width="30" height="30" viewBox="0 0 30 30" fill="none" xmlns="http://www.w3.org/2000/svg">
<path d="M30 15C30 18.9782 28.4196 22.7936 25.6066 25.6066C22.7936 28.4196 18.9782 30 15 30C11.0218 30 7.20645 28.4196 4.3934 25.6066C1.58035 22.7936 0 18.9782 0 15C0 11.0218 1.58035 7.20645 4.3934 4.3934C7.20645 1.58035 11.0218 0 15 0C18.9782 0 22.7936 1.58035 25.6066 4.3934C28.4196 7.20645 30 11.0218 30 15ZM28.248 15C28.248 11.4864 26.8523 8.11672 24.3678 5.63223C21.8833 3.14775 18.5136 1.75199 15 1.75199C11.4864 1.75199 8.11672 3.14775 5.63223 5.63223C3.14775 8.11672 1.75199 11.4864 1.75199 15C1.75199 18.5136 3.14775 21.8833 5.63223 24.3678C8.11672 26.8523 11.4864 28.248 15 28.248C18.5136 28.248 21.8833 26.8523 24.3678 24.3678C26.8523 21.8833 28.248 18.5136 28.248 15Z" fill="#96D4FD"/>
<path d="M20.8561 20.6355C17.2786 21.5269 13.6717 21.5975 10.0353 20.8473C9.33803 20.7061 8.75109 20.6796 8.64958 19.7793C8.63726 19.6774 8.64965 19.574 8.6857 19.4778C8.72176 19.3816 8.78044 19.2954 8.85686 19.2263C8.93329 19.1572 9.02524 19.1073 9.12506 19.0807C9.22488 19.0541 9.32967 19.0515 9.43071 19.0733C13.1612 19.9 16.8932 19.9206 20.6266 19.135C20.784 19.1017 20.9478 19.1193 21.0946 19.1851C21.2413 19.2509 21.3633 19.3617 21.4431 19.5013C21.6343 19.8426 21.6461 20.1192 21.4784 20.331C21.3783 20.4575 21.1709 20.559 20.8561 20.6355Z" fill="#96D4FD"/>
</svg>
