<svg width="100" height="100" viewBox="0 0 100 100" fill="none" xmlns="http://www.w3.org/2000/svg">
<path fill-rule="evenodd" clip-rule="evenodd" d="M50 95.0979C74.907 95.0979 95.098 74.9069 95.098 49.9999C95.098 25.0929 74.907 4.90186 50 4.90186C25.093 4.90186 4.90196 25.0929 4.90196 49.9999C4.90196 74.9069 25.093 95.0979 50 95.0979ZM50 93.1373C73.8241 93.1373 93.1373 73.8241 93.1373 50C93.1373 26.176 73.8241 6.86275 50 6.86275C26.176 6.86275 6.86276 26.176 6.86276 50C6.86276 73.8241 26.176 93.1373 50 93.1373Z" fill="black"/>
<path fill-rule="evenodd" clip-rule="evenodd" d="M50 100C77.6142 100 100 77.6142 100 50C100 22.3858 77.6142 0 50 0C22.3858 0 0 22.3858 0 50C0 77.6142 22.3858 100 50 100ZM50 98.0392C76.5313 98.0392 98.0392 76.5313 98.0392 50C98.0392 23.4687 76.5313 1.96078 50 1.96078C23.4687 1.96078 1.96078 23.4687 1.96078 50C1.96078 76.5313 23.4687 98.0392 50 98.0392Z" fill="black"/>
<path d="M60.0053 30.0233L59.7292 30.0322C59.7187 30.0327 59.7135 30.0381 59.7135 30.0486V30.0962C59.7135 30.1071 59.7192 30.1131 59.7307 30.114C60.2412 30.1542 60.75 30.1714 61.257 30.1654C61.4446 30.1632 61.6284 30.2086 61.8174 30.2301C62.1635 30.2703 62.5817 30.3663 62.8943 30.51C63.39 30.7377 63.7256 30.9133 63.9012 31.0369C64.4986 31.4581 64.9528 31.9949 65.2639 32.6474C65.3001 32.7233 65.3408 32.8394 65.3859 32.9956C65.4207 33.1142 65.4626 33.2306 65.5117 33.3447C65.5455 33.4226 65.5683 33.5201 65.5802 33.6372C65.6114 33.9334 65.7722 34.0829 65.898 34.2936C65.9501 34.3809 66.0034 34.4675 66.058 34.5533C66.0664 34.5667 66.0766 34.5766 66.0885 34.5831C66.1068 34.5935 66.1212 34.6079 66.1316 34.6262C66.1803 34.715 66.2358 34.7989 66.2984 34.8778C66.4264 35.0393 66.5105 35.1903 66.6251 35.3444C66.8267 35.616 66.9495 36.003 67.0359 36.3268C67.0686 36.451 67.0619 36.5887 67.0805 36.7212C67.1326 37.1067 67.181 37.4927 67.2256 37.8792C67.2376 37.9797 67.1795 38.1144 67.3313 38.1627C67.3452 38.1672 67.3522 38.1764 67.3522 38.1903C67.3527 38.1992 67.3536 38.2069 67.3551 38.2133C67.3725 38.2714 67.3792 38.2674 67.3752 38.2014C67.3718 38.1478 67.3817 38.1059 67.405 38.0757C67.4144 40.0726 67.4112 42.8089 67.3953 46.2843C67.378 49.9856 67.3859 54.8602 67.4191 60.9082C67.4348 63.7414 67.4087 66.5769 67.411 69.4108C67.4117 70.2771 67.0426 71.2036 66.6035 71.9315C66.4435 72.1972 66.2187 72.4651 66.0208 72.7315C65.8273 72.993 65.5526 73.2351 65.1969 73.4579C64.3401 73.9932 63.4021 74.2676 62.383 74.281C55.6814 74.3666 48.976 74.3115 42.2877 74.3107C42.1032 74.3107 42.0104 74.403 42.0094 74.5876C41.9995 76.1916 42.0005 77.8026 42.0124 79.4205C42.0154 79.9303 41.5294 80.2228 41.1521 79.7904C40.8722 79.4709 40.5862 79.1561 40.294 78.846C40.3153 78.8505 40.3339 78.8519 40.3498 78.8505C40.3579 78.8497 40.3656 78.8467 40.3722 78.8418C40.3787 78.837 40.3837 78.8304 40.3867 78.8229C40.3897 78.8154 40.3906 78.8073 40.3892 78.7994C40.3878 78.7915 40.3842 78.7842 40.3788 78.7783L39.8378 78.1695C39.8183 78.1475 39.7944 78.1298 39.7676 78.1175C39.7408 78.1053 39.7118 78.0988 39.6825 78.0984C39.6531 78.0981 39.624 78.1039 39.597 78.1155C39.5701 78.1271 39.5459 78.1442 39.526 78.1658C39.269 78.4431 39.0082 78.7162 38.7438 78.9852C38.6351 79.0958 38.525 79.229 38.4134 79.3848C38.2184 79.6564 37.9713 79.9943 37.6379 79.7688C37.618 79.7554 37.6054 79.7371 37.5999 79.7137C37.5597 79.5455 37.5114 79.3803 37.5121 79.204C37.5146 78.0489 37.5094 76.8944 37.4965 75.7404C37.4943 75.5915 37.5069 75.3846 37.498 75.2083C37.4823 74.9143 37.5173 74.6241 37.4756 74.3338C37.4719 74.3073 37.4607 74.2824 37.4435 74.262C37.4262 74.2416 37.4036 74.2265 37.3782 74.2185C37.0239 74.1068 36.6898 74.1954 36.3675 74.1582C35.9259 74.1081 35.4876 74.0359 35.0525 73.9416C34.8813 73.9044 34.7178 73.8463 34.562 73.7675C34.2964 73.632 34.0537 73.4765 33.829 73.2778C33.8255 73.2748 33.8216 73.2731 33.8171 73.2726C33.8106 73.2721 33.8044 73.2716 33.7985 73.2711C33.7975 73.2711 33.7967 73.2708 33.7962 73.2703C33.6325 73.1116 33.471 72.9511 33.3118 72.7888C33.2626 72.7387 33.2239 72.704 33.1957 72.6846C33.1758 72.6707 33.1602 72.6531 33.1488 72.6318C33.1255 72.5881 33.0927 72.5519 33.0505 72.5231C33.0317 72.5102 33.0168 72.4939 33.0059 72.474C32.9885 72.4428 32.9731 72.4232 32.9598 72.4152C32.9196 72.3909 32.8997 72.3574 32.9002 72.3148C32.9002 72.2904 32.8938 72.2676 32.8809 72.2463C32.8332 72.1674 32.7685 72.1064 32.7305 72.026C32.5809 71.7067 32.2937 71.2423 32.2766 70.9365C32.2542 70.5279 32.1984 70.1163 32.1984 69.7197C32.1984 69.4721 32.1977 69.2245 32.1962 68.9769C32.194 68.5676 32.1463 68.1025 32.1381 67.6619C32.1366 67.5716 32.1128 67.4883 32.0667 67.4119C32.0528 67.3895 32.0444 67.3915 32.0414 67.4178C32.0379 67.4436 32.03 67.458 32.0176 67.461C32.0067 65.5617 32.001 63.6628 32.0005 61.764C31.9985 53.3732 32.0029 44.9822 32.0139 36.5909C32.0153 35.6971 32.0086 34.9031 32.2312 34.0055C32.5378 32.7694 33.4725 31.5444 34.5509 30.8784C35.8391 30.082 37.0693 29.9979 38.5503 30.0002C47.078 30.0121 53.8055 30.0121 58.7327 30.0002C59.2814 29.9987 59.7056 30.0064 60.0053 30.0233ZM60.39 30.9959C60.2987 30.9984 60.2005 30.9997 60.0953 30.9997C52.5587 31.025 45.0198 31.0198 37.4831 30.9945C37.3834 30.994 37.2767 31.0011 37.1631 31.016C36.8966 31.051 36.6042 31.0659 36.3697 31.1239C35.2333 31.4053 34.3365 32.0803 33.6474 33.0165C33.183 33.6468 32.9173 34.7825 32.9255 35.549C32.9399 36.8762 32.9471 38.2034 32.9471 39.5306C32.9456 47.1399 32.9394 54.7495 32.9285 62.3594C32.9265 63.7283 32.927 65.0981 32.93 66.4689L32.9166 66.178C32.9164 66.1718 32.914 66.166 32.9099 66.1616C32.9058 66.1572 32.9002 66.1545 32.8943 66.1541L32.8704 66.1519C32.864 66.1514 32.8605 66.1544 32.86 66.1608C32.8079 66.7071 32.8161 67.2623 32.7983 67.8108C32.7938 67.9457 32.858 68.0224 32.991 68.0407C33.0145 68.0441 33.0381 68.0385 33.0572 68.0251C33.1912 67.9284 33.309 67.8152 33.4107 67.6857C33.5462 67.5123 33.6995 67.4104 33.8528 67.2682C34.2592 66.8902 34.6819 66.6691 35.2199 66.463C35.4268 66.3836 35.6136 66.336 35.7803 66.3201C36.0095 66.2985 36.3363 66.1326 36.3645 65.8847C36.3983 65.599 36.4109 65.1569 36.4025 64.5585C36.3995 64.3591 36.3459 64.1053 36.3653 63.8739C36.3663 63.8607 36.3637 63.8475 36.3575 63.8357C36.3514 63.824 36.342 63.8143 36.3306 63.8077C36.3191 63.801 36.306 63.7978 36.2928 63.7983C36.2796 63.7988 36.2668 63.8031 36.2559 63.8106C36.2509 63.8141 36.2442 63.8275 36.2358 63.8508C36.2259 63.762 36.2211 63.7052 36.2216 63.6804C36.244 56.6475 36.243 49.6147 36.2187 42.5819C36.2164 41.8079 37.1504 41.8049 37.1586 42.4144C37.1834 44.335 37.1884 47.194 37.1735 50.9915C37.1549 55.8594 37.1906 60.7288 37.1348 65.5967C37.1311 65.9793 37.3558 66.0849 37.7116 66.0864C38.7862 66.0899 39.8594 66.0896 40.931 66.0857C41.1027 66.0852 41.2702 66.0899 41.4334 66.0998C41.5212 66.1812 41.6269 66.2219 41.7504 66.2219C43.4661 66.2189 45.1817 66.2196 46.8974 66.2241C47.05 66.2248 47.2502 66.1921 47.4303 66.2033C47.4536 66.2048 47.4727 66.2147 47.4876 66.233C47.5345 66.2903 47.5903 66.329 47.6223 66.3886C47.8068 66.7287 47.5397 66.9162 47.2249 66.8917C46.8446 66.8619 46.4665 66.8708 46.0855 66.8708C45.8027 66.8708 45.4053 66.8172 45.0436 66.8433C44.7538 66.8641 44.4189 66.8621 44.0389 66.8373C43.7888 66.8205 43.3755 66.8187 42.799 66.8321C41.9171 66.853 40.9965 66.8455 40.0945 66.8805C39.7577 66.8939 39.1665 66.8966 38.3211 66.8887C38.1849 66.8872 38.0189 66.9207 37.8991 66.9185C37.392 66.9095 36.8852 66.9145 36.3787 66.9333C36.1242 66.9433 35.8897 66.9825 35.6754 67.0509C35.3742 67.1477 35.0803 67.2628 34.7935 67.3962C34.5114 67.528 34.2629 67.7416 33.9912 67.9187C33.7883 68.0507 33.6045 68.2553 33.4398 68.5327C33.3847 68.6264 33.2887 68.7202 33.2485 68.8475C33.2426 68.8663 33.2331 68.8685 33.2202 68.8542C33.2118 68.8447 33.2091 68.8296 33.212 68.8088C33.2122 68.8077 33.2121 68.8065 33.2116 68.8055C33.2111 68.8045 33.2102 68.8037 33.2092 68.8032C33.2082 68.8027 33.2071 68.8025 33.206 68.8027C33.2049 68.8029 33.2039 68.8035 33.2031 68.8043C33.1986 68.8097 33.1939 68.8155 33.189 68.8214C33.1795 68.8328 33.1733 68.8457 33.1704 68.8601L33.0982 69.2307C33.0927 69.257 33.0808 69.2796 33.0625 69.2985C33.0158 69.3466 32.9915 69.4017 32.9895 69.4637C32.989 69.4855 32.9826 69.5053 32.9702 69.5232C32.9024 69.6222 32.9441 69.707 32.9225 69.8038C32.901 69.902 32.8652 69.9861 32.863 70.0843C32.8496 70.7139 33.0104 71.4775 33.4881 71.9263C33.5065 71.9436 33.5286 71.9528 33.5544 71.9538C33.7345 71.9605 33.7322 71.8221 33.701 71.6859C33.605 71.2654 33.5447 70.9476 33.6757 70.4713C33.7705 70.1265 33.8481 69.9124 33.9086 69.8291C34.0386 69.648 34.1654 69.4654 34.2889 69.2813C34.3961 69.1221 34.6265 68.9432 34.9803 68.7448C35.3097 68.5602 35.6546 68.426 36.0148 68.3421C36.2648 68.2836 36.63 68.2573 37.1102 68.2633C37.9472 68.2727 38.7842 68.2677 39.6212 68.2484C39.7142 68.2461 39.8006 68.2208 39.8958 68.2119C39.9177 68.2099 39.9325 68.1985 39.9405 68.1777C39.9435 68.1687 39.9484 68.1613 39.9554 68.1553C39.9668 68.1449 39.9636 68.1385 39.9457 68.136C39.9318 68.134 39.9246 68.1258 39.9241 68.1114L59.3675 68.1233L59.1085 68.1672C59.0877 68.1707 59.077 68.1831 59.0765 68.2045V68.2245C59.0765 68.236 59.0822 68.2422 59.0936 68.2432C59.2945 68.2573 59.4441 68.2566 59.654 68.1978C60.1087 68.0712 60.5344 68.0154 61.0323 67.7758C61.2027 67.6932 61.3657 67.5682 61.5369 67.4669C61.6798 67.3831 61.7978 67.2965 61.8911 67.2072C62.2101 66.9016 62.4083 66.684 62.4857 66.5545C62.6629 66.2593 62.8358 65.9611 63.0045 65.66C63.1007 65.4883 63.1553 65.3052 63.1682 65.1108C63.1697 65.0864 63.1756 65.0634 63.186 65.0415C63.1985 65.0138 63.2061 64.9756 63.2091 64.9269C63.2692 63.9788 63.3014 63.1046 63.3059 62.3043C63.3126 61.1433 63.227 59.7145 63.2672 58.5646C63.2766 58.2863 63.2825 58.0077 63.285 57.7289C63.2925 56.879 63.286 56.0254 63.2657 55.168C63.2627 55.0415 63.2307 54.8473 63.2478 54.685C63.2587 54.5818 63.2577 54.4772 63.2448 54.371C63.2319 54.2608 63.227 54.1204 63.23 53.9498C63.2453 53.0036 63.2436 51.3601 63.2247 49.0193C63.2099 47.2005 63.2404 45.3801 63.2456 43.5613C63.2478 42.5826 63.2597 41.5273 63.2813 40.6224C63.32 38.9814 63.3661 37.3582 63.2806 35.7187C63.2706 35.5237 63.2687 35.3288 63.2746 35.1338C63.288 34.6739 63.2999 34.0487 63.2091 33.6126C63.1287 33.2281 62.9854 32.8711 62.779 32.5417C62.3503 31.8585 61.3032 30.7645 60.39 30.9959ZM58.4789 69.0856C56.1837 69.0968 53.8878 69.1429 51.5927 69.1496C47.6275 69.1608 43.6526 69.2077 39.6942 69.1228C39.4064 68.9998 39.0938 68.9435 38.7564 68.9539C38.7096 68.9554 38.6433 68.9851 38.5816 68.9688C38.5562 68.9623 38.5307 68.9591 38.5049 68.9591L37.3871 68.965C37.3648 68.965 37.3469 68.9564 37.3335 68.939C37.3166 68.9167 37.2941 68.9097 37.2658 68.9182C37.24 68.9261 37.2172 68.9358 37.1973 68.9472C37.1819 68.9556 37.1616 68.9588 37.1363 68.9569C36.9621 68.9425 36.7575 68.9482 36.5223 68.974C36.5064 68.976 36.4945 68.9814 36.4866 68.9903C36.4762 69.0018 36.4635 69.0087 36.4486 69.0112L35.7401 69.1317C35.7347 69.1327 35.7317 69.136 35.7312 69.1414C35.7312 69.1479 35.7312 69.1541 35.7312 69.16C35.7312 69.1625 35.7302 69.1642 35.7282 69.1652C35.214 69.4123 34.9595 69.556 34.6573 69.9548C34.2859 70.4445 34.1713 70.9603 34.3552 71.5638C34.4958 72.0238 34.6603 72.1838 34.888 72.5135C34.9017 72.5329 34.9199 72.5483 34.9409 72.5581C35.0904 72.6288 35.1857 72.7591 35.3144 72.8305C35.4052 72.8811 35.4945 72.9344 35.5824 72.9905C35.7528 73.0984 35.9329 73.1267 36.1182 73.2026C36.2283 73.248 36.334 73.2309 36.4479 73.2666C36.5689 73.3043 36.6915 73.3358 36.8155 73.3611C36.9845 73.3954 37.4451 73.3395 37.4719 73.114C37.5114 72.7829 37.5344 72.3215 37.1445 72.0811C37.01 71.9982 36.9244 71.8973 36.8877 71.7782C36.8185 71.5527 37.0046 71.4135 37.2107 71.4128C38.3888 71.4083 39.526 71.3837 40.745 71.4061C41.388 71.418 42.033 71.419 42.6799 71.409C42.6878 71.409 42.6954 71.4059 42.701 71.4003C42.7066 71.3947 42.7097 71.3872 42.7097 71.3793L42.709 71.3525C42.709 71.3425 42.7051 71.333 42.6981 71.3259C42.6912 71.3188 42.6817 71.3147 42.6718 71.3145L41.8955 71.3011L58.1529 71.3026L57.783 71.3763C57.7622 71.3803 57.763 71.3847 57.7853 71.3897C57.7942 71.3917 57.8014 71.3966 57.8069 71.4046C57.8173 71.4205 57.8319 71.4289 57.8508 71.4299C58.3067 71.4512 58.7629 71.4564 59.2194 71.4455C59.3027 71.4433 59.3749 71.4917 59.4441 71.4864C60.0641 71.4373 60.684 71.4708 61.3054 71.4835C61.5718 71.4887 61.8472 71.4239 62.1233 71.3971C62.4991 71.3607 62.8772 71.1501 63.2233 71.0124C63.4044 70.9399 63.5532 70.8603 63.6698 70.7735C64.0275 70.5071 64.3406 70.195 64.609 69.8373C64.7303 69.6758 64.8136 69.4972 64.9074 69.3141C64.9794 69.1742 65.0305 69.0333 65.0607 68.8914C65.1158 68.6344 65.1513 68.3987 65.1671 68.1844C65.1716 68.1209 65.1423 68.0804 65.0793 68.0631C65.0987 68.006 65.0922 67.97 65.06 67.9551C65.064 67.9492 65.0667 67.9435 65.0682 67.938C65.0706 67.9291 65.0674 67.9254 65.0585 67.9269C64.7749 67.9685 64.6685 68.3139 64.5286 68.4478C64.2716 68.6929 64.0295 68.9521 63.8023 69.2255C63.6832 69.3692 63.5351 69.4533 63.3922 69.5708C63.3289 69.6237 63.1444 69.7241 63.0729 69.7569C62.9174 69.8276 62.7976 69.9444 62.6495 70.0047C62.1335 70.2161 61.7165 70.3376 61.3984 70.3694C61.2873 70.3808 61.0291 70.3778 60.6237 70.3604C60.4957 70.3545 60.3625 70.3947 60.2233 70.3843C60.0571 70.3719 59.9586 70.3662 59.9279 70.3671C59.7671 70.3724 59.5297 70.4185 59.4144 70.2957C59.3484 70.2248 59.331 70.134 59.3623 70.0233C59.3687 69.9995 59.3821 69.9809 59.4025 69.9675C59.6064 69.8343 59.8817 69.8395 60.1511 69.8507C60.3997 69.8601 60.7951 69.8157 61.3374 69.7174C61.4565 69.6959 61.5852 69.6259 61.717 69.6028C61.847 69.5795 61.9415 69.5555 62.0005 69.5306C62.3964 69.3615 62.6934 69.2114 62.8913 69.0804C63.2327 68.8551 63.578 68.5262 63.9273 68.0936C64.2265 67.7229 64.4656 67.2338 64.6447 66.626C64.6804 66.5054 64.7519 66.3767 64.7779 66.2338C64.8042 66.0894 64.8258 65.9897 64.8427 65.9346C64.9007 65.7426 64.9265 65.5742 64.9201 65.4293C64.9002 65.015 64.9265 64.6548 64.999 64.3487C65.0243 64.2437 65.0153 64.1522 65.0176 64.0473C65.0176 64.0321 65.0214 64.0173 65.0287 64.0041C65.0585 63.951 65.0654 63.8927 65.0496 63.8292C64.9875 63.5851 64.965 63.3373 64.9818 63.0857C64.9863 63.0227 64.9779 62.9607 64.9565 62.8997C64.9497 62.8789 64.9495 62.8566 64.9558 62.8357C64.9662 62.8024 64.9719 62.7558 64.9729 62.6958C64.9796 62.3363 64.9573 62.0528 64.9803 61.7238C64.9888 61.6077 64.9818 61.4924 64.9595 61.3778C64.9402 61.2788 64.961 61.1709 64.9603 61.057C64.9593 60.0771 64.9526 59.0972 64.9402 58.1174C64.9287 57.1866 64.9399 56.2561 64.9736 55.3258C64.9925 54.8039 64.995 54.3082 64.9811 53.8389C64.9568 53.0421 64.9466 52.4216 64.9506 51.9776C64.9679 50.0302 64.9776 48.0829 64.9796 46.1355C64.9801 45.6518 64.9818 45.168 64.9848 44.6843C64.9903 43.8408 64.991 42.9974 64.987 42.154C64.9841 41.5159 64.9803 40.8801 64.9759 40.2465C64.9744 40.0535 64.9749 39.8605 64.9774 39.6675C64.9868 38.9397 64.9813 38.1146 64.961 37.1923C64.9379 36.102 65.0109 35.014 64.9186 33.9281C64.8923 33.6161 64.838 33.3511 64.7556 33.1333C64.6425 32.8361 64.5088 32.5967 64.3545 32.4152C64.1684 32.1959 63.8526 31.9423 63.4071 31.6546C63.3897 31.6432 63.3709 31.636 63.3505 31.633C63.3064 31.6265 63.2634 31.6327 63.2218 31.6516C63.1935 31.6648 63.1712 31.6882 63.1594 31.7171C63.1477 31.746 63.1474 31.7781 63.1585 31.8071C63.2307 31.9939 63.355 32.1859 63.4205 32.3318C63.6899 32.9272 63.8219 33.4848 63.8164 34.0048C63.804 35.27 63.8075 36.5351 63.8268 37.8003C63.8298 37.9878 63.8075 38.1888 63.8082 38.3577C63.8132 39.6998 63.8149 41.0418 63.8134 42.3839C63.8127 42.7069 63.835 43.1415 63.8343 43.5494C63.8258 46.1819 63.8174 48.8144 63.809 51.447C63.8052 52.5052 63.8276 53.5814 63.8164 54.6196C63.7956 56.4444 63.7973 58.2674 63.8216 60.0888C63.8221 60.1583 63.8204 60.2275 63.8164 60.2964C63.803 60.5003 63.7993 61.0516 63.8052 61.9501C63.8075 62.2865 63.7814 62.733 63.7911 63.1408C63.7975 63.4023 63.799 63.7744 63.7956 64.2571C63.7948 64.3807 63.8253 64.6159 63.7837 64.787C63.7172 65.0614 63.6214 65.4055 63.4964 65.8192C63.483 65.8629 63.4614 65.9103 63.4316 65.9614C63.3639 66.0775 63.3282 66.175 63.2478 66.3067C63.1786 66.4191 63.1741 66.5322 63.1072 66.6401C62.9248 66.9356 62.741 67.2556 62.5058 67.5116C62.4314 67.5925 62.3575 67.6736 62.2841 67.755C62.2029 67.8457 62.0801 67.9135 61.9953 68.0199C61.9814 68.0378 61.9628 68.0459 61.9395 68.0445L61.9201 68.043C61.8978 68.0415 61.8775 68.0472 61.8591 68.0601C61.6455 68.2112 61.4223 68.4039 61.1819 68.5074C60.7964 68.6726 60.326 68.8594 59.8988 68.9062C59.555 68.9435 59.1246 68.9591 58.6076 68.9531C58.4965 68.9521 58.4536 68.9963 58.4789 69.0856ZM65.7246 61.575C65.7313 62.9726 65.6673 64.3918 65.729 65.7865C65.7484 66.2211 65.8578 66.6602 65.9285 67.1C65.9012 67.0906 65.8774 67.0936 65.857 67.109C65.8362 67.1248 65.8278 67.1457 65.8317 67.1715C65.9176 67.7217 65.8952 68.2665 65.7648 68.8058C65.732 68.9405 65.6457 69.0477 65.6114 69.198C65.5772 69.3483 65.5487 69.4478 65.5259 69.4964C65.2758 70.0318 64.9491 70.517 64.5457 70.9521C64.4534 71.0518 64.35 71.1091 64.2466 71.1992C63.8923 71.511 63.3609 71.7224 62.9196 71.8816C62.4255 72.0602 61.9693 72.0885 61.458 72.0416C60.9973 71.9992 60.6029 72.0267 60.1638 72.0282C60.0775 72.0282 59.9822 72.0632 59.8974 72.0826C59.8735 72.088 59.8748 72.0922 59.9011 72.0952C59.913 72.0967 59.9239 72.1014 59.9338 72.1094C59.9567 72.1272 59.9534 72.1361 59.9242 72.1361H59.8929C59.885 72.1361 59.8785 72.1389 59.8735 72.1443L59.8557 72.1622C59.8492 72.1686 59.8505 72.1726 59.8594 72.1741C59.8976 72.1805 59.9343 72.2021 59.9695 72.2388C59.8614 72.2438 59.7542 72.2463 59.648 72.2463C53.9712 72.2403 48.2943 72.2423 42.6174 72.2522C42.0422 72.2537 41.9826 72.4189 42.0116 72.96C42.0302 73.3113 42.549 73.2822 42.7774 73.2822C49.3374 73.2897 55.8967 73.2961 62.4552 73.3016C62.4508 73.3398 62.4706 73.3601 62.5148 73.3626C62.6383 73.3708 62.7484 73.3939 62.8727 73.3686C63.0682 73.3289 63.2649 73.2966 63.4629 73.2718C63.584 73.2569 63.797 73.1808 64.1022 73.0433C64.1587 73.0175 64.2364 72.9749 64.3351 72.9153C64.5316 72.797 64.7571 72.7211 64.9223 72.602C65.1619 72.4301 65.4142 72.247 65.5824 72C65.7878 71.6985 66.049 71.4582 66.1897 71.1188C66.3222 70.7993 66.4132 70.5425 66.4628 70.3485C66.5841 69.8767 66.5901 69.5426 66.6109 69.131C66.628 68.7983 66.6094 68.4932 66.6266 68.1732C66.632 68.071 66.6285 67.9911 66.6161 67.9336C66.5883 67.8051 66.5385 67.7381 66.4665 67.7326L66.4554 37.2436C66.5318 37.3166 66.5762 37.289 66.5886 37.161C66.5926 37.1208 66.5874 37.0767 66.573 37.0285C66.4025 36.457 66.1897 36.07 65.9471 35.5967C65.9327 35.5684 65.9096 35.5513 65.8779 35.5453L65.7365 35.5193C65.7155 35.5154 65.694 35.5162 65.6734 35.5217C65.6528 35.5273 65.6337 35.5373 65.6175 35.5511C65.6013 35.565 65.5884 35.5823 65.5798 35.6017C65.5711 35.6212 65.567 35.6424 65.5675 35.6637C65.5809 36.1489 65.6159 36.6222 65.5817 37.0925C65.5713 37.229 65.5651 37.3657 65.5631 37.5026C65.5571 37.9615 65.5551 38.4205 65.5571 38.8794C65.5581 39.066 65.5509 39.2523 65.5355 39.4383C65.5117 39.7219 65.5296 39.9794 65.5273 40.2562C65.5154 41.7015 65.5167 43.1465 65.5311 44.5913C65.5534 46.8001 65.5708 49.0089 65.5832 51.2178C65.5832 51.2197 65.5876 51.5777 65.5966 52.2917C65.6092 53.2539 65.5363 54.3263 65.5541 55.1777C65.5936 57.0665 65.5966 58.9047 65.5675 60.7645C65.5631 61.0481 65.6018 61.3465 65.6137 61.6353C65.6139 61.6433 65.6166 61.6508 65.6216 61.6573C65.6265 61.6638 65.6336 61.669 65.6422 61.6725C65.6509 61.676 65.6607 61.6777 65.6711 61.6774C65.6814 61.6772 65.6918 61.675 65.7015 61.671C65.7099 61.6675 65.7176 61.6355 65.7246 61.575ZM41.0799 73.0017C41.0791 72.6117 40.9258 72.2381 40.4726 72.2403C40.0186 72.2433 39.5637 72.2396 39.1077 72.2292C38.8537 72.2232 38.6723 72.2505 38.5637 72.311C38.3742 72.4172 38.2777 72.5981 38.2742 72.8536C38.2623 73.6757 38.2638 75.3283 38.2787 77.8115C38.2796 77.9271 38.2908 78.0311 38.3121 78.1234C38.3152 78.1369 38.3221 78.1493 38.3321 78.1591C38.342 78.1689 38.3545 78.1756 38.3681 78.1785C38.3817 78.1814 38.3959 78.1803 38.4089 78.1754C38.4219 78.1706 38.4333 78.162 38.4416 78.1509C38.712 77.7897 39.0018 77.4558 39.3109 77.1492C39.7864 76.6759 40.1221 77.0829 40.4093 77.4506C40.5964 77.6902 40.7862 77.9192 40.9787 78.1375C41.0511 78.2194 41.0873 78.2057 41.0873 78.0966C41.0824 76.4206 41.0799 74.7223 41.0799 73.0017Z" fill="#39332B"/>
<path d="M60.0053 30.0231C60.9102 29.9868 61.6597 30.0374 62.2535 30.1749C62.8474 30.3128 63.4641 30.6145 64.1037 31.0798C64.9602 31.7035 65.4961 32.5311 65.7134 33.57C65.76 33.7937 65.8679 34.0173 66.0371 34.2405C66.5209 34.8768 66.9361 35.4231 67.1482 36.145C67.3333 36.7736 67.4189 37.4171 67.405 38.0755C67.3817 38.1057 67.3718 38.1476 67.3752 38.2012C67.3792 38.2672 67.3725 38.2712 67.3551 38.2131C67.3536 38.2067 67.3527 38.199 67.3522 38.1901C67.3522 38.1762 67.3452 38.167 67.3313 38.1625C67.1795 38.1142 67.2375 37.9795 67.2256 37.879C67.181 37.4925 67.1326 37.1065 67.0805 36.721C67.0619 36.5885 67.0686 36.4508 67.0359 36.3266C66.9495 36.0028 66.8267 35.6158 66.6251 35.3442C66.5104 35.1901 66.4263 35.0391 66.2983 34.8776C66.2358 34.7987 66.1803 34.7148 66.1316 34.626C66.1212 34.6077 66.1068 34.5933 66.0885 34.5829C66.0766 34.5764 66.0664 34.5665 66.058 34.5531C66.0034 34.4673 65.9501 34.3807 65.898 34.2934C65.7722 34.0827 65.6114 33.9332 65.5802 33.637C65.5683 33.5199 65.5455 33.4224 65.5117 33.3445C65.4626 33.2304 65.4207 33.114 65.3859 32.9954C65.3408 32.8392 65.3001 32.7231 65.2639 32.6472C64.9528 31.9947 64.4986 31.4579 63.9012 31.0367C63.7256 30.9131 63.39 30.7375 62.8943 30.5098C62.5817 30.3661 62.1635 30.2701 61.8174 30.2299C61.6284 30.2084 61.4446 30.163 61.257 30.1652C60.75 30.1711 60.2412 30.154 59.7306 30.1138C59.7192 30.1129 59.7135 30.1069 59.7135 30.096V30.0484C59.7135 30.0379 59.7187 30.0325 59.7292 30.032L60.0053 30.0231Z" fill="#161410"/>
<path d="M59.3675 68.1233C60.6304 67.9752 61.7252 67.4372 62.4165 66.3417C62.6949 65.9004 62.9486 65.4211 63.0134 64.9269C63.0709 64.4864 63.0992 63.9468 63.0982 63.3083C63.0948 59.482 63.0905 55.6555 63.0856 51.8287C63.0789 46.2479 63.1072 41.4566 63.0833 34.9351C63.0804 34.2286 63.0432 33.7354 62.9717 33.4556C62.6629 32.2492 61.6798 31.1567 60.39 30.9959C61.3032 30.7645 62.3503 31.8585 62.779 32.5417C62.9854 32.8711 63.1287 33.2281 63.2091 33.6126C63.2999 34.0487 63.288 34.6738 63.2746 35.1338C63.2687 35.3288 63.2706 35.5237 63.2806 35.7187C63.3661 37.3582 63.32 38.9814 63.2813 40.6224C63.2597 41.5273 63.2478 42.5826 63.2456 43.5613C63.2404 45.3801 63.2099 47.2005 63.2247 49.0193C63.2436 51.3601 63.2453 53.0036 63.23 53.9498C63.227 54.1204 63.2319 54.2608 63.2448 54.371C63.2577 54.4772 63.2587 54.5818 63.2478 54.685C63.2307 54.8473 63.2627 55.0415 63.2657 55.168C63.286 56.0254 63.2925 56.879 63.285 57.7289C63.2825 58.0077 63.2766 58.2863 63.2672 58.5646C63.227 59.7144 63.3126 61.1433 63.3059 62.3043C63.3014 63.1046 63.2692 63.9788 63.2091 64.9269C63.2061 64.9756 63.1985 65.0138 63.1861 65.0415C63.1756 65.0634 63.1697 65.0864 63.1682 65.1108C63.1553 65.3052 63.1007 65.4883 63.0045 65.66C62.8358 65.9611 62.6629 66.2593 62.4857 66.5545C62.4083 66.684 62.2101 66.9016 61.8911 67.2072C61.7978 67.2965 61.6798 67.3831 61.5369 67.4669C61.3657 67.5682 61.2027 67.6932 61.0323 67.7758C60.5344 68.0154 60.1087 68.0712 59.654 68.1978C59.4441 68.2566 59.2945 68.2573 59.0936 68.2432C59.0822 68.2422 59.0765 68.236 59.0765 68.2245V68.2045C59.077 68.1831 59.0877 68.1707 59.1085 68.1672L59.3675 68.1233Z" fill="#161410"/>
<path d="M65.06 67.955C65.0396 67.9714 65.0213 67.9905 65.0049 68.0123C64.8015 68.2787 64.5943 68.5442 64.3835 68.8086C63.6993 69.6654 62.8385 70.2201 61.8011 70.4727C61.1461 70.6319 60.3796 70.5917 59.6659 70.5806C59.5379 70.5786 59.4436 70.5583 59.3831 70.5196C59.1256 70.3543 59.2015 69.91 59.4493 69.7835C59.5337 69.7404 59.6835 69.7168 59.8988 69.7128C60.3164 69.7054 60.7599 69.7128 61.1499 69.6384C62.4041 69.3993 63.3776 68.7312 64.0702 67.6342C64.5276 66.9099 64.7581 66.1252 64.7615 65.2803C64.8017 55.5742 64.7906 45.1619 64.7749 34.6C64.774 34.0443 64.7509 33.6782 64.7057 33.5016C64.5026 32.7075 64.0337 32.188 63.4034 31.7713C63.1984 31.6363 63.1645 31.6705 63.3014 31.874C63.4929 32.1583 63.6502 32.4927 63.7732 32.8772C63.9221 33.343 63.934 33.7293 63.9362 34.2279C63.9556 37.7813 63.962 41.3349 63.9556 44.8888C63.9437 51.4141 64.0173 57.9431 63.9303 64.4683C63.9221 65.0726 63.8015 65.6301 63.5544 66.1793C62.613 68.2668 60.7525 69.2529 58.4789 69.0855C58.4536 68.9961 58.4965 68.952 58.6076 68.953C59.1246 68.9589 59.555 68.9433 59.8988 68.9061C60.326 68.8592 60.7964 68.6724 61.1819 68.5072C61.4223 68.4038 61.6455 68.211 61.8591 68.0599C61.8775 68.047 61.8978 68.0413 61.9201 68.0428L61.9395 68.0443C61.9628 68.0458 61.9814 68.0376 61.9953 68.0197C62.0801 67.9133 62.2029 67.8456 62.2841 67.7548C62.3575 67.6734 62.4314 67.5923 62.5058 67.5114C62.741 67.2554 62.9248 66.9354 63.1072 66.64C63.1741 66.5321 63.1786 66.4189 63.2478 66.3066C63.3282 66.1748 63.3639 66.0773 63.4316 65.9612C63.4614 65.9101 63.483 65.8628 63.4964 65.8191C63.6214 65.4053 63.7172 65.0612 63.7836 64.7869C63.8253 64.6157 63.7948 64.3805 63.7956 64.257C63.799 63.7742 63.7975 63.4021 63.7911 63.1407C63.7814 62.7328 63.8075 62.2863 63.8052 61.9499C63.7993 61.0514 63.803 60.5002 63.8164 60.2963C63.8204 60.2273 63.8221 60.1581 63.8216 60.0886C63.7973 58.2673 63.7956 56.4442 63.8164 54.6194C63.8276 53.5812 63.8052 52.5051 63.809 51.4468C63.8174 48.8143 63.8258 46.1817 63.8343 43.5492C63.835 43.1414 63.8127 42.7068 63.8134 42.3838C63.8149 41.0417 63.8132 39.6996 63.8082 38.3576C63.8075 38.1886 63.8298 37.9877 63.8268 37.8001C63.8075 36.535 63.804 35.2698 63.8164 34.0046C63.8219 33.4847 63.6899 32.927 63.4205 32.3317C63.355 32.1858 63.2307 31.9938 63.1585 31.807C63.1474 31.778 63.1477 31.7458 63.1594 31.7169C63.1712 31.6881 63.1935 31.6647 63.2218 31.6514C63.2634 31.6326 63.3064 31.6264 63.3505 31.6328C63.3709 31.6358 63.3897 31.643 63.4071 31.6544C63.8526 31.9422 64.1684 32.1957 64.3545 32.415C64.5088 32.5966 64.6425 32.836 64.7556 33.1332C64.838 33.351 64.8923 33.6159 64.9186 33.928C65.0109 35.0138 64.9379 36.1018 64.961 37.1921C64.9813 38.1145 64.9868 38.9395 64.9774 39.6674C64.9749 39.8604 64.9744 40.0534 64.9759 40.2464C64.9803 40.88 64.9841 41.5158 64.987 42.1538C64.991 42.9972 64.9903 43.8407 64.9848 44.6841C64.9818 45.1679 64.9801 45.6516 64.9796 46.1354C64.9776 48.0827 64.9679 50.0301 64.9506 51.9774C64.9466 52.4215 64.9568 53.0419 64.9811 53.8387C64.995 54.3081 64.9925 54.8037 64.9736 55.3257C64.9399 56.2559 64.9287 57.1864 64.9402 58.1172C64.9526 59.0971 64.9593 60.077 64.9603 61.0569C64.961 61.1707 64.9402 61.2786 64.9595 61.3776C64.9818 61.4922 64.9888 61.6076 64.9803 61.7237C64.9573 62.0526 64.9796 62.3362 64.9729 62.6956C64.9719 62.7557 64.9662 62.8023 64.9558 62.8355C64.9495 62.8564 64.9497 62.8787 64.9565 62.8995C64.9779 62.9606 64.9863 63.0226 64.9818 63.0856C64.965 63.3371 64.9875 63.585 65.0496 63.8291C65.0654 63.8926 65.0585 63.9509 65.0287 64.004C65.0214 64.0171 65.0176 64.032 65.0176 64.0471C65.0153 64.1521 65.0243 64.2436 64.999 64.3485C64.9265 64.6546 64.9002 65.0148 64.9201 65.4291C64.9265 65.574 64.9007 65.7424 64.8427 65.9344C64.8258 65.9895 64.8042 66.0892 64.7779 66.2336C64.7519 66.3765 64.6804 66.5053 64.6447 66.6258C64.4656 67.2336 64.2265 67.7228 63.9273 68.0934C63.578 68.5261 63.2327 68.855 62.8913 69.0802C62.6934 69.2112 62.3964 69.3613 62.0005 69.5305C61.9415 69.5553 61.847 69.5794 61.717 69.6027C61.5852 69.6258 61.4565 69.6957 61.3374 69.7173C60.7951 69.8155 60.3997 69.8599 60.1511 69.8505C59.8817 69.8393 59.6064 69.8341 59.4025 69.9673C59.3821 69.9807 59.3687 69.9993 59.3623 70.0232C59.331 70.1338 59.3484 70.2246 59.4144 70.2955C59.5297 70.4183 59.7671 70.3722 59.9279 70.367C59.9586 70.366 60.0571 70.3717 60.2233 70.3841C60.3625 70.3945 60.4957 70.3543 60.6237 70.3603C61.0291 70.3777 61.2873 70.3806 61.3984 70.3692C61.7165 70.3375 62.1335 70.2159 62.6495 70.0046C62.7976 69.9443 62.9174 69.8274 63.0729 69.7567C63.1444 69.724 63.3289 69.6235 63.3922 69.5707C63.5351 69.4531 63.6832 69.369 63.8023 69.2254C64.0295 68.952 64.2716 68.6928 64.5286 68.4477C64.6685 68.3137 64.7749 67.9684 65.0585 67.9267C65.0674 67.9252 65.0706 67.9289 65.0682 67.9379C65.0667 67.9433 65.0639 67.949 65.06 67.955Z" fill="#161410"/>
<path d="M66.4554 37.2438C66.3512 36.6708 66.1383 36.1402 65.8168 35.652C65.797 35.6217 65.7759 35.6019 65.7536 35.5924C65.7481 35.5901 65.742 35.5892 65.7361 35.5897C65.7301 35.5903 65.7243 35.5923 65.7193 35.5956C65.7143 35.5989 65.7102 35.6034 65.7074 35.6087C65.7045 35.614 65.703 35.6199 65.703 35.6259L65.7246 61.5752C65.7176 61.6357 65.7099 61.6677 65.7015 61.6712C65.6918 61.6752 65.6814 61.6774 65.6711 61.6776C65.6607 61.6779 65.6509 61.6762 65.6422 61.6727C65.6336 61.6692 65.6265 61.664 65.6216 61.6575C65.6166 61.651 65.6139 61.6435 65.6137 61.6355C65.6018 61.3467 65.5631 61.0483 65.5675 60.7648C65.5966 58.905 65.5936 57.0667 65.5541 55.1779C65.5363 54.3266 65.6092 53.2541 65.5966 52.2919C65.5876 51.5779 65.5832 51.2199 65.5832 51.218C65.5708 49.0091 65.5534 46.8003 65.5311 44.5915C65.5167 43.1467 65.5154 41.7017 65.5273 40.2564C65.5296 39.9796 65.5117 39.7221 65.5355 39.4385C65.5509 39.2525 65.5581 39.0662 65.5571 38.8796C65.5551 38.4207 65.5571 37.9618 65.5631 37.5028C65.5651 37.3659 65.5713 37.2292 65.5817 37.0928C65.6159 36.6224 65.5809 36.1491 65.5675 35.6639C65.567 35.6426 65.5711 35.6214 65.5798 35.602C65.5884 35.5825 65.6013 35.5652 65.6175 35.5514C65.6337 35.5375 65.6528 35.5275 65.6734 35.522C65.694 35.5164 65.7155 35.5156 65.7365 35.5195L65.8779 35.5455C65.9096 35.5515 65.9327 35.5686 65.9471 35.5969C66.1897 36.0702 66.4025 36.4572 66.573 37.0288C66.5874 37.0769 66.5926 37.121 66.5886 37.1612C66.5762 37.2892 66.5318 37.3168 66.4554 37.2438Z" fill="#161410"/>
<path d="M34.8858 36.7153H34.8739C34.6116 36.7153 34.3991 36.9279 34.3991 37.1901V46.5643C34.3991 46.8265 34.6116 47.0391 34.8739 47.0391H34.8858C35.148 47.0391 35.3606 46.8265 35.3606 46.5643V37.1901C35.3606 36.9279 35.148 36.7153 34.8858 36.7153Z" fill="#39332B"/>
<path d="M32.93 66.469L32.9493 67.8719C32.9493 67.8779 32.9512 67.8837 32.9548 67.8886C32.9583 67.8934 32.9633 67.897 32.969 67.8988C32.9747 67.9006 32.9809 67.9006 32.9866 67.8987C32.9923 67.8968 32.9972 67.8931 33.0007 67.8882C33.5216 67.173 34.2696 66.6714 35.0897 66.3656C35.3621 66.2636 35.7007 66.2048 36.0014 66.1259C36.071 66.1076 36.1327 66.0667 36.1766 66.0096C36.2205 65.9525 36.2442 65.8824 36.244 65.8104L36.2358 63.8509C36.2442 63.8275 36.2509 63.8141 36.2559 63.8107C36.2668 63.8032 36.2796 63.7989 36.2928 63.7984C36.306 63.7979 36.3191 63.8011 36.3306 63.8077C36.342 63.8144 36.3514 63.8241 36.3575 63.8358C36.3636 63.8475 36.3663 63.8607 36.3653 63.8739C36.3459 64.1054 36.3995 64.3592 36.4025 64.5586C36.4109 65.157 36.3983 65.599 36.3645 65.8848C36.3363 66.1326 36.0095 66.2986 35.7803 66.3202C35.6136 66.336 35.4268 66.3837 35.2199 66.4631C34.6819 66.6692 34.2591 66.8902 33.8528 67.2683C33.6995 67.4104 33.5462 67.5124 33.4107 67.6858C33.309 67.8153 33.1912 67.9284 33.0572 68.0252C33.0381 68.0385 33.0145 68.0441 32.991 68.0408C32.858 68.0224 32.7938 67.9458 32.7983 67.8108C32.8161 67.2623 32.8079 66.7072 32.86 66.1609C32.8605 66.1545 32.864 66.1515 32.8704 66.152L32.8943 66.1542C32.9002 66.1546 32.9058 66.1572 32.9099 66.1616C32.914 66.1661 32.9164 66.1719 32.9166 66.178L32.93 66.469Z" fill="#161410"/>
<path d="M39.9241 68.1114C39.9246 68.1258 39.9318 68.134 39.9457 68.136C39.9636 68.1385 39.9668 68.1449 39.9554 68.1553C39.9484 68.1613 39.9435 68.1687 39.9405 68.1776C39.9326 68.1985 39.9177 68.2099 39.8958 68.2119C39.8006 68.2208 39.7143 68.2461 39.6212 68.2483C38.7842 68.2677 37.9472 68.2727 37.1102 68.2632C36.63 68.2573 36.2648 68.2836 36.0148 68.3421C35.6546 68.426 35.3097 68.5602 34.9803 68.7447C34.6266 68.9432 34.3961 69.1221 34.2889 69.2813C34.1654 69.4654 34.0386 69.648 33.9086 69.8291C33.8481 69.9124 33.7705 70.1265 33.6757 70.4713C33.5447 70.9476 33.605 71.2654 33.701 71.6859C33.7323 71.8221 33.7345 71.9605 33.5544 71.9538C33.5286 71.9528 33.5065 71.9436 33.4882 71.9263C33.0104 71.4775 32.8496 70.7139 32.863 70.0843C32.8652 69.9861 32.901 69.902 32.9225 69.8038C32.9441 69.707 32.9025 69.6222 32.9702 69.5232C32.9826 69.5053 32.989 69.4855 32.9895 69.4637C32.9915 69.4016 33.0158 69.3466 33.0625 69.2984C33.0808 69.2796 33.0927 69.257 33.0982 69.2307L33.1704 68.8601C33.1733 68.8457 33.1795 68.8328 33.189 68.8214C33.1939 68.8154 33.1987 68.8097 33.2031 68.8043C33.2039 68.8035 33.2049 68.8029 33.206 68.8027C33.2071 68.8025 33.2082 68.8027 33.2092 68.8032C33.2102 68.8037 33.2111 68.8045 33.2116 68.8055C33.2121 68.8065 33.2122 68.8076 33.212 68.8087C33.2091 68.8296 33.2118 68.8447 33.2202 68.8541C33.2331 68.8685 33.2426 68.8663 33.2485 68.8474C33.2887 68.7202 33.3847 68.6264 33.4398 68.5326C33.6045 68.2553 33.7883 68.0506 33.9912 67.9187C34.2629 67.7415 34.5114 67.5279 34.7935 67.3962C35.0803 67.2628 35.3742 67.1477 35.6754 67.0509C35.8897 66.9824 36.1242 66.9432 36.3787 66.9333C36.8852 66.9145 37.3921 66.9095 37.8991 66.9184C38.0189 66.9207 38.1849 66.8872 38.3211 66.8887C39.1665 66.8966 39.7577 66.8939 40.0945 66.8805C40.9965 66.8455 41.9171 66.8529 42.799 66.8321C43.3755 66.8187 43.7888 66.8204 44.0389 66.8373C44.4189 66.8621 44.7538 66.8641 45.0436 66.8433C45.4053 66.8172 45.8027 66.8708 46.0855 66.8708C46.4665 66.8708 46.8446 66.8619 47.2249 66.8916C47.5397 66.9162 47.8068 66.7287 47.6223 66.3886C47.5903 66.329 47.5345 66.2903 47.4876 66.233C47.4727 66.2147 47.4536 66.2047 47.4303 66.2032C47.2502 66.1921 47.05 66.2248 46.8974 66.2241C45.1818 66.2196 43.4661 66.2189 41.7504 66.2219C41.6269 66.2219 41.5212 66.1812 41.4334 66.0998C43.3311 66.0889 45.2262 66.0891 47.1184 66.1005C47.2971 66.102 47.4248 66.1187 47.5017 66.1504C48.0428 66.3729 47.7049 67.071 47.2204 67.068C43.9332 67.0502 40.646 67.0822 37.3596 67.0561C36.8892 67.0524 36.3846 67.0472 35.9508 67.138C34.8307 67.3724 33.7843 68.0593 33.2902 69.1168C32.8615 70.0357 32.9255 70.9114 33.4822 71.7439C33.5144 71.7925 33.5328 71.8181 33.5373 71.8206C33.6236 71.8737 33.6474 71.8536 33.6087 71.7603C33.4509 71.3837 33.4227 70.9846 33.5239 70.5629C33.8193 69.3379 34.7622 68.4977 35.9619 68.2171C36.2298 68.1546 36.6553 68.1236 37.2382 68.1241C38.1338 68.1246 39.0291 68.1203 39.9241 68.1114Z" fill="#161410"/>
<path d="M65.9285 67.1001C66.0198 67.6002 66.0257 68.1001 65.9463 68.5997C65.8072 69.4771 65.2617 70.4796 64.6641 71.0407C63.9005 71.7576 63.0285 72.1481 62.0482 72.2121C61.7475 72.232 61.0546 72.2409 59.9696 72.2389C59.9343 72.2022 59.8976 72.1806 59.8594 72.1742C59.8505 72.1727 59.8492 72.1687 59.8557 72.1622L59.8736 72.1444C59.8785 72.1389 59.885 72.1362 59.8929 72.1362H59.9242C59.9534 72.1362 59.9567 72.1273 59.9338 72.1094C59.9239 72.1015 59.913 72.0968 59.9011 72.0953C59.8748 72.0923 59.8736 72.0881 59.8974 72.0826C59.9822 72.0633 60.0775 72.0283 60.1638 72.0283C60.6029 72.0268 60.9973 71.9993 61.458 72.0417C61.9693 72.0886 62.4255 72.0603 62.9196 71.8817C63.3609 71.7224 63.8923 71.5111 64.2466 71.1992C64.35 71.1092 64.4535 71.0519 64.5457 70.9522C64.9491 70.517 65.2758 70.0318 65.5259 69.4965C65.5487 69.4479 65.5772 69.3484 65.6115 69.198C65.6457 69.0477 65.732 68.9405 65.7648 68.8058C65.8952 68.2665 65.9176 67.7218 65.8317 67.1715C65.8278 67.1457 65.8362 67.1249 65.857 67.109C65.8774 67.0936 65.9012 67.0907 65.9285 67.1001Z" fill="#161410"/>
<path d="M40.294 78.846L39.7619 78.2313C39.755 78.2233 39.7466 78.2169 39.7371 78.2123C39.7277 78.2078 39.7174 78.2053 39.7069 78.2049C39.6964 78.2046 39.6859 78.2064 39.6762 78.2103C39.6664 78.2142 39.6576 78.2201 39.6502 78.2275C39.1467 78.747 38.6604 79.2853 38.1916 79.8425C38.0938 79.9586 37.9457 80 37.7473 79.9668C37.5146 79.9276 37.397 79.77 37.3945 79.4942C37.3801 77.7825 37.3672 76.0725 37.3558 74.3643C37.3553 74.3266 37.3367 74.3048 37.3 74.2988C37.0105 74.249 36.7039 74.2966 36.4613 74.2795C35.8533 74.2378 35.3465 74.2333 34.7444 73.9714C33.7313 73.5298 32.9632 72.8226 32.4403 71.8496C32.054 71.13 32.0235 70.3999 32.0235 69.5894C32.023 68.8795 32.0211 68.17 32.0176 67.461C32.03 67.458 32.0379 67.4436 32.0414 67.4178C32.0444 67.3915 32.0528 67.3895 32.0667 67.4119C32.1128 67.4883 32.1367 67.5716 32.1381 67.6619C32.1463 68.1025 32.194 68.5676 32.1962 68.9769C32.1977 69.2245 32.1984 69.4721 32.1984 69.7197C32.1984 70.1163 32.2542 70.5279 32.2766 70.9365C32.2937 71.2423 32.5809 71.7067 32.7305 72.026C32.7685 72.1064 32.8332 72.1674 32.8809 72.2463C32.8938 72.2676 32.9002 72.2904 32.9002 72.3148C32.8997 72.3574 32.9196 72.3909 32.9598 72.4152C32.9732 72.4232 32.9885 72.4428 33.0059 72.474C33.0168 72.4939 33.0317 72.5102 33.0505 72.5231C33.0927 72.5519 33.1255 72.5881 33.1488 72.6318C33.1602 72.6531 33.1758 72.6707 33.1957 72.6846C33.2239 72.704 33.2626 72.7387 33.3118 72.7888C33.471 72.9511 33.6325 73.1116 33.7963 73.2703C33.7967 73.2708 33.7975 73.2711 33.7985 73.2711C33.8044 73.2716 33.8106 73.2721 33.8171 73.2726C33.8216 73.2731 33.8255 73.2748 33.829 73.2778C34.0538 73.4765 34.2964 73.632 34.562 73.7675C34.7178 73.8463 34.8813 73.9044 35.0525 73.9416C35.4876 74.0359 35.9259 74.1081 36.3675 74.1582C36.6898 74.1954 37.0239 74.1068 37.3782 74.2185C37.4036 74.2265 37.4262 74.2416 37.4435 74.262C37.4607 74.2824 37.4719 74.3073 37.4757 74.3338C37.5173 74.6241 37.4823 74.9143 37.498 75.2083C37.5069 75.3846 37.4943 75.5915 37.4965 75.7404C37.5094 76.8944 37.5146 78.0489 37.5121 79.204C37.5114 79.3803 37.5597 79.5455 37.5999 79.7137C37.6054 79.7371 37.618 79.7554 37.6379 79.7688C37.9713 79.9943 38.2184 79.6564 38.4134 79.3848C38.525 79.229 38.6351 79.0958 38.7438 78.9852C39.0082 78.7162 39.269 78.4431 39.526 78.1658C39.5459 78.1442 39.5701 78.1271 39.597 78.1155C39.624 78.1039 39.6531 78.0981 39.6825 78.0984C39.7118 78.0988 39.7408 78.1053 39.7676 78.1175C39.7944 78.1298 39.8183 78.1475 39.8378 78.1695L40.3788 78.7783C40.3842 78.7842 40.3878 78.7915 40.3892 78.7994C40.3906 78.8073 40.3897 78.8154 40.3867 78.8229C40.3837 78.8304 40.3787 78.8369 40.3722 78.8418C40.3656 78.8467 40.3579 78.8497 40.3498 78.8504C40.3339 78.8519 40.3153 78.8504 40.294 78.846Z" fill="#161410"/>
<path d="M66.4666 67.7324C66.5385 67.7379 66.5884 67.8049 66.6161 67.9334C66.6285 67.9909 66.632 68.0708 66.6266 68.173C66.6094 68.493 66.628 68.7981 66.6109 69.1308C66.5901 69.5424 66.5841 69.8765 66.4628 70.3483C66.4132 70.5423 66.3222 70.7991 66.1897 71.1186C66.049 71.458 65.7878 71.6983 65.5824 71.9997C65.4142 72.2468 65.1619 72.4299 64.9223 72.6018C64.7571 72.7209 64.5316 72.7968 64.3351 72.9151C64.2364 72.9747 64.1587 73.0173 64.1022 73.0431C63.7971 73.1806 63.584 73.2567 63.4629 73.2716C63.2649 73.2964 63.0682 73.3287 62.8727 73.3684C62.7485 73.3937 62.6383 73.3706 62.5148 73.3624C62.4706 73.3599 62.4508 73.3396 62.4552 73.3014C64.3039 73.2575 65.9114 72.063 66.3527 70.2665C66.5358 69.5208 66.4829 68.554 66.4666 67.7324Z" fill="#161410"/>
<path d="M65.0793 68.063C65.1423 68.0804 65.1716 68.1208 65.1672 68.1843C65.1513 68.3986 65.1158 68.6343 65.0607 68.8913C65.0305 69.0332 64.9794 69.1741 64.9074 69.314C64.8136 69.4971 64.7303 69.6757 64.609 69.8372C64.3406 70.1949 64.0275 70.507 63.6698 70.7734C63.5532 70.8602 63.4044 70.9399 63.2233 71.0123C62.8772 71.15 62.4991 71.3606 62.1233 71.3971C61.8472 71.4239 61.5718 71.4886 61.3054 71.4834C60.684 71.4707 60.0641 71.4373 59.4441 71.4864C59.3749 71.4916 59.3027 71.4432 59.2194 71.4454C58.7629 71.4564 58.3067 71.4512 57.8508 71.4298C57.8319 71.4288 57.8173 71.4204 57.8069 71.4045C57.8014 71.3966 57.7942 71.3916 57.7853 71.3896C57.763 71.3847 57.7622 71.3802 57.783 71.3762L58.1529 71.3026C59.3233 71.3026 60.4965 71.2991 61.6723 71.2921C61.9516 71.2902 62.1935 71.2596 62.3979 71.2006C63.5686 70.8635 64.5115 70.0895 64.9067 68.9136C64.9908 68.6613 65.0235 68.3458 65.0793 68.063Z" fill="#161410"/>
<path d="M39.6942 69.1227C38.8626 69.1098 38.041 69.0877 37.2293 69.0564C36.279 69.02 35.2877 69.2834 34.7213 70.082C34.2004 70.8165 34.4214 71.7788 35.0049 72.3972C35.3472 72.7604 35.7607 72.9998 36.2455 73.1154C36.4397 73.1615 37.303 73.4242 37.3439 73.038C37.3655 72.8423 37.3796 72.5624 37.2755 72.3861C37.1408 72.1591 36.8565 72.2171 36.7835 71.8926C36.6764 71.4208 37.009 71.2921 37.3968 71.2906C38.8971 71.2866 40.3967 71.2901 41.8955 71.301L42.6718 71.3144C42.6817 71.3146 42.6912 71.3187 42.6981 71.3258C42.7051 71.3329 42.709 71.3424 42.709 71.3523L42.7097 71.3791C42.7097 71.387 42.7066 71.3946 42.701 71.4002C42.6954 71.4058 42.6878 71.4089 42.6799 71.4089C42.033 71.4188 41.388 71.4178 40.745 71.4059C39.526 71.3836 38.3888 71.4082 37.2107 71.4126C37.0046 71.4134 36.8185 71.5525 36.8877 71.778C36.9244 71.8971 37.01 71.9981 37.1445 72.0809C37.5344 72.3213 37.5114 72.7827 37.4719 73.1139C37.4451 73.3394 36.9845 73.3952 36.8155 73.361C36.6915 73.3357 36.569 73.3042 36.4479 73.2665C36.334 73.2307 36.2283 73.2479 36.1182 73.2025C35.9329 73.1266 35.7528 73.0983 35.5824 72.9904C35.4946 72.9343 35.4052 72.881 35.3145 72.8304C35.1857 72.7589 35.0904 72.6287 34.9409 72.558C34.9199 72.5482 34.9017 72.5328 34.888 72.5133C34.6603 72.1836 34.4958 72.0236 34.3552 71.5637C34.1713 70.9601 34.2859 70.4444 34.6573 69.9547C34.9595 69.5558 35.214 69.4122 35.7282 69.1651C35.7302 69.1641 35.7312 69.1624 35.7312 69.1599C35.7312 69.1539 35.7312 69.1477 35.7312 69.1413C35.7317 69.1358 35.7347 69.1326 35.7401 69.1316L36.4486 69.011C36.4635 69.0086 36.4762 69.0016 36.4866 68.9902C36.4945 68.9813 36.5064 68.9758 36.5223 68.9738C36.7575 68.948 36.9621 68.9423 37.1363 68.9567C37.1616 68.9587 37.1819 68.9555 37.1973 68.947C37.2172 68.9356 37.24 68.926 37.2658 68.918C37.2941 68.9096 37.3166 68.9165 37.3335 68.9389C37.3469 68.9562 37.3648 68.9649 37.3871 68.9649L38.5049 68.959C38.5307 68.959 38.5563 68.9622 38.5816 68.9686C38.6433 68.985 38.7096 68.9552 38.7564 68.9537C39.0938 68.9433 39.4064 68.9996 39.6942 69.1227Z" fill="#161410"/>
<path d="M54.2346 69.4515C54.443 69.4523 54.7318 69.6093 54.8307 69.7901C55.0101 70.1176 54.731 70.4398 54.3842 70.4369C48.5726 70.3825 42.7745 70.4607 39.1271 70.4123C38.656 70.4063 38.4945 69.7931 38.9127 69.5349C38.9832 69.4917 39.0839 69.4686 39.2149 69.4657C39.6574 69.4552 40.0995 69.4495 40.5411 69.4485C45.1056 69.4381 49.6701 69.4391 54.2346 69.4515Z" fill="#39332B"/>
</svg>
