<svg width="100" height="100" viewBox="0 0 100 100" fill="none" xmlns="http://www.w3.org/2000/svg">
<path fill-rule="evenodd" clip-rule="evenodd" d="M50 95.0979C74.907 95.0979 95.098 74.9069 95.098 49.9999C95.098 25.0929 74.907 4.90186 50 4.90186C25.093 4.90186 4.90196 25.0929 4.90196 49.9999C4.90196 74.9069 25.093 95.0979 50 95.0979ZM50 93.1373C73.8241 93.1373 93.1373 73.8241 93.1373 50C93.1373 26.176 73.8241 6.86275 50 6.86275C26.176 6.86275 6.86276 26.176 6.86276 50C6.86276 73.8241 26.176 93.1373 50 93.1373Z" fill="black"/>
<path fill-rule="evenodd" clip-rule="evenodd" d="M50 100C77.6142 100 100 77.6142 100 50C100 22.3858 77.6142 0 50 0C22.3858 0 0 22.3858 0 50C0 77.6142 22.3858 100 50 100ZM50 98.0392C76.5313 98.0392 98.0392 76.5313 98.0392 50C98.0392 23.4687 76.5313 1.96078 50 1.96078C23.4687 1.96078 1.96078 23.4687 1.96078 50C1.96078 76.5313 23.4687 98.0392 50 98.0392Z" fill="black"/>
<path d="M6 50H23.3728C24.0995 50 24.8014 50.2638 25.3483 50.7423L25.9257 51.2475C27.2896 52.4409 29.3921 52.1618 30.3974 50.6539L35.0507 43.674C36.2256 41.9115 38.8077 41.8889 40.0134 43.6305L48.4374 55.7985C49.6562 57.559 52.274 57.5125 53.4296 55.7098L61.0905 43.7589C62.2407 41.9645 64.8429 41.9083 66.0695 43.6514L70.9473 50.5831C72.0191 52.1061 74.2052 52.2948 75.5221 50.9779L75.6213 50.8787C76.1839 50.3161 76.947 50 77.7426 50H93.5" stroke="black"/>
</svg>
