<svg width="100" height="100" viewBox="0 0 100 100" fill="none" xmlns="http://www.w3.org/2000/svg">
<path fill-rule="evenodd" clip-rule="evenodd" d="M50 95.0979C74.907 95.0979 95.098 74.9069 95.098 49.9999C95.098 25.0929 74.907 4.90186 50 4.90186C25.093 4.90186 4.90196 25.0929 4.90196 49.9999C4.90196 74.9069 25.093 95.0979 50 95.0979ZM50 93.1373C73.8241 93.1373 93.1373 73.8241 93.1373 50C93.1373 26.176 73.8241 6.86275 50 6.86275C26.176 6.86275 6.86276 26.176 6.86276 50C6.86276 73.8241 26.176 93.1373 50 93.1373Z" fill="black"/>
<path fill-rule="evenodd" clip-rule="evenodd" d="M50 100C77.6142 100 100 77.6142 100 50C100 22.3858 77.6142 0 50 0C22.3858 0 0 22.3858 0 50C0 77.6142 22.3858 100 50 100ZM50 98.0392C76.5313 98.0392 98.0392 76.5313 98.0392 50C98.0392 23.4687 76.5313 1.96078 50 1.96078C23.4687 1.96078 1.96078 23.4687 1.96078 50C1.96078 76.5313 23.4687 98.0392 50 98.0392Z" fill="black"/>
<path d="M60.6679 33.2618C60.5199 33.2765 60.5665 33.3536 60.8077 33.4931C60.8181 33.4992 60.8249 33.5077 60.8282 33.5186C60.8325 33.5337 60.8408 33.5463 60.8531 33.5562C61.037 33.7109 61.2288 33.8551 61.4284 33.9889C61.4813 34.0244 61.57 34.1102 61.6944 34.2464C61.7006 34.2531 61.7003 34.2597 61.6937 34.2663L61.6738 34.2869C61.6677 34.293 61.6613 34.293 61.6547 34.2869C61.5516 34.1951 61.4421 34.1166 61.3262 34.0514C61.2822 34.0265 61.2489 33.9613 61.1964 33.9272C60.9275 33.7534 60.68 33.5335 60.4125 33.3789C60.3019 33.3145 60.1893 33.2507 60.0748 33.1873C60.0469 33.1722 60.028 33.1795 60.0181 33.2093L59.9961 33.2746C58.1524 32.1048 56.1065 31.3067 53.9428 30.8122C53.4869 30.7082 53.0213 30.6276 52.546 30.5703C49.1678 30.1624 45.7471 30.7264 42.6896 32.2374C41.8676 32.6432 41.0175 33.1599 40.1393 33.7875L40.1776 33.6768C40.1856 33.6541 40.1781 33.6399 40.1549 33.6342C40.0719 33.6144 40.0038 33.6413 39.9563 33.7101C39.9449 33.7272 39.93 33.7397 39.9116 33.7477C39.83 33.7832 39.7839 33.8215 39.7172 33.8769C39.3464 34.1828 38.9714 34.4962 38.5921 34.8168C38.5812 34.8263 38.5722 34.8246 38.5651 34.8118L38.5545 34.7927C38.5487 34.7818 38.5463 34.7695 38.5477 34.7573C38.5491 34.7451 38.5542 34.7337 38.5623 34.7246C38.7531 34.5146 38.9809 34.4181 39.1227 34.2216C39.1355 34.2032 39.1523 34.1899 39.1731 34.1819C39.2767 34.14 39.3405 34.035 39.4164 33.9854C39.59 33.8709 39.7536 33.743 39.9073 33.6016C39.9381 33.5737 39.9783 33.5465 40.0279 33.52C40.149 33.4548 40.1537 33.3966 40.0421 33.3455C40.6328 32.8991 41.2845 32.4878 41.9972 32.1119C43.3124 31.4181 44.6908 30.8605 46.1259 30.5108C49.0283 29.8047 51.9392 29.8307 54.8586 30.5888C56.4988 31.0144 58.1375 31.6756 59.6549 32.5865C60.0521 32.8248 60.3898 33.0499 60.6679 33.2618Z" fill="#181913"/>
<path d="M60.6679 33.2618C64.3532 35.7504 66.9546 39.6088 67.957 43.9284C68.3663 45.6891 68.528 47.5151 68.3876 49.2659C68.3001 50.3546 68.1041 51.5121 67.7995 52.7384C67.7394 52.9786 67.5583 53.5473 67.2561 54.4445C67.0953 54.9217 66.855 55.4743 66.5353 56.1024C65.4351 58.2639 63.8964 60.1211 62.0569 61.696C61.2576 62.3798 60.3867 62.9703 59.4442 63.4673C59.407 63.487 59.3634 63.491 59.3231 63.4785C59.2828 63.466 59.2491 63.438 59.2292 63.4007L59.2072 63.3588C59.1825 63.3117 59.1772 63.2567 59.1926 63.2058C59.208 63.1548 59.2428 63.1119 59.2895 63.0864C61.9633 61.6144 64.244 59.2549 65.7926 56.6145C66.8936 54.7353 67.4838 52.6284 67.8435 50.508C68.3259 47.6619 67.9151 44.6136 66.9539 41.942C65.8323 38.8249 63.7325 36.0455 61.0879 34.0627C60.7289 33.7941 60.365 33.5314 59.9961 33.2746L60.0181 33.2093C60.028 33.1795 60.0469 33.1722 60.0748 33.1873C60.1893 33.2507 60.3018 33.3146 60.4125 33.3789C60.68 33.5335 60.9275 33.7534 61.1964 33.9272C61.2489 33.9613 61.2822 34.0266 61.3262 34.0514C61.4421 34.1166 61.5516 34.1952 61.6547 34.2869C61.6613 34.2931 61.6677 34.2931 61.6738 34.2869L61.6937 34.2663C61.7003 34.2597 61.7005 34.2531 61.6944 34.2465C61.57 34.1103 61.4813 34.0244 61.4284 33.989C61.2288 33.8551 61.037 33.7109 60.8531 33.5562C60.8408 33.5463 60.8325 33.5338 60.8282 33.5186C60.8249 33.5077 60.8181 33.4992 60.8077 33.4931C60.5665 33.3536 60.5199 33.2765 60.6679 33.2618ZM63.1678 35.639L63.7815 36.286C63.7853 36.29 63.7906 36.2923 63.7962 36.2924C63.8018 36.2926 63.8072 36.2905 63.8113 36.2867C63.8259 36.2739 63.8278 36.2607 63.8169 36.247C63.737 36.1439 63.6509 36.0472 63.5587 35.9568C63.5549 35.9526 63.5029 35.8925 63.4026 35.7766C63.3449 35.7104 63.2752 35.6539 63.1934 35.6071C63.1891 35.6044 63.184 35.6034 63.179 35.6042C63.174 35.6051 63.1695 35.6077 63.1663 35.6117C63.1632 35.6156 63.1616 35.6206 63.1619 35.6256C63.1621 35.6307 63.1643 35.6354 63.1678 35.639ZM64.0794 36.5347C64.0768 36.5315 64.0736 36.5288 64.0701 36.5268C64.0665 36.5248 64.0625 36.5236 64.0584 36.5231C64.0544 36.5227 64.0502 36.523 64.0463 36.5242C64.0424 36.5253 64.0387 36.5272 64.0355 36.5298L64.0333 36.5315C64.0301 36.5341 64.0274 36.5372 64.0254 36.5408C64.0234 36.5444 64.0222 36.5484 64.0217 36.5524C64.0213 36.5565 64.0216 36.5606 64.0228 36.5646C64.0239 36.5685 64.0258 36.5722 64.0284 36.5754L64.4143 37.0588C64.4168 37.062 64.42 37.0647 64.4236 37.0667C64.4272 37.0687 64.4311 37.0699 64.4352 37.0704C64.4393 37.0708 64.4434 37.0705 64.4473 37.0694C64.4513 37.0682 64.4549 37.0663 64.4581 37.0638L64.4604 37.062C64.4636 37.0594 64.4662 37.0563 64.4682 37.0527C64.4702 37.0491 64.4715 37.0451 64.4719 37.0411C64.4724 37.037 64.472 37.0329 64.4709 37.0289C64.4697 37.025 64.4678 37.0213 64.4653 37.0181L64.0794 36.5347ZM64.8742 37.6187C64.8821 37.6129 64.8805 37.5948 64.8696 37.5683C64.8588 37.5417 64.8397 37.509 64.8164 37.4773C64.8049 37.4616 64.7928 37.4466 64.7807 37.4331C64.7685 37.4197 64.7567 37.4081 64.7458 37.3991C64.7349 37.39 64.7252 37.3836 64.7172 37.3802C64.7092 37.3768 64.703 37.3766 64.6991 37.3794C64.6912 37.3852 64.6929 37.4034 64.7037 37.4299C64.7146 37.4564 64.7337 37.4891 64.7569 37.5208C64.7684 37.5366 64.7806 37.5516 64.7927 37.565C64.8048 37.5784 64.8167 37.59 64.8275 37.5991C64.8384 37.6082 64.8482 37.6146 64.8562 37.6179C64.8642 37.6213 64.8703 37.6216 64.8742 37.6187ZM65.0939 37.9226C65.1006 37.918 65.1002 37.9036 65.0928 37.8826C65.0854 37.8616 65.0716 37.8356 65.0545 37.8104C65.0374 37.7852 65.0183 37.7628 65.0015 37.7482C64.9846 37.7336 64.9714 37.7279 64.9647 37.7325C64.958 37.737 64.9584 37.7514 64.9658 37.7724C64.9732 37.7935 64.9869 37.8195 65.0041 37.8447C65.0212 37.8699 65.0403 37.8922 65.0571 37.9068C65.074 37.9215 65.0872 37.9271 65.0939 37.9226ZM65.2634 38.2141C65.2823 38.2539 65.309 38.2952 65.3436 38.3383C65.3449 38.3401 65.3466 38.3417 65.3486 38.3428C65.3506 38.344 65.3528 38.3447 65.3552 38.3449C65.3575 38.3452 65.3598 38.345 65.3621 38.3443C65.3644 38.3437 65.3665 38.3426 65.3684 38.3411L65.3868 38.3262C65.3906 38.3233 65.3931 38.3189 65.3938 38.3142C65.3945 38.3094 65.3932 38.3046 65.3904 38.3007C65.3478 38.2416 65.318 38.2037 65.301 38.1872C65.2371 38.1248 65.2246 38.1337 65.2634 38.2141ZM65.5398 38.5221C65.5373 38.5179 65.5332 38.5149 65.5285 38.5137C65.5237 38.5125 65.5187 38.5132 65.5145 38.5157L65.4804 38.5361C65.4784 38.5374 65.4765 38.539 65.4751 38.541C65.4736 38.5429 65.4726 38.5451 65.472 38.5475C65.4714 38.5498 65.4713 38.5523 65.4717 38.5547C65.472 38.5571 65.4728 38.5594 65.4741 38.5614L66.0482 39.5208C66.0507 39.525 66.0548 39.528 66.0596 39.5292C66.0643 39.5304 66.0693 39.5296 66.0735 39.5271L66.1076 39.5067C66.1097 39.5055 66.1115 39.5038 66.1129 39.5019C66.1144 39.5 66.1154 39.4977 66.116 39.4954C66.1166 39.493 66.1167 39.4906 66.1164 39.4882C66.116 39.4858 66.1152 39.4835 66.114 39.4814L65.5398 38.5221ZM67.694 43.5576C67.6935 43.5553 67.6925 43.553 67.6911 43.5511C67.6897 43.5491 67.6879 43.5474 67.6858 43.5461C67.6838 43.5448 67.6815 43.544 67.6791 43.5436C67.6767 43.5432 67.6743 43.5433 67.6719 43.5438L67.6456 43.5499C67.6409 43.551 67.6367 43.5539 67.6342 43.5581C67.6316 43.5622 67.6307 43.5672 67.6318 43.572L67.9248 44.8411C67.9254 44.8434 67.9264 44.8456 67.9278 44.8476C67.9292 44.8496 67.931 44.8513 67.933 44.8526C67.9351 44.8538 67.9374 44.8547 67.9397 44.8551C67.9421 44.8555 67.9446 44.8554 67.9469 44.8549L67.9732 44.8488C67.978 44.8477 67.9821 44.8448 67.9847 44.8406C67.9873 44.8365 67.9881 44.8315 67.987 44.8267L67.694 43.5576ZM67.991 45.1726C67.9868 45.262 67.9995 45.3483 68.0293 45.4316C68.0308 45.4349 68.0329 45.4361 68.0357 45.4351L68.0577 45.4294C68.0662 45.4271 68.0698 45.4216 68.0684 45.4131L68.0222 45.1343C68.0217 45.1313 68.0203 45.1285 68.0184 45.1262C68.0164 45.1239 68.0139 45.1221 68.011 45.121C68.0082 45.12 68.0051 45.1196 68.0021 45.1201C67.9991 45.1206 67.9963 45.1218 67.9939 45.1237C67.9792 45.1355 67.9759 45.1457 67.9839 45.1542C67.9887 45.1594 67.991 45.1655 67.991 45.1726ZM68.1722 46.5428C68.1788 46.5423 68.1838 46.5232 68.1861 46.4897C68.1885 46.4562 68.1879 46.411 68.1846 46.3641C68.1814 46.3172 68.1756 46.2724 68.1686 46.2395C68.1617 46.2067 68.1541 46.1885 68.1475 46.1889C68.1409 46.1894 68.1359 46.2085 68.1336 46.242C68.1313 46.2755 68.1318 46.3207 68.1351 46.3676C68.1384 46.4145 68.1441 46.4593 68.1511 46.4922C68.1581 46.525 68.1657 46.5432 68.1722 46.5428ZM68.0371 50.4789C68.0433 50.4676 68.0452 50.4555 68.0428 50.4428C68.0211 50.4882 68.0083 50.5565 68.0045 50.6478C68.0047 50.6486 68.0051 50.6494 68.0057 50.65C68.0063 50.6506 68.0071 50.651 68.0079 50.6512C68.0088 50.6513 68.0096 50.6512 68.0104 50.6509C68.0112 50.6505 68.0119 50.6499 68.0123 50.6492C68.0326 50.6047 68.0393 50.5579 68.0322 50.5087C68.0308 50.4983 68.0324 50.4884 68.0371 50.4789ZM67.6463 52.4943C67.5803 52.6447 67.5434 52.849 67.5079 52.9661C67.227 53.9025 66.9508 54.6436 66.6794 55.1894C66.5011 55.5478 66.3263 55.9085 66.1551 56.2712C66.0827 56.4244 65.887 56.7446 65.5677 57.2317C65.5131 57.314 65.4783 57.4233 65.4102 57.5126C65.4093 57.5429 65.3951 57.5599 65.3677 57.5637C65.3609 57.5646 65.3544 57.5671 65.3487 57.5711C65.343 57.575 65.3383 57.5803 65.335 57.5864C65.2882 57.6725 65.2431 57.7586 65.1995 57.8446C65.1683 57.9061 65.1175 57.9754 65.047 58.0525C64.9837 58.122 64.9366 58.1967 64.9059 58.2767C64.878 58.3486 64.8926 58.3587 64.9498 58.3072C65.2691 58.0184 65.5096 57.6169 65.7181 57.2445C65.7656 57.1594 65.8444 57.0891 65.887 56.9778C65.9643 56.777 66.0764 56.6202 66.1842 56.4053C66.4325 55.9106 66.6058 55.5396 66.7042 55.2922C66.7089 55.2795 66.7177 55.2709 66.7304 55.2667C66.7399 55.2629 66.7465 55.2553 66.7503 55.244C66.8837 54.8439 67.0802 54.4523 67.2 54.0756C67.3611 53.5712 67.6023 53.0193 67.6463 52.4943C67.7148 52.2957 67.7581 52.1132 67.7761 51.9467C67.7841 51.8701 67.7749 51.8679 67.7484 51.9403C67.6912 52.0959 67.6571 52.2806 67.6463 52.4943Z" fill="#020302"/>
<path d="M40.0421 33.3452C40.1537 33.3963 40.149 33.4545 40.0279 33.5197C39.9783 33.5462 39.9381 33.5734 39.9073 33.6013C39.7536 33.7427 39.59 33.8706 39.4164 33.9851C39.3405 34.0348 39.2767 34.1397 39.1731 34.1816C39.1523 34.1896 39.1355 34.2029 39.1227 34.2213C38.9808 34.4178 38.7531 34.5143 38.5623 34.7243C38.5542 34.7334 38.5491 34.7448 38.5477 34.757C38.5463 34.7692 38.5487 34.7815 38.5545 34.7924L38.5651 34.8115C38.5722 34.8243 38.5812 34.826 38.5921 34.8165C38.9714 34.4959 39.3464 34.1825 39.7172 33.8766C39.7839 33.8212 39.83 33.7829 39.9116 33.7474C39.93 33.7394 39.9449 33.7269 39.9563 33.7098C40.0038 33.641 40.0719 33.6141 40.1549 33.6339C40.1781 33.6396 40.1856 33.6538 40.1776 33.6765L40.1393 33.7872C38.8331 34.7586 37.7576 35.7508 36.9129 36.7638C35.3828 38.5997 34.3024 40.5754 33.5866 42.8221C33.44 43.2832 33.322 43.7408 33.2326 44.1948C32.6674 47.0655 32.7637 49.9378 33.5213 52.8118C34.4889 56.483 36.8853 59.7143 39.8761 61.9943C40.1868 62.2312 40.7437 62.5916 41.5467 63.0754C41.5649 63.0863 41.5806 63.1007 41.593 63.1178C41.6054 63.1349 41.6143 63.1543 41.6191 63.1749C41.6238 63.1955 41.6244 63.2168 41.6208 63.2376C41.6171 63.2585 41.6093 63.2783 41.5978 63.2961L41.5716 63.3372C41.4978 63.4512 41.4023 63.4741 41.285 63.406C39.7399 62.5037 38.4081 61.4476 37.2896 60.2378C36.4388 59.3175 35.6228 58.2295 34.8415 56.9739C34.0914 55.7689 33.5244 54.4279 33.1404 52.9509C32.5828 50.8078 32.3203 48.6264 32.4991 46.4173C32.7899 42.8249 34.1342 39.4787 36.4426 36.69C37.2336 35.7338 38.0884 34.9172 39.0348 34.1163C39.3828 33.8222 39.7186 33.5651 40.0421 33.3452ZM36.3178 37.0845C36.2724 37.1294 36.2296 37.1769 36.1894 37.227C35.9921 37.4758 35.7964 37.7258 35.602 37.9769C35.5048 38.1024 35.431 38.2535 35.3345 38.3898C35.2262 38.542 35.1241 38.6983 35.0281 38.8587C34.9623 38.9679 34.8389 39.2082 34.6578 39.5794C34.6403 39.6154 34.6109 39.6603 34.5698 39.7142C34.5277 39.7695 34.5034 39.8194 34.4967 39.8639C34.4778 39.9973 34.5088 40.01 34.5897 39.9022C34.6493 39.8227 34.7107 39.7189 34.7741 39.5908C34.8753 39.3855 34.9796 39.1817 35.087 38.9793C35.0997 38.9551 35.1234 38.9249 35.1579 38.8885C35.2395 38.8019 35.209 38.6834 35.3331 38.6317C35.3535 38.6231 35.3676 38.6087 35.3757 38.5884C35.3955 38.538 35.4069 38.5025 35.4417 38.4621C35.54 38.3472 35.6318 38.2266 35.7169 38.1003C35.8101 37.9627 35.9037 37.8251 35.9978 37.6874C36.0569 37.6004 36.1577 37.4673 36.3 37.2881C36.4168 37.1414 36.5251 36.9882 36.6249 36.8284C36.6372 36.809 36.6531 36.7936 36.6725 36.7823C36.698 36.7676 36.7134 36.7432 36.7186 36.7092C36.7228 36.6846 36.7332 36.6631 36.7498 36.6446L37.0406 36.3233C37.044 36.3196 37.0466 36.3152 37.0483 36.3105C37.0499 36.3057 37.0505 36.3007 37.0501 36.2956C37.0497 36.2906 37.0483 36.2856 37.0459 36.2811C37.0436 36.2766 37.0403 36.2726 37.0364 36.2694C37.0113 36.249 36.9889 36.2504 36.969 36.2736C36.9115 36.3417 36.8427 36.3985 36.7938 36.473C36.7417 36.5529 36.6999 36.6108 36.6682 36.6468C36.5441 36.7872 36.4497 36.9546 36.3178 37.0845ZM33.0127 44.2983C32.9706 44.3551 32.9514 44.4215 32.9552 44.4977C32.9566 44.5327 32.9649 44.5343 32.98 44.5026C33.0061 44.4468 33.0169 44.3787 33.0127 44.2983C33.0519 44.1707 33.1146 43.9053 33.2007 43.5024C33.3033 43.0224 33.497 42.4035 33.7817 41.6459C33.9271 41.2586 34.1782 40.8095 34.3392 40.3676C34.343 40.3562 34.3395 40.3484 34.3286 40.3441L34.3038 40.3335C34.2929 40.3288 34.2849 40.3319 34.2797 40.3427C33.8342 41.2472 33.5497 42.1283 33.2567 43.1115C33.1482 43.4776 33.0744 43.8535 33.0006 44.2281C32.9945 44.2584 32.9985 44.2818 33.0127 44.2983ZM33.1283 52.0038C33.1292 51.9949 33.1281 51.987 33.1248 51.9804C33.1058 51.9445 33.0954 51.949 33.0935 51.9939C33.0912 52.0398 33.0997 52.0859 33.1191 52.1322C33.1342 52.1677 33.1467 52.1668 33.1567 52.1294C33.1642 52.0982 33.1583 52.0686 33.1389 52.0407C33.1309 52.0298 33.1274 52.0176 33.1283 52.0038ZM33.4384 53.2865C33.4416 53.2857 33.4436 53.2808 33.4444 53.2722C33.4452 53.2636 33.4447 53.2515 33.4431 53.2364C33.4414 53.2214 33.4385 53.2038 33.4347 53.1846C33.4308 53.1654 33.4259 53.145 33.4204 53.1246C33.4093 53.0834 33.3961 53.0445 33.3837 53.0166C33.3714 52.9886 33.3609 52.9739 33.3545 52.9756C33.3514 52.9764 33.3493 52.9813 33.3485 52.9899C33.3477 52.9985 33.3482 53.0107 33.3498 53.0257C33.3515 53.0407 33.3544 53.0584 33.3583 53.0776C33.3621 53.0967 33.367 53.1171 33.3725 53.1375C33.3836 53.1788 33.3968 53.2176 33.4092 53.2456C33.4215 53.2735 33.432 53.2883 33.4384 53.2865ZM33.7143 54.1398C33.797 54.4624 33.9167 54.7651 34.0732 55.0479C34.0865 55.1779 34.1307 55.294 34.2059 55.3962C34.2324 55.4317 34.2404 55.4279 34.23 55.3848C34.2002 55.2609 34.1479 55.1486 34.0732 55.0479C33.9928 54.7338 33.8732 54.4312 33.7143 54.1398C33.728 54.1209 33.7325 54.1041 33.7277 54.0895C33.6478 53.8544 33.5696 53.6194 33.4929 53.3843C33.4896 53.3753 33.4835 53.3723 33.4745 53.3751L33.4539 53.3801C33.453 53.3805 33.4527 53.3813 33.4532 53.3822L33.7143 54.1398ZM34.9326 56.636C34.9294 56.6304 34.9241 56.6264 34.9179 56.6248C34.9117 56.6232 34.9051 56.6241 34.8996 56.6274L34.8874 56.6346C34.8819 56.6378 34.8779 56.6431 34.8762 56.6493C34.8746 56.6555 34.8755 56.662 34.8788 56.6676L35.176 57.1742C35.1793 57.1797 35.1846 57.1837 35.1907 57.1853C35.1969 57.1869 35.2035 57.186 35.209 57.1828L35.2213 57.1756C35.2268 57.1724 35.2308 57.1671 35.2324 57.1609C35.234 57.1547 35.2331 57.1481 35.2299 57.1426L34.9326 56.636ZM35.4331 57.557C35.4383 57.5755 35.4485 57.5906 35.4636 57.6024C35.4873 57.6213 35.4972 57.6159 35.4934 57.5861C35.4873 57.5336 35.4618 57.4941 35.4168 57.4676C35.3918 57.453 35.3811 57.4601 35.3849 57.4889C35.3877 57.5092 35.3974 57.5239 35.414 57.5329C35.4239 57.5381 35.4303 57.5461 35.4331 57.557ZM36.3596 58.7885C36.3563 58.7865 36.3523 58.7858 36.3485 58.7865C36.3447 58.7871 36.3412 58.7891 36.3387 58.7921C36.3362 58.7951 36.3349 58.7989 36.3349 58.8028C36.335 58.8067 36.3365 58.8104 36.339 58.8134C36.3622 58.8394 36.3752 58.8701 36.3781 58.9056C36.3782 58.908 36.3789 58.9104 36.38 58.9126C36.3812 58.9147 36.3828 58.9166 36.3848 58.9181C36.3867 58.9196 36.389 58.9206 36.3914 58.9212C36.3938 58.9217 36.3962 58.9217 36.3986 58.9212L36.4298 58.9155C36.4412 58.9132 36.4455 58.9065 36.4426 58.8957C36.4289 58.8488 36.4012 58.8131 36.3596 58.7885ZM39.835 62.139C39.8175 62.1159 39.7974 62.1085 39.7747 62.117C39.7487 62.127 39.7449 62.1423 39.7633 62.1631C39.8253 62.2317 39.8981 62.2871 39.9818 62.3291C39.9884 62.3323 39.996 62.333 40.0031 62.3309C40.0101 62.3288 40.0162 62.3243 40.0201 62.318C40.0239 62.3117 40.0254 62.3043 40.0241 62.297C40.0228 62.2898 40.0188 62.2833 40.013 62.2788L39.869 62.1724C39.8562 62.1629 39.8449 62.1518 39.835 62.139Z" fill="#020302"/>
<path d="M55.5397 44.0784L55.6 44.1331C55.6222 44.1529 55.6385 44.1489 55.6489 44.121L55.7511 43.8408C55.752 43.8373 55.7542 43.8343 55.7571 43.8322C55.76 43.8301 55.7636 43.8292 55.7672 43.8294C55.7708 43.8297 55.7742 43.8311 55.7768 43.8336C55.7794 43.8361 55.7811 43.8393 55.7816 43.8429C55.8085 43.9784 55.7411 44.2395 55.7887 44.3324C55.7986 44.3518 55.8092 44.3523 55.8206 44.3338C55.8267 44.3234 55.8296 44.3116 55.8291 44.2983C55.8282 44.2813 55.8362 44.2728 55.8532 44.2728H55.8859C55.9062 44.2723 55.9154 44.2622 55.9135 44.2423C55.9102 44.2045 55.919 44.1813 55.9398 44.1728C55.9249 44.7013 55.9 45.0744 56.0249 45.4369C56.0363 45.47 56.0585 45.4814 56.0916 45.471C57.3614 45.0758 58.4411 44.4594 59.2449 43.3002L59.242 43.3903C59.2411 43.4225 59.255 43.4315 59.2839 43.4173C59.3269 43.396 59.3657 43.3591 59.4002 43.3066C59.6528 42.9212 59.8431 42.6192 59.9713 42.4007C59.9869 42.3737 59.9994 42.3749 60.0089 42.4042C60.0169 42.4307 60.0153 42.4593 60.0039 42.4901C59.967 42.5851 59.9304 42.6807 59.894 42.7767C59.8836 42.8041 59.8895 42.8263 59.9117 42.8434C59.9164 42.8471 59.9218 42.8498 59.9276 42.8512C59.9334 42.8527 59.9394 42.853 59.9453 42.852C59.9512 42.851 59.9568 42.8487 59.9618 42.8454C59.9667 42.8421 59.9709 42.8378 59.9741 42.8327L60.0685 42.6852C60.0652 42.7169 60.0453 42.7679 60.0089 42.8384C59.3264 44.1565 58.3049 45.0844 56.9443 45.6221C56.8029 45.6779 56.534 45.7642 56.1377 45.881C55.9121 45.947 55.5177 46.6713 55.39 46.8905C55.3871 46.8953 55.3857 46.9009 55.3858 46.9065C55.386 46.9121 55.3877 46.9175 55.3908 46.9222C55.3939 46.9269 55.3983 46.9306 55.4034 46.9329C55.4086 46.9352 55.4142 46.936 55.4198 46.9352C56.2782 46.8082 57.1706 46.8075 58.0148 47.0267C58.0254 47.0295 58.0366 47.0292 58.0471 47.026C58.0576 47.0227 58.0671 47.0166 58.0744 47.0082C58.7015 46.2996 59.5492 45.7164 60.4799 45.5795C61.239 45.4681 62.0434 45.5717 62.9132 45.8001C63.1109 45.8522 63.2887 45.8739 63.4466 45.8654C63.9808 45.837 64.5086 45.6781 65.0222 45.4823C65.3315 45.3646 65.3585 45.5987 65.2939 45.8228C64.9655 46.9657 64.3533 47.995 63.4424 48.7676C62.7798 49.3294 61.7214 49.6437 60.9063 49.694C60.5565 49.7153 59.9599 49.6685 59.4442 49.7323C59.3066 49.7494 59.1706 49.7664 59.0363 49.7834C59.024 49.7851 59.0124 49.7902 59.003 49.7981C58.9936 49.8061 58.9867 49.8165 58.9831 49.8281L58.7724 50.512C58.7587 50.5569 58.7724 50.5678 58.8136 50.5446C59.9231 49.9203 61.1794 50.2637 62.218 50.8482C62.5627 51.0419 62.042 51.5321 61.8576 51.6874C60.8055 52.5756 59.2115 52.7537 58.002 52.106C57.989 52.0992 57.9742 52.0967 57.9598 52.0989C57.9454 52.1011 57.9321 52.1078 57.9218 52.1181C57.6005 52.4394 57.3557 52.7218 56.9266 52.9835C56.5406 53.2195 56.0251 53.4735 55.3801 53.7454C54.4332 54.1446 53.7354 54.805 53.2866 55.7268C53.1625 55.9822 52.8645 56.5376 52.8766 56.8086C52.8768 56.8157 52.879 56.8225 52.8829 56.8284C52.8867 56.8343 52.8922 56.839 52.8985 56.842C52.9049 56.845 52.912 56.8462 52.919 56.8455C52.9261 56.8447 52.9327 56.842 52.9383 56.8377C54.6792 55.499 56.7386 55.2217 58.7958 55.9183C59.0626 56.0084 58.9874 56.1964 58.8795 56.3858C58.4917 57.0678 58.0245 57.666 57.4778 58.1806C56.2441 59.3419 54.6891 59.3738 53.0334 59.7356C52.1232 59.9349 51.135 60.4776 50.6966 61.3303C50.6498 61.4221 50.6264 61.5268 50.6264 61.6446C50.6287 62.4344 50.6235 63.2899 50.6108 64.2112C50.6105 64.2331 50.6059 64.2547 50.5973 64.2748C50.5886 64.2949 50.5761 64.3132 50.5604 64.3284C50.5448 64.3437 50.5262 64.3558 50.5059 64.3639C50.4856 64.372 50.4638 64.376 50.4419 64.3758L50.3916 64.3751C50.2525 64.3732 50.1825 64.3027 50.1816 64.1637C50.1759 63.3218 50.1742 62.5039 50.1766 61.7098C50.1795 60.8657 49.1813 60.1527 48.496 59.8732C47.9264 59.6405 47.1652 59.5582 46.5062 59.4731C45.0406 59.2837 43.8459 58.7424 42.8897 57.5982C42.5373 57.1768 42.2051 56.7405 41.893 56.2893C41.7568 56.0928 41.8383 55.9261 42.054 55.863C43.3096 55.4955 44.7036 55.4295 45.9614 55.8069C46.7098 56.0318 47.2929 56.4113 47.9136 56.8121C47.917 56.8142 47.9207 56.8156 47.9246 56.8163C47.9285 56.8169 47.9324 56.8167 47.9362 56.8158C47.94 56.8149 47.9435 56.8132 47.9466 56.8109C47.9497 56.8085 47.9522 56.8056 47.9541 56.8022C47.964 56.7842 47.9652 56.7663 47.9576 56.7483C47.9453 56.7195 47.9389 56.7041 47.9385 56.7022C47.6249 55.5076 46.8517 54.3654 45.706 53.8454C45.1257 53.5823 44.3354 53.3169 43.8296 52.9715C43.4976 52.7445 43.1772 52.4605 42.8684 52.1195C42.86 52.1104 42.8486 52.1047 42.8364 52.1035C42.8242 52.1023 42.8121 52.1058 42.8024 52.1131C42.5484 52.3039 41.9703 52.4344 41.6574 52.4607C40.5643 52.5515 39.6477 52.3422 38.8468 51.5505C38.7198 51.425 38.3133 51.0476 38.5708 50.8894C39.6165 50.2438 40.9445 49.9707 42.0781 50.5205C42.0798 50.5213 42.0816 50.5216 42.0834 50.5214C42.0852 50.5211 42.0869 50.5203 42.0883 50.5191C42.0897 50.5179 42.0907 50.5163 42.0911 50.5145C42.0916 50.5127 42.0915 50.5109 42.0909 50.5091L41.8788 49.8168C41.8745 49.8035 41.8655 49.796 41.8518 49.7941C41.3935 49.7354 40.8166 49.707 40.1209 49.7089C37.8217 49.7153 36.1284 47.8865 35.4928 45.8044C35.4332 45.6093 35.5374 45.4618 35.7545 45.5213C36.3055 45.6722 36.8626 45.7959 37.4259 45.8924C37.4722 45.9004 37.5479 45.8907 37.6529 45.8633C38.0293 45.763 38.4091 45.6769 38.7922 45.6051C40.3663 45.3092 41.634 45.8037 42.669 46.9508C42.6812 46.9643 42.6969 46.9741 42.7144 46.9792C42.7319 46.9844 42.7506 46.9846 42.7684 46.9799C43.2344 46.8571 43.6203 46.7401 44.1467 46.7557C44.5596 46.768 44.9654 46.8233 45.364 46.9217C45.3702 46.9232 45.3767 46.9228 45.3826 46.9207C45.3886 46.9186 45.3938 46.9148 45.3976 46.9097C45.4015 46.9047 45.4038 46.8987 45.4042 46.8923C45.4047 46.886 45.4033 46.8797 45.4002 46.8742L44.9682 46.1066C44.9503 46.075 44.9223 46.0507 44.8887 46.0378C44.4598 45.8746 44.0311 45.6933 43.6026 45.4937C41.031 44.2948 39.8392 41.5629 40.0918 38.8317C40.0951 38.795 40.11 38.7602 40.1345 38.7325C40.159 38.7048 40.1918 38.6856 40.228 38.6778C40.4919 38.621 41.2396 38.97 41.507 39.0843C44.2021 40.2385 45.6918 42.7937 45.1959 45.7342C45.1921 45.7578 45.1971 45.7796 45.2108 45.7994C45.4364 46.1234 45.6383 46.4604 45.8166 46.8103C45.845 46.8664 45.8535 46.9621 45.8897 47.0267C45.902 47.0484 45.9202 47.0624 45.9443 47.0685C47.6724 47.5119 49.165 48.6973 50.0986 50.1892C50.1374 50.2511 50.1572 50.2455 50.1582 50.1722L50.183 47.5424C50.183 47.5041 50.1646 47.4805 50.1277 47.4715C48.4265 47.0579 46.5785 45.1312 46.1465 43.4201C46.1976 43.4116 46.2454 43.3917 46.2898 43.3605C46.3068 43.3482 46.3246 43.3468 46.343 43.3563C46.3662 43.3681 46.383 43.383 46.3934 43.401C46.4123 43.4326 46.4307 43.4324 46.4487 43.4002C46.4676 43.3648 46.4981 43.3456 46.5402 43.3428C46.6615 43.6663 46.7843 44.0075 46.9481 44.2998C47.6779 45.5937 48.7398 46.5199 50.134 47.0785C50.1368 47.0795 50.1397 47.0798 50.1425 47.0795C50.1454 47.0792 50.1482 47.0782 50.1506 47.0766C50.153 47.075 50.155 47.0729 50.1565 47.0704C50.1579 47.0679 50.1587 47.0651 50.1589 47.0622C50.1766 46.1641 50.0894 45.2624 49.7637 44.4289C49.3958 43.4858 48.8467 42.6577 48.1165 41.9446C48.1373 41.9351 48.1603 41.9297 48.1853 41.9282C48.2047 41.9273 48.2154 41.9174 48.2173 41.8984C48.2201 41.8701 48.2161 41.8502 48.2052 41.8389C48.1191 41.7499 47.9983 41.6395 47.8427 41.5076C47.7306 41.4132 47.5653 41.3409 47.4398 41.2139C47.4325 41.2063 47.4276 41.1967 47.4257 41.1864C47.4237 41.176 47.4248 41.1654 47.4288 41.1556C47.4327 41.1459 47.4394 41.1375 47.448 41.1315C47.4567 41.1254 47.4668 41.122 47.4773 41.1217C47.5265 41.1202 47.5734 41.1392 47.6178 41.1784C47.6887 41.2401 47.7498 41.2706 47.8086 41.3465C47.8299 41.374 47.8692 41.4118 47.9264 41.46C48.0179 41.5374 48.1257 41.5884 48.2009 41.6892C48.2837 41.8008 48.348 41.7913 48.3939 41.6608C49.0068 42.2231 49.502 42.8807 49.8794 43.6336C49.9766 43.8273 50.0404 44.043 50.1113 44.248C50.143 44.3407 50.1594 44.3378 50.1603 44.2395C50.166 43.5915 50.1757 42.9292 50.1894 42.2524C50.2007 41.6842 49.9461 41.1337 49.6403 40.6627C49.6192 40.6303 49.5895 40.6044 49.5545 40.588C49.5195 40.5716 49.4807 40.5652 49.4424 40.5697C48.6528 40.6641 48.0498 40.4846 47.5894 39.8199C47.3426 39.4638 47.3213 39.1942 47.2667 38.775C47.2633 38.7518 47.2539 38.7312 47.2383 38.7132C46.8318 38.2528 46.5189 37.7953 46.4537 37.1717C46.3766 36.433 46.4958 35.73 46.8112 35.0627C46.9354 34.7995 47.2369 35.008 47.3887 35.0996C47.8819 35.3999 48.3364 35.7595 48.7521 36.1786C49.1742 36.6042 49.431 37.0419 49.751 37.5796C49.9524 37.9182 50.0894 38.2202 50.1617 38.4855C50.162 38.4864 50.1626 38.4872 50.1633 38.4878C50.164 38.4884 50.1648 38.4889 50.1658 38.4891C50.1667 38.4893 50.1676 38.4893 50.1685 38.489C50.1694 38.4888 50.1703 38.4883 50.1709 38.4877C50.1766 38.4824 50.1823 38.477 50.188 38.4713C50.1908 38.469 50.1922 38.4657 50.1922 38.4614L50.1908 37.5598C50.1908 37.5347 50.1816 37.5136 50.1631 37.4966C48.8578 36.3162 49.2594 34.9378 50.2107 33.6758C50.3164 33.5346 50.4561 33.5325 50.5703 33.6737C51.4876 34.8123 52.0601 36.4545 50.603 37.4803C50.584 37.4935 50.5753 37.5115 50.5767 37.5342L50.6157 38.2344C50.6159 38.2379 50.6172 38.2412 50.6195 38.2439C50.6218 38.2465 50.625 38.2483 50.6284 38.2489C50.6318 38.2496 50.6354 38.2491 50.6385 38.2475C50.6416 38.2459 50.6441 38.2433 50.6455 38.2401C51.0421 37.4165 51.5975 36.5836 52.3169 35.9572C52.8054 35.5316 53.2913 35.1887 53.7747 34.9286C53.8887 34.8671 53.9778 34.9038 54.0421 35.0386C54.3637 35.7125 54.4817 36.4231 54.3961 37.1703C54.3387 37.674 54.123 38.3259 53.6803 38.621C53.6605 38.6343 53.6484 38.6529 53.6442 38.6771C53.6224 38.8033 53.6011 38.9284 53.5803 39.0523C53.4207 39.9951 52.6276 40.652 51.6671 40.6102C51.5772 40.6064 51.4878 40.6045 51.3989 40.6045C51.3863 40.6045 51.374 40.607 51.3625 40.6119C51.351 40.6168 51.3407 40.6239 51.3322 40.6329C50.9811 40.9961 50.6306 41.6587 50.632 42.1893C50.6339 42.8925 50.6339 43.6045 50.632 44.3253C50.632 44.3447 50.6403 44.3492 50.6569 44.3388C50.6663 44.3326 50.6746 44.3189 50.6817 44.2976C50.9527 43.4648 51.4259 42.71 52.004 42.0588C52.6588 41.321 53.5356 40.7343 54.4266 40.2753C54.4749 40.2503 54.4961 40.211 54.4905 40.1576C54.2741 38.1188 55.2651 36.2296 56.8776 35.0357C57.0372 34.9172 57.1507 35.0499 57.2188 35.1946C57.6693 36.1573 57.9133 37.2519 57.7913 38.299C57.7111 38.9871 57.4423 39.5666 56.9911 40.0852C56.386 40.7826 55.8695 41.1238 55.1836 41.5586C55.1367 41.5884 55.0928 41.587 55.0395 41.6026C55.0183 41.6088 55.0069 41.623 55.0055 41.6452C54.9083 42.9242 54.4926 44.2501 53.708 45.2844C53.2483 45.8909 52.6056 46.5408 51.9459 46.9033C51.5372 47.1274 51.1192 47.3209 50.6916 47.4835C50.677 47.4892 50.6644 47.4991 50.6555 47.512C50.6467 47.5249 50.6419 47.5402 50.642 47.5559L50.6342 50.3098C50.6337 50.3973 50.6555 50.4032 50.6994 50.3275C51.3627 49.1755 52.3311 48.183 53.5519 47.558C53.9563 47.3509 54.4195 47.2062 54.8665 47.07C54.889 47.0632 54.9096 47.0512 54.9266 47.0349C54.9435 47.0186 54.9562 46.9985 54.9636 46.9763C55.114 46.5356 55.3365 46.1357 55.6312 45.7767C55.6477 45.7564 55.6534 45.7335 55.6482 45.7079C55.5347 45.1735 55.4985 44.6303 55.5397 44.0784ZM49.9539 34.9556C49.6138 35.6839 49.6926 36.3505 50.1901 36.9553C50.2558 37.0353 50.3712 37.0629 50.5363 37.0383C50.5561 37.035 50.5729 37.0261 50.5866 37.0114C51.4344 36.0835 50.9832 35.0421 50.4029 34.127C50.4007 34.1235 50.3977 34.1207 50.3941 34.1188C50.3904 34.1168 50.3864 34.1159 50.3823 34.1161C50.3782 34.1162 50.3742 34.1174 50.3707 34.1196C50.3673 34.1217 50.3644 34.1248 50.3625 34.1284C50.2225 34.3965 50.0863 34.6723 49.9539 34.9556ZM47.4993 37.8414C48.2407 38.1159 48.8337 38.333 49.3083 38.9424C49.5452 39.2465 49.6446 39.6009 49.6063 40.0058C49.6033 40.0357 49.6101 40.0658 49.6256 40.0916C49.641 40.1174 49.6643 40.1375 49.6921 40.1491C49.9815 40.2697 50.0567 40.5094 50.1617 40.7882C50.1839 40.8469 50.1943 40.845 50.1929 40.7826C50.1823 40.264 50.2249 39.6936 50.0745 39.2049C49.6084 37.6896 48.5187 36.2672 47.1532 35.4805C47.1436 35.4751 47.1331 35.4719 47.1222 35.471C47.1113 35.4702 47.1003 35.4718 47.0901 35.4756C47.0799 35.4795 47.0706 35.4855 47.063 35.4934C47.0554 35.5012 47.0496 35.5106 47.046 35.5209C46.7651 36.336 46.7346 37.3505 47.2624 38.0762C47.2684 38.0845 47.2764 38.091 47.2858 38.0951C47.2951 38.0992 47.3054 38.1007 47.3156 38.0994C47.3258 38.0982 47.3355 38.0943 47.3437 38.0881C47.3519 38.0819 47.3584 38.0736 47.3624 38.0641L47.4468 37.8641C47.4572 37.84 47.4747 37.8324 47.4993 37.8414ZM53.4952 37.9726C53.5075 37.9996 53.5139 38.0291 53.5143 38.0613C53.5148 38.0868 53.5266 38.105 53.5498 38.1159C53.5872 38.1325 53.6207 38.123 53.6505 38.0875C53.6983 38.0303 53.748 37.9244 53.7995 37.7697C54.0421 37.0367 54.0518 36.2975 53.8286 35.5522C53.8242 35.5375 53.8166 35.524 53.8063 35.5128C53.796 35.5015 53.7832 35.4927 53.769 35.4871C53.7548 35.4815 53.7395 35.4792 53.7242 35.4804C53.709 35.4816 53.6942 35.4862 53.681 35.494C52.5105 36.1786 51.494 37.2561 50.9995 38.5281C50.869 38.8629 50.6753 39.1963 50.6555 39.5645C50.6342 39.9727 50.6292 40.3853 50.6406 40.8024C50.6407 40.8052 50.6415 40.8079 50.643 40.8103C50.6444 40.8126 50.6464 40.8146 50.6488 40.8159C50.6512 40.8172 50.6539 40.8178 50.6565 40.8177C50.6592 40.8176 50.6618 40.8167 50.664 40.8152C50.6763 40.8072 50.6864 40.7946 50.6945 40.7776C50.7815 40.5894 50.9014 40.4253 51.0541 40.2853C51.1175 40.2276 51.179 40.1659 51.2386 40.1001C51.2455 40.0923 51.2506 40.0832 51.2537 40.0732C51.2567 40.0633 51.2576 40.0529 51.2563 40.0427C51.184 39.4761 51.358 39.0344 51.7784 38.7175C52.2646 38.351 52.7952 38.0835 53.3703 37.9152C53.3946 37.9081 53.4205 37.9101 53.4435 37.9206C53.4664 37.9312 53.4848 37.9496 53.4952 37.9726ZM56.5754 35.8182C55.5319 36.8681 54.7565 38.311 54.865 39.8305C54.8972 40.2841 54.9407 40.7192 54.9956 41.1358C55.0031 41.1945 55.032 41.2082 55.0821 41.177C56.474 40.3193 57.5742 39.1637 57.3997 37.4016C57.3415 36.8128 57.1947 36.2322 56.9592 35.66C56.9539 35.6474 56.946 35.636 56.9359 35.6268C56.9258 35.6176 56.9139 35.6106 56.9009 35.6065C56.8879 35.6024 56.8742 35.6012 56.8608 35.6029C56.8473 35.6047 56.8344 35.6094 56.823 35.6167C56.7388 35.6697 56.6563 35.7368 56.5754 35.8182ZM47.7363 38.5558C47.6441 39.4858 48.1718 40.2533 49.1735 40.1817C49.1982 40.1799 49.2214 40.169 49.2385 40.151C49.2556 40.133 49.2653 40.1093 49.2657 40.0845C49.2806 39.1722 48.6308 38.7154 47.8441 38.4834C47.8322 38.4799 47.8197 38.4791 47.8074 38.4809C47.7952 38.4828 47.7835 38.4874 47.7732 38.4943C47.7629 38.5012 47.7543 38.5103 47.7479 38.5209C47.7415 38.5315 47.7375 38.5434 47.7363 38.5558ZM51.8607 40.2009C52.7737 40.0072 53.0915 39.5624 53.2285 38.6671C53.2379 38.6056 53.2121 38.5699 53.1511 38.56C52.8305 38.5061 52.3218 38.814 52.0721 39.0105C51.7141 39.2919 51.5781 39.6456 51.6642 40.0717C51.6686 40.0932 51.6772 40.1136 51.6895 40.1317C51.7018 40.1498 51.7175 40.1653 51.7358 40.1773C51.754 40.1893 51.7745 40.1976 51.7959 40.2016C51.8174 40.2057 51.8394 40.2054 51.8607 40.2009ZM40.4954 39.1814C40.3599 42.1659 41.8497 44.5927 44.7476 45.5178C44.7963 45.5334 44.8244 45.5157 44.832 45.4646C45.1612 43.264 44.1872 41.1295 42.2881 39.9653C41.7437 39.631 41.1587 39.3609 40.533 39.1552C40.5288 39.1539 40.5243 39.1536 40.52 39.1543C40.5156 39.1549 40.5115 39.1566 40.5078 39.1591C40.5042 39.1617 40.5012 39.165 40.4991 39.1689C40.4969 39.1727 40.4957 39.177 40.4954 39.1814ZM50.7158 47.0756C53.2128 45.9903 54.8026 43.5393 54.5721 40.7897C54.5713 40.7799 54.5681 40.7705 54.5628 40.7622C54.5575 40.754 54.5502 40.7472 54.5417 40.7424C54.5331 40.7376 54.5235 40.7351 54.5137 40.7349C54.5039 40.7347 54.4942 40.7369 54.4855 40.7414C53.1511 41.4288 51.9934 42.4617 51.3102 43.8294C50.7952 44.8609 50.6853 45.8853 50.642 47.026C50.6417 47.0349 50.6437 47.0437 50.6477 47.0516C50.6518 47.0595 50.6578 47.0663 50.6651 47.0712C50.6725 47.0762 50.681 47.0792 50.6899 47.08C50.6987 47.0807 50.7076 47.0792 50.7158 47.0756ZM58.4943 47.2012C59.5003 47.6978 60.9708 47.8382 61.9342 47.2324C62.3088 46.9976 62.5705 46.6734 62.8366 46.3116C62.8426 46.3035 62.8465 46.294 62.8481 46.284C62.8497 46.274 62.8488 46.2638 62.8456 46.2542C62.8424 46.2446 62.837 46.2359 62.8297 46.2289C62.8225 46.2218 62.8136 46.2166 62.8039 46.2137C62.0371 45.9846 61.1659 45.876 60.3608 46.0612C59.6407 46.2265 59.0157 46.6316 58.4851 47.1409C58.4591 47.1655 58.4622 47.1856 58.4943 47.2012ZM37.9154 46.3428C39.0341 47.7928 40.7125 48.0021 42.2952 47.2069C42.3004 47.2044 42.3049 47.2006 42.3084 47.196C42.3118 47.1913 42.3141 47.1859 42.315 47.1801C42.3159 47.1744 42.3154 47.1684 42.3135 47.1628C42.3117 47.1573 42.3086 47.1522 42.3044 47.148C41.9206 46.7741 41.4815 46.423 40.9892 46.2307C39.9833 45.8384 38.9702 45.9718 37.9501 46.2393C37.9397 46.242 37.9302 46.2473 37.9223 46.2546C37.9144 46.262 37.9085 46.2712 37.9051 46.2814C37.9017 46.2917 37.9008 46.3027 37.9026 46.3134C37.9044 46.3241 37.9088 46.3342 37.9154 46.3428ZM58.5078 47.6261C57.5373 47.1899 56.3484 47.2331 55.3418 47.3516C55.3119 47.3552 55.2837 47.3672 55.2605 47.3861C55.2372 47.4051 55.2199 47.4303 55.2105 47.4587C55.0027 48.0865 54.8047 48.7598 54.5465 49.3188C54.1199 50.2419 53.5666 51.0861 52.8865 51.8513C52.5588 52.2202 52.2308 52.5891 51.9026 52.958C51.4677 53.4475 51.1109 53.9235 50.7555 54.4392C50.6704 54.5622 50.6285 54.6761 50.6299 54.7811C50.6493 56.4184 50.6465 58.0543 50.6214 59.6888C50.6209 59.7138 50.6332 59.7278 50.6583 59.7306L50.6782 59.7327C50.6835 59.7334 50.6889 59.7319 50.6932 59.7288C50.6974 59.7256 50.7002 59.7209 50.7009 59.7157C50.7141 59.6273 50.7359 59.5549 50.7661 59.4986C51.1464 58.7963 51.6174 58.0231 52.2353 57.4428C52.2665 57.413 52.2852 57.3771 52.2913 57.335C52.4148 56.488 52.8014 55.6927 53.1901 54.9393C53.2776 54.7695 53.3578 54.5759 53.4306 54.3583C53.5966 53.8632 53.8236 53.3957 54.0663 52.9168C55.1304 50.8128 57.2053 49.4841 59.5492 49.301C59.7062 49.2887 59.9602 49.2845 60.3111 49.2883C62.2293 49.3081 63.5743 48.4817 64.4717 46.8032C64.6008 46.5613 64.7683 46.2882 64.8378 46.0229C64.8396 46.0163 64.8395 46.0093 64.8375 46.0027C64.8354 45.9962 64.8316 45.9904 64.8264 45.9859C64.8212 45.9814 64.8149 45.9785 64.8081 45.9776C64.8013 45.9766 64.7944 45.9775 64.7881 45.9803C64.3426 46.1754 63.8921 46.2364 63.4268 46.301C63.4 46.3048 63.3744 46.3142 63.3515 46.3286C63.3286 46.3431 63.3091 46.3622 63.2941 46.3847C63.1461 46.6079 62.9817 46.8221 62.8011 47.0274C61.7937 48.1688 60.2501 48.3256 58.8859 47.7964C58.8835 47.7954 58.7575 47.7387 58.5078 47.6261ZM42.0348 47.7411C40.2741 48.5434 38.4772 47.9482 37.4323 46.3556C37.4195 46.3357 37.4015 46.3234 37.3783 46.3187L36.0546 46.0442C36.0494 46.0431 36.0439 46.0434 36.0388 46.0451C36.0338 46.0468 36.0293 46.0499 36.0258 46.0539C36.0223 46.058 36.02 46.0629 36.019 46.0682C36.0181 46.0735 36.0186 46.0789 36.0205 46.0839C36.515 47.4133 37.4677 48.5774 38.8269 49.0634C39.2838 49.2265 39.8676 49.2954 40.3514 49.3003C41.1715 49.3081 41.9745 49.3493 42.7272 49.5607C44.9647 50.1892 46.5005 51.9386 47.2901 54.054C47.4509 54.4839 47.6121 54.8722 47.7739 55.2188C48.1683 56.0616 48.379 56.5773 48.5308 57.3492C48.5401 57.3945 48.562 57.4361 48.5939 57.4691C49.1383 58.0347 49.5992 58.6703 49.9766 59.3759C50.0376 59.4904 50.079 59.579 50.1007 59.6419C50.1655 59.8292 50.1929 59.8238 50.183 59.6256C50.1735 59.4388 50.1693 59.2073 50.1702 58.9311C50.1759 57.5847 50.178 56.2382 50.1766 54.8918C50.1759 54.6527 50.1099 54.4598 49.9964 54.269C49.3388 53.1637 48.3542 52.3472 47.5682 51.3342C46.9392 50.5231 46.4279 49.6415 46.0344 48.6895C45.8777 48.3107 45.7649 47.8978 45.6528 47.4913C45.6454 47.4643 45.6313 47.4395 45.6119 47.4192C45.5925 47.3989 45.5682 47.3837 45.5414 47.375C44.9729 47.1915 44.3874 47.1298 43.7849 47.1899C43.1954 47.2487 42.5889 47.4885 42.0348 47.7411ZM50.6732 53.8334C51.4599 52.7338 52.4204 51.7868 53.2327 50.7071C53.4711 50.3897 53.6742 50.079 53.8421 49.7749C54.2145 49.0981 54.5614 48.3561 54.704 47.5956C54.7051 47.5898 54.7046 47.5837 54.7026 47.5781C54.7006 47.5725 54.6972 47.5675 54.6927 47.5636C54.6881 47.5597 54.6827 47.5571 54.6768 47.556C54.671 47.5549 54.6649 47.5554 54.6593 47.5573C53.7903 47.8702 53.0092 48.3022 52.336 48.9442C51.6692 49.5798 51.0201 50.4034 50.6789 51.2732C50.6413 51.3689 50.6455 51.4541 50.6462 51.5534C50.6495 52.3195 50.6441 53.0748 50.6299 53.8192C50.629 53.8707 50.6434 53.8755 50.6732 53.8334ZM50.0518 50.949C49.3119 49.4117 47.8136 48.1241 46.1948 47.5864C46.1541 47.5727 46.1333 47.5876 46.1323 47.6311C46.1314 47.6746 46.1392 47.7285 46.1557 47.7928C46.2685 48.232 46.4274 48.5796 46.6438 49.0407C47.0704 49.9478 47.6195 50.7754 48.291 51.5236C48.7663 52.0535 49.2544 52.5628 49.7091 53.1112C49.8311 53.2581 49.9652 53.49 50.1121 53.6695C50.1404 53.704 50.1551 53.6991 50.156 53.6546C50.1759 52.9296 50.1856 52.2041 50.1851 51.4782C50.1851 51.271 50.1369 51.1256 50.0518 50.949ZM54.0726 53.8547C54.031 53.954 53.9977 54.0278 53.9726 54.076C53.9704 54.0804 53.9697 54.0854 53.9707 54.0903C53.9716 54.0951 53.9742 54.0995 53.978 54.1027C53.9818 54.1059 53.9865 54.1077 53.9915 54.1079C53.9964 54.1081 54.0013 54.1066 54.0052 54.1037C54.3018 53.8937 54.5316 53.6908 54.892 53.49C55.5368 53.1311 56.2682 52.8892 56.7045 52.6388C57.465 52.2018 58.002 51.4477 58.3021 50.6255C58.3825 50.4046 58.4612 50.1771 58.5383 49.943C58.5406 49.9364 58.541 49.9292 58.5394 49.9224C58.5378 49.9155 58.5344 49.9092 58.5294 49.9041C58.5244 49.8991 58.5181 49.8955 58.5112 49.8937C58.5042 49.8919 58.4969 49.8921 58.4901 49.8941C57.3174 50.2537 56.2469 50.7979 55.4077 51.7116C54.8728 52.2937 54.4278 53.0081 54.0726 53.8547ZM46.8765 54.071C46.0032 51.9847 44.566 50.4751 42.3299 49.9012C42.3262 49.9002 42.3223 49.9002 42.3186 49.9012C42.3149 49.9022 42.3115 49.9042 42.3088 49.907C42.306 49.9098 42.3041 49.9133 42.303 49.9171C42.302 49.921 42.302 49.925 42.303 49.9288C42.4583 50.5808 42.7173 51.0511 43.067 51.6222C43.8892 52.9629 45.4201 53.0261 46.6055 53.8979C46.6665 53.9426 46.7573 54.0434 46.8467 54.0966C46.8826 54.1178 46.8926 54.1093 46.8765 54.071ZM59.4144 50.7447C58.8526 50.8865 58.5355 51.2682 58.2013 51.7555C58.1988 51.7593 58.1971 51.7636 58.1964 51.768C58.1957 51.7725 58.196 51.7771 58.1973 51.7815C58.1986 51.7858 58.2008 51.7898 58.2038 51.7932C58.2069 51.7966 58.2106 51.7992 58.2148 51.8009C59.4187 52.3082 60.8431 52.133 61.7774 51.1774C61.7839 51.1709 61.7886 51.1629 61.7913 51.1541C61.7941 51.1454 61.7947 51.1361 61.7931 51.1271C61.7915 51.118 61.7877 51.1095 61.7822 51.1022C61.7766 51.095 61.7694 51.0891 61.7611 51.0852C61.0418 50.7397 60.2061 50.5453 59.4144 50.7447ZM39.0128 51.1597C39.7378 51.9223 40.6614 52.1273 41.6808 52.0372C42.01 52.0079 42.3302 51.9331 42.6414 51.813C42.6467 51.8109 42.6514 51.8076 42.6553 51.8035C42.6592 51.7993 42.662 51.7943 42.6637 51.7889C42.6654 51.7834 42.6659 51.7777 42.6651 51.772C42.6643 51.7664 42.6623 51.761 42.6591 51.7563C42.5205 51.5538 42.3787 51.3498 42.2335 51.144C42.0348 50.8624 41.5617 50.7142 41.2346 50.6815C40.4557 50.6035 39.7177 50.7477 39.0206 51.1143C39.0167 51.1163 39.0133 51.1193 39.0106 51.1229C39.008 51.1265 39.0063 51.1306 39.0055 51.135C39.0048 51.1394 39.005 51.1439 39.0063 51.1482C39.0076 51.1525 39.0098 51.1564 39.0128 51.1597ZM52.4204 57.8762C51.6997 58.6956 51.2804 59.317 50.9428 60.2258C50.8941 60.3582 50.9198 60.3748 51.0201 60.2754C52.3055 59.0021 54.3465 59.2787 55.9213 58.6438C56.901 58.2487 57.6267 57.4981 58.2446 56.6419C58.3193 56.5378 58.382 56.4272 58.4326 56.3099C58.4354 56.3034 58.4368 56.2964 58.4367 56.2894C58.4365 56.2823 58.4349 56.2754 58.4319 56.269C58.4289 56.2626 58.4245 56.2569 58.4191 56.2524C58.4138 56.2478 58.4075 56.2444 58.4007 56.2425C56.2512 55.6246 53.9137 56.1801 52.4204 57.8762ZM48.2726 59.3525C48.8181 59.4823 49.4055 59.842 49.8056 60.1804C49.9224 60.2792 49.9501 60.2586 49.8886 60.1187C49.2132 58.5864 47.8335 57.0115 46.2699 56.3752C45.0845 55.8921 43.6579 55.9091 42.4456 56.2312C42.4372 56.2333 42.4295 56.2374 42.423 56.2431C42.4165 56.2488 42.4114 56.2559 42.4082 56.264C42.4051 56.272 42.4038 56.2807 42.4046 56.2893C42.4055 56.2979 42.4083 56.3062 42.4129 56.3134C43.1344 57.4421 44.1893 58.541 45.5471 58.8439C46.4523 59.046 47.3688 59.139 48.2726 59.3525ZM55.2561 59.099C55.2552 59.095 55.2248 59.0977 55.1716 59.1066C55.1183 59.1155 55.0467 59.1298 54.9723 59.1464C54.9355 59.1547 54.8991 59.1632 54.8653 59.1716C54.8314 59.18 54.8007 59.188 54.775 59.1952C54.7493 59.2025 54.729 59.2088 54.7153 59.2138C54.7017 59.2188 54.6949 59.2224 54.6953 59.2244C54.6962 59.2284 54.7266 59.2257 54.7798 59.2168C54.8331 59.2079 54.9047 59.1935 54.9791 59.1769C55.0159 59.1687 55.0523 59.1601 55.0862 59.1518C55.12 59.1434 55.1507 59.1354 55.1764 59.1281C55.2021 59.1209 55.2224 59.1146 55.2361 59.1096C55.2497 59.1046 55.2565 59.101 55.2561 59.099Z" fill="#181913"/>
<path d="M48.3939 41.6607C48.348 41.7912 48.2837 41.8007 48.2009 41.6891C48.1257 41.5883 48.0179 41.5373 47.9264 41.4599C47.8692 41.4117 47.8299 41.3739 47.8086 41.3464C47.7498 41.2705 47.6887 41.24 47.6178 41.1783C47.5733 41.139 47.5265 41.1201 47.4773 41.1216C47.4668 41.1219 47.4567 41.1253 47.448 41.1314C47.4394 41.1374 47.4327 41.1458 47.4288 41.1555C47.4248 41.1653 47.4237 41.1759 47.4257 41.1863C47.4276 41.1966 47.4325 41.2062 47.4397 41.2138C47.5653 41.3408 47.7306 41.4131 47.8427 41.5075C47.9983 41.6394 48.1191 41.7498 48.2052 41.8388C48.2161 41.8501 48.2201 41.87 48.2172 41.8983C48.2154 41.9173 48.2047 41.9272 48.1853 41.9281C48.1603 41.9296 48.1373 41.935 48.1165 41.9445C47.5594 41.4602 46.9585 41.0478 46.3139 40.7073C46.295 40.6973 46.2834 40.7025 46.2792 40.7229C46.1018 41.5578 46.2607 42.5474 46.5402 43.3427C46.4981 43.3455 46.4676 43.3647 46.4487 43.4001C46.4307 43.4323 46.4123 43.4325 46.3934 43.4009C46.383 43.3829 46.3662 43.368 46.343 43.3562C46.3246 43.3467 46.3068 43.3481 46.2898 43.3604C46.2454 43.3916 46.1976 43.4115 46.1465 43.42C45.9564 42.8629 45.8445 42.2878 45.811 41.6947C45.8097 41.6724 45.8027 41.6506 45.7907 41.6315C45.7786 41.6125 45.762 41.5966 45.7421 41.5855C44.9533 41.1435 44.1261 40.5391 43.6423 39.8063C42.8641 38.6252 42.906 37.1149 43.3181 35.8188C43.4146 35.5166 43.5224 35.273 43.6416 35.0881C43.7102 34.9826 43.8057 34.9708 43.9282 35.0526C45.6081 36.1785 46.5679 38.1009 46.3104 40.1319C46.307 40.1569 46.3115 40.1822 46.3232 40.2046C46.3349 40.2269 46.3532 40.2452 46.3756 40.2568C47.0954 40.6328 47.7682 41.1007 48.3939 41.6607ZM43.87 35.5542C43.6835 36.0813 43.5153 36.5715 43.4515 37.1291C43.3274 38.2222 43.6118 39.2253 44.3482 40.0319C44.7071 40.4249 45.2754 40.7732 45.7478 41.1159C45.7658 41.1291 45.7767 41.1246 45.7805 41.1024C45.8263 40.8262 45.8677 40.5481 45.9046 40.2681C46.1536 38.3592 45.4052 36.7148 43.9112 35.5421C43.9078 35.5396 43.9038 35.5379 43.8997 35.5372C43.8955 35.5364 43.8913 35.5366 43.8873 35.5378C43.8833 35.539 43.8796 35.5411 43.8766 35.5439C43.8736 35.5468 43.8714 35.5503 43.87 35.5542ZM44.2985 40.2291C44.2839 40.214 44.2687 40.2083 44.2531 40.2121C44.2243 40.2197 44.2193 40.235 44.2382 40.2582C44.2671 40.2932 44.3014 40.3221 44.3411 40.3448C44.3456 40.3472 44.3508 40.3483 44.356 40.3477C44.3612 40.3472 44.366 40.345 44.37 40.3417C44.3739 40.3383 44.3767 40.3338 44.378 40.3287C44.3793 40.3237 44.379 40.3184 44.3773 40.3135C44.3706 40.2979 44.3607 40.2859 44.3475 40.2774C44.3413 40.2731 44.325 40.257 44.2985 40.2291ZM44.5638 40.5306C44.5946 40.5699 44.6341 40.5947 44.6823 40.6051C44.6865 40.6061 44.6909 40.6056 44.6947 40.6037C44.6985 40.6017 44.7015 40.5985 44.7032 40.5945C44.7049 40.5904 44.7051 40.5859 44.7039 40.5816C44.7027 40.5774 44.7001 40.5736 44.6965 40.5711L44.544 40.4689C44.5419 40.4674 44.5393 40.4665 44.5367 40.4665C44.5341 40.4664 44.5315 40.4672 44.5293 40.4687C44.5272 40.4702 44.5255 40.4723 44.5246 40.4747C44.5236 40.4772 44.5235 40.4798 44.5241 40.4824C44.5322 40.5174 44.5454 40.5335 44.5638 40.5306ZM46.0316 42.4666C46.0302 42.4827 46.034 42.4968 46.0429 42.5091C46.0548 42.5262 46.0626 42.5245 46.0663 42.5042C46.0763 42.4488 46.0775 42.4018 46.0699 42.363C46.0576 42.3006 46.0394 42.2989 46.0153 42.358C46.0077 42.3765 46.0105 42.3992 46.0238 42.4261C46.0304 42.4389 46.033 42.4524 46.0316 42.4666ZM46.2267 43.0786C46.2343 43.0764 46.2353 43.053 46.2295 43.0137C46.2236 42.9743 46.2115 42.9222 46.1956 42.8689C46.1878 42.8424 46.1793 42.8164 46.1707 42.7924C46.162 42.7684 46.1533 42.7469 46.1451 42.729C46.1369 42.7111 46.1294 42.6972 46.1229 42.6881C46.1164 42.679 46.1112 42.6749 46.1074 42.676C46.0999 42.6782 46.0989 42.7016 46.1047 42.7409C46.1105 42.7803 46.1227 42.8324 46.1385 42.8858C46.1463 42.9122 46.1548 42.9382 46.1635 42.9622C46.1722 42.9862 46.1809 43.0078 46.1891 43.0257C46.1972 43.0436 46.2048 43.0575 46.2112 43.0666C46.2177 43.0757 46.223 43.0798 46.2267 43.0786Z" fill="#020302"/>
<path d="M63.7815 36.2861L63.1678 35.6391C63.1643 35.6355 63.1622 35.6307 63.1619 35.6257C63.1616 35.6206 63.1632 35.6157 63.1664 35.6117C63.1695 35.6078 63.174 35.6051 63.179 35.6043C63.184 35.6034 63.1891 35.6045 63.1934 35.6072C63.2752 35.654 63.345 35.7105 63.4026 35.7767C63.5029 35.8926 63.5549 35.9526 63.5587 35.9569C63.6509 36.0472 63.737 36.1439 63.8169 36.247C63.8278 36.2608 63.8259 36.274 63.8113 36.2868C63.8072 36.2906 63.8018 36.2926 63.7962 36.2925C63.7907 36.2924 63.7854 36.2901 63.7815 36.2861Z" fill="#181913"/>
<path d="M36.3178 37.0847C36.4497 36.9549 36.5441 36.7875 36.6682 36.647C36.6999 36.6111 36.7418 36.5532 36.7938 36.4732C36.8427 36.3987 36.9116 36.342 36.969 36.2739C36.9889 36.2507 37.0113 36.2493 37.0364 36.2696C37.0404 36.2729 37.0436 36.2769 37.046 36.2814C37.0483 36.2859 37.0498 36.2908 37.0502 36.2959C37.0506 36.3009 37.0499 36.306 37.0483 36.3107C37.0467 36.3155 37.0441 36.3199 37.0407 36.3235L36.7498 36.6449C36.7333 36.6633 36.7229 36.6849 36.7186 36.7095C36.7134 36.7435 36.698 36.7679 36.6725 36.7825C36.6531 36.7939 36.6373 36.8092 36.625 36.8286C36.5252 36.9885 36.4169 37.1417 36.3001 37.2883C36.1577 37.4676 36.057 37.6007 35.9978 37.6877C35.9037 37.8253 35.8101 37.963 35.7169 38.1006C35.6318 38.2269 35.54 38.3475 35.4417 38.4624C35.4069 38.5028 35.3956 38.5383 35.3757 38.5887C35.3677 38.609 35.3535 38.6234 35.3331 38.6319C35.209 38.6837 35.2395 38.8022 35.1579 38.8887C35.1234 38.9251 35.0997 38.9554 35.087 38.9795C34.9796 39.1819 34.8753 39.3858 34.7741 39.591C34.7108 39.7192 34.6493 39.823 34.5897 39.9025C34.5088 40.0103 34.4778 39.9975 34.4968 39.8642C34.5034 39.8197 34.5277 39.7698 34.5698 39.7145C34.611 39.6606 34.6403 39.6156 34.6578 39.5797C34.8389 39.2084 34.9624 38.9682 35.0281 38.8589C35.1241 38.6986 35.2263 38.5423 35.3346 38.39C35.431 38.2538 35.5048 38.1027 35.602 37.9772C35.7964 37.726 35.9922 37.4761 36.1894 37.2273C36.2296 37.1772 36.2724 37.1297 36.3178 37.0847Z" fill="#181913"/>
<path d="M64.0355 36.53L64.0333 36.5318C64.0198 36.5426 64.0176 36.5622 64.0284 36.5757L64.4143 37.0591C64.425 37.0726 64.4447 37.0748 64.4582 37.064L64.4604 37.0623C64.4738 37.0515 64.476 37.0319 64.4653 37.0184L64.0794 36.5349C64.0686 36.5215 64.049 36.5193 64.0355 36.53Z" fill="#181913"/>
<path d="M64.7569 37.5211C64.8053 37.5872 64.8578 37.631 64.8742 37.619C64.8907 37.607 64.8648 37.5436 64.8164 37.4776C64.7681 37.4115 64.7156 37.3677 64.6991 37.3797C64.6827 37.3917 64.7086 37.455 64.7569 37.5211Z" fill="#181913"/>
<path d="M65.0041 37.8447C65.0397 37.8972 65.08 37.932 65.0939 37.9226C65.1078 37.9131 65.0902 37.8629 65.0545 37.8104C65.0188 37.7579 64.9786 37.723 64.9647 37.7325C64.9508 37.7419 64.9684 37.7922 65.0041 37.8447Z" fill="#181913"/>
<path d="M65.2634 38.2144C65.2246 38.134 65.2371 38.125 65.301 38.1874C65.318 38.204 65.3478 38.2418 65.3904 38.3009C65.3932 38.3048 65.3945 38.3096 65.3938 38.3144C65.3931 38.3192 65.3906 38.3235 65.3868 38.3265L65.3684 38.3414C65.3665 38.3428 65.3644 38.3439 65.3621 38.3446C65.3598 38.3452 65.3575 38.3454 65.3552 38.3452C65.3528 38.3449 65.3506 38.3442 65.3486 38.343C65.3466 38.3419 65.3449 38.3404 65.3436 38.3385C65.309 38.2955 65.2823 38.2541 65.2634 38.2144Z" fill="#181913"/>
<path d="M65.5145 38.515L65.4804 38.5354C65.4717 38.5407 65.4688 38.552 65.4741 38.5607L66.0482 39.5201C66.0534 39.5288 66.0648 39.5317 66.0735 39.5264L66.1076 39.506C66.1163 39.5008 66.1192 39.4895 66.114 39.4807L65.5398 38.5214C65.5346 38.5127 65.5233 38.5098 65.5145 38.515Z" fill="#181913"/>
<path d="M60.0685 42.685L59.9741 42.8325C59.9709 42.8376 59.9667 42.8419 59.9617 42.8452C59.9568 42.8485 59.9512 42.8508 59.9453 42.8518C59.9394 42.8528 59.9334 42.8525 59.9276 42.851C59.9218 42.8495 59.9164 42.8469 59.9117 42.8432C59.8895 42.8261 59.8835 42.8039 59.894 42.7765C59.9304 42.6805 59.967 42.5849 60.0039 42.4899C60.0153 42.4591 60.0169 42.4305 60.0089 42.404C59.9994 42.3747 59.9869 42.3735 59.9713 42.4005C59.8431 42.619 59.6528 42.921 59.4002 43.3064C59.3657 43.3589 59.3269 43.3958 59.2839 43.4171C59.255 43.4312 59.2411 43.4223 59.242 43.3901L59.2449 43.3C60.1259 42.0749 60.3969 40.7242 60.3558 39.2373C60.3556 39.2294 60.3535 39.2217 60.3497 39.2148C60.346 39.2078 60.3406 39.2019 60.3341 39.1975C60.3276 39.193 60.3201 39.1902 60.3123 39.1892C60.3044 39.1883 60.2965 39.1892 60.2891 39.1919C58.3148 39.8899 56.5853 41.2208 56.0788 43.3064C56.031 43.5031 55.9847 43.7919 55.9398 44.1726C55.919 44.1811 55.9102 44.2043 55.9135 44.2421C55.9154 44.262 55.9062 44.2721 55.8858 44.2726H55.8532C55.8362 44.2726 55.8281 44.2811 55.8291 44.2981C55.8296 44.3114 55.8267 44.3232 55.8206 44.3336C55.8092 44.352 55.7986 44.3516 55.7887 44.3322C55.7411 44.2393 55.8085 43.9782 55.7816 43.8427C55.7811 43.8391 55.7794 43.8358 55.7768 43.8334C55.7742 43.8309 55.7708 43.8294 55.7672 43.8292C55.7636 43.8289 55.76 43.8299 55.7571 43.832C55.7542 43.8341 55.752 43.8371 55.7511 43.8406L55.6489 44.1208C55.6385 44.1487 55.6222 44.1527 55.6 44.1328L55.5397 44.0782C55.8021 41.2328 57.8793 39.5161 60.4423 38.6896C60.6019 38.6378 60.7353 38.6676 60.7495 38.8556C60.8474 40.1467 60.6885 41.5563 60.0685 42.685ZM58.1559 39.9821C58.0218 40.051 57.9062 40.1815 57.8083 40.2468C57.4177 40.5054 57.1025 40.8136 56.8627 41.1711C56.7761 41.3007 56.7939 41.317 56.9159 41.22C56.9911 41.1605 57.0809 41.0734 57.1855 40.959C57.5695 40.5381 58.0003 40.1739 58.478 39.8665C58.6298 39.7686 58.8199 39.6792 58.9895 39.5813C59.0831 39.5274 59.2148 39.4652 59.3846 39.3948C59.6684 39.277 59.8954 39.1401 60.2607 39.0209C60.2881 39.0119 60.2981 38.9935 60.2905 38.9656L60.2863 38.9478C60.281 38.9299 60.2697 38.9237 60.2522 38.9294C59.9578 39.0216 59.5953 39.1302 59.3498 39.2919C59.3323 39.3037 59.313 39.3087 59.2917 39.3068C59.2619 39.3044 59.2401 39.3165 59.2264 39.343C59.2204 39.3536 59.211 39.3622 59.1995 39.3678C59.0637 39.4335 58.927 39.4974 58.7894 39.5593C58.7795 39.5636 58.7733 39.5698 58.771 39.5778C58.7677 39.5887 58.7608 39.5969 58.7504 39.6026C58.5447 39.7154 58.3602 39.8764 58.1559 39.9821ZM60.5005 40.4042C60.4816 40.4496 60.4733 40.4995 60.4757 40.5539C60.4758 40.5563 60.4763 40.5585 60.4773 40.5607C60.4783 40.5628 60.4796 40.5647 60.4814 40.5663C60.4831 40.5678 60.4851 40.5691 60.4873 40.5699C60.4895 40.5707 60.4918 40.571 60.4941 40.5709L60.5196 40.5702C60.5245 40.5701 60.5291 40.568 60.5325 40.5644C60.5359 40.5609 60.5379 40.5561 60.5381 40.5511C60.5405 40.4759 60.544 40.4033 60.5487 40.3333C60.5487 40.3281 60.5475 40.3236 60.5452 40.3198C60.5414 40.3141 60.5362 40.3106 60.5296 40.3092C60.527 40.3085 60.5243 40.3085 60.5217 40.3091C60.5191 40.3097 60.5166 40.3109 60.5145 40.3126C60.5124 40.3143 60.5107 40.3165 60.5095 40.3189C60.5083 40.3214 60.5076 40.3241 60.5076 40.3269V40.3695C60.5076 40.3816 60.5052 40.3935 60.5005 40.4042ZM60.3657 41.2584C60.3496 41.2863 60.3399 41.3189 60.3366 41.3563C60.3357 41.3704 60.3423 41.3775 60.3565 41.3775H60.3792C60.3848 41.3775 60.3902 41.3753 60.3942 41.3713C60.3982 41.3673 60.4005 41.3619 60.4005 41.3563V41.2314C60.4005 41.1808 60.3889 41.1758 60.3657 41.2165C60.3596 41.2279 60.3596 41.2418 60.3657 41.2584ZM56.171 42.3246C56.1306 42.4182 56.1114 42.519 56.0675 42.6076C55.9781 42.7883 55.9163 42.9784 55.8823 43.178C55.8804 43.1884 55.8844 43.1948 55.8944 43.1971H55.8951C55.905 43.1995 55.9116 43.1957 55.9149 43.1858C56.0786 42.6594 56.2171 42.2974 56.3306 42.0997C56.4314 41.9242 56.4973 41.7904 56.5286 41.6982C56.5294 41.6953 56.5294 41.6923 56.5284 41.6894C56.5275 41.6866 56.5257 41.6841 56.5232 41.6824C56.5208 41.6807 56.5179 41.6798 56.5149 41.6798C56.5119 41.6798 56.509 41.6808 56.5066 41.6826C56.4631 41.7176 56.434 41.7587 56.4193 41.806C56.4122 41.8278 56.4004 41.8465 56.3838 41.8621C56.2812 41.9571 56.2209 42.0725 56.2029 42.2082C56.1973 42.2499 56.1866 42.2886 56.171 42.3246ZM55.7842 43.7679C55.7888 43.7688 55.7947 43.7631 55.8015 43.751C55.8082 43.7389 55.8157 43.7207 55.8235 43.6976C55.8313 43.6744 55.8393 43.6466 55.8469 43.6158C55.8546 43.585 55.8618 43.5518 55.8682 43.5181C55.881 43.4501 55.8896 43.3842 55.892 43.3348C55.8945 43.2854 55.8905 43.2567 55.8811 43.2549C55.8764 43.254 55.8706 43.2598 55.8638 43.2718C55.8571 43.2839 55.8496 43.3021 55.8418 43.3253C55.834 43.3485 55.826 43.3763 55.8183 43.407C55.8107 43.4378 55.8035 43.471 55.7971 43.5047C55.7842 43.5727 55.7757 43.6387 55.7732 43.688C55.7708 43.7374 55.7747 43.7661 55.7842 43.7679Z" fill="#020302"/>
<path d="M58.1559 39.983C58.3602 39.8773 58.5447 39.7163 58.7504 39.6035C58.7608 39.5978 58.7677 39.5895 58.771 39.5787C58.7733 39.5706 58.7795 39.5645 58.7894 39.5602C58.927 39.4983 59.0637 39.4344 59.1994 39.3687C59.211 39.3631 59.2204 39.3544 59.2264 39.3438C59.2401 39.3174 59.2619 39.3053 59.2917 39.3077C59.3129 39.3096 59.3323 39.3046 59.3498 39.2928C59.5953 39.131 59.9578 39.0225 60.2522 38.9303C60.2697 38.9246 60.281 38.9307 60.2862 38.9487L60.2905 38.9664C60.2981 38.9943 60.2881 39.0128 60.2607 39.0218C59.8954 39.141 59.6684 39.2779 59.3846 39.3956C59.2148 39.4661 59.0831 39.5283 58.9895 39.5822C58.8199 39.6801 58.6298 39.7695 58.478 39.8674C58.0003 40.1748 57.5695 40.5389 57.1855 40.9599C57.0809 41.0743 56.9911 41.1613 56.9159 41.2209C56.7939 41.3179 56.7761 41.3016 56.8627 41.172C57.1025 40.8144 57.4177 40.5063 57.8083 40.2476C57.9062 40.1824 58.0218 40.0518 58.1559 39.983Z" fill="#181913"/>
<path d="M44.3475 40.2783C44.3607 40.2868 44.3706 40.2989 44.3773 40.3145C44.379 40.3194 44.3793 40.3247 44.378 40.3297C44.3767 40.3347 44.3739 40.3392 44.37 40.3426C44.366 40.346 44.3612 40.3481 44.356 40.3487C44.3508 40.3492 44.3456 40.3482 44.3411 40.3457C44.3013 40.323 44.2671 40.2942 44.2382 40.2592C44.2193 40.236 44.2243 40.2206 44.2531 40.213C44.2687 40.2093 44.2839 40.2149 44.2985 40.2301C44.325 40.258 44.3413 40.2741 44.3475 40.2783Z" fill="#181913"/>
<path d="M60.5076 40.3699V40.3273C60.5076 40.3246 60.5083 40.3218 60.5095 40.3193C60.5107 40.3169 60.5124 40.3147 60.5145 40.313C60.5166 40.3113 60.5191 40.3101 60.5217 40.3095C60.5243 40.3089 60.527 40.3089 60.5296 40.3096C60.5362 40.311 60.5414 40.3145 60.5452 40.3202C60.5475 40.324 60.5487 40.3285 60.5487 40.3337C60.544 40.4037 60.5404 40.4763 60.5381 40.5515C60.5379 40.5565 60.5359 40.5613 60.5325 40.5648C60.5291 40.5684 60.5245 40.5705 60.5196 40.5706L60.4941 40.5714C60.4918 40.5714 60.4894 40.5711 60.4872 40.5703C60.4851 40.5695 60.4831 40.5682 60.4813 40.5667C60.4796 40.5651 60.4782 40.5632 60.4773 40.5611C60.4763 40.5589 60.4757 40.5567 60.4756 40.5543C60.4733 40.4999 60.4816 40.45 60.5005 40.4046C60.5052 40.3939 60.5076 40.382 60.5076 40.3699Z" fill="#181913"/>
<path d="M33.0127 44.2985C32.9985 44.282 32.9945 44.2586 33.0006 44.2283C33.0744 43.8537 33.1482 43.4778 33.2567 43.1117C33.5497 42.1285 33.8342 41.2474 34.2797 40.3429C34.2849 40.332 34.2929 40.329 34.3038 40.3337L34.3286 40.3443C34.3395 40.3486 34.343 40.3564 34.3392 40.3677C34.1782 40.8097 33.9271 41.2587 33.7817 41.6461C33.497 42.4037 33.3033 43.0226 33.2007 43.5026C33.1146 43.9055 33.0519 44.1708 33.0127 44.2985Z" fill="#181913"/>
<path d="M44.5638 40.5309C44.5454 40.5338 44.5321 40.5177 44.5241 40.4827C44.5234 40.4802 44.5236 40.4775 44.5245 40.475C44.5255 40.4726 44.5271 40.4705 44.5293 40.469C44.5315 40.4675 44.534 40.4668 44.5367 40.4668C44.5393 40.4668 44.5418 40.4677 44.544 40.4692L44.6965 40.5714C44.7 40.5739 44.7027 40.5777 44.7039 40.5819C44.7051 40.5862 44.7049 40.5908 44.7032 40.5948C44.7015 40.5988 44.6985 40.6021 44.6947 40.604C44.6909 40.606 44.6865 40.6065 44.6823 40.6054C44.634 40.595 44.5946 40.5702 44.5638 40.5309Z" fill="#181913"/>
<path d="M60.3657 41.259C60.3596 41.2424 60.3596 41.2285 60.3657 41.2171C60.3889 41.1765 60.4005 41.1814 60.4005 41.232V41.3569C60.4005 41.3625 60.3982 41.3679 60.3942 41.3719C60.3902 41.3759 60.3848 41.3782 60.3792 41.3782H60.3565C60.3423 41.3782 60.3357 41.3711 60.3366 41.3569C60.3399 41.3195 60.3496 41.2869 60.3657 41.259Z" fill="#181913"/>
<path d="M38.3615 41.2413C39.1915 41.5293 39.7718 41.8592 40.3117 42.6175C40.7551 43.2411 40.7884 43.9618 40.6274 44.689C40.6018 44.8053 40.5437 44.8973 40.4529 44.9649C40.4335 44.9791 40.4119 44.9841 40.3883 44.9798C38.4403 44.645 37.7217 43.3099 38.0579 41.4208C38.0901 41.242 38.1913 41.1822 38.3615 41.2413ZM38.69 43.4936C39.0057 44.0732 39.603 44.3889 40.2273 44.5265C40.2329 44.5277 40.2388 44.5278 40.2444 44.5266C40.2501 44.5255 40.2555 44.5232 40.2602 44.5198C40.265 44.5165 40.269 44.5122 40.272 44.5073C40.2749 44.5023 40.2769 44.4968 40.2776 44.491C40.3337 44.0661 40.367 43.5028 40.1535 43.1113C39.7754 42.4175 39.1901 42.0592 38.4992 41.7166C38.4722 41.7033 38.4552 41.7114 38.4481 41.7407C38.3057 42.3517 38.3864 42.936 38.69 43.4936Z" fill="#181913"/>
<path d="M60.2416 44.7164C60.1749 44.1546 60.1188 43.719 60.2628 43.2451C60.5771 42.2108 61.6348 41.5185 62.6081 41.2326C62.7107 41.2028 62.7765 41.2269 62.8053 41.3049C62.8082 41.313 62.8188 41.3711 62.8373 41.4794C63.0274 42.601 62.8458 43.8212 61.8526 44.5086C61.5767 44.7001 61.2184 44.8179 60.8864 44.9314C60.6388 45.0151 60.2855 45.0924 60.2416 44.7164ZM62.4123 41.7391C61.2418 42.2122 60.338 43.0798 60.6154 44.4646C60.6258 44.5152 60.6561 44.5351 60.7062 44.5242C62.0995 44.2206 62.5578 43.1061 62.4975 41.7937C62.4971 41.7838 62.4943 41.7741 62.4893 41.7655C62.4844 41.7569 62.4775 41.7496 62.4691 41.7442C62.4608 41.7389 62.4512 41.7356 62.4413 41.7347C62.4315 41.7338 62.4215 41.7353 62.4123 41.7391Z" fill="#181913"/>
<path d="M56.2029 42.2086C56.2209 42.0729 56.2812 41.9575 56.3838 41.8624C56.4004 41.8468 56.4122 41.8282 56.4193 41.8064C56.434 41.7591 56.4631 41.718 56.5066 41.683C56.509 41.6812 56.5119 41.6802 56.5149 41.6802C56.5179 41.6801 56.5208 41.6811 56.5232 41.6828C56.5257 41.6845 56.5275 41.687 56.5284 41.6898C56.5294 41.6926 56.5294 41.6957 56.5286 41.6986C56.4973 41.7908 56.4314 41.9246 56.3306 42.1001C56.2171 42.2978 56.0786 42.6598 55.9149 43.1862C55.9116 43.1961 55.905 43.1999 55.8951 43.1975H55.8943C55.8844 43.1952 55.8804 43.1888 55.8823 43.1784C55.9163 42.9788 55.9781 42.7887 56.0674 42.608C56.1114 42.5193 56.1306 42.4186 56.171 42.325C56.1866 42.289 56.1973 42.2502 56.2029 42.2086Z" fill="#181913"/>
<path d="M46.0238 42.4267C46.0105 42.3997 46.0077 42.377 46.0153 42.3586C46.0394 42.2994 46.0576 42.3011 46.0699 42.3635C46.0774 42.4023 46.0763 42.4494 46.0663 42.5047C46.0625 42.525 46.0547 42.5267 46.0429 42.5097C46.0339 42.4974 46.0301 42.4832 46.0316 42.4671C46.033 42.4529 46.0304 42.4394 46.0238 42.4267Z" fill="#181913"/>
<path d="M46.1385 42.8862C46.1714 42.9974 46.2109 43.0838 46.2267 43.0791C46.2425 43.0744 46.2286 42.9805 46.1956 42.8693C46.1627 42.7581 46.1232 42.6718 46.1074 42.6764C46.0916 42.6811 46.1056 42.775 46.1385 42.8862Z" fill="#181913"/>
<path d="M55.7971 43.5053C55.7703 43.647 55.7645 43.7648 55.7842 43.7685C55.8038 43.7722 55.8414 43.6604 55.8682 43.5187C55.895 43.3771 55.9008 43.2592 55.8811 43.2555C55.8615 43.2518 55.8239 43.3636 55.7971 43.5053Z" fill="#181913"/>
<path d="M67.6719 43.544L67.6457 43.5501C67.6357 43.5523 67.6295 43.5622 67.6318 43.5722L67.9248 44.8412C67.9271 44.8512 67.937 44.8574 67.9469 44.8551L67.9732 44.849C67.9831 44.8467 67.9893 44.8368 67.987 44.8269L67.694 43.5578C67.6918 43.5479 67.6818 43.5417 67.6719 43.544Z" fill="#181913"/>
<path d="M33.0127 44.2983C33.0169 44.3787 33.0061 44.4468 32.98 44.5026C32.9649 44.5343 32.9566 44.5327 32.9552 44.4977C32.9514 44.4215 32.9706 44.3551 33.0127 44.2983Z" fill="#181913"/>
<path d="M67.9839 45.1539C67.9759 45.1454 67.9792 45.1352 67.9939 45.1234C67.9963 45.1215 67.9991 45.1203 68.0021 45.1198C68.0051 45.1194 68.0082 45.1197 68.0111 45.1208C68.0139 45.1218 68.0164 45.1236 68.0184 45.1259C68.0204 45.1283 68.0217 45.1311 68.0223 45.1341L68.0684 45.4129C68.0698 45.4214 68.0662 45.4268 68.0577 45.4292L68.0357 45.4348C68.0329 45.4358 68.0308 45.4346 68.0293 45.4313C67.9996 45.3481 67.9868 45.2617 67.991 45.1724C67.991 45.1653 67.9887 45.1591 67.9839 45.1539Z" fill="#181913"/>
<path d="M68.1351 46.3679C68.1419 46.4656 68.1586 46.544 68.1722 46.5431C68.1859 46.5421 68.1915 46.4621 68.1846 46.3644C68.1778 46.2667 68.1612 46.1883 68.1475 46.1892C68.1338 46.1902 68.1283 46.2702 68.1351 46.3679Z" fill="#181913"/>
<path d="M68.0322 50.5084C68.0393 50.5575 68.0327 50.6044 68.0123 50.6488C68.0119 50.6495 68.0112 50.6501 68.0104 50.6505C68.0097 50.6508 68.0088 50.6509 68.0079 50.6508C68.0071 50.6506 68.0063 50.6502 68.0057 50.6496C68.0051 50.649 68.0047 50.6482 68.0045 50.6474C68.0083 50.5561 68.0211 50.4878 68.0428 50.4424C68.0452 50.4552 68.0433 50.4672 68.0372 50.4786C68.0324 50.488 68.0308 50.498 68.0322 50.5084Z" fill="#F8F8F1"/>
<path d="M67.6463 52.4945C67.6571 52.2807 67.6912 52.096 67.7484 51.9404C67.7749 51.8681 67.7841 51.8702 67.7761 51.9468C67.7581 52.1133 67.7148 52.2958 67.6463 52.4945Z" fill="#181913"/>
<path d="M33.1389 52.0408C33.1583 52.0687 33.1642 52.0983 33.1567 52.1295C33.1467 52.1668 33.1342 52.1678 33.1191 52.1323C33.0997 52.086 33.0912 52.0399 33.0935 51.994C33.0954 51.9491 33.1058 51.9446 33.1248 51.9805C33.1281 51.9871 33.1292 51.9949 33.1283 52.0039C33.1274 52.0176 33.1309 52.0299 33.1389 52.0408Z" fill="#181913"/>
<path d="M67.6463 52.4941C67.6023 53.0191 67.3611 53.571 67.2001 54.0754C67.0802 54.4521 66.8837 54.8437 66.7503 55.2438C66.7465 55.2551 66.7399 55.2627 66.7304 55.2665C66.7177 55.2707 66.7089 55.2792 66.7042 55.292C66.6058 55.5394 66.4325 55.9104 66.1842 56.4051C66.0764 56.62 65.9643 56.7768 65.887 56.9775C65.8444 57.0889 65.7656 57.1591 65.7181 57.2443C65.5096 57.6167 65.2691 58.0182 64.9498 58.307C64.8926 58.3585 64.878 58.3483 64.9059 58.2765C64.9366 58.1965 64.9837 58.1218 65.047 58.0523C65.1175 57.9752 65.1683 57.9059 65.1995 57.8444C65.2431 57.7584 65.2882 57.6723 65.335 57.5862C65.3383 57.5801 65.343 57.5748 65.3487 57.5709C65.3544 57.5669 65.3609 57.5644 65.3677 57.5635C65.3951 57.5597 65.4093 57.5427 65.4102 57.5124C65.4783 57.423 65.5131 57.3138 65.5677 57.2315C65.887 56.7444 66.0827 56.4242 66.1551 56.271C66.3263 55.9082 66.5011 55.5476 66.6794 55.1891C66.9508 54.6434 67.227 53.9023 67.5079 52.9659C67.5434 52.8488 67.5803 52.6445 67.6463 52.4941Z" fill="#181913"/>
<path d="M42.4661 54.9651C41.0998 55.5751 39.3909 55.4503 38.1204 54.621C37.987 54.5337 38.0416 54.4259 38.1275 54.3273C38.4921 53.9116 38.8624 53.5562 39.2384 53.2611C40.1273 52.563 41.5524 52.441 42.5513 52.7411C42.7196 52.7917 43.0694 52.9378 43.6005 53.1795C43.7707 53.2571 43.828 53.3791 43.7721 53.5455C43.5518 54.201 43.1164 54.6742 42.4661 54.9651ZM40.9367 53.0326C40.0265 53.1142 39.1653 53.7137 38.6233 54.4217C38.6201 54.4259 38.6179 54.4309 38.6168 54.4362C38.6158 54.4414 38.616 54.4469 38.6173 54.4521C38.6187 54.4572 38.6212 54.4621 38.6247 54.4661C38.6282 54.4702 38.6326 54.4734 38.6375 54.4756C39.415 54.8203 40.2183 54.9584 41.0473 54.8899C41.9575 54.8139 42.896 54.5203 43.2969 53.6101C43.3041 53.5935 43.3051 53.5749 43.2996 53.5577C43.2941 53.5404 43.2825 53.5258 43.2671 53.5165C42.5555 53.0859 41.7461 52.9596 40.9367 53.0326Z" fill="#181913"/>
<path d="M57.2791 53.152C57.5392 53.0385 57.8019 52.9309 58.0673 52.8292C59.0774 52.4419 60.2742 52.5362 61.2113 53.0768C61.837 53.4379 62.2719 53.8862 62.7514 54.3913C62.7667 54.4074 62.7771 54.4276 62.7814 54.4494C62.7857 54.4713 62.7836 54.4939 62.7755 54.5147C62.6358 54.8765 61.3184 55.2596 60.9609 55.3157C59.3626 55.5661 57.726 55.0851 57.0252 53.501C56.9599 53.352 57.1337 53.2151 57.2791 53.152ZM57.5182 53.5464C57.8225 54.3182 58.6639 54.7049 59.4343 54.8475C60.3981 55.0262 61.3123 54.8966 62.1768 54.4587C62.1824 54.4558 62.1873 54.4516 62.1909 54.4464C62.1945 54.4412 62.1969 54.4353 62.1977 54.4291C62.1986 54.4229 62.1979 54.4166 62.1957 54.4107C62.1935 54.4049 62.19 54.3997 62.1853 54.3956C61.9924 54.2229 61.8001 54.0473 61.6086 53.8685C60.4892 52.8214 58.8405 52.8221 57.5366 53.4982C57.5281 53.5026 57.5215 53.51 57.5181 53.5189C57.5147 53.5278 57.5147 53.5376 57.5182 53.5464Z" fill="#181913"/>
<path d="M33.3725 53.1381C33.3957 53.224 33.4252 53.2907 33.4384 53.2871C33.4517 53.2836 33.4436 53.2111 33.4204 53.1252C33.3973 53.0393 33.3678 52.9726 33.3545 52.9762C33.3413 52.9798 33.3493 53.0523 33.3725 53.1381Z" fill="#181913"/>
<path d="M33.7143 54.1398L33.4532 53.3821C33.4528 53.3812 33.453 53.3805 33.4539 53.38L33.4745 53.375C33.4835 53.3722 33.4896 53.3753 33.493 53.3843C33.5696 53.6193 33.6478 53.8544 33.7278 54.0894C33.7325 54.1041 33.728 54.1209 33.7143 54.1398Z" fill="#181913"/>
<path d="M33.7143 54.1401C33.8732 54.4315 33.9928 54.7341 34.0732 55.0482C33.9167 54.7654 33.797 54.4627 33.7143 54.1401Z" fill="#181913"/>
<path d="M34.0732 55.0483C34.148 55.1491 34.2002 55.2614 34.23 55.3853C34.2404 55.4283 34.2324 55.4321 34.2059 55.3967C34.1307 55.2945 34.0865 55.1784 34.0732 55.0483Z" fill="#181913"/>
<path d="M34.8996 56.6281L34.8874 56.6353C34.8759 56.642 34.872 56.6568 34.8788 56.6683L35.176 57.1749C35.1828 57.1864 35.1975 57.1902 35.209 57.1835L35.2213 57.1763C35.2328 57.1696 35.2366 57.1548 35.2299 57.1433L34.9326 56.6367C34.9259 56.6252 34.9111 56.6213 34.8996 56.6281Z" fill="#181913"/>
<path d="M35.414 57.5336C35.3974 57.5246 35.3878 57.51 35.3849 57.4896C35.3811 57.4608 35.3918 57.4537 35.4168 57.4683C35.4618 57.4948 35.4873 57.5343 35.4935 57.5868C35.4972 57.6166 35.4873 57.6221 35.4637 57.6031C35.4485 57.5913 35.4384 57.5762 35.4332 57.5577C35.4303 57.5469 35.4239 57.5388 35.414 57.5336Z" fill="#181913"/>
<path d="M36.3596 58.7889C36.4012 58.8135 36.4289 58.8492 36.4426 58.896C36.4455 58.9069 36.4412 58.9135 36.4298 58.9159L36.3986 58.9216C36.3962 58.9221 36.3938 58.9221 36.3914 58.9216C36.389 58.921 36.3867 58.92 36.3848 58.9185C36.3828 58.917 36.3812 58.9151 36.38 58.913C36.3789 58.9108 36.3782 58.9084 36.3781 58.906C36.3752 58.8705 36.3622 58.8398 36.339 58.8138C36.3365 58.8108 36.335 58.8071 36.3349 58.8032C36.3349 58.7993 36.3362 58.7955 36.3387 58.7925C36.3412 58.7895 36.3447 58.7875 36.3485 58.7869C36.3523 58.7862 36.3563 58.7869 36.3596 58.7889Z" fill="#181913"/>
<path d="M54.9791 59.1773C55.1339 59.1426 55.2579 59.1078 55.2561 59.0994C55.2542 59.0909 55.1271 59.1122 54.9723 59.1468C54.8174 59.1814 54.6934 59.2163 54.6953 59.2247C54.6972 59.2331 54.8242 59.2119 54.9791 59.1773Z" fill="#F8F8F1"/>
<path d="M39.869 62.173L40.013 62.2794C40.0188 62.2839 40.0228 62.2905 40.0241 62.2977C40.0254 62.3049 40.0239 62.3124 40.0201 62.3187C40.0162 62.3249 40.0101 62.3295 40.0031 62.3316C39.996 62.3336 39.9884 62.333 39.9818 62.3298C39.8981 62.2877 39.8253 62.2324 39.7633 62.1638C39.7449 62.143 39.7486 62.1276 39.7747 62.1177C39.7974 62.1092 39.8175 62.1165 39.835 62.1397C39.8449 62.1524 39.8562 62.1636 39.869 62.173Z" fill="#181913"/>
<path d="M50.4128 65.5675C50.4757 65.5344 50.5363 65.4966 50.5944 65.454C50.8701 65.2502 51.1799 65.1754 51.5237 65.2298C52.4502 65.376 52.9645 66.328 52.8347 67.197C52.6481 68.4448 51.5635 69.5018 50.5682 70.2488C50.4589 70.3306 50.357 70.3316 50.2624 70.2517C49.3721 69.5011 48.4109 68.6562 48.0746 67.5127C47.9791 67.1863 47.9507 66.8898 47.9895 66.6231C48.103 65.8385 48.7493 65.1802 49.5743 65.21C49.8718 65.2208 50.1319 65.3372 50.3547 65.559C50.3717 65.576 50.3911 65.5788 50.4128 65.5675ZM51.1907 65.4295C51.1899 65.4255 51.1869 65.422 51.1818 65.4191C51.1767 65.4163 51.1696 65.4142 51.1609 65.413C51.1523 65.4117 51.1423 65.4114 51.1314 65.412C51.1205 65.4125 51.1091 65.414 51.0977 65.4163C51.0862 65.4186 51.0751 65.4216 51.0649 65.4253C51.0546 65.4289 51.0455 65.4331 51.038 65.4375C51.0305 65.442 51.0247 65.4466 51.0211 65.4512C51.0175 65.4558 51.016 65.4603 51.0168 65.4643C51.0176 65.4683 51.0207 65.4718 51.0258 65.4747C51.0309 65.4775 51.038 65.4796 51.0466 65.4808C51.0552 65.4821 51.0653 65.4824 51.0761 65.4818C51.087 65.4813 51.0985 65.4798 51.1099 65.4775C51.1213 65.4752 51.1325 65.4722 51.1427 65.4685C51.1529 65.4649 51.1621 65.4607 51.1696 65.4563C51.1771 65.4518 51.1828 65.4471 51.1865 65.4426C51.1901 65.438 51.1915 65.4335 51.1907 65.4295ZM48.4244 66.594C48.2108 67.8305 49.4892 69.0904 50.361 69.7693C50.3804 69.7843 50.4041 69.7925 50.4285 69.7926C50.4528 69.7927 50.4765 69.7848 50.4958 69.77C51.4124 69.0712 52.856 67.6439 52.3296 66.3493C52.2412 66.1317 52.1069 65.9667 51.9267 65.8541C51.3644 65.5022 50.8879 65.5857 50.4972 66.1045C50.4848 66.1209 50.4688 66.1343 50.4505 66.1437C50.4322 66.1531 50.4121 66.1583 50.3916 66.1588C50.3711 66.1593 50.3507 66.1553 50.332 66.1468C50.3134 66.1384 50.2968 66.1259 50.2837 66.1102C50.1198 65.9158 49.9581 65.6994 49.6779 65.6618C49.038 65.5767 48.5322 65.9676 48.4244 66.594ZM52.4942 67.6517L52.2374 68.1944C52.237 68.195 52.2368 68.1958 52.2368 68.1965C52.2368 68.1972 52.2369 68.1979 52.2371 68.1986C52.2374 68.1993 52.2378 68.1999 52.2384 68.2004C52.2389 68.2009 52.2395 68.2013 52.2402 68.2015L52.253 68.2072C52.2598 68.2105 52.2698 68.2069 52.2824 68.1965C52.295 68.1861 52.31 68.1692 52.3266 68.1467C52.3431 68.1243 52.3609 68.0967 52.3788 68.0655C52.3967 68.0344 52.4145 68.0003 52.4311 67.9653L52.4396 67.9468C52.4561 67.9118 52.4712 67.8764 52.4838 67.8429C52.4965 67.8093 52.5065 67.7781 52.5134 67.7511C52.5202 67.7241 52.5238 67.7018 52.5238 67.6854C52.5238 67.6691 52.5202 67.6591 52.5134 67.656L52.5006 67.6496C52.4994 67.6491 52.4982 67.649 52.497 67.6494C52.4958 67.6498 52.4948 67.6506 52.4942 67.6517ZM48.9883 68.8038C49.0115 68.8506 49.0486 68.8861 49.0997 68.9102C49.1038 68.9119 49.1084 68.9121 49.1127 68.9109C49.117 68.9097 49.1207 68.9071 49.1233 68.9035C49.1259 68.8999 49.1273 68.8955 49.1271 68.8911C49.127 68.8866 49.1253 68.8824 49.1224 68.879L48.9685 68.708C48.9562 68.6948 48.9472 68.6967 48.9415 68.7137C48.9349 68.7359 48.9413 68.7548 48.9607 68.7704C48.9725 68.7794 48.9817 68.7905 48.9883 68.8038Z" fill="#020302"/>
<path d="M51.1099 65.4769C51.1579 65.4674 51.1941 65.4459 51.1907 65.429C51.1873 65.4121 51.1457 65.4061 51.0977 65.4157C51.0496 65.4253 51.0134 65.4468 51.0168 65.4637C51.0202 65.4806 51.0619 65.4865 51.1099 65.4769Z" fill="#181913"/>
<path d="M50.361 69.7686C49.4892 69.0897 48.2109 67.8298 48.4244 66.5933C48.5322 65.9669 49.038 65.5761 49.6779 65.6612C49.9581 65.6988 50.1198 65.9152 50.2837 66.1095C50.2968 66.1252 50.3134 66.1378 50.332 66.1462C50.3507 66.1546 50.3711 66.1587 50.3916 66.1581C50.4121 66.1576 50.4323 66.1524 50.4505 66.143C50.4688 66.1336 50.4848 66.1202 50.4972 66.1038C50.8879 65.585 51.3644 65.5016 51.9267 65.8534C52.1069 65.966 52.2412 66.131 52.3296 66.3486C52.856 67.6432 51.4124 69.0706 50.4958 69.7693C50.4765 69.7841 50.4528 69.7921 50.4285 69.7919C50.4041 69.7918 50.3804 69.7836 50.361 69.7686Z" fill="#FEFEFC"/>
<path d="M60.6055 77.9059C60.3804 77.984 60.4686 78.0351 60.8701 78.0592C61.0347 78.0698 61.1836 78.0315 61.3425 78.0606C61.4724 78.084 61.5766 78.111 61.715 78.089C61.9484 78.0514 62.2066 78.0833 62.4442 78.0719C62.9053 78.0492 63.3508 78.1003 63.8084 78.0939C63.8098 78.0939 63.8105 78.0946 63.8105 78.0961V78.1138C63.8105 78.1256 63.8046 78.1315 63.7928 78.1315C63.4998 78.1337 63.1948 78.1805 62.9231 78.1833C62.7353 78.1857 62.5478 78.1895 62.3605 78.1947C62.3534 78.1947 62.3473 78.1925 62.3421 78.1883C62.3397 78.1864 62.3343 78.1854 62.3258 78.1854L60.6055 78.2344C60.5962 78.2346 60.5871 78.2373 60.5791 78.242C60.5711 78.2467 60.5645 78.2534 60.5598 78.2615C60.5551 78.2695 60.5525 78.2786 60.5523 78.2879C60.5521 78.2972 60.5543 78.3063 60.5587 78.3146C60.5757 78.3462 60.6019 78.3621 60.6374 78.3621L50.6299 78.3642C50.6287 78.3642 50.6276 78.3644 50.6265 78.3649C50.6254 78.3653 50.6244 78.366 50.6236 78.3668C50.6228 78.3676 50.6222 78.3685 50.6218 78.3695C50.6214 78.3706 50.6213 78.3717 50.6214 78.3727L50.6271 79.7844C50.6273 79.8396 50.606 79.8927 50.5677 79.9324C50.5294 79.9722 50.4772 79.9954 50.422 79.9973L50.3497 79.9994C50.3274 80.0002 50.3051 79.9966 50.2843 79.9886C50.2635 79.9807 50.2444 79.9685 50.2284 79.953C50.2124 79.9375 50.1996 79.9189 50.191 79.8984C50.1823 79.8778 50.1779 79.8557 50.178 79.8334L50.1844 78.4167C50.1844 78.4024 50.1788 78.3887 50.1688 78.3786C50.1588 78.3685 50.1453 78.3628 50.1312 78.3628L47.2 78.3692C47.2302 78.3295 47.2248 78.2919 47.1836 78.2564C47.1657 78.2413 47.1451 78.2346 47.1219 78.2365C46.9389 78.2512 46.7157 78.2538 46.4522 78.2443C45.924 78.2254 45.3151 78.2299 44.6255 78.2578C44.5596 78.2606 44.495 78.2358 44.4361 78.2358C43.7783 78.2344 43.1202 78.2287 42.4619 78.2188C41.7028 78.2067 40.9799 78.25 40.1074 78.206C39.935 78.1975 39.7236 78.228 39.5235 78.2018C39.3788 78.1833 39.2455 78.2387 39.11 78.2174C38.9362 78.1897 38.7815 78.2181 38.6531 78.2181C38.1258 78.2176 37.5982 78.2174 37.0704 78.2174C37.0586 78.2074 37.035 78.2025 36.9995 78.2025C36.6784 78.2025 35.9524 78.1914 34.8216 78.1691C34.8051 78.1687 34.789 78.1715 34.7734 78.1776C34.7597 78.1828 34.745 78.1854 34.7294 78.1854C34.2101 78.1765 33.6909 78.1779 33.1716 78.1897C32.985 78.194 32.7396 78.1762 32.4948 78.2089C32.3548 78.2273 32.2007 78.2297 32.0323 78.2159C31.8568 78.2018 31.7041 78.2001 31.574 78.211C31.1484 78.245 30.7223 78.2467 30.2957 78.2159C30.1216 78.2037 29.9592 78.2245 29.8083 78.2784C29.744 78.3016 29.7449 78.3212 29.8112 78.3373C29.8239 78.3401 29.8388 78.3496 29.8558 78.3656L17.2534 78.3699C17.1039 78.3699 17.0216 78.2954 17.0065 78.1464L17.0008 78.0925C16.9985 78.0698 17.001 78.0469 17.0081 78.0252C17.0152 78.0035 17.0267 77.9836 17.042 77.9667C17.0572 77.9498 17.0758 77.9363 17.0966 77.927C17.1174 77.9178 17.1398 77.913 17.1626 77.913L36.6271 77.9052L50.1014 77.9074C50.1534 77.9074 50.1761 77.8816 50.1695 77.83C50.0205 76.6503 49.5381 75.5649 48.5514 74.8626L48.506 74.7002C48.5041 74.6926 48.4991 74.6891 48.4911 74.6895C48.484 74.6895 48.4776 74.6886 48.4719 74.6867C48.4648 74.6843 48.4587 74.6775 48.4535 74.6661C48.3934 74.5436 48.3014 74.4644 48.1775 74.4285C48.1667 74.4253 48.1574 74.4181 48.1517 74.4083C48.1461 74.3986 48.1444 74.387 48.147 74.376L48.1534 74.3483C48.16 74.3214 48.1759 74.3138 48.2009 74.3256L48.9735 74.6831C48.9777 74.6852 48.9826 74.6865 48.9874 74.6868C48.9922 74.687 48.9969 74.6863 49.0008 74.6847C49.0047 74.6831 49.0077 74.6806 49.0095 74.6776C49.0114 74.6745 49.0119 74.6711 49.0111 74.6675C49.0101 74.6633 49.016 74.6533 49.0288 74.6377C49.0572 74.6486 49.078 74.6465 49.0912 74.6314C49.1305 74.6772 49.1456 74.6337 49.1366 74.5008C49.1347 74.4781 49.1262 74.4583 49.1111 74.4412C49.0302 74.3552 48.9583 74.2632 48.8954 74.1653C48.6556 73.7921 48.3442 73.463 48.0626 73.1218C47.7448 72.7358 47.3924 72.3847 47.0056 72.0683C47.0027 72.0659 46.9793 72.0425 46.9353 71.9981C46.8481 71.9094 46.7303 71.886 46.6665 71.7505C46.649 71.7127 46.6606 71.6982 46.7012 71.7072C46.7585 71.7195 46.8027 71.7524 46.8339 71.8058C46.8434 71.8228 46.8576 71.8344 46.8765 71.8406C46.911 71.8524 46.942 71.869 46.9694 71.8902C46.9864 71.903 47.0016 71.9177 47.0148 71.9342C47.0375 71.9621 47.0656 71.9827 47.0992 71.9959C47.1203 72.0044 47.1396 72.0167 47.156 72.0321C47.5972 72.4421 47.9451 72.7808 48.1995 73.048C48.2534 73.1043 48.3199 73.1896 48.3988 73.3041C48.4648 73.3998 48.5599 73.463 48.6337 73.5609C48.8926 73.9049 49.1905 74.2 49.436 74.5597C49.4492 74.5791 49.4672 74.5864 49.4899 74.5817C49.5344 74.5727 49.5705 74.5841 49.5984 74.6157C49.6047 74.6227 49.6123 74.6282 49.6207 74.632C49.6291 74.6358 49.6382 74.6377 49.6474 74.6377C49.6928 74.6382 49.7221 74.6195 49.7353 74.5817C49.7434 74.559 49.7422 74.5294 49.7318 74.493C49.6609 74.2504 49.5909 74.0076 49.5218 73.7645C49.4587 73.541 49.3821 73.1494 49.2679 72.8501C49.2636 72.8387 49.2624 72.8285 49.2643 72.8196C49.2667 72.8101 49.2705 72.8018 49.2757 72.7947C49.2932 72.772 49.3076 72.7739 49.3189 72.8004C49.4204 73.0409 49.5459 73.4204 49.6226 73.7467C49.6552 73.8867 49.6862 73.9979 49.7155 74.0802C49.7694 74.2329 49.8113 74.389 49.841 74.5484C49.8716 74.7129 49.9574 74.9293 49.9524 75.1414C49.9503 75.2287 50.056 75.3557 50.078 75.4535C50.1508 75.7789 50.2111 76.1069 50.2589 76.4375C50.2622 76.4607 50.2754 76.4746 50.2986 76.4793C50.318 76.4836 50.3376 76.4805 50.3575 76.4701C50.3712 76.4923 50.384 76.5046 50.3958 76.507C50.4007 76.508 50.4057 76.5079 50.4106 76.507C50.4154 76.506 50.42 76.5041 50.424 76.5014C50.428 76.4986 50.4313 76.4951 50.4338 76.4911C50.4363 76.4871 50.4378 76.4826 50.4384 76.4779C50.4596 76.2982 50.4897 76.1187 50.5285 75.9395C50.8385 74.4987 51.1343 73.009 51.7891 71.7001C52.6701 69.9394 54.2152 68.6703 56.1178 68.1744C56.5189 68.0704 57.141 67.9417 57.9842 67.7885C58.5191 67.6915 59.2276 67.5208 60.1096 67.2763C60.2557 67.2359 60.36 67.2458 60.4366 67.3799C60.4528 67.4086 60.46 67.4415 60.4573 67.4743C60.4547 67.507 60.4423 67.5381 60.4217 67.5636C60.0514 68.0238 59.7256 68.5196 59.4442 69.0512C59.0597 69.7791 58.6922 70.7892 58.2971 71.4263C57.4955 72.7181 56.2916 73.5971 54.8012 73.9447C53.4597 74.2582 52.2225 74.5228 51.3847 75.6912C50.9427 76.3062 50.7193 77.1043 50.6441 77.8669C50.6417 77.8882 50.6514 77.8989 50.6732 77.8989L60.6055 77.9059ZM51.2783 74.5583C51.2807 74.5748 51.2863 74.576 51.2953 74.5618C51.4393 74.3327 51.5798 74.0887 51.7401 73.8801C52.7668 72.5488 54.0055 71.4535 55.4559 70.5942C55.7265 70.4338 56.1396 70.2106 56.6953 69.9245C56.7349 69.904 56.781 69.9001 56.8235 69.9135C56.8661 69.9269 56.9016 69.9566 56.9223 69.9961L56.9457 70.0401C56.9719 70.0898 56.9778 70.1477 56.9622 70.2017C56.9466 70.2557 56.9107 70.3015 56.862 70.3296C56.5995 70.479 56.3796 70.5984 56.2022 70.6878C54.4131 71.5911 52.9539 72.8666 51.8245 74.5143C51.7801 74.5796 51.7938 74.5964 51.8657 74.5647C51.9976 74.5072 52.1345 74.393 52.2516 74.3299C53.1539 73.8446 54.1478 73.6616 55.1062 73.4069C55.6955 73.2504 56.2706 72.9373 56.8315 72.4677C57.56 71.8583 58.0119 71.0844 58.4645 70.138C58.8398 69.3534 59.1498 68.5937 59.6896 67.9063C59.735 67.849 59.7223 67.8294 59.6513 67.8474C58.8263 68.0595 57.9871 68.2439 57.1394 68.4028C56.7818 68.47 56.3883 68.5634 55.9589 68.683C53.2682 69.4322 51.8486 71.8108 51.2804 74.3767C51.2691 74.4287 51.2684 74.4892 51.2783 74.5583Z" fill="#181913"/>
<path d="M50.3575 76.471C50.3376 76.4814 50.318 76.4845 50.2986 76.4802C50.2754 76.4755 50.2622 76.4616 50.2589 76.4384C50.2111 76.1078 50.1508 75.7798 50.078 75.4544C50.056 75.3566 49.9503 75.2296 49.9524 75.1423C49.9574 74.9302 49.8716 74.7138 49.841 74.5493C49.8113 74.3899 49.7694 74.2338 49.7155 74.0811C49.6862 73.9988 49.6552 73.8876 49.6226 73.7476C49.5459 73.4213 49.4204 73.0418 49.3189 72.8013C49.3076 72.7748 49.2932 72.7729 49.2757 72.7956C49.2705 72.8027 49.2667 72.811 49.2643 72.8205C49.2624 72.8294 49.2636 72.8396 49.2679 72.851C49.3821 73.1503 49.4587 73.5419 49.5218 73.7654C49.5909 74.0085 49.6609 74.2513 49.7318 74.4939C49.7422 74.5303 49.7434 74.5599 49.7353 74.5826C49.7221 74.6204 49.6928 74.6391 49.6474 74.6386C49.6382 74.6386 49.6291 74.6367 49.6207 74.6329C49.6123 74.6291 49.6047 74.6236 49.5984 74.6166C49.5705 74.585 49.5344 74.5736 49.4899 74.5826C49.4672 74.5873 49.4492 74.58 49.436 74.5606C49.1905 74.2009 48.8926 73.9058 48.6337 73.5618C48.5599 73.4639 48.4648 73.4007 48.3988 73.305C48.3199 73.1905 48.2534 73.1052 48.1995 73.0489C47.9451 72.7817 47.5972 72.443 47.156 72.033C47.1396 72.0176 47.1203 72.0053 47.0992 71.9968C47.0656 71.9836 47.0375 71.963 47.0148 71.9351C47.0016 71.9186 46.9864 71.9039 46.9694 71.8911C46.942 71.8699 46.911 71.8533 46.8765 71.8415C46.8576 71.8353 46.8434 71.8237 46.8339 71.8067C46.8027 71.7533 46.7585 71.7204 46.7012 71.7081C46.6606 71.6991 46.649 71.7136 46.6665 71.7514C46.7303 71.8869 46.8481 71.9103 46.9354 71.999C46.9793 72.0434 47.0027 72.0668 47.0056 72.0692C47.3924 72.3856 47.7448 72.7367 48.0626 73.1227C48.3442 73.4639 48.6556 73.793 48.8954 74.1662C48.9583 74.2641 49.0302 74.3561 49.1111 74.4421C49.1262 74.4592 49.1347 74.479 49.1366 74.5017C49.1456 74.6346 49.1305 74.6781 49.0912 74.6323C48.2676 73.4454 47.2666 72.3515 46.055 71.5499C45.3517 71.0845 44.6776 70.6996 44.0325 70.395C43.9081 70.3364 43.867 70.2415 43.9091 70.1105L43.9239 70.0644C43.9303 70.0448 43.9407 70.0267 43.9546 70.0114C43.9684 69.9961 43.9853 69.984 44.0041 69.9757C44.023 69.9675 44.0434 69.9633 44.0639 69.9636C44.0845 69.9638 44.1047 69.9685 44.1233 69.9772C45.8351 70.7823 47.29 71.7642 48.4577 73.1546C48.8351 73.6043 49.2324 74.0357 49.5481 74.5429C49.5542 74.5523 49.5613 74.5582 49.5694 74.5606C49.5812 74.5644 49.5916 74.5625 49.6006 74.5549C49.6053 74.5507 49.6088 74.5453 49.6104 74.5392C49.612 74.5331 49.6118 74.5268 49.6098 74.5209C49.4835 74.1723 49.3743 73.8245 49.282 73.4774C48.8365 71.8018 47.8966 70.2971 46.3941 69.3416C45.3023 68.6471 44.0048 68.4541 42.7804 68.2023C42.3207 68.1079 41.6539 67.9348 41.0835 67.832C41.0556 67.8272 41.0497 67.8364 41.0658 67.8596C41.6808 68.7421 42.1079 69.6558 42.5676 70.6206C43.0183 71.5679 43.6835 72.3265 44.5631 72.8964C45.1373 73.2686 45.6842 73.4967 46.204 73.5809C47.1744 73.7384 48.2158 74.0385 49.0288 74.6386C49.016 74.6542 49.0101 74.6642 49.0111 74.6684C49.0119 74.672 49.0114 74.6754 49.0095 74.6785C49.0077 74.6815 49.0047 74.684 49.0008 74.6856C48.9969 74.6872 48.9922 74.6879 48.9874 74.6877C48.9826 74.6874 48.9777 74.6861 48.9735 74.684L48.2009 74.3265C48.1759 74.3147 48.16 74.3222 48.1534 74.3492L48.147 74.3769C48.1444 74.3879 48.1461 74.3995 48.1517 74.4092C48.1574 74.419 48.1667 74.4262 48.1775 74.4294C48.3014 74.4653 48.3934 74.5445 48.4535 74.667C48.4587 74.6784 48.4648 74.6852 48.4719 74.6876C48.4776 74.6895 48.484 74.6904 48.4911 74.6904C48.4991 74.69 48.5041 74.6935 48.506 74.7011L48.5514 74.8635C48.0193 74.5197 47.4735 74.2873 46.9141 74.1662C46.3565 74.0463 45.8379 73.9526 45.3633 73.7696C44.3134 73.3638 43.4609 72.7136 42.8059 71.8188C42.066 70.8079 41.7057 69.5175 40.97 68.4591C40.7747 68.1781 40.5839 67.8939 40.3975 67.6064C40.2947 67.4482 40.4032 67.2439 40.6004 67.2871C41.7269 67.5354 42.8556 67.7728 43.9864 67.9994C47.4646 68.6967 49.1522 70.9264 49.9127 74.2541C50.1411 75.252 50.2894 75.991 50.3575 76.471ZM48.3002 70.8306C48.2879 70.8514 48.2868 70.8696 48.2967 70.8852C48.4939 71.194 48.6871 71.5092 48.8763 71.8308C48.8819 71.8412 48.89 71.8434 48.9004 71.8372L48.9217 71.8245C48.9321 71.8183 48.9342 71.81 48.9281 71.7996C48.755 71.5126 48.583 71.2286 48.4123 70.9476C48.3925 70.9145 48.3551 70.8755 48.3002 70.8306C48.2922 70.7686 48.2693 70.7325 48.2314 70.722C48.2064 70.715 48.1971 70.7239 48.2038 70.749C48.2246 70.8242 48.2567 70.8514 48.3002 70.8306Z" fill="#020302"/>
<path d="M52.4942 67.6515C52.4948 67.6504 52.4958 67.6496 52.497 67.6492C52.4982 67.6488 52.4994 67.6489 52.5006 67.6494L52.5133 67.6557C52.5202 67.6589 52.5237 67.6689 52.5237 67.6852C52.5238 67.7015 52.5202 67.7238 52.5134 67.7508C52.5065 67.7779 52.4965 67.8091 52.4838 67.8426C52.4712 67.8762 52.4561 67.9116 52.4396 67.9466L52.4311 67.965C52.4145 68.0001 52.3967 68.0342 52.3788 68.0653C52.3609 68.0965 52.3431 68.1241 52.3266 68.1465C52.31 68.169 52.295 68.1859 52.2824 68.1963C52.2698 68.2066 52.2598 68.2103 52.253 68.2069L52.2402 68.2013C52.2395 68.201 52.2389 68.2007 52.2384 68.2002C52.2378 68.1997 52.2374 68.1991 52.2371 68.1984C52.2369 68.1977 52.2368 68.197 52.2368 68.1963C52.2368 68.1955 52.237 68.1948 52.2374 68.1942L52.4942 67.6515Z" fill="#181913"/>
<path d="M48.9607 68.7698C48.9413 68.7542 48.9349 68.7353 48.9415 68.7131C48.9472 68.6961 48.9562 68.6942 48.9685 68.7074L49.1224 68.8784C49.1253 68.8818 49.127 68.886 49.1271 68.8905C49.1273 68.8949 49.1259 68.8993 49.1233 68.9029C49.1207 68.9065 49.117 68.9091 49.1127 68.9103C49.1084 68.9115 49.1038 68.9113 49.0997 68.9096C49.0486 68.8855 49.0115 68.85 48.9883 68.8032C48.9817 68.7899 48.9725 68.7788 48.9607 68.7698Z" fill="#181913"/>
<path d="M48.3002 70.8301C48.2567 70.8509 48.2246 70.8237 48.2038 70.7485C48.1971 70.7235 48.2064 70.7145 48.2314 70.7216C48.2693 70.732 48.2922 70.7682 48.3002 70.8301Z" fill="#181913"/>
<path d="M48.3002 70.8306C48.3551 70.8755 48.3925 70.9145 48.4123 70.9476C48.5831 71.2285 48.755 71.5125 48.9281 71.7996C48.9342 71.81 48.9321 71.8183 48.9217 71.8244L48.9004 71.8372C48.89 71.8434 48.882 71.8412 48.8763 71.8308C48.6871 71.5092 48.4939 71.194 48.2967 70.8852C48.2868 70.8696 48.2879 70.8514 48.3002 70.8306Z" fill="#181913"/>
<path d="M60.6055 77.9062H64.6455L83.6588 77.9077C83.8045 77.9077 83.8892 77.9793 83.9128 78.1226L83.9213 78.1758C83.9249 78.1973 83.9238 78.2192 83.918 78.2402C83.9122 78.2612 83.9019 78.2806 83.8878 78.2973C83.8737 78.3139 83.8561 78.3272 83.8363 78.3364C83.8165 78.3455 83.7949 78.3503 83.7731 78.3503L60.6374 78.3624C60.6019 78.3624 60.5757 78.3466 60.5587 78.3149C60.5543 78.3066 60.5521 78.2975 60.5523 78.2882C60.5525 78.2789 60.5551 78.2698 60.5598 78.2618C60.5645 78.2537 60.5711 78.247 60.5791 78.2423C60.5871 78.2376 60.5962 78.2349 60.6055 78.2347L62.3258 78.1858C62.3343 78.1858 62.3397 78.1867 62.3421 78.1886C62.3473 78.1929 62.3534 78.195 62.3605 78.195C62.5478 78.1898 62.7353 78.186 62.9231 78.1836C63.1948 78.1808 63.4998 78.134 63.7928 78.1318C63.8046 78.1318 63.8106 78.1259 63.8106 78.1141V78.0964C63.8106 78.0949 63.8098 78.0942 63.8084 78.0942C63.3509 78.1006 62.9054 78.0496 62.4442 78.0723C62.2066 78.0836 61.9484 78.0517 61.715 78.0893C61.5767 78.1113 61.4724 78.0843 61.3426 78.0609C61.1836 78.0318 61.0347 78.0701 60.8701 78.0595C60.4686 78.0354 60.3804 77.9843 60.6055 77.9062ZM76.0867 78.0517C76.0702 78.0399 76.051 78.0347 76.0292 78.0361C76.0117 78.037 75.9938 78.0472 75.9753 78.0666C75.9555 78.0869 75.9401 78.1016 75.9292 78.1106C75.8857 78.147 75.8921 78.1647 75.9484 78.1638C76.1905 78.1619 76.4374 78.1697 76.689 78.1872C76.8472 78.1985 77.0217 78.1737 77.1941 78.1893C77.37 78.2059 77.4958 78.2137 77.5715 78.2127C77.8503 78.2085 78.1652 78.2304 78.4064 78.2326C79.8716 78.2435 80.878 78.2425 81.4256 78.2297C82.0405 78.2155 82.5588 78.2153 82.9807 78.229C83.1999 78.2361 83.4269 78.2141 83.6503 78.2141C83.6696 78.2141 83.6884 78.2076 83.7035 78.1958C83.7187 78.184 83.7294 78.1675 83.734 78.1489L83.7411 78.1212C83.7425 78.116 83.7427 78.1105 83.7417 78.1051C83.7406 78.0998 83.7384 78.0948 83.7351 78.0905C83.7318 78.0862 83.7276 78.0827 83.7227 78.0802C83.7179 78.0778 83.7125 78.0765 83.7071 78.0765C83.5997 78.0737 83.4039 78.0607 83.1197 78.0375C82.7927 78.0112 82.4195 78.0616 82.1145 78.0545C80.5193 78.0176 78.9241 78.0202 77.3289 78.0623C77.3213 78.0628 77.3123 78.0609 77.3019 78.0566C77.282 78.0491 77.2615 78.0455 77.2402 78.046L76.1342 78.0673C76.1167 78.0678 76.1009 78.0626 76.0867 78.0517ZM64.2993 78.1113C64.2993 78.1054 64.2782 78.0998 64.2405 78.0957C64.2029 78.0916 64.1518 78.0893 64.0986 78.0893C64.0453 78.0893 63.9943 78.0916 63.9566 78.0957C63.919 78.0998 63.8978 78.1054 63.8978 78.1113C63.8978 78.1171 63.919 78.1227 63.9566 78.1268C63.9943 78.1309 64.0453 78.1333 64.0986 78.1333C64.1518 78.1333 64.2029 78.1309 64.2405 78.1268C64.2782 78.1227 64.2993 78.1171 64.2993 78.1113Z" fill="#020302"/>
<path d="M76.1342 78.0674L77.2402 78.0461C77.2615 78.0457 77.282 78.0492 77.3019 78.0568C77.3123 78.061 77.3213 78.0629 77.3289 78.0625C78.9241 78.0204 80.5193 78.0178 82.1145 78.0547C82.4195 78.0617 82.7927 78.0114 83.1197 78.0376C83.4039 78.0608 83.5997 78.0738 83.7071 78.0766C83.7125 78.0767 83.7178 78.0779 83.7227 78.0804C83.7276 78.0828 83.7318 78.0863 83.7351 78.0906C83.7384 78.0949 83.7406 78.0999 83.7417 78.1053C83.7427 78.1106 83.7425 78.1161 83.7411 78.1213L83.734 78.149C83.7294 78.1676 83.7187 78.1841 83.7035 78.196C83.6884 78.2078 83.6696 78.2142 83.6503 78.2143C83.4269 78.2143 83.1998 78.2363 82.9806 78.2292C82.5588 78.2155 82.0405 78.2157 81.4256 78.2299C80.878 78.2426 79.8716 78.2436 78.4064 78.2327C78.1652 78.2306 77.8503 78.2086 77.5715 78.2128C77.4958 78.2138 77.37 78.206 77.1941 78.1894C77.0217 78.1738 76.8472 78.1987 76.689 78.1873C76.4374 78.1698 76.1905 78.162 75.9484 78.1639C75.8921 78.1648 75.8857 78.1471 75.9292 78.1107C75.9401 78.1017 75.9555 78.087 75.9753 78.0667C75.9938 78.0473 76.0117 78.0372 76.0292 78.0362C76.051 78.0348 76.0701 78.04 76.0867 78.0518C76.1009 78.0627 76.1167 78.0679 76.1342 78.0674Z" fill="#181913"/>
<path d="M64.0986 78.1333C64.2094 78.1333 64.2993 78.1235 64.2993 78.1113C64.2993 78.0992 64.2094 78.0894 64.0986 78.0894C63.9877 78.0894 63.8978 78.0992 63.8978 78.1113C63.8978 78.1235 63.9877 78.1333 64.0986 78.1333Z" fill="#181913"/>
<path d="M47.1999 78.37L29.8558 78.3665C29.8388 78.3504 29.8239 78.3409 29.8112 78.3381C29.7449 78.322 29.744 78.3024 29.8083 78.2792C29.9592 78.2253 30.1216 78.2045 30.2957 78.2168C30.7223 78.2475 31.1484 78.2459 31.574 78.2118C31.7041 78.201 31.8568 78.2026 32.0323 78.2168C32.2006 78.2305 32.3548 78.2281 32.4948 78.2097C32.7396 78.1771 32.985 78.1948 33.1716 78.1905C33.6909 78.1787 34.2101 78.1773 34.7294 78.1863C34.745 78.1863 34.7597 78.1837 34.7734 78.1785C34.789 78.1723 34.8051 78.1695 34.8216 78.17C35.9524 78.1922 36.6784 78.2033 36.9995 78.2033C37.035 78.2033 37.0586 78.2083 37.0704 78.2182C37.5982 78.2182 38.1258 78.2184 38.6531 78.2189C38.7815 78.2189 38.9362 78.1905 39.11 78.2182C39.2455 78.2395 39.3788 78.1842 39.5235 78.2026C39.7236 78.2289 39.935 78.1983 40.1074 78.2069C40.9799 78.2508 41.7028 78.2076 42.4619 78.2196C43.1202 78.2296 43.7783 78.2352 44.4361 78.2367C44.495 78.2367 44.5596 78.2615 44.6255 78.2586C45.3151 78.2307 45.924 78.2263 46.4522 78.2452C46.7157 78.2546 46.9389 78.252 47.1219 78.2374C47.1451 78.2355 47.1657 78.2421 47.1836 78.2572C47.2248 78.2927 47.2302 78.3303 47.1999 78.37Z" fill="#020302"/>
</svg>
